<?xml version="1.0" encoding="UTF-8" standalone="no"?><svg xmlns="http://www.w3.org/2000/svg" xmlns:xlink="http://www.w3.org/1999/xlink" contentScriptType="application/ecmascript" contentStyleType="text/css" height="1189px" preserveAspectRatio="none" style="width:1137px;height:1189px;" version="1.1" viewBox="0 0 1137 1189" width="1137px" zoomAndPan="magnify"><defs><filter height="300%" id="f1tfbtcthj2fnw" width="300%" x="-1" y="-1"><feGaussianBlur result="blurOut" stdDeviation="2.0"/><feColorMatrix in="blurOut" result="blurOut2" type="matrix" values="0 0 0 0 0 0 0 0 0 0 0 0 0 0 0 0 0 0 .4 0"/><feOffset dx="4.0" dy="4.0" in="blurOut2" result="blurOut3"/><feBlend in="SourceGraphic" in2="blurOut3" mode="normal"/></filter></defs><g><!--MD5=[a60570e4b426f702ccbb0d459e3b9417]
cluster models--><polygon fill="#FFFFFF" filter="url(#f1tfbtcthj2fnw)" points="256,6,320,6,327,28.2969,638,28.2969,638,1182,256,1182,256,6" style="stroke:#000000;stroke-width:1.5;"/><line style="stroke:#000000;stroke-width:1.5;" x1="256" x2="327" y1="28.2969" y2="28.2969"/><text fill="#000000" font-family="sans-serif" font-size="14" font-weight="bold" lengthAdjust="spacing" textLength="58" x="260" y="20.9951">models</text><!--MD5=[9563755d011c5cec7ec66dc53565a59e]
class Board--><rect codeLine="6" fill="#FEFECE" filter="url(#f1tfbtcthj2fnw)" height="163.2422" id="Board" style="stroke:#A80036;stroke-width:1.5;" width="276" x="288" y="672"/><ellipse cx="403.75" cy="688" fill="#ADD1B2" rx="11" ry="11" style="stroke:#A80036;stroke-width:1.0;"/><path d="M406.0938,683.6719 C405.1563,683.2344 404.5625,683.0938 403.6875,683.0938 C401.0625,683.0938 399.0625,685.1719 399.0625,687.8906 L399.0625,689.0156 C399.0625,691.5938 401.1719,693.4844 404.0625,693.4844 C405.2813,693.4844 406.4375,693.1875 407.1875,692.6406 C407.7656,692.2344 408.0938,691.7813 408.0938,691.3906 C408.0938,690.9375 407.7031,690.5469 407.2344,690.5469 C407.0156,690.5469 406.8125,690.625 406.625,690.8125 C406.1719,691.2969 406.1719,691.2969 405.9844,691.3906 C405.5625,691.6563 404.875,691.7813 404.1094,691.7813 C402.0625,691.7813 400.7656,690.6875 400.7656,688.9844 L400.7656,687.8906 C400.7656,686.1094 402.0156,684.7969 403.75,684.7969 C404.3281,684.7969 404.9375,684.9531 405.4063,685.2031 C405.8906,685.4844 406.0625,685.7031 406.1563,686.1094 C406.2188,686.5156 406.25,686.6406 406.3906,686.7656 C406.5313,686.9063 406.7656,687.0156 406.9844,687.0156 C407.25,687.0156 407.5156,686.875 407.6875,686.6563 C407.7969,686.5 407.8281,686.3125 407.8281,685.8906 L407.8281,684.4688 C407.8281,684.0313 407.8125,683.9063 407.7188,683.75 C407.5625,683.4844 407.2813,683.3438 406.9844,683.3438 C406.6875,683.3438 406.4844,683.4375 406.2656,683.75 L406.0938,683.6719 Z " fill="#000000"/><text fill="#000000" font-family="sans-serif" font-size="12" lengthAdjust="spacing" textLength="36" x="424.25" y="692.1543">Board</text><line style="stroke:#A80036;stroke-width:1.5;" x1="289" x2="563" y1="704" y2="704"/><line style="stroke:#A80036;stroke-width:1.5;" x1="289" x2="563" y1="712" y2="712"/><polygon fill="#4177AF" points="299,719,295,725,303,725" style="stroke:#1963A0;stroke-width:1.0;"/><text fill="#000000" font-family="sans-serif" font-size="11" lengthAdjust="spacing" textLength="41" x="308" y="726.2104">Board()</text><polygon fill="#4177AF" points="299,731.8047,295,737.8047,303,737.8047" style="stroke:#1963A0;stroke-width:1.0;"/><text fill="#000000" font-family="sans-serif" font-size="11" lengthAdjust="spacing" textLength="38" x="308" y="739.0151">reset()</text><polygon fill="#4177AF" points="299,744.6094,295,750.6094,303,750.6094" style="stroke:#1963A0;stroke-width:1.0;"/><text fill="#000000" font-family="sans-serif" font-size="11" lengthAdjust="spacing" textLength="199" x="308" y="751.8198">movePiece(Coordinate,Coordinate)</text><polygon fill="#4177AF" points="299,757.4141,295,763.4141,303,763.4141" style="stroke:#1963A0;stroke-width:1.0;"/><text fill="#000000" font-family="sans-serif" font-size="11" lengthAdjust="spacing" textLength="168" x="308" y="764.6245">isEmpty(Coordinate): boolean</text><polygon fill="#4177AF" points="299,770.2188,295,776.2188,303,776.2188" style="stroke:#1963A0;stroke-width:1.0;"/><text fill="#000000" font-family="sans-serif" font-size="11" lengthAdjust="spacing" textLength="153" x="308" y="777.4292">putPiece(Coordinate,Piece)</text><polygon fill="#4177AF" points="299,783.0234,295,789.0234,303,789.0234" style="stroke:#1963A0;stroke-width:1.0;"/><text fill="#000000" font-family="sans-serif" font-size="11" lengthAdjust="spacing" textLength="158" x="308" y="790.2339">getPiece(Coordinate): Piece</text><polygon fill="#4177AF" points="299,795.8281,295,801.8281,303,801.8281" style="stroke:#1963A0;stroke-width:1.0;"/><text fill="#000000" font-family="sans-serif" font-size="11" lengthAdjust="spacing" textLength="250" x="308" y="803.0386">getTargetError(Coordinate,Coordinate): Error</text><polygon fill="#4177AF" points="299,808.6328,295,814.6328,303,814.6328" style="stroke:#1963A0;stroke-width:1.0;"/><text fill="#000000" font-family="sans-serif" font-size="11" lengthAdjust="spacing" textLength="146" x="308" y="815.8433">isFinished(Color): boolean</text><polygon fill="#4177AF" points="299,821.4375,295,827.4375,303,827.4375" style="stroke:#1963A0;stroke-width:1.0;"/><text fill="#000000" font-family="sans-serif" font-size="11" lengthAdjust="spacing" textLength="139" x="308" y="828.6479">isWinner(Color): boolean</text><!--MD5=[2eb17d6dbe76bb22ed845e935254e1c9]
class Draught--><rect codeLine="17" fill="#FEFECE" filter="url(#f1tfbtcthj2fnw)" height="60.8047" id="Draught" style="stroke:#A80036;stroke-width:1.5;" width="108" x="275" y="1092.5"/><ellipse cx="303.05" cy="1108.5" fill="#ADD1B2" rx="11" ry="11" style="stroke:#A80036;stroke-width:1.0;"/><path d="M305.3938,1104.1719 C304.4563,1103.7344 303.8625,1103.5938 302.9875,1103.5938 C300.3625,1103.5938 298.3625,1105.6719 298.3625,1108.3906 L298.3625,1109.5156 C298.3625,1112.0938 300.4719,1113.9844 303.3625,1113.9844 C304.5813,1113.9844 305.7375,1113.6875 306.4875,1113.1406 C307.0656,1112.7344 307.3938,1112.2813 307.3938,1111.8906 C307.3938,1111.4375 307.0031,1111.0469 306.5344,1111.0469 C306.3156,1111.0469 306.1125,1111.125 305.925,1111.3125 C305.4719,1111.7969 305.4719,1111.7969 305.2844,1111.8906 C304.8625,1112.1563 304.175,1112.2813 303.4094,1112.2813 C301.3625,1112.2813 300.0656,1111.1875 300.0656,1109.4844 L300.0656,1108.3906 C300.0656,1106.6094 301.3156,1105.2969 303.05,1105.2969 C303.6281,1105.2969 304.2375,1105.4531 304.7063,1105.7031 C305.1906,1105.9844 305.3625,1106.2031 305.4563,1106.6094 C305.5188,1107.0156 305.55,1107.1406 305.6906,1107.2656 C305.8313,1107.4063 306.0656,1107.5156 306.2844,1107.5156 C306.55,1107.5156 306.8156,1107.375 306.9875,1107.1563 C307.0969,1107 307.1281,1106.8125 307.1281,1106.3906 L307.1281,1104.9688 C307.1281,1104.5313 307.1125,1104.4063 307.0188,1104.25 C306.8625,1103.9844 306.5813,1103.8438 306.2844,1103.8438 C305.9875,1103.8438 305.7844,1103.9375 305.5656,1104.25 L305.3938,1104.1719 Z " fill="#000000"/><text fill="#000000" font-family="sans-serif" font-size="12" lengthAdjust="spacing" textLength="47" x="319.95" y="1112.6543">Draught</text><line style="stroke:#A80036;stroke-width:1.5;" x1="276" x2="382" y1="1124.5" y2="1124.5"/><line style="stroke:#A80036;stroke-width:1.5;" x1="276" x2="382" y1="1132.5" y2="1132.5"/><polygon fill="#4177AF" points="286,1139.5,282,1145.5,290,1145.5" style="stroke:#1963A0;stroke-width:1.0;"/><text fill="#000000" font-family="sans-serif" font-size="11" lengthAdjust="spacing" textLength="82" x="295" y="1146.7104">Draught(Color)</text><!--MD5=[b6dcce5e5ef3c84b0b048d11301373dd]
class Game--><rect codeLine="20" fill="#FEFECE" filter="url(#f1tfbtcthj2fnw)" height="163.2422" id="Game" style="stroke:#A80036;stroke-width:1.5;" width="276" x="346" y="41"/><ellipse cx="462.25" cy="57" fill="#ADD1B2" rx="11" ry="11" style="stroke:#A80036;stroke-width:1.0;"/><path d="M464.5938,52.6719 C463.6563,52.2344 463.0625,52.0938 462.1875,52.0938 C459.5625,52.0938 457.5625,54.1719 457.5625,56.8906 L457.5625,58.0156 C457.5625,60.5938 459.6719,62.4844 462.5625,62.4844 C463.7813,62.4844 464.9375,62.1875 465.6875,61.6406 C466.2656,61.2344 466.5938,60.7813 466.5938,60.3906 C466.5938,59.9375 466.2031,59.5469 465.7344,59.5469 C465.5156,59.5469 465.3125,59.625 465.125,59.8125 C464.6719,60.2969 464.6719,60.2969 464.4844,60.3906 C464.0625,60.6563 463.375,60.7813 462.6094,60.7813 C460.5625,60.7813 459.2656,59.6875 459.2656,57.9844 L459.2656,56.8906 C459.2656,55.1094 460.5156,53.7969 462.25,53.7969 C462.8281,53.7969 463.4375,53.9531 463.9063,54.2031 C464.3906,54.4844 464.5625,54.7031 464.6563,55.1094 C464.7188,55.5156 464.75,55.6406 464.8906,55.7656 C465.0313,55.9063 465.2656,56.0156 465.4844,56.0156 C465.75,56.0156 466.0156,55.875 466.1875,55.6563 C466.2969,55.5 466.3281,55.3125 466.3281,54.8906 L466.3281,53.4688 C466.3281,53.0313 466.3125,52.9063 466.2188,52.75 C466.0625,52.4844 465.7813,52.3438 465.4844,52.3438 C465.1875,52.3438 464.9844,52.4375 464.7656,52.75 L464.5938,52.6719 Z " fill="#000000"/><text fill="#000000" font-family="sans-serif" font-size="12" lengthAdjust="spacing" textLength="35" x="482.75" y="61.1543">Game</text><line style="stroke:#A80036;stroke-width:1.5;" x1="347" x2="621" y1="73" y2="73"/><line style="stroke:#A80036;stroke-width:1.5;" x1="347" x2="621" y1="81" y2="81"/><ellipse cx="357" cy="92" fill="#84BE84" rx="3" ry="3" style="stroke:#038048;stroke-width:1.0;"/><text fill="#000000" font-family="sans-serif" font-size="11" lengthAdjust="spacing" textLength="43" x="366" y="95.2104">Game()</text><ellipse cx="357" cy="104.8047" fill="#84BE84" rx="3" ry="3" style="stroke:#038048;stroke-width:1.0;"/><text fill="#000000" font-family="sans-serif" font-size="11" lengthAdjust="spacing" textLength="38" x="366" y="108.0151">reset()</text><ellipse cx="357" cy="117.6094" fill="#84BE84" rx="3" ry="3" style="stroke:#038048;stroke-width:1.0;"/><text fill="#000000" font-family="sans-serif" font-size="11" lengthAdjust="spacing" textLength="195" x="366" y="120.8198">movePiece(Coordinate,Coodinate)</text><ellipse cx="357" cy="130.4141" fill="#84BE84" rx="3" ry="3" style="stroke:#038048;stroke-width:1.0;"/><text fill="#000000" font-family="sans-serif" font-size="11" lengthAdjust="spacing" textLength="181" x="366" y="133.6245">getOriginError(Coordinate): Error</text><ellipse cx="357" cy="143.2188" fill="#84BE84" rx="3" ry="3" style="stroke:#038048;stroke-width:1.0;"/><text fill="#000000" font-family="sans-serif" font-size="11" lengthAdjust="spacing" textLength="250" x="366" y="146.4292">getTargetError(Coordinate,Coordinate): Error</text><ellipse cx="357" cy="156.0234" fill="#84BE84" rx="3" ry="3" style="stroke:#038048;stroke-width:1.0;"/><text fill="#000000" font-family="sans-serif" font-size="11" lengthAdjust="spacing" textLength="117" x="366" y="159.2339">isFinished(): boolean</text><ellipse cx="357" cy="168.8281" fill="#84BE84" rx="3" ry="3" style="stroke:#038048;stroke-width:1.0;"/><text fill="#000000" font-family="sans-serif" font-size="11" lengthAdjust="spacing" textLength="110" x="366" y="172.0386">isWinner(): boolean</text><ellipse cx="357" cy="181.6328" fill="#84BE84" rx="3" ry="3" style="stroke:#038048;stroke-width:1.0;"/><text fill="#000000" font-family="sans-serif" font-size="11" lengthAdjust="spacing" textLength="128" x="366" y="184.8433">getActiveColor(): Color</text><ellipse cx="357" cy="194.4375" fill="#84BE84" rx="3" ry="3" style="stroke:#038048;stroke-width:1.0;"/><text fill="#000000" font-family="sans-serif" font-size="11" lengthAdjust="spacing" textLength="34" x="366" y="197.6479">next()</text><!--MD5=[af29ca247b3a3642f0fb478cea99ef78]
class Pawn--><rect codeLine="31" fill="#FEFECE" filter="url(#f1tfbtcthj2fnw)" height="86.4141" id="Pawn" style="stroke:#A80036;stroke-width:1.5;" width="199" x="418.5" y="1080"/><ellipse cx="498.75" cy="1096" fill="#ADD1B2" rx="11" ry="11" style="stroke:#A80036;stroke-width:1.0;"/><path d="M501.0938,1091.6719 C500.1563,1091.2344 499.5625,1091.0938 498.6875,1091.0938 C496.0625,1091.0938 494.0625,1093.1719 494.0625,1095.8906 L494.0625,1097.0156 C494.0625,1099.5938 496.1719,1101.4844 499.0625,1101.4844 C500.2813,1101.4844 501.4375,1101.1875 502.1875,1100.6406 C502.7656,1100.2344 503.0938,1099.7813 503.0938,1099.3906 C503.0938,1098.9375 502.7031,1098.5469 502.2344,1098.5469 C502.0156,1098.5469 501.8125,1098.625 501.625,1098.8125 C501.1719,1099.2969 501.1719,1099.2969 500.9844,1099.3906 C500.5625,1099.6563 499.875,1099.7813 499.1094,1099.7813 C497.0625,1099.7813 495.7656,1098.6875 495.7656,1096.9844 L495.7656,1095.8906 C495.7656,1094.1094 497.0156,1092.7969 498.75,1092.7969 C499.3281,1092.7969 499.9375,1092.9531 500.4063,1093.2031 C500.8906,1093.4844 501.0625,1093.7031 501.1563,1094.1094 C501.2188,1094.5156 501.25,1094.6406 501.3906,1094.7656 C501.5313,1094.9063 501.7656,1095.0156 501.9844,1095.0156 C502.25,1095.0156 502.5156,1094.875 502.6875,1094.6563 C502.7969,1094.5 502.8281,1094.3125 502.8281,1093.8906 L502.8281,1092.4688 C502.8281,1092.0313 502.8125,1091.9063 502.7188,1091.75 C502.5625,1091.4844 502.2813,1091.3438 501.9844,1091.3438 C501.6875,1091.3438 501.4844,1091.4375 501.2656,1091.75 L501.0938,1091.6719 Z " fill="#000000"/><text fill="#000000" font-family="sans-serif" font-size="12" lengthAdjust="spacing" textLength="30" x="519.25" y="1100.1543">Pawn</text><line style="stroke:#A80036;stroke-width:1.5;" x1="419.5" x2="616.5" y1="1112" y2="1112"/><rect fill="none" height="6" style="stroke:#C82930;stroke-width:1.0;" width="6" x="426.5" y="1120"/><text fill="#000000" font-family="sans-serif" font-size="11" lengthAdjust="spacing" textLength="173" x="438.5" y="1126.2104">MAX_MOVE_DISTANCE: int = 1</text><rect fill="none" height="6" style="stroke:#C82930;stroke-width:1.0;" width="6" x="426.5" y="1132.8047"/><text fill="#000000" font-family="sans-serif" font-size="11" lengthAdjust="spacing" textLength="166" x="438.5" y="1139.0151">MAX_JUMP_DISTANCE: int = 2</text><line style="stroke:#A80036;stroke-width:1.5;" x1="419.5" x2="616.5" y1="1145.6094" y2="1145.6094"/><polygon fill="#4177AF" points="429.5,1152.6094,425.5,1158.6094,433.5,1158.6094" style="stroke:#1963A0;stroke-width:1.0;"/><text fill="#000000" font-family="sans-serif" font-size="11" lengthAdjust="spacing" textLength="66" x="438.5" y="1159.8198">Pawn(Color)</text><!--MD5=[e05bacf3ff4416a0580578814d41bbf6]
class Piece--><rect codeLine="36" fill="#FEFECE" filter="url(#f1tfbtcthj2fnw)" height="124.8281" id="Piece" style="stroke:#A80036;stroke-width:1.5;" width="307" x="272.5" y="895"/><ellipse cx="406.25" cy="911" fill="#A9DCDF" rx="11" ry="11" style="stroke:#A80036;stroke-width:1.0;"/><path d="M408.3281,912.8125 L408.7188,913.7969 L408.3281,913.7969 C407.875,913.7969 407.7656,913.8125 407.6094,913.9219 C407.3594,914.0781 407.2031,914.3594 407.2031,914.6563 C407.2031,914.9219 407.3438,915.1719 407.5625,915.3281 C407.7031,915.4531 407.9063,915.5 408.3281,915.5 L410.6875,915.5 C411.0469,915.5 411.2656,915.4688 411.4063,915.375 C411.6563,915.2344 411.8125,914.9375 411.8125,914.6563 C411.8125,914.375 411.6719,914.125 411.4531,913.9688 C411.2813,913.8281 411.125,913.7969 410.6563,913.7969 L407.2656,905.5938 L403.5938,905.5938 C403.1406,905.5938 403.0156,905.6094 402.8594,905.7031 C402.6094,905.875 402.4531,906.1563 402.4531,906.4375 C402.4531,906.7188 402.5938,906.9688 402.8125,907.1406 C402.9844,907.25 403.1563,907.2813 403.5938,907.2813 L404.6719,907.2813 L402.0313,913.7969 C401.6094,913.7969 401.4531,913.8125 401.2969,913.9219 C401.0469,914.0781 400.8906,914.3594 400.8906,914.6563 C400.8906,915.2188 401.2656,915.5 402.0156,915.5 L404.2813,915.5 C404.6406,915.5 404.8594,915.4688 404.9844,915.375 C405.25,915.2344 405.3906,914.9375 405.3906,914.6563 C405.3906,914.375 405.2656,914.125 405.0469,913.9531 C404.875,913.8281 404.7344,913.7969 404.2813,913.7969 L403.8906,913.7969 L404.2813,912.8125 L408.3281,912.8125 Z M407.625,911.1094 L404.9531,911.1094 L406.2969,907.8438 L407.625,911.1094 Z " fill="#000000"/><text fill="#000000" font-family="sans-serif" font-size="12" font-style="italic" lengthAdjust="spacing" textLength="31" x="426.75" y="915.1543">Piece</text><line style="stroke:#A80036;stroke-width:1.5;" x1="273.5" x2="578.5" y1="927" y2="927"/><line style="stroke:#A80036;stroke-width:1.5;" x1="273.5" x2="578.5" y1="935" y2="935"/><polygon fill="#4177AF" points="283.5,942,279.5,948,287.5,948" style="stroke:#1963A0;stroke-width:1.0;"/><text fill="#000000" font-family="sans-serif" font-size="11" lengthAdjust="spacing" textLength="68" x="292.5" y="949.2104">Piece(Color)</text><polygon fill="#4177AF" points="283.5,954.8047,279.5,960.8047,287.5,960.8047" style="stroke:#1963A0;stroke-width:1.0;"/><text fill="#000000" font-family="sans-serif" font-size="11" lengthAdjust="spacing" textLength="281" x="292.5" y="962.0151">getMoveTargetError(Coordinate,Coordinate): Error</text><polygon fill="#4177AF" points="283.5,967.6094,279.5,973.6094,287.5,973.6094" style="stroke:#1963A0;stroke-width:1.0;"/><text fill="#000000" font-family="sans-serif" font-size="11" lengthAdjust="spacing" textLength="278" x="292.5" y="974.8198">getJumpTargetError(Coordinate,Coordinate): Error</text><polygon fill="#4177AF" points="283.5,980.4141,279.5,986.4141,287.5,986.4141" style="stroke:#1963A0;stroke-width:1.0;"/><text fill="#000000" font-family="sans-serif" font-size="11" lengthAdjust="spacing" textLength="92" x="292.5" y="987.6245">getColor(): Color</text><polygon fill="#FFFF44" points="283.5,992.2188,287.5,996.2188,283.5,1000.2188,279.5,996.2188" style="stroke:#B38D22;stroke-width:1.0;"/><text fill="#000000" font-family="sans-serif" font-size="11" font-style="italic" lengthAdjust="spacing" textLength="267" x="292.5" y="1000.4292">isTooFarMove(Coordinate,Coordinate): boolean</text><polygon fill="#FFFF44" points="283.5,1005.0234,287.5,1009.0234,283.5,1013.0234,279.5,1009.0234" style="stroke:#B38D22;stroke-width:1.0;"/><text fill="#000000" font-family="sans-serif" font-size="11" font-style="italic" lengthAdjust="spacing" textLength="265" x="292.5" y="1013.2339">isTooFarJump(Coordinate,Coordinate): boolean</text><!--MD5=[2cb47ba637a0d19583e6199456f6ad0b]
class Player--><rect codeLine="44" fill="#FEFECE" filter="url(#f1tfbtcthj2fnw)" height="112.0234" id="Player" style="stroke:#A80036;stroke-width:1.5;" width="276" x="346" y="500"/><ellipse cx="461.75" cy="516" fill="#ADD1B2" rx="11" ry="11" style="stroke:#A80036;stroke-width:1.0;"/><path d="M464.0938,511.6719 C463.1563,511.2344 462.5625,511.0938 461.6875,511.0938 C459.0625,511.0938 457.0625,513.1719 457.0625,515.8906 L457.0625,517.0156 C457.0625,519.5938 459.1719,521.4844 462.0625,521.4844 C463.2813,521.4844 464.4375,521.1875 465.1875,520.6406 C465.7656,520.2344 466.0938,519.7813 466.0938,519.3906 C466.0938,518.9375 465.7031,518.5469 465.2344,518.5469 C465.0156,518.5469 464.8125,518.625 464.625,518.8125 C464.1719,519.2969 464.1719,519.2969 463.9844,519.3906 C463.5625,519.6563 462.875,519.7813 462.1094,519.7813 C460.0625,519.7813 458.7656,518.6875 458.7656,516.9844 L458.7656,515.8906 C458.7656,514.1094 460.0156,512.7969 461.75,512.7969 C462.3281,512.7969 462.9375,512.9531 463.4063,513.2031 C463.8906,513.4844 464.0625,513.7031 464.1563,514.1094 C464.2188,514.5156 464.25,514.6406 464.3906,514.7656 C464.5313,514.9063 464.7656,515.0156 464.9844,515.0156 C465.25,515.0156 465.5156,514.875 465.6875,514.6563 C465.7969,514.5 465.8281,514.3125 465.8281,513.8906 L465.8281,512.4688 C465.8281,512.0313 465.8125,511.9063 465.7188,511.75 C465.5625,511.4844 465.2813,511.3438 464.9844,511.3438 C464.6875,511.3438 464.4844,511.4375 464.2656,511.75 L464.0938,511.6719 Z " fill="#000000"/><text fill="#000000" font-family="sans-serif" font-size="12" lengthAdjust="spacing" textLength="36" x="482.25" y="520.1543">Player</text><line style="stroke:#A80036;stroke-width:1.5;" x1="347" x2="621" y1="532" y2="532"/><line style="stroke:#A80036;stroke-width:1.5;" x1="347" x2="621" y1="540" y2="540"/><polygon fill="#4177AF" points="357,547,353,553,361,553" style="stroke:#1963A0;stroke-width:1.0;"/><text fill="#000000" font-family="sans-serif" font-size="11" lengthAdjust="spacing" textLength="108" x="366" y="554.2104">Player(Color,Board)</text><polygon fill="#4177AF" points="357,559.8047,353,565.8047,361,565.8047" style="stroke:#1963A0;stroke-width:1.0;"/><text fill="#000000" font-family="sans-serif" font-size="11" lengthAdjust="spacing" textLength="199" x="366" y="567.0151">movePiece(Coordinate,Coordinate)</text><polygon fill="#4177AF" points="357,572.6094,353,578.6094,361,578.6094" style="stroke:#1963A0;stroke-width:1.0;"/><text fill="#000000" font-family="sans-serif" font-size="11" lengthAdjust="spacing" textLength="181" x="366" y="579.8198">getOriginError(Coordinate): Error</text><polygon fill="#4177AF" points="357,585.4141,353,591.4141,361,591.4141" style="stroke:#1963A0;stroke-width:1.0;"/><text fill="#000000" font-family="sans-serif" font-size="11" lengthAdjust="spacing" textLength="250" x="366" y="592.6245">getTargetError(Coordinate,Coordinate): Error</text><polygon fill="#4177AF" points="357,598.2188,353,604.2188,361,604.2188" style="stroke:#1963A0;stroke-width:1.0;"/><text fill="#000000" font-family="sans-serif" font-size="11" lengthAdjust="spacing" textLength="92" x="366" y="605.4292">getColor(): Color</text><!--MD5=[dd91eae41778c45e12552e5329e240e8]
class Turn--><rect codeLine="51" fill="#FEFECE" filter="url(#f1tfbtcthj2fnw)" height="176.0469" id="Turn" style="stroke:#A80036;stroke-width:1.5;" width="276" x="346" y="264"/><ellipse cx="466.75" cy="280" fill="#ADD1B2" rx="11" ry="11" style="stroke:#A80036;stroke-width:1.0;"/><path d="M469.0938,275.6719 C468.1563,275.2344 467.5625,275.0938 466.6875,275.0938 C464.0625,275.0938 462.0625,277.1719 462.0625,279.8906 L462.0625,281.0156 C462.0625,283.5938 464.1719,285.4844 467.0625,285.4844 C468.2813,285.4844 469.4375,285.1875 470.1875,284.6406 C470.7656,284.2344 471.0938,283.7813 471.0938,283.3906 C471.0938,282.9375 470.7031,282.5469 470.2344,282.5469 C470.0156,282.5469 469.8125,282.625 469.625,282.8125 C469.1719,283.2969 469.1719,283.2969 468.9844,283.3906 C468.5625,283.6563 467.875,283.7813 467.1094,283.7813 C465.0625,283.7813 463.7656,282.6875 463.7656,280.9844 L463.7656,279.8906 C463.7656,278.1094 465.0156,276.7969 466.75,276.7969 C467.3281,276.7969 467.9375,276.9531 468.4063,277.2031 C468.8906,277.4844 469.0625,277.7031 469.1563,278.1094 C469.2188,278.5156 469.25,278.6406 469.3906,278.7656 C469.5313,278.9063 469.7656,279.0156 469.9844,279.0156 C470.25,279.0156 470.5156,278.875 470.6875,278.6563 C470.7969,278.5 470.8281,278.3125 470.8281,277.8906 L470.8281,276.4688 C470.8281,276.0313 470.8125,275.9063 470.7188,275.75 C470.5625,275.4844 470.2813,275.3438 469.9844,275.3438 C469.6875,275.3438 469.4844,275.4375 469.2656,275.75 L469.0938,275.6719 Z " fill="#000000"/><text fill="#000000" font-family="sans-serif" font-size="12" lengthAdjust="spacing" textLength="26" x="487.25" y="284.1543">Turn</text><line style="stroke:#A80036;stroke-width:1.5;" x1="347" x2="621" y1="296" y2="296"/><ellipse cx="357" cy="307" rx="3" ry="3" style="stroke:#038048;stroke-width:1.0;fill:none;"/><text fill="#000000" font-family="sans-serif" font-size="11" lengthAdjust="spacing" text-decoration="underline" textLength="147" x="366" y="310.2104">NUMBER_PLAYERS: int = 2</text><rect fill="none" height="6" style="stroke:#C82930;stroke-width:1.0;" width="6" x="354" y="316.8047"/><text fill="#000000" font-family="sans-serif" font-size="11" lengthAdjust="spacing" textLength="91" x="366" y="323.0151">activePlayer: int</text><line style="stroke:#A80036;stroke-width:1.5;" x1="347" x2="621" y1="329.6094" y2="329.6094"/><polygon fill="#4177AF" points="357,336.6094,353,342.6094,361,342.6094" style="stroke:#1963A0;stroke-width:1.0;"/><text fill="#000000" font-family="sans-serif" font-size="11" lengthAdjust="spacing" textLength="66" x="366" y="343.8198">Turn(Board)</text><polygon fill="#4177AF" points="357,349.4141,353,355.4141,361,355.4141" style="stroke:#1963A0;stroke-width:1.0;"/><text fill="#000000" font-family="sans-serif" font-size="11" lengthAdjust="spacing" textLength="38" x="366" y="356.6245">reset()</text><polygon fill="#4177AF" points="357,362.2188,353,368.2188,361,368.2188" style="stroke:#1963A0;stroke-width:1.0;"/><text fill="#000000" font-family="sans-serif" font-size="11" lengthAdjust="spacing" textLength="34" x="366" y="369.4292">next()</text><polygon fill="#4177AF" points="357,375.0234,353,381.0234,361,381.0234" style="stroke:#1963A0;stroke-width:1.0;"/><text fill="#000000" font-family="sans-serif" font-size="11" lengthAdjust="spacing" textLength="140" x="366" y="382.2339">getActivePlayer(): Player</text><polygon fill="#4177AF" points="357,387.8281,353,393.8281,361,393.8281" style="stroke:#1963A0;stroke-width:1.0;"/><text fill="#000000" font-family="sans-serif" font-size="11" lengthAdjust="spacing" textLength="128" x="366" y="395.0386">getActiveColor(): Color</text><polygon fill="#4177AF" points="357,400.6328,353,406.6328,361,406.6328" style="stroke:#1963A0;stroke-width:1.0;"/><text fill="#000000" font-family="sans-serif" font-size="11" lengthAdjust="spacing" textLength="199" x="366" y="407.8433">movePiece(Coordinate,Coordinate)</text><polygon fill="#4177AF" points="357,413.4375,353,419.4375,361,419.4375" style="stroke:#1963A0;stroke-width:1.0;"/><text fill="#000000" font-family="sans-serif" font-size="11" lengthAdjust="spacing" textLength="181" x="366" y="420.6479">getOriginError(Coordinate): Error</text><polygon fill="#4177AF" points="357,426.2422,353,432.2422,361,432.2422" style="stroke:#1963A0;stroke-width:1.0;"/><text fill="#000000" font-family="sans-serif" font-size="11" lengthAdjust="spacing" textLength="250" x="366" y="433.4526">getTargetError(Coordinate,Coordinate): Error</text><!--MD5=[8c7d7abc12e214c3cc12c9ab70edee11]
class Coordinate--><rect codeLine="1" fill="#FEFECE" filter="url(#f1tfbtcthj2fnw)" height="53.9375" id="Coordinate" style="stroke:#A80036;stroke-width:1.5;" width="98" x="99" y="1096"/><ellipse cx="114" cy="1114.9688" fill="#ADD1B2" rx="11" ry="11" style="stroke:#A80036;stroke-width:1.0;"/><path d="M116.3438,1110.6406 C115.4063,1110.2031 114.8125,1110.0625 113.9375,1110.0625 C111.3125,1110.0625 109.3125,1112.1406 109.3125,1114.8594 L109.3125,1115.9844 C109.3125,1118.5625 111.4219,1120.4531 114.3125,1120.4531 C115.5313,1120.4531 116.6875,1120.1563 117.4375,1119.6094 C118.0156,1119.2031 118.3438,1118.75 118.3438,1118.3594 C118.3438,1117.9063 117.9531,1117.5156 117.4844,1117.5156 C117.2656,1117.5156 117.0625,1117.5938 116.875,1117.7813 C116.4219,1118.2656 116.4219,1118.2656 116.2344,1118.3594 C115.8125,1118.625 115.125,1118.75 114.3594,1118.75 C112.3125,1118.75 111.0156,1117.6563 111.0156,1115.9531 L111.0156,1114.8594 C111.0156,1113.0781 112.2656,1111.7656 114,1111.7656 C114.5781,1111.7656 115.1875,1111.9219 115.6563,1112.1719 C116.1406,1112.4531 116.3125,1112.6719 116.4063,1113.0781 C116.4688,1113.4844 116.5,1113.6094 116.6406,1113.7344 C116.7813,1113.875 117.0156,1113.9844 117.2344,1113.9844 C117.5,1113.9844 117.7656,1113.8438 117.9375,1113.625 C118.0469,1113.4688 118.0781,1113.2813 118.0781,1112.8594 L118.0781,1111.4375 C118.0781,1111 118.0625,1110.875 117.9688,1110.7188 C117.8125,1110.4531 117.5313,1110.3125 117.2344,1110.3125 C116.9375,1110.3125 116.7344,1110.4063 116.5156,1110.7188 L116.3438,1110.6406 Z " fill="#000000"/><text fill="#000000" font-family="sans-serif" font-size="12" lengthAdjust="spacing" textLength="37" x="142.5" y="1112.1387">types.</text><text fill="#000000" font-family="sans-serif" font-size="12" lengthAdjust="spacing" textLength="66" x="128" y="1126.1074">Coordinate</text><line style="stroke:#A80036;stroke-width:1.5;" x1="100" x2="196" y1="1133.9375" y2="1133.9375"/><line style="stroke:#A80036;stroke-width:1.5;" x1="100" x2="196" y1="1141.9375" y2="1141.9375"/><!--MD5=[b8cfd8c4119a3b0a7a46bfc5fc780f85]
class Error--><rect codeLine="2" fill="#FEFECE" filter="url(#f1tfbtcthj2fnw)" height="53.9375" id="Error" style="stroke:#A80036;stroke-width:1.5;" width="69" x="669.5" y="1096"/><ellipse cx="684.5" cy="1114.9688" fill="#EB937F" rx="11" ry="11" style="stroke:#A80036;stroke-width:1.0;"/><path d="M683.2969,1115.8438 L684.75,1115.8438 L684.75,1115.9531 C684.75,1116.3594 684.7813,1116.5156 684.8594,1116.6719 C685.0156,1116.9219 685.2969,1117.0781 685.5938,1117.0781 C685.8438,1117.0781 686.1094,1116.9375 686.2656,1116.7188 C686.3906,1116.5625 686.4219,1116.4063 686.4219,1115.9531 L686.4219,1114.0313 C686.4219,1113.875 686.4219,1113.8281 686.4063,1113.6719 C686.3438,1113.2031 686.0313,1112.8906 685.5781,1112.8906 C685.3281,1112.8906 685.0625,1113.0313 684.8906,1113.25 C684.7813,1113.4219 684.75,1113.5781 684.75,1114.0313 L684.75,1114.1563 L683.2969,1114.1563 L683.2969,1111.75 L687.2813,1111.75 L687.2813,1112.6094 C687.2813,1113.0156 687.3125,1113.1875 687.3906,1113.3438 C687.5625,1113.5938 687.8438,1113.75 688.125,1113.75 C688.3906,1113.75 688.6563,1113.6094 688.8281,1113.3906 C688.9375,1113.2188 688.9688,1113.0781 688.9688,1112.6094 L688.9688,1110.0625 L681.3438,1110.0625 C680.9063,1110.0625 680.7813,1110.0781 680.625,1110.1719 C680.375,1110.3281 680.2188,1110.625 680.2188,1110.9063 C680.2188,1111.1875 680.3594,1111.4375 680.5781,1111.6094 C680.7344,1111.7188 680.9219,1111.75 681.3438,1111.75 L681.5938,1111.75 L681.5938,1118.2656 L681.3438,1118.2656 C680.9375,1118.2656 680.7813,1118.2813 680.625,1118.3906 C680.375,1118.5625 680.2188,1118.8281 680.2188,1119.125 C680.2188,1119.3906 680.3594,1119.6406 680.5781,1119.7969 C680.7188,1119.9219 680.9531,1119.9688 681.3438,1119.9688 L689.3438,1119.9688 L689.3438,1117.3906 C689.3438,1116.9531 689.3125,1116.8125 689.2344,1116.6563 C689.0625,1116.4063 688.7813,1116.25 688.5,1116.25 C688.2344,1116.25 687.9688,1116.3594 687.7969,1116.6094 C687.6875,1116.7656 687.6563,1116.9063 687.6563,1117.3906 L687.6563,1118.2656 L683.2969,1118.2656 L683.2969,1115.8438 Z " fill="#000000"/><text fill="#000000" font-family="sans-serif" font-size="12" lengthAdjust="spacing" textLength="37" x="698.5" y="1112.1387">types.</text><text fill="#000000" font-family="sans-serif" font-size="12" lengthAdjust="spacing" textLength="30" x="702" y="1126.1074">Error</text><line style="stroke:#A80036;stroke-width:1.5;" x1="670.5" x2="737.5" y1="1133.9375" y2="1133.9375"/><line style="stroke:#A80036;stroke-width:1.5;" x1="670.5" x2="737.5" y1="1141.9375" y2="1141.9375"/><!--MD5=[18eee71c88ab61f27581b8cbdd3ef5ee]
class Color--><rect codeLine="3" fill="#FEFECE" filter="url(#f1tfbtcthj2fnw)" height="53.9375" id="Color" style="stroke:#A80036;stroke-width:1.5;" width="69" x="882.5" y="1096"/><ellipse cx="897.5" cy="1114.9688" fill="#EB937F" rx="11" ry="11" style="stroke:#A80036;stroke-width:1.0;"/><path d="M896.2969,1115.8438 L897.75,1115.8438 L897.75,1115.9531 C897.75,1116.3594 897.7813,1116.5156 897.8594,1116.6719 C898.0156,1116.9219 898.2969,1117.0781 898.5938,1117.0781 C898.8438,1117.0781 899.1094,1116.9375 899.2656,1116.7188 C899.3906,1116.5625 899.4219,1116.4063 899.4219,1115.9531 L899.4219,1114.0313 C899.4219,1113.875 899.4219,1113.8281 899.4063,1113.6719 C899.3438,1113.2031 899.0313,1112.8906 898.5781,1112.8906 C898.3281,1112.8906 898.0625,1113.0313 897.8906,1113.25 C897.7813,1113.4219 897.75,1113.5781 897.75,1114.0313 L897.75,1114.1563 L896.2969,1114.1563 L896.2969,1111.75 L900.2813,1111.75 L900.2813,1112.6094 C900.2813,1113.0156 900.3125,1113.1875 900.3906,1113.3438 C900.5625,1113.5938 900.8438,1113.75 901.125,1113.75 C901.3906,1113.75 901.6563,1113.6094 901.8281,1113.3906 C901.9375,1113.2188 901.9688,1113.0781 901.9688,1112.6094 L901.9688,1110.0625 L894.3438,1110.0625 C893.9063,1110.0625 893.7813,1110.0781 893.625,1110.1719 C893.375,1110.3281 893.2188,1110.625 893.2188,1110.9063 C893.2188,1111.1875 893.3594,1111.4375 893.5781,1111.6094 C893.7344,1111.7188 893.9219,1111.75 894.3438,1111.75 L894.5938,1111.75 L894.5938,1118.2656 L894.3438,1118.2656 C893.9375,1118.2656 893.7813,1118.2813 893.625,1118.3906 C893.375,1118.5625 893.2188,1118.8281 893.2188,1119.125 C893.2188,1119.3906 893.3594,1119.6406 893.5781,1119.7969 C893.7188,1119.9219 893.9531,1119.9688 894.3438,1119.9688 L902.3438,1119.9688 L902.3438,1117.3906 C902.3438,1116.9531 902.3125,1116.8125 902.2344,1116.6563 C902.0625,1116.4063 901.7813,1116.25 901.5,1116.25 C901.2344,1116.25 900.9688,1116.3594 900.7969,1116.6094 C900.6875,1116.7656 900.6563,1116.9063 900.6563,1117.3906 L900.6563,1118.2656 L896.2969,1118.2656 L896.2969,1115.8438 Z " fill="#000000"/><text fill="#000000" font-family="sans-serif" font-size="12" lengthAdjust="spacing" textLength="37" x="911.5" y="1112.1387">types.</text><text fill="#000000" font-family="sans-serif" font-size="12" lengthAdjust="spacing" textLength="32" x="914" y="1126.1074">Color</text><line style="stroke:#A80036;stroke-width:1.5;" x1="883.5" x2="950.5" y1="1133.9375" y2="1133.9375"/><line style="stroke:#A80036;stroke-width:1.5;" x1="883.5" x2="950.5" y1="1141.9375" y2="1141.9375"/><!--MD5=[15c8f9ca3aac13d865864b4eb5314ef1]
link Game to Board--><path codeLine="65" d="M364.4206,212.7352 C364.4206,212.7352 337.017,245.945 328,264 C258.769,402.622 253.67,466.519 307,612 C313.347,629.314 322.876,645.959 333.831,661.357 " fill="none" id="Game-Board" style="stroke:#A80036;stroke-width:1.0;"/><polygon fill="#A80036" points="341.621,671.812,339.4512,662.2051,338.6336,667.8026,333.0361,666.985,341.621,671.812" style="stroke:#A80036;stroke-width:1.0;"/><line style="stroke:#A80036;stroke-width:1.0;" x1="338.6336" x2="333.8535" y1="667.8026" y2="661.3875"/><polygon fill="#A80036" points="372.697,204.046,365.6624,205.6318,364.4206,212.7352,371.4552,211.1494,372.697,204.046" style="stroke:#A80036;stroke-width:1.0;"/><!--MD5=[b9f1e39ad85d50fe6f3a071a4341c320]
link Game to Turn--><path codeLine="66" d="M484,216.028 C484,216.028 484,239.366 484,250.344 " fill="none" id="Game-Turn" style="stroke:#A80036;stroke-width:1.0;"/><polygon fill="#A80036" points="484,263.624,488,254.624,484,258.624,480,254.624,484,263.624" style="stroke:#A80036;stroke-width:1.0;"/><line style="stroke:#A80036;stroke-width:1.0;" x1="484" x2="484" y1="258.624" y2="250.624"/><polygon fill="#A80036" points="484,204.028,480,210.028,484,216.028,488,210.028,484,204.028" style="stroke:#A80036;stroke-width:1.0;"/><!--MD5=[295aaab17fef59709c46fa2096eacc09]
link Game to Color--><path codeLine="67" d="M622.104,135.25 C726.672,150.37 868.767,184.95 968,264 C1083.78,356.231 1130,406.976 1130,555 C1130,555 1130,555 1130,754.5 C1130,896.654 1009.23,1033.1 949.566,1091.831 " fill="none" id="Game-to-Color" style="stroke:#A80036;stroke-width:1.0;stroke-dasharray:7.0,7.0;"/><polygon fill="#A80036" points="945.726,1095.587,954.9578,1092.1557,949.3013,1092.0917,949.3653,1086.4352,945.726,1095.587" style="stroke:#A80036;stroke-width:1.0;"/><!--MD5=[1a0cf06120a956b80e7a42bb075f06c6]
link Game to Error--><path codeLine="68" d="M622.093,160.75 C792.218,216.012 1059,337.364 1059,555 C1059,555 1059,555 1059,754.5 C1059,934.642 835.618,1060.236 743.25,1104.4694 " fill="none" id="Game-to-Error" style="stroke:#A80036;stroke-width:1.0;stroke-dasharray:7.0,7.0;"/><polygon fill="#A80036" points="738.685,1106.6399,748.5306,1106.3874,743.2005,1104.4927,745.0951,1099.1626,738.685,1106.6399" style="stroke:#A80036;stroke-width:1.0;"/><!--MD5=[38c50a8ee4193cef2ba89eed25959423]
link Game to Coordinate--><path codeLine="69" d="M345.743,178.38 C204.571,244.602 6,370.534 6,555 C6,555 6,555 6,754.5 C6,887.424 87.8304,1030.316 127.252,1091.441 " fill="none" id="Game-to-Coordinate" style="stroke:#A80036;stroke-width:1.0;stroke-dasharray:7.0,7.0;"/><polygon fill="#A80036" points="130.016,1095.7,128.4728,1085.9728,127.2945,1091.5056,121.7617,1090.3272,130.016,1095.7" style="stroke:#A80036;stroke-width:1.0;"/><!--MD5=[aeb9c8b6d1fa4b3f4e931948f58ad7cf]
link Turn to Board--><path codeLine="70" d="M360.3973,449.1589 C360.3973,449.1589 335.744,482.063 328,500 C308.27,545.701 313.075,564.513 328,612 C333.274,628.78 341.342,645.306 350.631,660.8 " fill="none" id="Turn-Board" style="stroke:#A80036;stroke-width:1.0;"/><polygon fill="#A80036" points="357.589,671.888,356.1933,662.1385,354.9313,667.6528,349.417,666.3909,357.589,671.888" style="stroke:#A80036;stroke-width:1.0;"/><line style="stroke:#A80036;stroke-width:1.0;" x1="354.9313" x2="350.679" y1="667.6528" y2="660.8765"/><polygon fill="#A80036" points="368.305,440.133,361.3425,442.0101,360.3973,449.1589,367.3598,447.2819,368.305,440.133" style="stroke:#A80036;stroke-width:1.0;"/><!--MD5=[d81713d91ad05be3b975338c4816ee0b]
link Turn to Player--><path codeLine="71" d="M484,452.132 C484,452.132 484,476.006 484,486.705 " fill="none" id="Turn-Player" style="stroke:#A80036;stroke-width:1.0;"/><polygon fill="#A80036" points="484,499.92,488,490.92,484,494.92,480,490.92,484,499.92" style="stroke:#A80036;stroke-width:1.0;"/><line style="stroke:#A80036;stroke-width:1.0;" x1="484" x2="484" y1="494.92" y2="486.92"/><polygon fill="#A80036" points="484,440.132,480,446.132,484,452.132,488,446.132,484,440.132" style="stroke:#A80036;stroke-width:1.0;"/><text fill="#000000" font-family="sans-serif" font-size="13" lengthAdjust="spacing" textLength="7" x="476.5516" y="488.8477">*</text><!--MD5=[154f2bb56f79ee09018871fe08a1e8f9]
link Turn to Color--><path codeLine="72" d="M622.122,437.535 C645.742,456.105 668.567,477.133 687,500 C840.502,690.433 897.629,993.163 912.623,1090.654 " fill="none" id="Turn-to-Color" style="stroke:#A80036;stroke-width:1.0;stroke-dasharray:7.0,7.0;"/><polygon fill="#A80036" points="913.388,1095.688,915.9899,1086.189,912.6365,1090.7448,908.0808,1087.3914,913.388,1095.688" style="stroke:#A80036;stroke-width:1.0;"/><!--MD5=[74ae5aa521755cf95c5d32f28dcac0ae]
link Turn to Error--><path codeLine="73" d="M594.414,440.012 C611.639,458.149 627.508,478.388 639,500 C746.813,702.753 720.848,995.044 708.563,1090.532 " fill="none" id="Turn-to-Error" style="stroke:#A80036;stroke-width:1.0;stroke-dasharray:7.0,7.0;"/><polygon fill="#A80036" points="707.882,1095.734,713.0155,1087.3288,708.5305,1090.7762,705.083,1086.2912,707.882,1095.734" style="stroke:#A80036;stroke-width:1.0;"/><!--MD5=[781d98dc8236ff72985a20e2d8f79439]
link Turn to Coordinate--><path codeLine="74" d="M364.742,440.324 C296.625,497.715 217.186,579.21 178,672 C116.274,818.162 133.47,1014.883 143.321,1090.545 " fill="none" id="Turn-to-Coordinate" style="stroke:#A80036;stroke-width:1.0;stroke-dasharray:7.0,7.0;"/><polygon fill="#A80036" points="144.016,1095.781,146.7959,1086.3326,143.3575,1090.8245,138.8656,1087.3862,144.016,1095.781" style="stroke:#A80036;stroke-width:1.0;"/><!--MD5=[c1f7e88598f78d9459764ed93737eb14]
link Player to Board--><path codeLine="75" d="M464.1983,623.7432 C464.1983,623.7432 457.115,647.62 453.658,659.275 " fill="none" id="Player-Board" style="stroke:#A80036;stroke-width:1.0;"/><polygon fill="#A80036" points="449.925,671.856,456.3194,664.3653,451.347,667.0625,448.6498,662.09,449.925,671.856" style="stroke:#A80036;stroke-width:1.0;"/><line style="stroke:#A80036;stroke-width:1.0;" x1="451.347" x2="453.623" y1="667.0625" y2="659.393"/><polygon fill="#A80036" points="467.612,612.239,462.0704,616.8532,464.1983,623.7432,469.7399,619.129,467.612,612.239" style="stroke:#A80036;stroke-width:1.0;"/><!--MD5=[ebf52a6f230ff8b0d594dd9ce4cd7c5b]
link Player to Color--><path codeLine="76" d="M581.3094,619.1664 C581.3094,619.1664 623.669,653.186 641,672 C764.018,805.547 861.929,1001.9 899.917,1083.867 " fill="none" id="Player-Color" style="stroke:#A80036;stroke-width:1.0;"/><polygon fill="#A80036" points="905.392,1095.788,905.2709,1085.9399,903.3053,1091.2443,898.0009,1089.2786,905.392,1095.788" style="stroke:#A80036;stroke-width:1.0;"/><line style="stroke:#A80036;stroke-width:1.0;" x1="903.3053" x2="899.966" y1="1091.2443" y2="1083.974"/><polygon fill="#A80036" points="571.665,612.026,574.1071,618.811,581.3094,619.1664,578.8673,612.3814,571.665,612.026" style="stroke:#A80036;stroke-width:1.0;"/><!--MD5=[6a5e5ab91397f297ac76a8e3e1d7e63e]
link Player to Coordinate--><path codeLine="77" d="M337.4627,618.0992 C337.4627,618.0992 288.753,651.234 270,672 C162.083,791.506 148.215,997.002 147.396,1082.692 " fill="none" id="Player-Coordinate" style="stroke:#A80036;stroke-width:1.0;"/><polygon fill="#A80036" points="147.367,1095.853,151.3878,1086.8623,147.3785,1090.853,143.3878,1086.8438,147.367,1095.853" style="stroke:#A80036;stroke-width:1.0;"/><line style="stroke:#A80036;stroke-width:1.0;" x1="147.3785" x2="147.396" y1="1090.853" y2="1082.8535"/><polygon fill="#A80036" points="347.803,612.01,340.6031,611.6078,337.4627,618.0992,344.6626,618.5014,347.803,612.01" style="stroke:#A80036;stroke-width:1.0;"/><!--MD5=[01a9a67b785efa17a0e591fde2682c2c]
link Player to Error--><path codeLine="78" d="M545.2766,621.2883 C545.2766,621.2883 571.211,654.767 581,672 C659.655,810.468 690.046,1001.698 699.913,1082.954 " fill="none" id="Player-Error" style="stroke:#A80036;stroke-width:1.0;"/><polygon fill="#A80036" points="701.424,1095.921,704.3546,1086.5182,700.8448,1090.9547,696.4084,1087.4449,701.424,1095.921" style="stroke:#A80036;stroke-width:1.0;"/><line style="stroke:#A80036;stroke-width:1.0;" x1="700.8448" x2="699.919" y1="1090.9547" y2="1083.008"/><polygon fill="#A80036" points="537.557,612.101,538.3544,619.2679,545.2766,621.2883,544.4793,614.1215,537.557,612.101" style="stroke:#A80036;stroke-width:1.0;"/><!--MD5=[0a810b5c09181f50bb8c28d8cc6d44bf]
link Board to Piece--><path codeLine="79" d="M426,847.207 C426,847.207 426,870.955 426,881.859 " fill="none" id="Board-Piece" style="stroke:#A80036;stroke-width:1.0;"/><polygon fill="#A80036" points="426,894.904,430,885.904,426,889.904,422,885.904,426,894.904" style="stroke:#A80036;stroke-width:1.0;"/><line style="stroke:#A80036;stroke-width:1.0;" x1="426" x2="426" y1="889.904" y2="881.904"/><polygon fill="#A80036" points="426,835.207,422,841.207,426,847.207,430,841.207,426,835.207" style="stroke:#A80036;stroke-width:1.0;"/><text fill="#000000" font-family="sans-serif" font-size="13" lengthAdjust="spacing" textLength="7" x="418.5953" y="883.8837">*</text><!--MD5=[e8e56f95b2bfb8e03c3cdf9f0e0c50ee]
link Board to Color--><path codeLine="80" d="M564.144,832.719 C595.679,852.055 628.557,873.439 658,895 C745.741,959.254 839.547,1046.794 886.508,1092.095 " fill="none" id="Board-to-Color" style="stroke:#A80036;stroke-width:1.0;stroke-dasharray:7.0,7.0;"/><polygon fill="#A80036" points="890.356,1095.814,886.665,1086.6829,886.761,1092.339,881.1049,1092.4349,890.356,1095.814" style="stroke:#A80036;stroke-width:1.0;"/><!--MD5=[7f34f2d425e9b3ee5350efe269b05f59]
link Board to Error--><path codeLine="81" d="M539.017,835.24 C559.908,853.374 580.355,873.629 597,895 C645.433,957.182 678.848,1044.84 694.284,1090.915 " fill="none" id="Board-to-Error" style="stroke:#A80036;stroke-width:1.0;stroke-dasharray:7.0,7.0;"/><polygon fill="#A80036" points="695.899,1095.783,696.8619,1085.9813,694.3247,1091.0373,689.2687,1088.5002,695.899,1095.783" style="stroke:#A80036;stroke-width:1.0;"/><!--MD5=[a416983a2bb8ca1c26830059e75eb56a]
link Board to Coordinate--><path codeLine="82" d="M312.983,835.24 C292.092,853.374 271.645,873.629 255,895 C206.567,957.182 173.152,1044.84 157.716,1090.915 " fill="none" id="Board-to-Coordinate" style="stroke:#A80036;stroke-width:1.0;stroke-dasharray:7.0,7.0;"/><polygon fill="#A80036" points="156.101,1095.783,162.7313,1088.5002,157.6753,1091.0373,155.1381,1085.9813,156.101,1095.783" style="stroke:#A80036;stroke-width:1.0;"/><!--MD5=[9f812a98cb9947e5b96a7c66f6bc972c]
reverse link Piece to Pawn--><path codeLine="83" d="M470.656,1037.862 C478.832,1052.391 487.064,1067.022 494.319,1079.915 " fill="none" id="Piece-backto-Pawn" style="stroke:#A80036;stroke-width:1.0;"/><polygon fill="none" points="464.489,1041.175,460.781,1020.312,476.69,1034.31,464.489,1041.175" style="stroke:#A80036;stroke-width:1.0;"/><!--MD5=[febb3c65f0f81ddd882798a5920e5b3b]
reverse link Piece to Draught--><path codeLine="84" d="M379.067,1037.609 C367.532,1057.052 355.879,1076.694 346.721,1092.13 " fill="none" id="Piece-backto-Draught" style="stroke:#A80036;stroke-width:1.0;"/><polygon fill="none" points="373.103,1033.941,389.328,1020.312,385.144,1041.085,373.103,1033.941" style="stroke:#A80036;stroke-width:1.0;"/><!--MD5=[2f378bb2f56593d68624f1790be1dbac]
link Piece to Color--><path codeLine="85" d="M591.0574,1013.4632 C591.0574,1013.4632 806.214,1085.109 869.762,1106.2701 " fill="none" id="Piece-Color" style="stroke:#A80036;stroke-width:1.0;"/><polygon fill="#A80036" points="882.122,1110.3857,874.8467,1103.7472,877.3781,1108.806,872.3192,1111.3374,882.122,1110.3857" style="stroke:#A80036;stroke-width:1.0;"/><line style="stroke:#A80036;stroke-width:1.0;" x1="877.3781" x2="869.7875" y1="1108.806" y2="1106.2784"/><polygon fill="#A80036" points="579.672,1009.672,584.101,1015.3627,591.0574,1013.4632,586.6284,1007.7725,579.672,1009.672" style="stroke:#A80036;stroke-width:1.0;"/><!--MD5=[1e2494d8088e8325b82dc27f729115d1]
link Piece to Error--><path codeLine="86" d="M535.778,1020.131 C568.822,1039.027 605.051,1060.089 638,1080 C646.791,1085.312 656.147,1091.151 664.968,1096.742 " fill="none" id="Piece-to-Error" style="stroke:#A80036;stroke-width:1.0;stroke-dasharray:7.0,7.0;"/><polygon fill="#A80036" points="669.251,1099.4631,663.7993,1091.2607,665.0307,1096.7819,659.5094,1098.0132,669.251,1099.4631" style="stroke:#A80036;stroke-width:1.0;"/><!--MD5=[b4959b525b7941d4ea3e671641ece602]
link Piece to Coordinate--><path codeLine="87" d="M321.296,1020.079 C278.579,1045.203 231.252,1073.037 196.865,1093.261 " fill="none" id="Piece-to-Coordinate" style="stroke:#A80036;stroke-width:1.0;stroke-dasharray:7.0,7.0;"/><polygon fill="#A80036" points="192.313,1095.938,202.0987,1094.8243,196.6231,1093.4036,198.0437,1087.9281,192.313,1095.938" style="stroke:#A80036;stroke-width:1.0;"/><!--MD5=[cf3472800693fdbd824446a866a59469]
@startuml
class Coordinate as "types.\nCoordinate"
enum Error as "types.\nError"
enum Color as "types.\nColor"

package models{
    class Board{
        ~ Board()
        ~ reset()
        ~ movePiece(Coordinate,Coordinate)
        ~ isEmpty(Coordinate): boolean
        ~ putPiece(Coordinate,Piece)
        ~ getPiece(Coordinate): Piece
        ~ getTargetError(Coordinate,Coordinate): Error
        ~ isFinished(Color): boolean
        ~ isWinner(Color): boolean
    }
    class Draught{
        ~ Draught(Color)
    }
    class Game{
        + Game()
        + reset()
        + movePiece(Coordinate,Coodinate)
        + getOriginError(Coordinate): Error
        + getTargetError(Coordinate,Coordinate): Error
        + isFinished(): boolean
        + isWinner(): boolean
        + getActiveColor(): Color
        + next()
    }
    class Pawn{
        - MAX_MOVE_DISTANCE: int = 1
        - MAX_JUMP_DISTANCE: int = 2
        ~ Pawn(Color)
    }
    abstract class Piece{
        ~ Piece(Color)
        ~ getMoveTargetError(Coordinate,Coordinate): Error
        ~ getJumpTargetError(Coordinate,Coordinate): Error
        ~ getColor(): Color
        # {abstract} isTooFarMove(Coordinate,Coordinate): boolean
        # {abstract} isTooFarJump(Coordinate,Coordinate): boolean
    } 
    class Player{
        ~ Player(Color,Board)
        ~ movePiece(Coordinate,Coordinate)
        ~ getOriginError(Coordinate): Error
        ~ getTargetError(Coordinate,Coordinate): Error
        ~ getColor(): Color
    } 
    class Turn{
        + {static} NUMBER_PLAYERS: int = 2
        - activePlayer: int
        ~ Turn(Board)
        ~ reset()
        ~ next()
        ~ getActivePlayer(): Player
        ~ getActiveColor(): Color
        ~ movePiece(Coordinate,Coordinate)
        ~ getOriginError(Coordinate): Error
        ~ getTargetError(Coordinate,Coordinate): Error
    }
}

Game *-down-> Board
Game *-down-> Turn
Game .down.> Color
Game .down.> Error
Game .down.> Coordinate
Turn *-down-> Board
Turn *-down-> "*" Player
Turn .down.> Color
Turn .down.> Error
Turn .down.> Coordinate
Player *-down-> Board
Player *-down-> Color
Player *-down-> Coordinate
Player *-down-> Error
Board *-down-> "*" Piece
Board .down.> Color
Board .down.> Error
Board .down.> Coordinate
Piece <|-down- Pawn
Piece <|-down- Draught
Piece *-down-> Color
Piece .down.> Error
Piece .down.> Coordinate
@enduml

PlantUML version 1.2021.4beta1(Unknown compile time)
(GPL source distribution)
Java Runtime: Java(TM) SE Runtime Environment
JVM: Java HotSpot(TM) 64-Bit Server VM
Default Encoding: UTF-8
Language: en
Country: US
--></g></svg>