<?xml version="1.0" encoding="UTF-8" standalone="no"?><svg xmlns="http://www.w3.org/2000/svg" xmlns:xlink="http://www.w3.org/1999/xlink" contentScriptType="application/ecmascript" contentStyleType="text/css" height="440px" preserveAspectRatio="none" style="width:877px;height:440px;" version="1.1" viewBox="0 0 877 440" width="877px" zoomAndPan="magnify"><defs><filter height="300%" id="f12vlpagvzg4v" width="300%" x="-1" y="-1"><feGaussianBlur result="blurOut" stdDeviation="2.0"/><feColorMatrix in="blurOut" result="blurOut2" type="matrix" values="0 0 0 0 0 0 0 0 0 0 0 0 0 0 0 0 0 0 .4 0"/><feOffset dx="4.0" dy="4.0" in="blurOut2" result="blurOut3"/><feBlend in="SourceGraphic" in2="blurOut3" mode="normal"/></filter></defs><g><!--MD5=[f4e70ef68289585296b9045165e58692]
cluster controllers--><polygon fill="#FFFFFF" filter="url(#f12vlpagvzg4v)" points="16,6,111,6,118,28.2969,714,28.2969,714,329,16,329,16,6" style="stroke:#000000;stroke-width:1.5;"/><line style="stroke:#000000;stroke-width:1.5;" x1="16" x2="118" y1="28.2969" y2="28.2969"/><text fill="#000000" font-family="sans-serif" font-size="14" font-weight="bold" lengthAdjust="spacing" textLength="89" x="20" y="20.9951">controllers</text><!--MD5=[1d7ba1c7002d54515419844fbd155368]
class Controller--><rect codeLine="7" fill="#FEFECE" filter="url(#f12vlpagvzg4v)" height="73.6094" id="Controller" style="stroke:#A80036;stroke-width:1.5;" width="180" x="518" y="41"/><ellipse cx="574.75" cy="57" fill="#A9DCDF" rx="11" ry="11" style="stroke:#A80036;stroke-width:1.0;"/><path d="M576.8281,58.8125 L577.2188,59.7969 L576.8281,59.7969 C576.375,59.7969 576.2656,59.8125 576.1094,59.9219 C575.8594,60.0781 575.7031,60.3594 575.7031,60.6563 C575.7031,60.9219 575.8438,61.1719 576.0625,61.3281 C576.2031,61.4531 576.4063,61.5 576.8281,61.5 L579.1875,61.5 C579.5469,61.5 579.7656,61.4688 579.9063,61.375 C580.1563,61.2344 580.3125,60.9375 580.3125,60.6563 C580.3125,60.375 580.1719,60.125 579.9531,59.9688 C579.7813,59.8281 579.625,59.7969 579.1563,59.7969 L575.7656,51.5938 L572.0938,51.5938 C571.6406,51.5938 571.5156,51.6094 571.3594,51.7031 C571.1094,51.875 570.9531,52.1563 570.9531,52.4375 C570.9531,52.7188 571.0938,52.9688 571.3125,53.1406 C571.4844,53.25 571.6563,53.2813 572.0938,53.2813 L573.1719,53.2813 L570.5313,59.7969 C570.1094,59.7969 569.9531,59.8125 569.7969,59.9219 C569.5469,60.0781 569.3906,60.3594 569.3906,60.6563 C569.3906,61.2188 569.7656,61.5 570.5156,61.5 L572.7813,61.5 C573.1406,61.5 573.3594,61.4688 573.4844,61.375 C573.75,61.2344 573.8906,60.9375 573.8906,60.6563 C573.8906,60.375 573.7656,60.125 573.5469,59.9531 C573.375,59.8281 573.2344,59.7969 572.7813,59.7969 L572.3906,59.7969 L572.7813,58.8125 L576.8281,58.8125 Z M576.125,57.1094 L573.4531,57.1094 L574.7969,53.8438 L576.125,57.1094 Z " fill="#000000"/><text fill="#000000" font-family="sans-serif" font-size="12" font-style="italic" lengthAdjust="spacing" textLength="58" x="595.25" y="61.1543">Controller</text><line style="stroke:#A80036;stroke-width:1.5;" x1="519" x2="697" y1="73" y2="73"/><line style="stroke:#A80036;stroke-width:1.5;" x1="519" x2="697" y1="81" y2="81"/><polygon fill="#4177AF" points="529,88,525,94,533,94" style="stroke:#1963A0;stroke-width:1.0;"/><text fill="#000000" font-family="sans-serif" font-size="11" lengthAdjust="spacing" textLength="98" x="538" y="95.2104">Controller(Game)</text><ellipse cx="529" cy="104.8047" fill="#84BE84" rx="3" ry="3" style="stroke:#038048;stroke-width:1.0;"/><text fill="#000000" font-family="sans-serif" font-size="11" lengthAdjust="spacing" textLength="154" x="538" y="108.0151">getColor(Coordinate): Color</text><!--MD5=[47c371471411cfedeee61b1a5bdaee47]
class StartController--><rect codeLine="11" fill="#FEFECE" filter="url(#f12vlpagvzg4v)" height="60.8047" id="StartController" style="stroke:#A80036;stroke-width:1.5;" width="151" x="32.5" y="213.5"/><ellipse cx="61.9" cy="229.5" fill="#ADD1B2" rx="11" ry="11" style="stroke:#A80036;stroke-width:1.0;"/><path d="M64.2438,225.1719 C63.3063,224.7344 62.7125,224.5938 61.8375,224.5938 C59.2125,224.5938 57.2125,226.6719 57.2125,229.3906 L57.2125,230.5156 C57.2125,233.0938 59.3219,234.9844 62.2125,234.9844 C63.4313,234.9844 64.5875,234.6875 65.3375,234.1406 C65.9156,233.7344 66.2438,233.2813 66.2438,232.8906 C66.2438,232.4375 65.8531,232.0469 65.3844,232.0469 C65.1656,232.0469 64.9625,232.125 64.775,232.3125 C64.3219,232.7969 64.3219,232.7969 64.1344,232.8906 C63.7125,233.1563 63.025,233.2813 62.2594,233.2813 C60.2125,233.2813 58.9156,232.1875 58.9156,230.4844 L58.9156,229.3906 C58.9156,227.6094 60.1656,226.2969 61.9,226.2969 C62.4781,226.2969 63.0875,226.4531 63.5563,226.7031 C64.0406,226.9844 64.2125,227.2031 64.3063,227.6094 C64.3688,228.0156 64.4,228.1406 64.5406,228.2656 C64.6813,228.4063 64.9156,228.5156 65.1344,228.5156 C65.4,228.5156 65.6656,228.375 65.8375,228.1563 C65.9469,228 65.9781,227.8125 65.9781,227.3906 L65.9781,225.9688 C65.9781,225.5313 65.9625,225.4063 65.8688,225.25 C65.7125,224.9844 65.4313,224.8438 65.1344,224.8438 C64.8375,224.8438 64.6344,224.9375 64.4156,225.25 L64.2438,225.1719 Z " fill="#000000"/><text fill="#000000" font-family="sans-serif" font-size="12" lengthAdjust="spacing" textLength="87" x="79.1" y="233.6543">StartController</text><line style="stroke:#A80036;stroke-width:1.5;" x1="33.5" x2="182.5" y1="245.5" y2="245.5"/><line style="stroke:#A80036;stroke-width:1.5;" x1="33.5" x2="182.5" y1="253.5" y2="253.5"/><ellipse cx="43.5" cy="264.5" fill="#84BE84" rx="3" ry="3" style="stroke:#038048;stroke-width:1.0;"/><text fill="#000000" font-family="sans-serif" font-size="11" lengthAdjust="spacing" textLength="125" x="52.5" y="267.7104">StartController(Game)</text><!--MD5=[5ef47068686cbc3d08b5e63eae6891e4]
class MovePieceController--><rect codeLine="14" fill="#FEFECE" filter="url(#f12vlpagvzg4v)" height="137.6328" id="MovePieceController" style="stroke:#A80036;stroke-width:1.5;" width="272" x="219" y="175"/><ellipse cx="288.75" cy="191" fill="#ADD1B2" rx="11" ry="11" style="stroke:#A80036;stroke-width:1.0;"/><path d="M291.0938,186.6719 C290.1563,186.2344 289.5625,186.0938 288.6875,186.0938 C286.0625,186.0938 284.0625,188.1719 284.0625,190.8906 L284.0625,192.0156 C284.0625,194.5938 286.1719,196.4844 289.0625,196.4844 C290.2813,196.4844 291.4375,196.1875 292.1875,195.6406 C292.7656,195.2344 293.0938,194.7813 293.0938,194.3906 C293.0938,193.9375 292.7031,193.5469 292.2344,193.5469 C292.0156,193.5469 291.8125,193.625 291.625,193.8125 C291.1719,194.2969 291.1719,194.2969 290.9844,194.3906 C290.5625,194.6563 289.875,194.7813 289.1094,194.7813 C287.0625,194.7813 285.7656,193.6875 285.7656,191.9844 L285.7656,190.8906 C285.7656,189.1094 287.0156,187.7969 288.75,187.7969 C289.3281,187.7969 289.9375,187.9531 290.4063,188.2031 C290.8906,188.4844 291.0625,188.7031 291.1563,189.1094 C291.2188,189.5156 291.25,189.6406 291.3906,189.7656 C291.5313,189.9063 291.7656,190.0156 291.9844,190.0156 C292.25,190.0156 292.5156,189.875 292.6875,189.6563 C292.7969,189.5 292.8281,189.3125 292.8281,188.8906 L292.8281,187.4688 C292.8281,187.0313 292.8125,186.9063 292.7188,186.75 C292.5625,186.4844 292.2813,186.3438 291.9844,186.3438 C291.6875,186.3438 291.4844,186.4375 291.2656,186.75 L291.0938,186.6719 Z " fill="#000000"/><text fill="#000000" font-family="sans-serif" font-size="12" lengthAdjust="spacing" textLength="124" x="309.25" y="195.1543">MovePieceController</text><line style="stroke:#A80036;stroke-width:1.5;" x1="220" x2="490" y1="207" y2="207"/><line style="stroke:#A80036;stroke-width:1.5;" x1="220" x2="490" y1="215" y2="215"/><ellipse cx="230" cy="226" fill="#84BE84" rx="3" ry="3" style="stroke:#038048;stroke-width:1.0;"/><text fill="#000000" font-family="sans-serif" font-size="11" lengthAdjust="spacing" textLength="121" x="239" y="229.2104">PlayController(Game)</text><ellipse cx="230" cy="238.8047" fill="#84BE84" rx="3" ry="3" style="stroke:#038048;stroke-width:1.0;"/><text fill="#000000" font-family="sans-serif" font-size="11" lengthAdjust="spacing" textLength="117" x="239" y="242.0151">isFinished(): boolean</text><ellipse cx="230" cy="251.6094" fill="#84BE84" rx="3" ry="3" style="stroke:#038048;stroke-width:1.0;"/><text fill="#000000" font-family="sans-serif" font-size="11" lengthAdjust="spacing" textLength="110" x="239" y="254.8198">isWinner(): boolean</text><ellipse cx="230" cy="264.4141" fill="#84BE84" rx="3" ry="3" style="stroke:#038048;stroke-width:1.0;"/><text fill="#000000" font-family="sans-serif" font-size="11" lengthAdjust="spacing" textLength="34" x="239" y="267.6245">next()</text><ellipse cx="230" cy="277.2188" fill="#84BE84" rx="3" ry="3" style="stroke:#038048;stroke-width:1.0;"/><text fill="#000000" font-family="sans-serif" font-size="11" lengthAdjust="spacing" textLength="199" x="239" y="280.4292">movePiece(Coordinate,Coordinate)</text><ellipse cx="230" cy="290.0234" fill="#84BE84" rx="3" ry="3" style="stroke:#038048;stroke-width:1.0;"/><text fill="#000000" font-family="sans-serif" font-size="11" lengthAdjust="spacing" textLength="181" x="239" y="293.2339">getOriginError(Coordinate): Error</text><ellipse cx="230" cy="302.8281" fill="#84BE84" rx="3" ry="3" style="stroke:#038048;stroke-width:1.0;"/><text fill="#000000" font-family="sans-serif" font-size="11" lengthAdjust="spacing" textLength="246" x="239" y="306.0386">getTargetError(Coordinate,Coordinate):Error</text><!--MD5=[1a47bbf44ccee225df9b18c5b6629853]
class ResumeController--><rect codeLine="23" fill="#FEFECE" filter="url(#f12vlpagvzg4v)" height="73.6094" id="ResumeController" style="stroke:#A80036;stroke-width:1.5;" width="171" x="526.5" y="207"/><ellipse cx="555.9" cy="223" fill="#ADD1B2" rx="11" ry="11" style="stroke:#A80036;stroke-width:1.0;"/><path d="M558.2438,218.6719 C557.3063,218.2344 556.7125,218.0938 555.8375,218.0938 C553.2125,218.0938 551.2125,220.1719 551.2125,222.8906 L551.2125,224.0156 C551.2125,226.5938 553.3219,228.4844 556.2125,228.4844 C557.4313,228.4844 558.5875,228.1875 559.3375,227.6406 C559.9156,227.2344 560.2438,226.7813 560.2438,226.3906 C560.2438,225.9375 559.8531,225.5469 559.3844,225.5469 C559.1656,225.5469 558.9625,225.625 558.775,225.8125 C558.3219,226.2969 558.3219,226.2969 558.1344,226.3906 C557.7125,226.6563 557.025,226.7813 556.2594,226.7813 C554.2125,226.7813 552.9156,225.6875 552.9156,223.9844 L552.9156,222.8906 C552.9156,221.1094 554.1656,219.7969 555.9,219.7969 C556.4781,219.7969 557.0875,219.9531 557.5563,220.2031 C558.0406,220.4844 558.2125,220.7031 558.3063,221.1094 C558.3688,221.5156 558.4,221.6406 558.5406,221.7656 C558.6813,221.9063 558.9156,222.0156 559.1344,222.0156 C559.4,222.0156 559.6656,221.875 559.8375,221.6563 C559.9469,221.5 559.9781,221.3125 559.9781,220.8906 L559.9781,219.4688 C559.9781,219.0313 559.9625,218.9063 559.8688,218.75 C559.7125,218.4844 559.4313,218.3438 559.1344,218.3438 C558.8375,218.3438 558.6344,218.4375 558.4156,218.75 L558.2438,218.6719 Z " fill="#000000"/><text fill="#000000" font-family="sans-serif" font-size="12" lengthAdjust="spacing" textLength="107" x="573.1" y="227.1543">ResumeController</text><line style="stroke:#A80036;stroke-width:1.5;" x1="527.5" x2="696.5" y1="239" y2="239"/><line style="stroke:#A80036;stroke-width:1.5;" x1="527.5" x2="696.5" y1="247" y2="247"/><ellipse cx="537.5" cy="258" fill="#84BE84" rx="3" ry="3" style="stroke:#038048;stroke-width:1.0;"/><text fill="#000000" font-family="sans-serif" font-size="11" lengthAdjust="spacing" textLength="145" x="546.5" y="261.2104">ResumeController(Game)</text><ellipse cx="537.5" cy="270.8047" fill="#84BE84" rx="3" ry="3" style="stroke:#038048;stroke-width:1.0;"/><text fill="#000000" font-family="sans-serif" font-size="11" lengthAdjust="spacing" textLength="38" x="546.5" y="274.0151">reset()</text><!--MD5=[b6dcce5e5ef3c84b0b048d11301373dd]
class Game--><rect codeLine="1" fill="#FEFECE" filter="url(#f12vlpagvzg4v)" height="53.9375" id="Game" style="stroke:#A80036;stroke-width:1.5;" width="80" x="733" y="217"/><ellipse cx="748" cy="235.9688" fill="#ADD1B2" rx="11" ry="11" style="stroke:#A80036;stroke-width:1.0;"/><path d="M750.3438,231.6406 C749.4063,231.2031 748.8125,231.0625 747.9375,231.0625 C745.3125,231.0625 743.3125,233.1406 743.3125,235.8594 L743.3125,236.9844 C743.3125,239.5625 745.4219,241.4531 748.3125,241.4531 C749.5313,241.4531 750.6875,241.1563 751.4375,240.6094 C752.0156,240.2031 752.3438,239.75 752.3438,239.3594 C752.3438,238.9063 751.9531,238.5156 751.4844,238.5156 C751.2656,238.5156 751.0625,238.5938 750.875,238.7813 C750.4219,239.2656 750.4219,239.2656 750.2344,239.3594 C749.8125,239.625 749.125,239.75 748.3594,239.75 C746.3125,239.75 745.0156,238.6563 745.0156,236.9531 L745.0156,235.8594 C745.0156,234.0781 746.2656,232.7656 748,232.7656 C748.5781,232.7656 749.1875,232.9219 749.6563,233.1719 C750.1406,233.4531 750.3125,233.6719 750.4063,234.0781 C750.4688,234.4844 750.5,234.6094 750.6406,234.7344 C750.7813,234.875 751.0156,234.9844 751.2344,234.9844 C751.5,234.9844 751.7656,234.8438 751.9375,234.625 C752.0469,234.4688 752.0781,234.2813 752.0781,233.8594 L752.0781,232.4375 C752.0781,232 752.0625,231.875 751.9688,231.7188 C751.8125,231.4531 751.5313,231.3125 751.2344,231.3125 C750.9375,231.3125 750.7344,231.4063 750.5156,231.7188 L750.3438,231.6406 Z " fill="#000000"/><text fill="#000000" font-family="sans-serif" font-size="12" lengthAdjust="spacing" textLength="48" x="762" y="233.1387">models.</text><text fill="#000000" font-family="sans-serif" font-size="12" lengthAdjust="spacing" textLength="35" x="768.5" y="247.1074">Game</text><line style="stroke:#A80036;stroke-width:1.5;" x1="734" x2="812" y1="254.9375" y2="254.9375"/><line style="stroke:#A80036;stroke-width:1.5;" x1="734" x2="812" y1="262.9375" y2="262.9375"/><!--MD5=[8c7d7abc12e214c3cc12c9ab70edee11]
class Coordinate--><rect codeLine="2" fill="#FEFECE" filter="url(#f12vlpagvzg4v)" height="53.9375" id="Coordinate" style="stroke:#A80036;stroke-width:1.5;" width="98" x="647" y="373"/><ellipse cx="662" cy="391.9688" fill="#ADD1B2" rx="11" ry="11" style="stroke:#A80036;stroke-width:1.0;"/><path d="M664.3438,387.6406 C663.4063,387.2031 662.8125,387.0625 661.9375,387.0625 C659.3125,387.0625 657.3125,389.1406 657.3125,391.8594 L657.3125,392.9844 C657.3125,395.5625 659.4219,397.4531 662.3125,397.4531 C663.5313,397.4531 664.6875,397.1563 665.4375,396.6094 C666.0156,396.2031 666.3438,395.75 666.3438,395.3594 C666.3438,394.9063 665.9531,394.5156 665.4844,394.5156 C665.2656,394.5156 665.0625,394.5938 664.875,394.7813 C664.4219,395.2656 664.4219,395.2656 664.2344,395.3594 C663.8125,395.625 663.125,395.75 662.3594,395.75 C660.3125,395.75 659.0156,394.6563 659.0156,392.9531 L659.0156,391.8594 C659.0156,390.0781 660.2656,388.7656 662,388.7656 C662.5781,388.7656 663.1875,388.9219 663.6563,389.1719 C664.1406,389.4531 664.3125,389.6719 664.4063,390.0781 C664.4688,390.4844 664.5,390.6094 664.6406,390.7344 C664.7813,390.875 665.0156,390.9844 665.2344,390.9844 C665.5,390.9844 665.7656,390.8438 665.9375,390.625 C666.0469,390.4688 666.0781,390.2813 666.0781,389.8594 L666.0781,388.4375 C666.0781,388 666.0625,387.875 665.9688,387.7188 C665.8125,387.4531 665.5313,387.3125 665.2344,387.3125 C664.9375,387.3125 664.7344,387.4063 664.5156,387.7188 L664.3438,387.6406 Z " fill="#000000"/><text fill="#000000" font-family="sans-serif" font-size="12" lengthAdjust="spacing" textLength="37" x="690.5" y="389.1387">types.</text><text fill="#000000" font-family="sans-serif" font-size="12" lengthAdjust="spacing" textLength="66" x="676" y="403.1074">Coordinate</text><line style="stroke:#A80036;stroke-width:1.5;" x1="648" x2="744" y1="410.9375" y2="410.9375"/><line style="stroke:#A80036;stroke-width:1.5;" x1="648" x2="744" y1="418.9375" y2="418.9375"/><!--MD5=[b8cfd8c4119a3b0a7a46bfc5fc780f85]
class Error--><rect codeLine="3" fill="#FEFECE" filter="url(#f12vlpagvzg4v)" height="53.9375" id="Error" style="stroke:#A80036;stroke-width:1.5;" width="69" x="268.5" y="373"/><ellipse cx="283.5" cy="391.9688" fill="#EB937F" rx="11" ry="11" style="stroke:#A80036;stroke-width:1.0;"/><path d="M282.2969,392.8438 L283.75,392.8438 L283.75,392.9531 C283.75,393.3594 283.7813,393.5156 283.8594,393.6719 C284.0156,393.9219 284.2969,394.0781 284.5938,394.0781 C284.8438,394.0781 285.1094,393.9375 285.2656,393.7188 C285.3906,393.5625 285.4219,393.4063 285.4219,392.9531 L285.4219,391.0313 C285.4219,390.875 285.4219,390.8281 285.4063,390.6719 C285.3438,390.2031 285.0313,389.8906 284.5781,389.8906 C284.3281,389.8906 284.0625,390.0313 283.8906,390.25 C283.7813,390.4219 283.75,390.5781 283.75,391.0313 L283.75,391.1563 L282.2969,391.1563 L282.2969,388.75 L286.2813,388.75 L286.2813,389.6094 C286.2813,390.0156 286.3125,390.1875 286.3906,390.3438 C286.5625,390.5938 286.8438,390.75 287.125,390.75 C287.3906,390.75 287.6563,390.6094 287.8281,390.3906 C287.9375,390.2188 287.9688,390.0781 287.9688,389.6094 L287.9688,387.0625 L280.3438,387.0625 C279.9063,387.0625 279.7813,387.0781 279.625,387.1719 C279.375,387.3281 279.2188,387.625 279.2188,387.9063 C279.2188,388.1875 279.3594,388.4375 279.5781,388.6094 C279.7344,388.7188 279.9219,388.75 280.3438,388.75 L280.5938,388.75 L280.5938,395.2656 L280.3438,395.2656 C279.9375,395.2656 279.7813,395.2813 279.625,395.3906 C279.375,395.5625 279.2188,395.8281 279.2188,396.125 C279.2188,396.3906 279.3594,396.6406 279.5781,396.7969 C279.7188,396.9219 279.9531,396.9688 280.3438,396.9688 L288.3438,396.9688 L288.3438,394.3906 C288.3438,393.9531 288.3125,393.8125 288.2344,393.6563 C288.0625,393.4063 287.7813,393.25 287.5,393.25 C287.2344,393.25 286.9688,393.3594 286.7969,393.6094 C286.6875,393.7656 286.6563,393.9063 286.6563,394.3906 L286.6563,395.2656 L282.2969,395.2656 L282.2969,392.8438 Z " fill="#000000"/><text fill="#000000" font-family="sans-serif" font-size="12" lengthAdjust="spacing" textLength="37" x="297.5" y="389.1387">types.</text><text fill="#000000" font-family="sans-serif" font-size="12" lengthAdjust="spacing" textLength="30" x="301" y="403.1074">Error</text><line style="stroke:#A80036;stroke-width:1.5;" x1="269.5" x2="336.5" y1="410.9375" y2="410.9375"/><line style="stroke:#A80036;stroke-width:1.5;" x1="269.5" x2="336.5" y1="418.9375" y2="418.9375"/><!--MD5=[18eee71c88ab61f27581b8cbdd3ef5ee]
class Color--><rect codeLine="4" fill="#FEFECE" filter="url(#f12vlpagvzg4v)" height="53.9375" id="Color" style="stroke:#A80036;stroke-width:1.5;" width="69" x="372.5" y="373"/><ellipse cx="387.5" cy="391.9688" fill="#EB937F" rx="11" ry="11" style="stroke:#A80036;stroke-width:1.0;"/><path d="M386.2969,392.8438 L387.75,392.8438 L387.75,392.9531 C387.75,393.3594 387.7813,393.5156 387.8594,393.6719 C388.0156,393.9219 388.2969,394.0781 388.5938,394.0781 C388.8438,394.0781 389.1094,393.9375 389.2656,393.7188 C389.3906,393.5625 389.4219,393.4063 389.4219,392.9531 L389.4219,391.0313 C389.4219,390.875 389.4219,390.8281 389.4063,390.6719 C389.3438,390.2031 389.0313,389.8906 388.5781,389.8906 C388.3281,389.8906 388.0625,390.0313 387.8906,390.25 C387.7813,390.4219 387.75,390.5781 387.75,391.0313 L387.75,391.1563 L386.2969,391.1563 L386.2969,388.75 L390.2813,388.75 L390.2813,389.6094 C390.2813,390.0156 390.3125,390.1875 390.3906,390.3438 C390.5625,390.5938 390.8438,390.75 391.125,390.75 C391.3906,390.75 391.6563,390.6094 391.8281,390.3906 C391.9375,390.2188 391.9688,390.0781 391.9688,389.6094 L391.9688,387.0625 L384.3438,387.0625 C383.9063,387.0625 383.7813,387.0781 383.625,387.1719 C383.375,387.3281 383.2188,387.625 383.2188,387.9063 C383.2188,388.1875 383.3594,388.4375 383.5781,388.6094 C383.7344,388.7188 383.9219,388.75 384.3438,388.75 L384.5938,388.75 L384.5938,395.2656 L384.3438,395.2656 C383.9375,395.2656 383.7813,395.2813 383.625,395.3906 C383.375,395.5625 383.2188,395.8281 383.2188,396.125 C383.2188,396.3906 383.3594,396.6406 383.5781,396.7969 C383.7188,396.9219 383.9531,396.9688 384.3438,396.9688 L392.3438,396.9688 L392.3438,394.3906 C392.3438,393.9531 392.3125,393.8125 392.2344,393.6563 C392.0625,393.4063 391.7813,393.25 391.5,393.25 C391.2344,393.25 390.9688,393.3594 390.7969,393.6094 C390.6875,393.7656 390.6563,393.9063 390.6563,394.3906 L390.6563,395.2656 L386.2969,395.2656 L386.2969,392.8438 Z " fill="#000000"/><text fill="#000000" font-family="sans-serif" font-size="12" lengthAdjust="spacing" textLength="37" x="401.5" y="389.1387">types.</text><text fill="#000000" font-family="sans-serif" font-size="12" lengthAdjust="spacing" textLength="32" x="404" y="403.1074">Color</text><line style="stroke:#A80036;stroke-width:1.5;" x1="373.5" x2="440.5" y1="410.9375" y2="410.9375"/><line style="stroke:#A80036;stroke-width:1.5;" x1="373.5" x2="440.5" y1="418.9375" y2="418.9375"/><!--MD5=[354d6deacb49030493b7fd8cb23ebdce]
reverse link Controller to StartController--><path codeLine="29" d="M497.862,92.801 C413.681,106.195 296.29,131.126 201,175 C179.743,184.787 158.491,199.832 141.679,213.284 " fill="none" id="Controller-backto-StartController" style="stroke:#A80036;stroke-width:1.0;"/><polygon fill="none" points="496.878,85.87,517.707,89.759,498.999,99.708,496.878,85.87" style="stroke:#A80036;stroke-width:1.0;"/><!--MD5=[bac2a20c9ae2b9b15721398c9d73bfe6]
reverse link Controller to MovePieceController--><path codeLine="30" d="M535.296,126.128 C511.855,141.323 485.384,158.482 460.09,174.879 " fill="none" id="Controller-backto-MovePieceController" style="stroke:#A80036;stroke-width:1.0;"/><polygon fill="none" points="531.575,120.198,552.165,115.194,539.19,131.946,531.575,120.198" style="stroke:#A80036;stroke-width:1.0;"/><!--MD5=[dfabfd7c269c7ef3ab5bdd4c723fcdb8]
reverse link Controller to ResumeController--><path codeLine="31" d="M609.38,135.583 C609.958,159.259 610.612,186.072 611.122,206.987 " fill="none" id="Controller-backto-ResumeController" style="stroke:#A80036;stroke-width:1.0;"/><polygon fill="none" points="602.378,135.562,608.888,115.397,616.373,135.22,602.378,135.562" style="stroke:#A80036;stroke-width:1.0;"/><!--MD5=[af3c341f28b4ad1078e652ece2043f79]
link Controller to Game--><path codeLine="32" d="M659.0671,123.0111 C659.0671,123.0111 697.086,157.722 714,175 C723.758,184.968 733.884,196.251 742.934,206.72 " fill="none" id="Controller-Game" style="stroke:#A80036;stroke-width:1.0;"/><polygon fill="#A80036" points="751.573,216.839,748.7727,207.3966,748.327,213.0359,742.6877,212.5902,751.573,216.839" style="stroke:#A80036;stroke-width:1.0;"/><line style="stroke:#A80036;stroke-width:1.0;" x1="748.327" x2="743.132" y1="213.0359" y2="206.952"/><polygon fill="#A80036" points="650.098,115.039,651.9252,122.0148,659.0671,123.0111,657.2399,116.0354,650.098,115.039" style="stroke:#A80036;stroke-width:1.0;"/><!--MD5=[0792d9478a54b9e8fb88f3e833b4c628]
link Controller to Coordinate--><path codeLine="33" d="M698.103,93.426 C746.239,106.216 801.51,130.198 831,175 C870.587,235.141 869.862,276.388 831,337 C813.169,364.8104 779.384,380.3126 750.075,388.8612 " fill="none" id="Controller-to-Coordinate" style="stroke:#A80036;stroke-width:1.0;stroke-dasharray:7.0,7.0;"/><polygon fill="#A80036" points="745.037,390.276,754.7836,391.6918,749.8505,388.9232,752.6191,383.9902,745.037,390.276" style="stroke:#A80036;stroke-width:1.0;"/><!--MD5=[1e154bb057061f8f6041c2d7c2c87c44]
link MovePieceController to Color--><path codeLine="34" d="M378.111,313.443 C384.551,332.5171 391.231,352.2999 396.543,368.0321 " fill="none" id="MovePieceController-to-Color" style="stroke:#A80036;stroke-width:1.0;stroke-dasharray:7.0,7.0;"/><polygon fill="#A80036" points="398.146,372.7792,399.0562,362.9725,396.5463,368.042,391.4767,365.5321,398.146,372.7792" style="stroke:#A80036;stroke-width:1.0;"/><!--MD5=[90ebf97b81d1fb23b56baeb469aeda20]
link MovePieceController to Coordinate--><path codeLine="35" d="M462.349,313.135 C477.726,321.708 493.567,329.9347 509,337 C552.305,356.8252 603.827,373.4269 641.814,384.4462 " fill="none" id="MovePieceController-to-Coordinate" style="stroke:#A80036;stroke-width:1.0;stroke-dasharray:7.0,7.0;"/><polygon fill="#A80036" points="646.847,385.8965,639.3063,379.5611,642.0425,384.5122,637.0914,387.2484,646.847,385.8965" style="stroke:#A80036;stroke-width:1.0;"/><!--MD5=[3c982519f7d882fd00a946b1e6a8e317]
link MovePieceController to Error--><path codeLine="36" d="M331.889,313.443 C325.449,332.5171 318.769,352.2999 313.457,368.0321 " fill="none" id="MovePieceController-to-Error" style="stroke:#A80036;stroke-width:1.0;stroke-dasharray:7.0,7.0;"/><polygon fill="#A80036" points="311.854,372.7792,318.5233,365.5321,313.4537,368.042,310.9438,362.9725,311.854,372.7792" style="stroke:#A80036;stroke-width:1.0;"/><!--MD5=[d388838f03fa5d94cebc8b55ca25076b]
@startuml
class Game as "models.\nGame"
class Coordinate as "types.\nCoordinate"
enum Error as "types.\nError"
enum Color as "types.\nColor"

package controllers{
    abstract class Controller{
        ~ Controller(Game)
        + getColor(Coordinate): Color
    }
    class StartController{
        + StartController(Game)
    }
    class MovePieceController{
        + PlayController(Game)
        + isFinished(): boolean
        + isWinner(): boolean
        + next()
        + movePiece(Coordinate,Coordinate)
        + getOriginError(Coordinate): Error
        + getTargetError(Coordinate,Coordinate):Error
    }
    class ResumeController{
        + ResumeController(Game)
        + reset()
    }
}

Controller <|-down- StartController
Controller <|-down- MovePieceController
Controller <|-down- ResumeController
Controller *-down-> Game
Controller .down.> Coordinate
MovePieceController .down.> Color
MovePieceController .down.> Coordinate
MovePieceController .down.> Error
@enduml

PlantUML version 1.2021.4beta1(Unknown compile time)
(GPL source distribution)
Java Runtime: Java(TM) SE Runtime Environment
JVM: Java HotSpot(TM) 64-Bit Server VM
Default Encoding: UTF-8
Language: en
Country: US
--></g></svg>