<?xml version="1.0" encoding="UTF-8" standalone="no"?><svg xmlns="http://www.w3.org/2000/svg" xmlns:xlink="http://www.w3.org/1999/xlink" contentScriptType="application/ecmascript" contentStyleType="text/css" height="942px" preserveAspectRatio="none" style="width:1328px;height:942px;" version="1.1" viewBox="0 0 1328 942" width="1328px" zoomAndPan="magnify"><defs><filter height="300%" id="f1gy85cnjfmams" width="300%" x="-1" y="-1"><feGaussianBlur result="blurOut" stdDeviation="2.0"/><feColorMatrix in="blurOut" result="blurOut2" type="matrix" values="0 0 0 0 0 0 0 0 0 0 0 0 0 0 0 0 0 0 .4 0"/><feOffset dx="4.0" dy="4.0" in="blurOut2" result="blurOut3"/><feBlend in="SourceGraphic" in2="blurOut3" mode="normal"/></filter></defs><g><!--MD5=[e2a75efa8a0f57c2afae8bf75386f79c]
cluster views--><polygon fill="#FFFFFF" filter="url(#f1gy85cnjfmams)" points="122.5,6,173.5,6,180.5,28.2969,938.5,28.2969,938.5,831,122.5,831,122.5,6" style="stroke:#000000;stroke-width:1.5;"/><line style="stroke:#000000;stroke-width:1.5;" x1="122.5" x2="180.5" y1="28.2969" y2="28.2969"/><text fill="#000000" font-family="sans-serif" font-size="14" font-weight="bold" lengthAdjust="spacing" textLength="45" x="126.5" y="20.9951">views</text><!--MD5=[9b237e88d697a058bd530d6510c96c00]
class BoardView--><rect codeLine="9" fill="#FEFECE" filter="url(#f1gy85cnjfmams)" height="60.8047" id="BoardView" style="stroke:#A80036;stroke-width:1.5;" width="117" x="139" y="327"/><ellipse cx="163" cy="343" fill="#ADD1B2" rx="11" ry="11" style="stroke:#A80036;stroke-width:1.0;"/><path d="M165.3438,338.6719 C164.4063,338.2344 163.8125,338.0938 162.9375,338.0938 C160.3125,338.0938 158.3125,340.1719 158.3125,342.8906 L158.3125,344.0156 C158.3125,346.5938 160.4219,348.4844 163.3125,348.4844 C164.5313,348.4844 165.6875,348.1875 166.4375,347.6406 C167.0156,347.2344 167.3438,346.7813 167.3438,346.3906 C167.3438,345.9375 166.9531,345.5469 166.4844,345.5469 C166.2656,345.5469 166.0625,345.625 165.875,345.8125 C165.4219,346.2969 165.4219,346.2969 165.2344,346.3906 C164.8125,346.6563 164.125,346.7813 163.3594,346.7813 C161.3125,346.7813 160.0156,345.6875 160.0156,343.9844 L160.0156,342.8906 C160.0156,341.1094 161.2656,339.7969 163,339.7969 C163.5781,339.7969 164.1875,339.9531 164.6563,340.2031 C165.1406,340.4844 165.3125,340.7031 165.4063,341.1094 C165.4688,341.5156 165.5,341.6406 165.6406,341.7656 C165.7813,341.9063 166.0156,342.0156 166.2344,342.0156 C166.5,342.0156 166.7656,341.875 166.9375,341.6563 C167.0469,341.5 167.0781,341.3125 167.0781,340.8906 L167.0781,339.4688 C167.0781,339.0313 167.0625,338.9063 166.9688,338.75 C166.8125,338.4844 166.5313,338.3438 166.2344,338.3438 C165.9375,338.3438 165.7344,338.4375 165.5156,338.75 L165.3438,338.6719 Z " fill="#000000"/><text fill="#000000" font-family="sans-serif" font-size="12" lengthAdjust="spacing" textLength="65" x="179" y="347.1543">BoardView</text><line style="stroke:#A80036;stroke-width:1.5;" x1="140" x2="255" y1="359" y2="359"/><line style="stroke:#A80036;stroke-width:1.5;" x1="140" x2="255" y1="367" y2="367"/><polygon fill="#4177AF" points="150,374,146,380,154,380" style="stroke:#1963A0;stroke-width:1.0;"/><text fill="#000000" font-family="sans-serif" font-size="11" lengthAdjust="spacing" textLength="91" x="159" y="381.2104">write(Controller)</text><!--MD5=[c045e12321b83266d36d22b9096c24ea]
class View--><rect codeLine="12" fill="#FEFECE" filter="url(#f1gy85cnjfmams)" height="86.4141" id="View" style="stroke:#A80036;stroke-width:1.5;" width="78" x="844.5" y="41"/><ellipse cx="867.15" cy="57" fill="#ADD1B2" rx="11" ry="11" style="stroke:#A80036;stroke-width:1.0;"/><path d="M869.4938,52.6719 C868.5563,52.2344 867.9625,52.0938 867.0875,52.0938 C864.4625,52.0938 862.4625,54.1719 862.4625,56.8906 L862.4625,58.0156 C862.4625,60.5938 864.5719,62.4844 867.4625,62.4844 C868.6813,62.4844 869.8375,62.1875 870.5875,61.6406 C871.1656,61.2344 871.4938,60.7813 871.4938,60.3906 C871.4938,59.9375 871.1031,59.5469 870.6344,59.5469 C870.4156,59.5469 870.2125,59.625 870.025,59.8125 C869.5719,60.2969 869.5719,60.2969 869.3844,60.3906 C868.9625,60.6563 868.275,60.7813 867.5094,60.7813 C865.4625,60.7813 864.1656,59.6875 864.1656,57.9844 L864.1656,56.8906 C864.1656,55.1094 865.4156,53.7969 867.15,53.7969 C867.7281,53.7969 868.3375,53.9531 868.8063,54.2031 C869.2906,54.4844 869.4625,54.7031 869.5563,55.1094 C869.6188,55.5156 869.65,55.6406 869.7906,55.7656 C869.9313,55.9063 870.1656,56.0156 870.3844,56.0156 C870.65,56.0156 870.9156,55.875 871.0875,55.6563 C871.1969,55.5 871.2281,55.3125 871.2281,54.8906 L871.2281,53.4688 C871.2281,53.0313 871.2125,52.9063 871.1188,52.75 C870.9625,52.4844 870.6813,52.3438 870.3844,52.3438 C870.0875,52.3438 869.8844,52.4375 869.6656,52.75 L869.4938,52.6719 Z " fill="#000000"/><text fill="#000000" font-family="sans-serif" font-size="12" lengthAdjust="spacing" textLength="29" x="882.85" y="61.1543">View</text><line style="stroke:#A80036;stroke-width:1.5;" x1="845.5" x2="921.5" y1="73" y2="73"/><line style="stroke:#A80036;stroke-width:1.5;" x1="845.5" x2="921.5" y1="81" y2="81"/><polygon fill="#FFFF44" points="855.5,87,859.5,91,855.5,95,851.5,91" style="stroke:#B38D22;stroke-width:1.0;"/><text fill="#000000" font-family="sans-serif" font-size="11" lengthAdjust="spacing" textLength="33" x="864.5" y="95.2104">start()</text><polygon fill="#FFFF44" points="855.5,99.8047,859.5,103.8047,855.5,107.8047,851.5,103.8047" style="stroke:#B38D22;stroke-width:1.0;"/><text fill="#000000" font-family="sans-serif" font-size="11" lengthAdjust="spacing" textLength="32" x="864.5" y="108.0151">play()</text><polygon fill="#FFFF44" points="855.5,112.6094,859.5,116.6094,855.5,120.6094,851.5,116.6094" style="stroke:#B38D22;stroke-width:1.0;"/><text fill="#000000" font-family="sans-serif" font-size="11" lengthAdjust="spacing" textLength="52" x="864.5" y="120.8198">resume()</text><!--MD5=[a0aa4c6b60a321248fec377f3a83cfca]
class CoordinateView--><rect codeLine="17" fill="#FEFECE" filter="url(#f1gy85cnjfmams)" height="73.6094" id="CoordinateView" style="stroke:#A80036;stroke-width:1.5;" width="170" x="375.5" y="473"/><ellipse cx="409.85" cy="489" fill="#ADD1B2" rx="11" ry="11" style="stroke:#A80036;stroke-width:1.0;"/><path d="M412.1938,484.6719 C411.2563,484.2344 410.6625,484.0938 409.7875,484.0938 C407.1625,484.0938 405.1625,486.1719 405.1625,488.8906 L405.1625,490.0156 C405.1625,492.5938 407.2719,494.4844 410.1625,494.4844 C411.3813,494.4844 412.5375,494.1875 413.2875,493.6406 C413.8656,493.2344 414.1938,492.7813 414.1938,492.3906 C414.1938,491.9375 413.8031,491.5469 413.3344,491.5469 C413.1156,491.5469 412.9125,491.625 412.725,491.8125 C412.2719,492.2969 412.2719,492.2969 412.0844,492.3906 C411.6625,492.6563 410.975,492.7813 410.2094,492.7813 C408.1625,492.7813 406.8656,491.6875 406.8656,489.9844 L406.8656,488.8906 C406.8656,487.1094 408.1156,485.7969 409.85,485.7969 C410.4281,485.7969 411.0375,485.9531 411.5063,486.2031 C411.9906,486.4844 412.1625,486.7031 412.2563,487.1094 C412.3188,487.5156 412.35,487.6406 412.4906,487.7656 C412.6313,487.9063 412.8656,488.0156 413.0844,488.0156 C413.35,488.0156 413.6156,487.875 413.7875,487.6563 C413.8969,487.5 413.9281,487.3125 413.9281,486.8906 L413.9281,485.4688 C413.9281,485.0313 413.9125,484.9063 413.8188,484.75 C413.6625,484.4844 413.3813,484.3438 413.0844,484.3438 C412.7875,484.3438 412.5844,484.4375 412.3656,484.75 L412.1938,484.6719 Z " fill="#000000"/><text fill="#000000" font-family="sans-serif" font-size="12" lengthAdjust="spacing" textLength="95" x="428.15" y="493.1543">CoordinateView</text><line style="stroke:#A80036;stroke-width:1.5;" x1="376.5" x2="544.5" y1="505" y2="505"/><line style="stroke:#A80036;stroke-width:1.5;" x1="376.5" x2="544.5" y1="513" y2="513"/><ellipse cx="386.5" cy="524" fill="#84BE84" rx="3" ry="3" style="stroke:#038048;stroke-width:1.0;"/><text fill="#000000" font-family="sans-serif" font-size="11" lengthAdjust="spacing" textLength="136" x="395.5" y="527.2104">read(String): Coordinate</text><ellipse cx="386.5" cy="536.8047" fill="#84BE84" rx="3" ry="3" style="stroke:#038048;stroke-width:1.0;"/><text fill="#000000" font-family="sans-serif" font-size="11" lengthAdjust="spacing" textLength="144" x="395.5" y="540.0151">getErrorMessage(): String</text><!--MD5=[86cec68673cafdfc1c204348d5b2cca6]
class ErrorView--><rect codeLine="21" fill="#FEFECE" filter="url(#f1gy85cnjfmams)" height="60.8047" id="ErrorView" style="stroke:#A80036;stroke-width:1.5;" width="98" x="411.5" y="683.5"/><ellipse cx="429.65" cy="699.5" fill="#ADD1B2" rx="11" ry="11" style="stroke:#A80036;stroke-width:1.0;"/><path d="M431.9938,695.1719 C431.0563,694.7344 430.4625,694.5938 429.5875,694.5938 C426.9625,694.5938 424.9625,696.6719 424.9625,699.3906 L424.9625,700.5156 C424.9625,703.0938 427.0719,704.9844 429.9625,704.9844 C431.1813,704.9844 432.3375,704.6875 433.0875,704.1406 C433.6656,703.7344 433.9938,703.2813 433.9938,702.8906 C433.9938,702.4375 433.6031,702.0469 433.1344,702.0469 C432.9156,702.0469 432.7125,702.125 432.525,702.3125 C432.0719,702.7969 432.0719,702.7969 431.8844,702.8906 C431.4625,703.1563 430.775,703.2813 430.0094,703.2813 C427.9625,703.2813 426.6656,702.1875 426.6656,700.4844 L426.6656,699.3906 C426.6656,697.6094 427.9156,696.2969 429.65,696.2969 C430.2281,696.2969 430.8375,696.4531 431.3063,696.7031 C431.7906,696.9844 431.9625,697.2031 432.0563,697.6094 C432.1188,698.0156 432.15,698.1406 432.2906,698.2656 C432.4313,698.4063 432.6656,698.5156 432.8844,698.5156 C433.15,698.5156 433.4156,698.375 433.5875,698.1563 C433.6969,698 433.7281,697.8125 433.7281,697.3906 L433.7281,695.9688 C433.7281,695.5313 433.7125,695.4063 433.6188,695.25 C433.4625,694.9844 433.1813,694.8438 432.8844,694.8438 C432.5875,694.8438 432.3844,694.9375 432.1656,695.25 L431.9938,695.1719 Z " fill="#000000"/><text fill="#000000" font-family="sans-serif" font-size="12" lengthAdjust="spacing" textLength="59" x="444.35" y="703.6543">ErrorView</text><line style="stroke:#A80036;stroke-width:1.5;" x1="412.5" x2="508.5" y1="715.5" y2="715.5"/><line style="stroke:#A80036;stroke-width:1.5;" x1="412.5" x2="508.5" y1="723.5" y2="723.5"/><ellipse cx="422.5" cy="734.5" fill="#84BE84" rx="3" ry="3" style="stroke:#038048;stroke-width:1.0;"/><text fill="#000000" font-family="sans-serif" font-size="11" lengthAdjust="spacing" textLength="72" x="431.5" y="737.7104">writeln(Error)</text><!--MD5=[bea5b0d46523efab5ea1c1d339f396f0]
class Message--><rect codeLine="24" fill="#FEFECE" filter="url(#f1gy85cnjfmams)" height="201.6563" id="Message" style="stroke:#A80036;stroke-width:1.5;" width="192" x="548.5" y="613"/><ellipse cx="612.75" cy="629" fill="#EB937F" rx="11" ry="11" style="stroke:#A80036;stroke-width:1.0;"/><path d="M611.5469,629.875 L613,629.875 L613,629.9844 C613,630.3906 613.0313,630.5469 613.1094,630.7031 C613.2656,630.9531 613.5469,631.1094 613.8438,631.1094 C614.0938,631.1094 614.3594,630.9688 614.5156,630.75 C614.6406,630.5938 614.6719,630.4375 614.6719,629.9844 L614.6719,628.0625 C614.6719,627.9063 614.6719,627.8594 614.6563,627.7031 C614.5938,627.2344 614.2813,626.9219 613.8281,626.9219 C613.5781,626.9219 613.3125,627.0625 613.1406,627.2813 C613.0313,627.4531 613,627.6094 613,628.0625 L613,628.1875 L611.5469,628.1875 L611.5469,625.7813 L615.5313,625.7813 L615.5313,626.6406 C615.5313,627.0469 615.5625,627.2188 615.6406,627.375 C615.8125,627.625 616.0938,627.7813 616.375,627.7813 C616.6406,627.7813 616.9063,627.6406 617.0781,627.4219 C617.1875,627.25 617.2188,627.1094 617.2188,626.6406 L617.2188,624.0938 L609.5938,624.0938 C609.1563,624.0938 609.0313,624.1094 608.875,624.2031 C608.625,624.3594 608.4688,624.6563 608.4688,624.9375 C608.4688,625.2188 608.6094,625.4688 608.8281,625.6406 C608.9844,625.75 609.1719,625.7813 609.5938,625.7813 L609.8438,625.7813 L609.8438,632.2969 L609.5938,632.2969 C609.1875,632.2969 609.0313,632.3125 608.875,632.4219 C608.625,632.5938 608.4688,632.8594 608.4688,633.1563 C608.4688,633.4219 608.6094,633.6719 608.8281,633.8281 C608.9688,633.9531 609.2031,634 609.5938,634 L617.5938,634 L617.5938,631.4219 C617.5938,630.9844 617.5625,630.8438 617.4844,630.6875 C617.3125,630.4375 617.0313,630.2813 616.75,630.2813 C616.4844,630.2813 616.2188,630.3906 616.0469,630.6406 C615.9375,630.7969 615.9063,630.9375 615.9063,631.4219 L615.9063,632.2969 L611.5469,632.2969 L611.5469,629.875 Z " fill="#000000"/><text fill="#000000" font-family="sans-serif" font-size="12" lengthAdjust="spacing" textLength="55" x="633.25" y="633.1543">Message</text><line style="stroke:#A80036;stroke-width:1.5;" x1="549.5" x2="739.5" y1="645" y2="645"/><ellipse cx="559.5" cy="656" rx="3" ry="3" style="stroke:#038048;stroke-width:1.0;fill:none;"/><text fill="#000000" font-family="sans-serif" font-size="11" lengthAdjust="spacing" textLength="30" x="568.5" y="659.2104">TITLE</text><ellipse cx="559.5" cy="668.8047" rx="3" ry="3" style="stroke:#038048;stroke-width:1.0;fill:none;"/><text fill="#000000" font-family="sans-serif" font-size="11" lengthAdjust="spacing" textLength="84" x="568.5" y="672.0151">VERTICAL_LINE</text><ellipse cx="559.5" cy="681.6094" rx="3" ry="3" style="stroke:#038048;stroke-width:1.0;fill:none;"/><text fill="#000000" font-family="sans-serif" font-size="11" lengthAdjust="spacing" textLength="166" x="568.5" y="684.8198">ENTER_COORDINATE_TO_PUT</text><ellipse cx="559.5" cy="694.4141" rx="3" ry="3" style="stroke:#038048;stroke-width:1.0;fill:none;"/><text fill="#000000" font-family="sans-serif" font-size="11" lengthAdjust="spacing" textLength="124" x="568.5" y="697.6245">COORDINATE_TO_PUT</text><ellipse cx="559.5" cy="707.2188" rx="3" ry="3" style="stroke:#038048;stroke-width:1.0;fill:none;"/><text fill="#000000" font-family="sans-serif" font-size="11" lengthAdjust="spacing" textLength="150" x="568.5" y="710.4292">COORDINATE_TO_REMOVE</text><ellipse cx="559.5" cy="720.0234" rx="3" ry="3" style="stroke:#038048;stroke-width:1.0;fill:none;"/><text fill="#000000" font-family="sans-serif" font-size="11" lengthAdjust="spacing" textLength="136" x="568.5" y="723.2339">COORDINATE_TO_MOVE</text><ellipse cx="559.5" cy="732.8281" rx="3" ry="3" style="stroke:#038048;stroke-width:1.0;fill:none;"/><text fill="#000000" font-family="sans-serif" font-size="11" lengthAdjust="spacing" textLength="69" x="568.5" y="736.0386">PLAYER_WIN</text><ellipse cx="559.5" cy="745.6328" rx="3" ry="3" style="stroke:#038048;stroke-width:1.0;fill:none;"/><text fill="#000000" font-family="sans-serif" font-size="11" lengthAdjust="spacing" textLength="35" x="568.5" y="748.8433">DRAW</text><ellipse cx="559.5" cy="758.4375" rx="3" ry="3" style="stroke:#038048;stroke-width:1.0;fill:none;"/><text fill="#000000" font-family="sans-serif" font-size="11" lengthAdjust="spacing" textLength="46" x="568.5" y="761.6479">RESUME</text><rect fill="none" height="6" style="stroke:#C82930;stroke-width:1.0;" width="6" x="556.5" y="768.2422"/><text fill="#000000" font-family="sans-serif" font-size="11" lengthAdjust="spacing" textLength="93" x="568.5" y="774.4526">message: String</text><line style="stroke:#A80036;stroke-width:1.5;" x1="549.5" x2="739.5" y1="781.0469" y2="781.0469"/><polygon fill="#4177AF" points="559.5,788.0469,555.5,794.0469,563.5,794.0469" style="stroke:#1963A0;stroke-width:1.0;"/><text fill="#000000" font-family="sans-serif" font-size="11" lengthAdjust="spacing" textLength="92" x="568.5" y="795.2573">Message(String)</text><ellipse cx="559.5" cy="804.8516" fill="#84BE84" rx="3" ry="3" style="stroke:#038048;stroke-width:1.0;"/><text fill="#000000" font-family="sans-serif" font-size="11" lengthAdjust="spacing" textLength="92" x="568.5" y="808.062">toString(): String</text><!--MD5=[49feb4884a66ed250f9a27795111a05a]
class MessageView--><rect codeLine="38" fill="#FEFECE" filter="url(#f1gy85cnjfmams)" height="86.4141" id="MessageView" style="stroke:#A80036;stroke-width:1.5;" width="123" x="618" y="467"/><ellipse cx="636.15" cy="483" fill="#ADD1B2" rx="11" ry="11" style="stroke:#A80036;stroke-width:1.0;"/><path d="M638.4938,478.6719 C637.5563,478.2344 636.9625,478.0938 636.0875,478.0938 C633.4625,478.0938 631.4625,480.1719 631.4625,482.8906 L631.4625,484.0156 C631.4625,486.5938 633.5719,488.4844 636.4625,488.4844 C637.6813,488.4844 638.8375,488.1875 639.5875,487.6406 C640.1656,487.2344 640.4938,486.7813 640.4938,486.3906 C640.4938,485.9375 640.1031,485.5469 639.6344,485.5469 C639.4156,485.5469 639.2125,485.625 639.025,485.8125 C638.5719,486.2969 638.5719,486.2969 638.3844,486.3906 C637.9625,486.6563 637.275,486.7813 636.5094,486.7813 C634.4625,486.7813 633.1656,485.6875 633.1656,483.9844 L633.1656,482.8906 C633.1656,481.1094 634.4156,479.7969 636.15,479.7969 C636.7281,479.7969 637.3375,479.9531 637.8063,480.2031 C638.2906,480.4844 638.4625,480.7031 638.5563,481.1094 C638.6188,481.5156 638.65,481.6406 638.7906,481.7656 C638.9313,481.9063 639.1656,482.0156 639.3844,482.0156 C639.65,482.0156 639.9156,481.875 640.0875,481.6563 C640.1969,481.5 640.2281,481.3125 640.2281,480.8906 L640.2281,479.4688 C640.2281,479.0313 640.2125,478.9063 640.1188,478.75 C639.9625,478.4844 639.6813,478.3438 639.3844,478.3438 C639.0875,478.3438 638.8844,478.4375 638.6656,478.75 L638.4938,478.6719 Z " fill="#000000"/><text fill="#000000" font-family="sans-serif" font-size="12" lengthAdjust="spacing" textLength="84" x="650.85" y="487.1543">MessageView</text><line style="stroke:#A80036;stroke-width:1.5;" x1="619" x2="740" y1="499" y2="499"/><line style="stroke:#A80036;stroke-width:1.5;" x1="619" x2="740" y1="507" y2="507"/><polygon fill="#4177AF" points="629,514,625,520,633,520" style="stroke:#1963A0;stroke-width:1.0;"/><text fill="#000000" font-family="sans-serif" font-size="11" lengthAdjust="spacing" textLength="87" x="638" y="521.2104">write(Message)</text><polygon fill="#4177AF" points="629,526.8047,625,532.8047,633,532.8047" style="stroke:#1963A0;stroke-width:1.0;"/><text fill="#000000" font-family="sans-serif" font-size="11" lengthAdjust="spacing" textLength="97" x="638" y="534.0151">writeln(Message)</text><polygon fill="#4177AF" points="629,539.6094,625,545.6094,633,545.6094" style="stroke:#1963A0;stroke-width:1.0;"/><text fill="#000000" font-family="sans-serif" font-size="11" lengthAdjust="spacing" textLength="97" x="638" y="546.8198">writeln(Message)</text><!--MD5=[1326d9c340157a6c4516c82330e2e438]
class MovePieceView--><rect codeLine="43" fill="#FEFECE" filter="url(#f1gy85cnjfmams)" height="60.8047" id="MovePieceView" style="stroke:#A80036;stroke-width:1.5;" width="126" x="596.5" y="187"/><ellipse cx="611.5" cy="203" fill="#ADD1B2" rx="11" ry="11" style="stroke:#A80036;stroke-width:1.0;"/><path d="M613.8438,198.6719 C612.9063,198.2344 612.3125,198.0938 611.4375,198.0938 C608.8125,198.0938 606.8125,200.1719 606.8125,202.8906 L606.8125,204.0156 C606.8125,206.5938 608.9219,208.4844 611.8125,208.4844 C613.0313,208.4844 614.1875,208.1875 614.9375,207.6406 C615.5156,207.2344 615.8438,206.7813 615.8438,206.3906 C615.8438,205.9375 615.4531,205.5469 614.9844,205.5469 C614.7656,205.5469 614.5625,205.625 614.375,205.8125 C613.9219,206.2969 613.9219,206.2969 613.7344,206.3906 C613.3125,206.6563 612.625,206.7813 611.8594,206.7813 C609.8125,206.7813 608.5156,205.6875 608.5156,203.9844 L608.5156,202.8906 C608.5156,201.1094 609.7656,199.7969 611.5,199.7969 C612.0781,199.7969 612.6875,199.9531 613.1563,200.2031 C613.6406,200.4844 613.8125,200.7031 613.9063,201.1094 C613.9688,201.5156 614,201.6406 614.1406,201.7656 C614.2813,201.9063 614.5156,202.0156 614.7344,202.0156 C615,202.0156 615.2656,201.875 615.4375,201.6563 C615.5469,201.5 615.5781,201.3125 615.5781,200.8906 L615.5781,199.4688 C615.5781,199.0313 615.5625,198.9063 615.4688,198.75 C615.3125,198.4844 615.0313,198.3438 614.7344,198.3438 C614.4375,198.3438 614.2344,198.4375 614.0156,198.75 L613.8438,198.6719 Z " fill="#000000"/><text fill="#000000" font-family="sans-serif" font-size="12" lengthAdjust="spacing" textLength="94" x="625.5" y="207.1543">MovePieceView</text><line style="stroke:#A80036;stroke-width:1.5;" x1="597.5" x2="721.5" y1="219" y2="219"/><line style="stroke:#A80036;stroke-width:1.5;" x1="597.5" x2="721.5" y1="227" y2="227"/><polygon fill="#4177AF" points="607.5,234,603.5,240,611.5,240" style="stroke:#1963A0;stroke-width:1.0;"/><text fill="#000000" font-family="sans-serif" font-size="11" lengthAdjust="spacing" textLength="51" x="616.5" y="241.2104">interact()</text><!--MD5=[af194e474b2c37e443a340884399de77]
class PlayerView--><rect codeLine="46" fill="#FEFECE" filter="url(#f1gy85cnjfmams)" height="99.2188" id="PlayerView" style="stroke:#A80036;stroke-width:1.5;" width="338" x="291.5" y="308"/><ellipse cx="423.75" cy="324" fill="#ADD1B2" rx="11" ry="11" style="stroke:#A80036;stroke-width:1.0;"/><path d="M426.0938,319.6719 C425.1563,319.2344 424.5625,319.0938 423.6875,319.0938 C421.0625,319.0938 419.0625,321.1719 419.0625,323.8906 L419.0625,325.0156 C419.0625,327.5938 421.1719,329.4844 424.0625,329.4844 C425.2813,329.4844 426.4375,329.1875 427.1875,328.6406 C427.7656,328.2344 428.0938,327.7813 428.0938,327.3906 C428.0938,326.9375 427.7031,326.5469 427.2344,326.5469 C427.0156,326.5469 426.8125,326.625 426.625,326.8125 C426.1719,327.2969 426.1719,327.2969 425.9844,327.3906 C425.5625,327.6563 424.875,327.7813 424.1094,327.7813 C422.0625,327.7813 420.7656,326.6875 420.7656,324.9844 L420.7656,323.8906 C420.7656,322.1094 422.0156,320.7969 423.75,320.7969 C424.3281,320.7969 424.9375,320.9531 425.4063,321.2031 C425.8906,321.4844 426.0625,321.7031 426.1563,322.1094 C426.2188,322.5156 426.25,322.6406 426.3906,322.7656 C426.5313,322.9063 426.7656,323.0156 426.9844,323.0156 C427.25,323.0156 427.5156,322.875 427.6875,322.6563 C427.7969,322.5 427.8281,322.3125 427.8281,321.8906 L427.8281,320.4688 C427.8281,320.0313 427.8125,319.9063 427.7188,319.75 C427.5625,319.4844 427.2813,319.3438 426.9844,319.3438 C426.6875,319.3438 426.4844,319.4375 426.2656,319.75 L426.0938,319.6719 Z " fill="#000000"/><text fill="#000000" font-family="sans-serif" font-size="12" lengthAdjust="spacing" textLength="65" x="444.25" y="328.1543">PlayerView</text><line style="stroke:#A80036;stroke-width:1.5;" x1="292.5" x2="628.5" y1="340" y2="340"/><line style="stroke:#A80036;stroke-width:1.5;" x1="292.5" x2="628.5" y1="348" y2="348"/><polygon fill="#4177AF" points="302.5,355,298.5,361,306.5,361" style="stroke:#1963A0;stroke-width:1.0;"/><text fill="#000000" font-family="sans-serif" font-size="11" lengthAdjust="spacing" textLength="51" x="311.5" y="362.2104">interact()</text><rect fill="#F24D5C" height="6" style="stroke:#C82930;stroke-width:1.0;" width="6" x="299.5" y="368.8047"/><text fill="#000000" font-family="sans-serif" font-size="11" lengthAdjust="spacing" textLength="72" x="311.5" y="375.0151">movePiece()</text><rect fill="#F24D5C" height="6" style="stroke:#C82930;stroke-width:1.0;" width="6" x="299.5" y="381.6094"/><text fill="#000000" font-family="sans-serif" font-size="11" lengthAdjust="spacing" textLength="243" x="311.5" y="387.8198">getOriginMovePieceError(Coordinate): Error</text><rect fill="#F24D5C" height="6" style="stroke:#C82930;stroke-width:1.0;" width="6" x="299.5" y="394.4141"/><text fill="#000000" font-family="sans-serif" font-size="11" lengthAdjust="spacing" textLength="312" x="311.5" y="400.6245">getTargetMovePieceError(Coordinate,Coordinate): Error</text><!--MD5=[19088a99a8c1f36e582d33ac2f8fc6dd]
class ResumeView--><rect codeLine="52" fill="#FEFECE" filter="url(#f1gy85cnjfmams)" height="60.8047" id="ResumeView" style="stroke:#A80036;stroke-width:1.5;" width="109" x="813" y="327"/><ellipse cx="828" cy="343" fill="#ADD1B2" rx="11" ry="11" style="stroke:#A80036;stroke-width:1.0;"/><path d="M830.3438,338.6719 C829.4063,338.2344 828.8125,338.0938 827.9375,338.0938 C825.3125,338.0938 823.3125,340.1719 823.3125,342.8906 L823.3125,344.0156 C823.3125,346.5938 825.4219,348.4844 828.3125,348.4844 C829.5313,348.4844 830.6875,348.1875 831.4375,347.6406 C832.0156,347.2344 832.3438,346.7813 832.3438,346.3906 C832.3438,345.9375 831.9531,345.5469 831.4844,345.5469 C831.2656,345.5469 831.0625,345.625 830.875,345.8125 C830.4219,346.2969 830.4219,346.2969 830.2344,346.3906 C829.8125,346.6563 829.125,346.7813 828.3594,346.7813 C826.3125,346.7813 825.0156,345.6875 825.0156,343.9844 L825.0156,342.8906 C825.0156,341.1094 826.2656,339.7969 828,339.7969 C828.5781,339.7969 829.1875,339.9531 829.6563,340.2031 C830.1406,340.4844 830.3125,340.7031 830.4063,341.1094 C830.4688,341.5156 830.5,341.6406 830.6406,341.7656 C830.7813,341.9063 831.0156,342.0156 831.2344,342.0156 C831.5,342.0156 831.7656,341.875 831.9375,341.6563 C832.0469,341.5 832.0781,341.3125 832.0781,340.8906 L832.0781,339.4688 C832.0781,339.0313 832.0625,338.9063 831.9688,338.75 C831.8125,338.4844 831.5313,338.3438 831.2344,338.3438 C830.9375,338.3438 830.7344,338.4375 830.5156,338.75 L830.3438,338.6719 Z " fill="#000000"/><text fill="#000000" font-family="sans-serif" font-size="12" lengthAdjust="spacing" textLength="77" x="842" y="347.1543">ResumeView</text><line style="stroke:#A80036;stroke-width:1.5;" x1="814" x2="921" y1="359" y2="359"/><line style="stroke:#A80036;stroke-width:1.5;" x1="814" x2="921" y1="367" y2="367"/><polygon fill="#4177AF" points="824,374,820,380,828,380" style="stroke:#1963A0;stroke-width:1.0;"/><text fill="#000000" font-family="sans-serif" font-size="11" lengthAdjust="spacing" textLength="51" x="833" y="381.2104">interact()</text><!--MD5=[443c52daef265809fdf31be84fc8ae4a]
class StartView--><rect codeLine="55" fill="#FEFECE" filter="url(#f1gy85cnjfmams)" height="60.8047" id="StartView" style="stroke:#A80036;stroke-width:1.5;" width="89" x="758" y="187"/><ellipse cx="773" cy="203" fill="#ADD1B2" rx="11" ry="11" style="stroke:#A80036;stroke-width:1.0;"/><path d="M775.3438,198.6719 C774.4063,198.2344 773.8125,198.0938 772.9375,198.0938 C770.3125,198.0938 768.3125,200.1719 768.3125,202.8906 L768.3125,204.0156 C768.3125,206.5938 770.4219,208.4844 773.3125,208.4844 C774.5313,208.4844 775.6875,208.1875 776.4375,207.6406 C777.0156,207.2344 777.3438,206.7813 777.3438,206.3906 C777.3438,205.9375 776.9531,205.5469 776.4844,205.5469 C776.2656,205.5469 776.0625,205.625 775.875,205.8125 C775.4219,206.2969 775.4219,206.2969 775.2344,206.3906 C774.8125,206.6563 774.125,206.7813 773.3594,206.7813 C771.3125,206.7813 770.0156,205.6875 770.0156,203.9844 L770.0156,202.8906 C770.0156,201.1094 771.2656,199.7969 773,199.7969 C773.5781,199.7969 774.1875,199.9531 774.6563,200.2031 C775.1406,200.4844 775.3125,200.7031 775.4063,201.1094 C775.4688,201.5156 775.5,201.6406 775.6406,201.7656 C775.7813,201.9063 776.0156,202.0156 776.2344,202.0156 C776.5,202.0156 776.7656,201.875 776.9375,201.6563 C777.0469,201.5 777.0781,201.3125 777.0781,200.8906 L777.0781,199.4688 C777.0781,199.0313 777.0625,198.9063 776.9688,198.75 C776.8125,198.4844 776.5313,198.3438 776.2344,198.3438 C775.9375,198.3438 775.7344,198.4375 775.5156,198.75 L775.3438,198.6719 Z " fill="#000000"/><text fill="#000000" font-family="sans-serif" font-size="12" lengthAdjust="spacing" textLength="57" x="787" y="207.1543">StartView</text><line style="stroke:#A80036;stroke-width:1.5;" x1="759" x2="846" y1="219" y2="219"/><line style="stroke:#A80036;stroke-width:1.5;" x1="759" x2="846" y1="227" y2="227"/><polygon fill="#4177AF" points="769,234,765,240,773,240" style="stroke:#1963A0;stroke-width:1.0;"/><text fill="#000000" font-family="sans-serif" font-size="11" lengthAdjust="spacing" textLength="51" x="778" y="241.2104">interact()</text><!--MD5=[1d7ba1c7002d54515419844fbd155368]
class Controller--><rect codeLine="1" fill="#FEFECE" filter="url(#f1gy85cnjfmams)" height="53.9375" id="Controller" style="stroke:#A80036;stroke-width:1.5;" width="99" x="7" y="483"/><ellipse cx="22" cy="501.9688" fill="#A9DCDF" rx="11" ry="11" style="stroke:#A80036;stroke-width:1.0;"/><path d="M24.0781,503.7813 L24.4688,504.7656 L24.0781,504.7656 C23.625,504.7656 23.5156,504.7813 23.3594,504.8906 C23.1094,505.0469 22.9531,505.3281 22.9531,505.625 C22.9531,505.8906 23.0938,506.1406 23.3125,506.2969 C23.4531,506.4219 23.6563,506.4688 24.0781,506.4688 L26.4375,506.4688 C26.7969,506.4688 27.0156,506.4375 27.1563,506.3438 C27.4063,506.2031 27.5625,505.9063 27.5625,505.625 C27.5625,505.3438 27.4219,505.0938 27.2031,504.9375 C27.0313,504.7969 26.875,504.7656 26.4063,504.7656 L23.0156,496.5625 L19.3438,496.5625 C18.8906,496.5625 18.7656,496.5781 18.6094,496.6719 C18.3594,496.8438 18.2031,497.125 18.2031,497.4063 C18.2031,497.6875 18.3438,497.9375 18.5625,498.1094 C18.7344,498.2188 18.9063,498.25 19.3438,498.25 L20.4219,498.25 L17.7813,504.7656 C17.3594,504.7656 17.2031,504.7813 17.0469,504.8906 C16.7969,505.0469 16.6406,505.3281 16.6406,505.625 C16.6406,506.1875 17.0156,506.4688 17.7656,506.4688 L20.0313,506.4688 C20.3906,506.4688 20.6094,506.4375 20.7344,506.3438 C21,506.2031 21.1406,505.9063 21.1406,505.625 C21.1406,505.3438 21.0156,505.0938 20.7969,504.9219 C20.625,504.7969 20.4844,504.7656 20.0313,504.7656 L19.6406,504.7656 L20.0313,503.7813 L24.0781,503.7813 Z M23.375,502.0781 L20.7031,502.0781 L22.0469,498.8125 L23.375,502.0781 Z " fill="#000000"/><text fill="#000000" font-family="sans-serif" font-size="12" font-style="italic" lengthAdjust="spacing" textLength="67" x="36" y="499.1387">controllers.</text><text fill="#000000" font-family="sans-serif" font-size="12" font-style="italic" lengthAdjust="spacing" textLength="58" x="40.5" y="513.1074">Controller</text><line style="stroke:#A80036;stroke-width:1.5;" x1="8" x2="105" y1="520.9375" y2="520.9375"/><line style="stroke:#A80036;stroke-width:1.5;" x1="8" x2="105" y1="528.9375" y2="528.9375"/><!--MD5=[47c371471411cfedeee61b1a5bdaee47]
class StartController--><rect codeLine="2" fill="#FEFECE" filter="url(#f1gy85cnjfmams)" height="53.9375" id="StartController" style="stroke:#A80036;stroke-width:1.5;" width="119" x="1029" y="330.5"/><ellipse cx="1044" cy="349.4688" fill="#ADD1B2" rx="11" ry="11" style="stroke:#A80036;stroke-width:1.0;"/><path d="M1046.3438,345.1406 C1045.4063,344.7031 1044.8125,344.5625 1043.9375,344.5625 C1041.3125,344.5625 1039.3125,346.6406 1039.3125,349.3594 L1039.3125,350.4844 C1039.3125,353.0625 1041.4219,354.9531 1044.3125,354.9531 C1045.5313,354.9531 1046.6875,354.6563 1047.4375,354.1094 C1048.0156,353.7031 1048.3438,353.25 1048.3438,352.8594 C1048.3438,352.4063 1047.9531,352.0156 1047.4844,352.0156 C1047.2656,352.0156 1047.0625,352.0938 1046.875,352.2813 C1046.4219,352.7656 1046.4219,352.7656 1046.2344,352.8594 C1045.8125,353.125 1045.125,353.25 1044.3594,353.25 C1042.3125,353.25 1041.0156,352.1563 1041.0156,350.4531 L1041.0156,349.3594 C1041.0156,347.5781 1042.2656,346.2656 1044,346.2656 C1044.5781,346.2656 1045.1875,346.4219 1045.6563,346.6719 C1046.1406,346.9531 1046.3125,347.1719 1046.4063,347.5781 C1046.4688,347.9844 1046.5,348.1094 1046.6406,348.2344 C1046.7813,348.375 1047.0156,348.4844 1047.2344,348.4844 C1047.5,348.4844 1047.7656,348.3438 1047.9375,348.125 C1048.0469,347.9688 1048.0781,347.7813 1048.0781,347.3594 L1048.0781,345.9375 C1048.0781,345.5 1048.0625,345.375 1047.9688,345.2188 C1047.8125,344.9531 1047.5313,344.8125 1047.2344,344.8125 C1046.9375,344.8125 1046.7344,344.9063 1046.5156,345.2188 L1046.3438,345.1406 Z " fill="#000000"/><text fill="#000000" font-family="sans-serif" font-size="12" lengthAdjust="spacing" textLength="68" x="1067.5" y="346.6387">controllers.</text><text fill="#000000" font-family="sans-serif" font-size="12" lengthAdjust="spacing" textLength="87" x="1058" y="360.6074">StartController</text><line style="stroke:#A80036;stroke-width:1.5;" x1="1030" x2="1147" y1="368.4375" y2="368.4375"/><line style="stroke:#A80036;stroke-width:1.5;" x1="1030" x2="1147" y1="376.4375" y2="376.4375"/><!--MD5=[5ef47068686cbc3d08b5e63eae6891e4]
class MovePieceController--><rect codeLine="3" fill="#FEFECE" filter="url(#f1gy85cnjfmams)" height="53.9375" id="MovePieceController" style="stroke:#A80036;stroke-width:1.5;" width="157" x="955" y="483"/><ellipse cx="970" cy="501.9688" fill="#ADD1B2" rx="11" ry="11" style="stroke:#A80036;stroke-width:1.0;"/><path d="M972.3438,497.6406 C971.4063,497.2031 970.8125,497.0625 969.9375,497.0625 C967.3125,497.0625 965.3125,499.1406 965.3125,501.8594 L965.3125,502.9844 C965.3125,505.5625 967.4219,507.4531 970.3125,507.4531 C971.5313,507.4531 972.6875,507.1563 973.4375,506.6094 C974.0156,506.2031 974.3438,505.75 974.3438,505.3594 C974.3438,504.9063 973.9531,504.5156 973.4844,504.5156 C973.2656,504.5156 973.0625,504.5938 972.875,504.7813 C972.4219,505.2656 972.4219,505.2656 972.2344,505.3594 C971.8125,505.625 971.125,505.75 970.3594,505.75 C968.3125,505.75 967.0156,504.6563 967.0156,502.9531 L967.0156,501.8594 C967.0156,500.0781 968.2656,498.7656 970,498.7656 C970.5781,498.7656 971.1875,498.9219 971.6563,499.1719 C972.1406,499.4531 972.3125,499.6719 972.4063,500.0781 C972.4688,500.4844 972.5,500.6094 972.6406,500.7344 C972.7813,500.875 973.0156,500.9844 973.2344,500.9844 C973.5,500.9844 973.7656,500.8438 973.9375,500.625 C974.0469,500.4688 974.0781,500.2813 974.0781,499.8594 L974.0781,498.4375 C974.0781,498 974.0625,497.875 973.9688,497.7188 C973.8125,497.4531 973.5313,497.3125 973.2344,497.3125 C972.9375,497.3125 972.7344,497.4063 972.5156,497.7188 L972.3438,497.6406 Z " fill="#000000"/><text fill="#000000" font-family="sans-serif" font-size="12" lengthAdjust="spacing" textLength="68" x="1012.5" y="499.1387">controllers.</text><text fill="#000000" font-family="sans-serif" font-size="12" lengthAdjust="spacing" textLength="125" x="984" y="513.1074">movePieceController</text><line style="stroke:#A80036;stroke-width:1.5;" x1="956" x2="1111" y1="520.9375" y2="520.9375"/><line style="stroke:#A80036;stroke-width:1.5;" x1="956" x2="1111" y1="528.9375" y2="528.9375"/><!--MD5=[1a47bbf44ccee225df9b18c5b6629853]
class ResumeController--><rect codeLine="4" fill="#FEFECE" filter="url(#f1gy85cnjfmams)" height="53.9375" id="ResumeController" style="stroke:#A80036;stroke-width:1.5;" width="139" x="1175" y="483"/><ellipse cx="1190" cy="501.9688" fill="#ADD1B2" rx="11" ry="11" style="stroke:#A80036;stroke-width:1.0;"/><path d="M1192.3438,497.6406 C1191.4063,497.2031 1190.8125,497.0625 1189.9375,497.0625 C1187.3125,497.0625 1185.3125,499.1406 1185.3125,501.8594 L1185.3125,502.9844 C1185.3125,505.5625 1187.4219,507.4531 1190.3125,507.4531 C1191.5313,507.4531 1192.6875,507.1563 1193.4375,506.6094 C1194.0156,506.2031 1194.3438,505.75 1194.3438,505.3594 C1194.3438,504.9063 1193.9531,504.5156 1193.4844,504.5156 C1193.2656,504.5156 1193.0625,504.5938 1192.875,504.7813 C1192.4219,505.2656 1192.4219,505.2656 1192.2344,505.3594 C1191.8125,505.625 1191.125,505.75 1190.3594,505.75 C1188.3125,505.75 1187.0156,504.6563 1187.0156,502.9531 L1187.0156,501.8594 C1187.0156,500.0781 1188.2656,498.7656 1190,498.7656 C1190.5781,498.7656 1191.1875,498.9219 1191.6563,499.1719 C1192.1406,499.4531 1192.3125,499.6719 1192.4063,500.0781 C1192.4688,500.4844 1192.5,500.6094 1192.6406,500.7344 C1192.7813,500.875 1193.0156,500.9844 1193.2344,500.9844 C1193.5,500.9844 1193.7656,500.8438 1193.9375,500.625 C1194.0469,500.4688 1194.0781,500.2813 1194.0781,499.8594 L1194.0781,498.4375 C1194.0781,498 1194.0625,497.875 1193.9688,497.7188 C1193.8125,497.4531 1193.5313,497.3125 1193.2344,497.3125 C1192.9375,497.3125 1192.7344,497.4063 1192.5156,497.7188 L1192.3438,497.6406 Z " fill="#000000"/><text fill="#000000" font-family="sans-serif" font-size="12" lengthAdjust="spacing" textLength="68" x="1223.5" y="499.1387">controllers.</text><text fill="#000000" font-family="sans-serif" font-size="12" lengthAdjust="spacing" textLength="107" x="1204" y="513.1074">ResumeController</text><line style="stroke:#A80036;stroke-width:1.5;" x1="1176" x2="1313" y1="520.9375" y2="520.9375"/><line style="stroke:#A80036;stroke-width:1.5;" x1="1176" x2="1313" y1="528.9375" y2="528.9375"/><!--MD5=[8c7d7abc12e214c3cc12c9ab70edee11]
class Coordinate--><rect codeLine="5" fill="#FEFECE" filter="url(#f1gy85cnjfmams)" height="53.9375" id="Coordinate" style="stroke:#A80036;stroke-width:1.5;" width="98" x="8.5" y="687"/><ellipse cx="23.5" cy="705.9688" fill="#ADD1B2" rx="11" ry="11" style="stroke:#A80036;stroke-width:1.0;"/><path d="M25.8438,701.6406 C24.9063,701.2031 24.3125,701.0625 23.4375,701.0625 C20.8125,701.0625 18.8125,703.1406 18.8125,705.8594 L18.8125,706.9844 C18.8125,709.5625 20.9219,711.4531 23.8125,711.4531 C25.0313,711.4531 26.1875,711.1563 26.9375,710.6094 C27.5156,710.2031 27.8438,709.75 27.8438,709.3594 C27.8438,708.9063 27.4531,708.5156 26.9844,708.5156 C26.7656,708.5156 26.5625,708.5938 26.375,708.7813 C25.9219,709.2656 25.9219,709.2656 25.7344,709.3594 C25.3125,709.625 24.625,709.75 23.8594,709.75 C21.8125,709.75 20.5156,708.6563 20.5156,706.9531 L20.5156,705.8594 C20.5156,704.0781 21.7656,702.7656 23.5,702.7656 C24.0781,702.7656 24.6875,702.9219 25.1563,703.1719 C25.6406,703.4531 25.8125,703.6719 25.9063,704.0781 C25.9688,704.4844 26,704.6094 26.1406,704.7344 C26.2813,704.875 26.5156,704.9844 26.7344,704.9844 C27,704.9844 27.2656,704.8438 27.4375,704.625 C27.5469,704.4688 27.5781,704.2813 27.5781,703.8594 L27.5781,702.4375 C27.5781,702 27.5625,701.875 27.4688,701.7188 C27.3125,701.4531 27.0313,701.3125 26.7344,701.3125 C26.4375,701.3125 26.2344,701.4063 26.0156,701.7188 L25.8438,701.6406 Z " fill="#000000"/><text fill="#000000" font-family="sans-serif" font-size="12" lengthAdjust="spacing" textLength="37" x="52" y="703.1387">types.</text><text fill="#000000" font-family="sans-serif" font-size="12" lengthAdjust="spacing" textLength="66" x="37.5" y="717.1074">Coordinate</text><line style="stroke:#A80036;stroke-width:1.5;" x1="9.5" x2="105.5" y1="724.9375" y2="724.9375"/><line style="stroke:#A80036;stroke-width:1.5;" x1="9.5" x2="105.5" y1="732.9375" y2="732.9375"/><!--MD5=[b8cfd8c4119a3b0a7a46bfc5fc780f85]
class Error--><rect codeLine="6" fill="#FEFECE" filter="url(#f1gy85cnjfmams)" height="53.9375" id="Error" style="stroke:#A80036;stroke-width:1.5;" width="69" x="759" y="875"/><ellipse cx="774" cy="893.9688" fill="#EB937F" rx="11" ry="11" style="stroke:#A80036;stroke-width:1.0;"/><path d="M772.7969,894.8438 L774.25,894.8438 L774.25,894.9531 C774.25,895.3594 774.2813,895.5156 774.3594,895.6719 C774.5156,895.9219 774.7969,896.0781 775.0938,896.0781 C775.3438,896.0781 775.6094,895.9375 775.7656,895.7188 C775.8906,895.5625 775.9219,895.4063 775.9219,894.9531 L775.9219,893.0313 C775.9219,892.875 775.9219,892.8281 775.9063,892.6719 C775.8438,892.2031 775.5313,891.8906 775.0781,891.8906 C774.8281,891.8906 774.5625,892.0313 774.3906,892.25 C774.2813,892.4219 774.25,892.5781 774.25,893.0313 L774.25,893.1563 L772.7969,893.1563 L772.7969,890.75 L776.7813,890.75 L776.7813,891.6094 C776.7813,892.0156 776.8125,892.1875 776.8906,892.3438 C777.0625,892.5938 777.3438,892.75 777.625,892.75 C777.8906,892.75 778.1563,892.6094 778.3281,892.3906 C778.4375,892.2188 778.4688,892.0781 778.4688,891.6094 L778.4688,889.0625 L770.8438,889.0625 C770.4063,889.0625 770.2813,889.0781 770.125,889.1719 C769.875,889.3281 769.7188,889.625 769.7188,889.9063 C769.7188,890.1875 769.8594,890.4375 770.0781,890.6094 C770.2344,890.7188 770.4219,890.75 770.8438,890.75 L771.0938,890.75 L771.0938,897.2656 L770.8438,897.2656 C770.4375,897.2656 770.2813,897.2813 770.125,897.3906 C769.875,897.5625 769.7188,897.8281 769.7188,898.125 C769.7188,898.3906 769.8594,898.6406 770.0781,898.7969 C770.2188,898.9219 770.4531,898.9688 770.8438,898.9688 L778.8438,898.9688 L778.8438,896.3906 C778.8438,895.9531 778.8125,895.8125 778.7344,895.6563 C778.5625,895.4063 778.2813,895.25 778,895.25 C777.7344,895.25 777.4688,895.3594 777.2969,895.6094 C777.1875,895.7656 777.1563,895.9063 777.1563,896.3906 L777.1563,897.2656 L772.7969,897.2656 L772.7969,894.8438 Z " fill="#000000"/><text fill="#000000" font-family="sans-serif" font-size="12" lengthAdjust="spacing" textLength="37" x="788" y="891.1387">types.</text><text fill="#000000" font-family="sans-serif" font-size="12" lengthAdjust="spacing" textLength="30" x="791.5" y="905.1074">Error</text><line style="stroke:#A80036;stroke-width:1.5;" x1="760" x2="827" y1="912.9375" y2="912.9375"/><line style="stroke:#A80036;stroke-width:1.5;" x1="760" x2="827" y1="920.9375" y2="920.9375"/><!--MD5=[15ce01b34c29fdca6fa627773e8f9e80]
link View to StartView--><path codeLine="60" d="M851.132,137.5485 C851.132,137.5485 834.968,163.789 827.753,175.503 " fill="none" id="View-StartView" style="stroke:#A80036;stroke-width:1.0;"/><polygon fill="#A80036" points="820.831,186.74,828.9571,181.1753,823.4535,182.4829,822.1458,176.9793,820.831,186.74" style="stroke:#A80036;stroke-width:1.0;"/><line style="stroke:#A80036;stroke-width:1.0;" x1="823.4535" x2="827.649" y1="182.4829" y2="175.6715"/><polygon fill="#A80036" points="857.425,127.331,850.8727,130.3421,851.132,137.5485,857.6844,134.5374,857.425,127.331" style="stroke:#A80036;stroke-width:1.0;"/><!--MD5=[ca69a51dac5470d237cd2679db3ceaa7]
link View to MovePieceView--><path codeLine="61" d="M834.1333,113.981 C834.1333,113.981 756.562,159.52 721.428,180.145 " fill="none" id="View-MovePieceView" style="stroke:#A80036;stroke-width:1.0;"/><polygon fill="#A80036" points="709.857,186.938,719.6435,185.8313,714.1689,184.4068,715.5935,178.9322,709.857,186.938" style="stroke:#A80036;stroke-width:1.0;"/><line style="stroke:#A80036;stroke-width:1.0;" x1="714.1689" x2="721.0685" y1="184.4068" y2="180.356"/><polygon fill="#A80036" points="844.482,107.906,837.2827,107.4939,834.1333,113.981,841.3327,114.393,844.482,107.906" style="stroke:#A80036;stroke-width:1.0;"/><!--MD5=[133041ae27f6e8a9b7b7e2b7786da445]
link View to ResumeView--><path codeLine="62" d="M880.3125,139.1032 C880.3125,139.1032 872.788,266.773 870.029,313.583 " fill="none" id="View-ResumeView" style="stroke:#A80036;stroke-width:1.0;"/><polygon fill="#A80036" points="869.247,326.857,873.7692,318.1077,869.541,321.8656,865.7831,317.6374,869.247,326.857" style="stroke:#A80036;stroke-width:1.0;"/><line style="stroke:#A80036;stroke-width:1.0;" x1="869.541" x2="870.012" y1="321.8656" y2="313.8795"/><polygon fill="#A80036" points="881.018,127.124,876.6722,132.8784,880.3125,139.1032,884.6583,133.3488,881.018,127.124" style="stroke:#A80036;stroke-width:1.0;"/><!--MD5=[53df6433c5feb4d0b52cb60597c3987b]
link View to StartController--><path codeLine="63" d="M915.306,127.124 C956.899,182.209 1028.77,277.396 1065.48,326.009 " fill="none" id="View-to-StartController" style="stroke:#A80036;stroke-width:1.0;stroke-dasharray:7.0,7.0;"/><polygon fill="#A80036" points="1068.7,330.281,1066.4803,320.6855,1065.6918,326.2872,1060.0902,325.4987,1068.7,330.281" style="stroke:#A80036;stroke-width:1.0;"/><!--MD5=[78a003bc2e0021cd0b34490924cec299]
link View to MovePieceController--><path codeLine="64" d="M922.572,101.85 C987.274,132.191 1114.57,202.804 1165.5,308 C1184.67,347.603 1184.89,367.505 1165.5,407 C1149.99,438.586 1119.47,463.165 1091.68,480.275 " fill="none" id="View-to-MovePieceController" style="stroke:#A80036;stroke-width:1.0;stroke-dasharray:7.0,7.0;"/><polygon fill="#A80036" points="1087.25,482.956,1097.0215,481.7244,1091.5292,480.3699,1092.8837,474.8776,1087.25,482.956" style="stroke:#A80036;stroke-width:1.0;"/><!--MD5=[975384a2b2168e63c509e3c2e6a8b99a]
link View to ResumeController--><path codeLine="65" d="M922.736,94.458 C972.836,108.097 1060.13,137.271 1119.5,187 C1210.04,262.845 1235.26,412.592 1242.07,477.625 " fill="none" id="View-to-ResumeController" style="stroke:#A80036;stroke-width:1.0;stroke-dasharray:7.0,7.0;"/><polygon fill="#A80036" points="1242.6,482.905,1245.6766,473.549,1242.0982,477.9302,1237.717,474.3518,1242.6,482.905" style="stroke:#A80036;stroke-width:1.0;"/><!--MD5=[3ad0bd69ff7a093d2131bc46b011fe78]
link StartView to StartController--><path codeLine="66" d="M847.274,237.329 C887.947,254.741 949.372,281.808 1001.5,308 C1013.75,314.154 1026.75,321.147 1038.87,327.869 " fill="none" id="StartView-to-StartController" style="stroke:#A80036;stroke-width:1.0;"/><polygon fill="#A80036" points="1043.29,330.331,1037.3684,322.4611,1038.9202,327.901,1033.4804,329.4528,1043.29,330.331" style="stroke:#A80036;stroke-width:1.0;"/><!--MD5=[97e9ace985d716348ec86012fc7f7728]
link StartView to Message--><path codeLine="67" d="M799.443,248.026 C791.412,324.47 769.573,524.862 758.5,553 C751.073,571.872 740.946,590.609 729.774,608.255 " fill="none" id="StartView-to-Message" style="stroke:#A80036;stroke-width:1.0;stroke-dasharray:7.0,7.0;"/><polygon fill="#A80036" points="726.912,612.718,735.1377,607.3015,729.6112,608.5092,728.4036,602.9827,726.912,612.718" style="stroke:#A80036;stroke-width:1.0;"/><!--MD5=[0b016e28cb8bdd50f0718b285d4c418b]
link StartView to MessageView--><path codeLine="68" d="M789.915,248.223 C768.492,298.819 724.786,402.045 699.256,462.341 " fill="none" id="StartView-to-MessageView" style="stroke:#A80036;stroke-width:1.0;stroke-dasharray:7.0,7.0;"/><polygon fill="#A80036" points="697.298,466.964,704.4894,460.2347,699.2467,462.3594,697.122,457.1167,697.298,466.964" style="stroke:#A80036;stroke-width:1.0;"/><!--MD5=[2b5890793a76472eff4c2a6a4af43287]
link StartView to BoardView--><path codeLine="69" d="M757.73,241.502 C751.71,243.988 745.53,246.246 739.5,248 C538.985,306.309 469.801,236.783 273.5,308 C262.428,312.017 251.298,317.863 241.102,324.116 " fill="none" id="StartView-to-BoardView" style="stroke:#A80036;stroke-width:1.0;stroke-dasharray:7.0,7.0;"/><polygon fill="#A80036" points="236.792,326.816,246.5422,325.4256,241.0286,324.1606,242.2936,318.647,236.792,326.816" style="stroke:#A80036;stroke-width:1.0;"/><!--MD5=[e90467eeac9562e950efe80dd6bef905]
link MovePieceView to MessageView--><path codeLine="70" d="M665.558,248.194 C668.828,265.551 672.578,287.926 674.5,308 C679.515,360.376 680.358,420.758 680.203,461.56 " fill="none" id="MovePieceView-to-MessageView" style="stroke:#A80036;stroke-width:1.0;stroke-dasharray:7.0,7.0;"/><polygon fill="#A80036" points="680.176,466.934,684.2197,457.9535,680.2003,461.9341,676.2198,457.9147,680.176,466.934" style="stroke:#A80036;stroke-width:1.0;"/><!--MD5=[d624f85094ce528c3b4831e7b087ed06]
link MovePieceView to BoardView--><path codeLine="71" d="M596.304,226.423 C518.136,237.724 382.101,262.35 273.5,308 C263.114,312.366 252.561,318.11 242.755,324.113 " fill="none" id="MovePieceView-to-BoardView" style="stroke:#A80036;stroke-width:1.0;stroke-dasharray:7.0,7.0;"/><polygon fill="#A80036" points="238.305,326.886,248.0589,325.5219,242.5488,324.242,243.8286,318.7319,238.305,326.886" style="stroke:#A80036;stroke-width:1.0;"/><!--MD5=[e932a13e189ffdde242b23e92778eed6]
link MovePieceView to PlayerView--><path codeLine="72" d="M616.81,248.104 C592.96,264.643 562.563,285.723 534.926,304.888 " fill="none" id="MovePieceView-to-PlayerView" style="stroke:#A80036;stroke-width:1.0;stroke-dasharray:7.0,7.0;"/><polygon fill="#A80036" points="530.516,307.946,540.1909,306.103,534.6243,305.0962,535.6311,299.5296,530.516,307.946" style="stroke:#A80036;stroke-width:1.0;"/><!--MD5=[08cd6c550b819b07a3766e28bbcc02da]
link MovePieceView to MovePieceController--><path codeLine="73" d="M722.612,241.875 C728.642,243.991 734.677,246.064 740.5,248 C828.157,277.151 869.631,247.569 939.5,308 C991.823,353.256 1016.99,433.927 1027.36,478.057 " fill="none" id="MovePieceView-to-MovePieceController" style="stroke:#A80036;stroke-width:1.0;"/><polygon fill="#A80036" points="1028.49,482.993,1030.3744,473.3261,1027.371,478.1198,1022.5773,475.1165,1028.49,482.993" style="stroke:#A80036;stroke-width:1.0;"/><!--MD5=[cc702c0aace41d67796169c34b68e689]
link MovePieceView to Message--><path codeLine="74" d="M662.591,248.026 C665.444,286.105 666.628,353.764 646.5,407 C634.617,438.43 611.294,435.179 600.5,467 C588.221,503.196 595.387,515.121 600.5,553 C602.913,570.876 606.778,589.579 611.24,607.635 " fill="none" id="MovePieceView-to-Message" style="stroke:#A80036;stroke-width:1.0;stroke-dasharray:7.0,7.0;"/><polygon fill="#A80036" points="612.514,612.71,614.203,603.007,611.297,607.8604,606.4436,604.9543,612.514,612.71" style="stroke:#A80036;stroke-width:1.0;"/><!--MD5=[4b21c71922f6b938a01287b262bac1e8]
link ResumeView to ResumeController--><path codeLine="75" d="M922.319,380.384 C988.963,406.988 1101.54,451.929 1174.42,481.023 " fill="none" id="ResumeView-to-ResumeController" style="stroke:#A80036;stroke-width:1.0;"/><polygon fill="#A80036" points="1179.16,482.916,1172.2885,475.8603,1174.5174,481.0595,1169.3182,483.2884,1179.16,482.916" style="stroke:#A80036;stroke-width:1.0;"/><!--MD5=[91198d1c12ec6e73a40fb6837ae56756]
link ResumeView to Message--><path codeLine="76" d="M858.52,388.307 C845.877,427.795 820.515,498.773 786.5,553 C774.207,572.598 759.489,592.131 744.255,610.471 " fill="none" id="ResumeView-to-Message" style="stroke:#A80036;stroke-width:1.0;stroke-dasharray:7.0,7.0;"/><polygon fill="#A80036" points="740.79,614.611,749.6334,610.2759,743.9988,610.7765,743.4982,605.1418,740.79,614.611" style="stroke:#A80036;stroke-width:1.0;"/><!--MD5=[3e62ce6250fdb05e4f270b44fc45127d]
link BoardView to MessageView--><path codeLine="77" d="M237.829,388.052 C248.952,395.121 261.321,402.046 273.5,407 C395.014,456.432 436.234,431.418 562.5,467 C578.972,471.642 596.465,477.438 612.767,483.227 " fill="none" id="BoardView-to-MessageView" style="stroke:#A80036;stroke-width:1.0;stroke-dasharray:7.0,7.0;"/><polygon fill="#A80036" points="617.785,485.023,610.6587,478.2248,613.0773,483.3385,607.9635,485.7571,617.785,485.023" style="stroke:#A80036;stroke-width:1.0;"/><!--MD5=[e3472d34888c576c4bdcfb4b35a51dcb]
link BoardView to Controller--><path codeLine="78" d="M169.643,388.234 C145.011,414.525 109.256,452.69 84.5628,479.046 " fill="none" id="BoardView-to-Controller" style="stroke:#A80036;stroke-width:1.0;stroke-dasharray:7.0,7.0;"/><polygon fill="#A80036" points="81.0024,482.847,90.0748,479.014,84.4209,479.1982,84.2367,473.5443,81.0024,482.847" style="stroke:#A80036;stroke-width:1.0;"/><!--MD5=[3691da1176459d67ce486a3614a47073]
link BoardView to Coordinate--><path codeLine="79" d="M186.471,388.255 C172.229,426.499 146.532,494.896 123.5,553 C105.6848,597.943 84.1931,649.593 70.6831,681.768 " fill="none" id="BoardView-to-Coordinate" style="stroke:#A80036;stroke-width:1.0;stroke-dasharray:7.0,7.0;"/><polygon fill="#A80036" points="68.5852,686.76,75.7578,680.0107,70.5211,682.15,68.3818,676.9132,68.5852,686.76" style="stroke:#A80036;stroke-width:1.0;"/><!--MD5=[02a16ebf8539d2e5d44c3be387606aac]
link BoardView to Message--><path codeLine="80" d="M214.612,388.149 C240.438,430.435 293.25,507.924 357.5,553 C422.748,598.776 457.414,573.253 526.5,613 C532.343,616.361 538.174,620.025 543.94,623.899 " fill="none" id="BoardView-to-Message" style="stroke:#A80036;stroke-width:1.0;stroke-dasharray:7.0,7.0;"/><polygon fill="#A80036" points="548.336,626.902,543.1603,618.5227,544.2072,624.0819,538.6481,625.1288,548.336,626.902" style="stroke:#A80036;stroke-width:1.0;"/><!--MD5=[9b7deca2c2a434391bcba0470bdb9ca5]
link PlayerView to CoordinateView--><path codeLine="81" d="M460.5,407.363 C460.5,426.82 460.5,448.971 460.5,467.617 " fill="none" id="PlayerView-to-CoordinateView" style="stroke:#A80036;stroke-width:1.0;stroke-dasharray:7.0,7.0;"/><polygon fill="#A80036" points="460.5,472.778,464.5,463.778,460.5,467.778,456.5,463.778,460.5,472.778" style="stroke:#A80036;stroke-width:1.0;"/><!--MD5=[5d3bf25e2a82fa01272e0e1c6d0f0a54]
link PlayerView to ErrorView--><path codeLine="82" d="M399.292,407.161 C382.494,424.112 366.453,444.566 357.5,467 C343.333,502.5 346.717,516.33 357.5,553 C371.726,601.38 405.608,648.951 430.647,679.477 " fill="none" id="PlayerView-to-ErrorView" style="stroke:#A80036;stroke-width:1.0;stroke-dasharray:7.0,7.0;"/><polygon fill="#A80036" points="433.963,683.484,431.3086,673.9996,430.776,679.6313,425.1443,679.0988,433.963,683.484" style="stroke:#A80036;stroke-width:1.0;"/><!--MD5=[821a3bf9734ee801d21e3f4de4f986d6]
link PlayerView to MovePieceController--><path codeLine="83" d="M629.686,388.615 C722.119,407.127 837.924,433.699 938.5,467 C950.439,470.953 962.924,475.869 974.771,480.931 " fill="none" id="PlayerView-to-MovePieceController" style="stroke:#A80036;stroke-width:1.0;"/><polygon fill="#A80036" points="979.452,482.952,972.7754,475.7116,974.8618,480.9697,969.6037,483.056,979.452,482.952" style="stroke:#A80036;stroke-width:1.0;"/><!--MD5=[a5885dd3c221484634073d0957c070aa]
link PlayerView to Coordinate--><path codeLine="84" d="M380.454,407.215 C307.704,454.023 200.182,529.762 122.5,613 C103.0611,633.829 85.7409,661.156 73.8774,681.979 " fill="none" id="PlayerView-to-Coordinate" style="stroke:#A80036;stroke-width:1.0;stroke-dasharray:7.0,7.0;"/><polygon fill="#A80036" points="71.2807,686.586,79.1836,680.7085,73.7351,682.2299,72.2138,676.7814,71.2807,686.586" style="stroke:#A80036;stroke-width:1.0;"/><!--MD5=[1e0a8206d6bada1f11af6bd4b0096de3]
link PlayerView to Error--><path codeLine="85" d="M629.743,391.443 C676.404,407.581 723.703,431.527 758.5,467 C867.276,577.887 823.976,790.389 802.654,869.9297 " fill="none" id="PlayerView-to-Error" style="stroke:#A80036;stroke-width:1.0;stroke-dasharray:7.0,7.0;"/><polygon fill="#A80036" points="801.284,874.9741,807.504,867.3379,802.5951,870.1491,799.784,865.2401,801.284,874.9741" style="stroke:#A80036;stroke-width:1.0;"/><!--MD5=[a31fa164961aa559970146a0c482d415]
link MessageView to Message--><path codeLine="86" d="M672.163,553.346 C669.396,569.314 666.111,588.275 662.788,607.455 " fill="none" id="MessageView-to-Message" style="stroke:#A80036;stroke-width:1.0;stroke-dasharray:7.0,7.0;"/><polygon fill="#A80036" points="661.85,612.868,667.3264,604.6821,662.7028,607.9413,659.4436,603.3176,661.85,612.868" style="stroke:#A80036;stroke-width:1.0;"/><!--MD5=[118aad95fcf670bfe04c06c9ba75fb27]
link CoordinateView to Coordinate--><path codeLine="87" d="M375.305,529.64 C288.947,549.762 162.518,582.971 122.5,613 C98.8429,630.752 81.3493,659.827 70.5062,682.062 " fill="none" id="CoordinateView-to-Coordinate" style="stroke:#A80036;stroke-width:1.0;stroke-dasharray:7.0,7.0;"/><polygon fill="#A80036" points="68.2935,686.697,75.7809,680.2986,70.4478,682.1849,68.5615,676.8518,68.2935,686.697" style="stroke:#A80036;stroke-width:1.0;"/><!--MD5=[58a4a5df9e73ac69be6ca582831dff7b]
link CoordinateView to ErrorView--><path codeLine="88" d="M460.5,547.114 C460.5,584.213 460.5,641.568 460.5,678.186 " fill="none" id="CoordinateView-to-ErrorView" style="stroke:#A80036;stroke-width:1.0;stroke-dasharray:7.0,7.0;"/><polygon fill="#A80036" points="460.5,683.433,464.5,674.433,460.5,678.433,456.5,674.433,460.5,683.433" style="stroke:#A80036;stroke-width:1.0;"/><!--MD5=[0c2cbee6ccdc091545494bb75c0537c3]
link CoordinateView to Error--><path codeLine="89" d="M545.663,537.815 C630.912,565.024 750.464,604.338 757.5,613 C818.406,687.984 808.279,812.177 799.352,869.8228 " fill="none" id="CoordinateView-to-Error" style="stroke:#A80036;stroke-width:1.0;stroke-dasharray:7.0,7.0;"/><polygon fill="#A80036" points="798.549,874.8572,803.9167,866.5996,799.3366,869.9196,796.0165,865.3395,798.549,874.8572" style="stroke:#A80036;stroke-width:1.0;"/><!--MD5=[86870cdabd6f68629f04aeac36e6c4ff]
link ErrorView to Error--><path codeLine="90" d="M469.497,744.75 C479.68,773.277 499.071,815.394 530.5,839 C597.179,889.0816 698.07,899.5058 753.508,901.1998 " fill="none" id="ErrorView-to-Error" style="stroke:#A80036;stroke-width:1.0;stroke-dasharray:7.0,7.0;"/><polygon fill="#A80036" points="758.728,901.3376,749.8375,897.0999,753.7298,901.2047,749.6249,905.097,758.728,901.3376" style="stroke:#A80036;stroke-width:1.0;"/><!--MD5=[4fa19846e39c8dca1e5294451f73d834]
@startuml
abstract class Controller as "controllers.\nController"
class StartController as "controllers.\nStartController"
class MovePieceController as "controllers.\nmovePieceController"
class ResumeController as "controllers.\nResumeController"
class Coordinate as "types.\nCoordinate"
enum Error as "types.\nError"

package views{
    class BoardView{
        ~ write(Controller)
    }
    class View{
        # start()
        # play()
        # resume()
    }
    class CoordinateView{
        + read(String): Coordinate
        + getErrorMessage(): String
    }
    class ErrorView{
        + writeln(Error)
    }
    enum Message{
        + TITLE
        + VERTICAL_LINE
        + ENTER_COORDINATE_TO_PUT
        + COORDINATE_TO_PUT
        + COORDINATE_TO_REMOVE
        + COORDINATE_TO_MOVE
        + PLAYER_WIN
        + DRAW
        + RESUME
        - message: String
        ~ Message(String)
        + toString(): String
    }
    class MessageView{
        ~ write(Message)
        ~ writeln(Message)
        ~ writeln(Message)
    }
    class MovePieceView{
        ~ interact()
    }
    class PlayerView{
        ~ interact()
        - movePiece()
        - getOriginMovePieceError(Coordinate): Error
        - getTargetMovePieceError(Coordinate,Coordinate): Error
    }
    class ResumeView{
        ~ interact()
    }
    class StartView{
        ~ interact()
    }
}

View *-down-> StartView
View *-down-> MovePieceView
View *-down-> ResumeView
View .down.> StartController
View .down.> MovePieceController
View .down.> ResumeController
StartView -down-> StartController
StartView .down.> Message
StartView .down.> MessageView
StartView .down.> BoardView
MovePieceView .down.> MessageView
MovePieceView .down.> BoardView
MovePieceView .down.> PlayerView
MovePieceView -down-> MovePieceController
MovePieceView .down.> Message
ResumeView -down-> ResumeController
ResumeView .down.> Message
BoardView .down.> MessageView
BoardView .down.> Controller
BoardView .down.> Coordinate
BoardView .down.> Message
PlayerView .down.> CoordinateView
PlayerView .down.> ErrorView
PlayerView -down-> MovePieceController
PlayerView .down.> Coordinate
PlayerView .down.> Error
MessageView .down.> Message
CoordinateView .down.> Coordinate
CoordinateView .down.> ErrorView
CoordinateView .down.> Error
ErrorView .down.> Error
@enduml

PlantUML version 1.2021.4beta2(Unknown compile time)
(GPL source distribution)
Java Runtime: Java(TM) SE Runtime Environment
JVM: Java HotSpot(TM) 64-Bit Server VM
Default Encoding: UTF-8
Language: en
Country: US
--></g></svg>