<?xml version="1.0" encoding="UTF-8" standalone="no"?><svg xmlns="http://www.w3.org/2000/svg" xmlns:xlink="http://www.w3.org/1999/xlink" contentScriptType="application/ecmascript" contentStyleType="text/css" height="945px" preserveAspectRatio="none" style="width:1735px;height:945px;" version="1.1" viewBox="0 0 1735 945" width="1735px" zoomAndPan="magnify"><defs><filter height="300%" id="fewd4gv7j0ge8" width="300%" x="-1" y="-1"><feGaussianBlur result="blurOut" stdDeviation="2.0"/><feColorMatrix in="blurOut" result="blurOut2" type="matrix" values="0 0 0 0 0 0 0 0 0 0 0 0 0 0 0 0 0 0 .4 0"/><feOffset dx="4.0" dy="4.0" in="blurOut2" result="blurOut3"/><feBlend in="SourceGraphic" in2="blurOut3" mode="normal"/></filter></defs><g><!--MD5=[e2a75efa8a0f57c2afae8bf75386f79c]
cluster views--><polygon fill="#FFFFFF" filter="url(#fewd4gv7j0ge8)" points="16,6,67,6,74,28.2969,596,28.2969,596,614,16,614,16,6" style="stroke:#000000;stroke-width:1.5;"/><line style="stroke:#000000;stroke-width:1.5;" x1="16" x2="74" y1="28.2969" y2="28.2969"/><text fill="#000000" font-family="sans-serif" font-size="14" font-weight="bold" lengthAdjust="spacing" textLength="45" x="20" y="20.9951">views</text><!--MD5=[a60570e4b426f702ccbb0d459e3b9417]
cluster models--><polygon fill="#FFFFFF" filter="url(#fewd4gv7j0ge8)" points="1217,236,1281,236,1288,258.2969,1450,258.2969,1450,938,1217,938,1217,236" style="stroke:#000000;stroke-width:1.5;"/><line style="stroke:#000000;stroke-width:1.5;" x1="1217" x2="1288" y1="258.2969" y2="258.2969"/><text fill="#000000" font-family="sans-serif" font-size="14" font-weight="bold" lengthAdjust="spacing" textLength="58" x="1221" y="250.9951">models</text><!--MD5=[f4e70ef68289585296b9045165e58692]
cluster controllers--><polygon fill="#FFFFFF" filter="url(#fewd4gv7j0ge8)" points="636,121,731,121,738,143.2969,1177,143.2969,1177,351,636,351,636,121" style="stroke:#000000;stroke-width:1.5;"/><line style="stroke:#000000;stroke-width:1.5;" x1="636" x2="738" y1="143.2969" y2="143.2969"/><text fill="#000000" font-family="sans-serif" font-size="14" font-weight="bold" lengthAdjust="spacing" textLength="89" x="640" y="135.9951">controllers</text><!--MD5=[67cd15ce44b6dd54f77054b62c31bf42]
cluster types--><polygon fill="#FFFFFF" filter="url(#fewd4gv7j0ge8)" points="1490,391,1541,391,1548,413.2969,1718,413.2969,1718,614,1490,614,1490,391" style="stroke:#000000;stroke-width:1.5;"/><line style="stroke:#000000;stroke-width:1.5;" x1="1490" x2="1548" y1="413.2969" y2="413.2969"/><text fill="#000000" font-family="sans-serif" font-size="14" font-weight="bold" lengthAdjust="spacing" textLength="45" x="1494" y="405.9951">types</text><!--MD5=[9b237e88d697a058bd530d6510c96c00]
class BoardView--><rect codeLine="2" fill="#FEFECE" filter="url(#fewd4gv7j0ge8)" height="48" id="BoardView" style="stroke:#A80036;stroke-width:1.5;" width="97" x="247.5" y="279"/><ellipse cx="262.5" cy="295" fill="#ADD1B2" rx="11" ry="11" style="stroke:#A80036;stroke-width:1.0;"/><path d="M264.8438,290.6719 C263.9063,290.2344 263.3125,290.0938 262.4375,290.0938 C259.8125,290.0938 257.8125,292.1719 257.8125,294.8906 L257.8125,296.0156 C257.8125,298.5938 259.9219,300.4844 262.8125,300.4844 C264.0313,300.4844 265.1875,300.1875 265.9375,299.6406 C266.5156,299.2344 266.8438,298.7813 266.8438,298.3906 C266.8438,297.9375 266.4531,297.5469 265.9844,297.5469 C265.7656,297.5469 265.5625,297.625 265.375,297.8125 C264.9219,298.2969 264.9219,298.2969 264.7344,298.3906 C264.3125,298.6563 263.625,298.7813 262.8594,298.7813 C260.8125,298.7813 259.5156,297.6875 259.5156,295.9844 L259.5156,294.8906 C259.5156,293.1094 260.7656,291.7969 262.5,291.7969 C263.0781,291.7969 263.6875,291.9531 264.1563,292.2031 C264.6406,292.4844 264.8125,292.7031 264.9063,293.1094 C264.9688,293.5156 265,293.6406 265.1406,293.7656 C265.2813,293.9063 265.5156,294.0156 265.7344,294.0156 C266,294.0156 266.2656,293.875 266.4375,293.6563 C266.5469,293.5 266.5781,293.3125 266.5781,292.8906 L266.5781,291.4688 C266.5781,291.0313 266.5625,290.9063 266.4688,290.75 C266.3125,290.4844 266.0313,290.3438 265.7344,290.3438 C265.4375,290.3438 265.2344,290.4375 265.0156,290.75 L264.8438,290.6719 Z " fill="#000000"/><text fill="#000000" font-family="sans-serif" font-size="12" lengthAdjust="spacing" textLength="65" x="276.5" y="299.1543">BoardView</text><line style="stroke:#A80036;stroke-width:1.5;" x1="248.5" x2="343.5" y1="311" y2="311"/><line style="stroke:#A80036;stroke-width:1.5;" x1="248.5" x2="343.5" y1="319" y2="319"/><!--MD5=[c045e12321b83266d36d22b9096c24ea]
class View--><rect codeLine="3" fill="#FEFECE" filter="url(#fewd4gv7j0ge8)" height="48" id="View" style="stroke:#A80036;stroke-width:1.5;" width="61" x="350.5" y="49"/><ellipse cx="365.5" cy="65" fill="#ADD1B2" rx="11" ry="11" style="stroke:#A80036;stroke-width:1.0;"/><path d="M367.8438,60.6719 C366.9063,60.2344 366.3125,60.0938 365.4375,60.0938 C362.8125,60.0938 360.8125,62.1719 360.8125,64.8906 L360.8125,66.0156 C360.8125,68.5938 362.9219,70.4844 365.8125,70.4844 C367.0313,70.4844 368.1875,70.1875 368.9375,69.6406 C369.5156,69.2344 369.8438,68.7813 369.8438,68.3906 C369.8438,67.9375 369.4531,67.5469 368.9844,67.5469 C368.7656,67.5469 368.5625,67.625 368.375,67.8125 C367.9219,68.2969 367.9219,68.2969 367.7344,68.3906 C367.3125,68.6563 366.625,68.7813 365.8594,68.7813 C363.8125,68.7813 362.5156,67.6875 362.5156,65.9844 L362.5156,64.8906 C362.5156,63.1094 363.7656,61.7969 365.5,61.7969 C366.0781,61.7969 366.6875,61.9531 367.1563,62.2031 C367.6406,62.4844 367.8125,62.7031 367.9063,63.1094 C367.9688,63.5156 368,63.6406 368.1406,63.7656 C368.2813,63.9063 368.5156,64.0156 368.7344,64.0156 C369,64.0156 369.2656,63.875 369.4375,63.6563 C369.5469,63.5 369.5781,63.3125 369.5781,62.8906 L369.5781,61.4688 C369.5781,61.0313 369.5625,60.9063 369.4688,60.75 C369.3125,60.4844 369.0313,60.3438 368.7344,60.3438 C368.4375,60.3438 368.2344,60.4375 368.0156,60.75 L367.8438,60.6719 Z " fill="#000000"/><text fill="#000000" font-family="sans-serif" font-size="12" lengthAdjust="spacing" textLength="29" x="379.5" y="69.1543">View</text><line style="stroke:#A80036;stroke-width:1.5;" x1="351.5" x2="410.5" y1="81" y2="81"/><line style="stroke:#A80036;stroke-width:1.5;" x1="351.5" x2="410.5" y1="89" y2="89"/><!--MD5=[a0aa4c6b60a321248fec377f3a83cfca]
class CoordinateView--><rect codeLine="4" fill="#FEFECE" filter="url(#fewd4gv7j0ge8)" height="48" id="CoordinateView" style="stroke:#A80036;stroke-width:1.5;" width="127" x="77.5" y="434"/><ellipse cx="92.5" cy="450" fill="#ADD1B2" rx="11" ry="11" style="stroke:#A80036;stroke-width:1.0;"/><path d="M94.8438,445.6719 C93.9063,445.2344 93.3125,445.0938 92.4375,445.0938 C89.8125,445.0938 87.8125,447.1719 87.8125,449.8906 L87.8125,451.0156 C87.8125,453.5938 89.9219,455.4844 92.8125,455.4844 C94.0313,455.4844 95.1875,455.1875 95.9375,454.6406 C96.5156,454.2344 96.8438,453.7813 96.8438,453.3906 C96.8438,452.9375 96.4531,452.5469 95.9844,452.5469 C95.7656,452.5469 95.5625,452.625 95.375,452.8125 C94.9219,453.2969 94.9219,453.2969 94.7344,453.3906 C94.3125,453.6563 93.625,453.7813 92.8594,453.7813 C90.8125,453.7813 89.5156,452.6875 89.5156,450.9844 L89.5156,449.8906 C89.5156,448.1094 90.7656,446.7969 92.5,446.7969 C93.0781,446.7969 93.6875,446.9531 94.1563,447.2031 C94.6406,447.4844 94.8125,447.7031 94.9063,448.1094 C94.9688,448.5156 95,448.6406 95.1406,448.7656 C95.2813,448.9063 95.5156,449.0156 95.7344,449.0156 C96,449.0156 96.2656,448.875 96.4375,448.6563 C96.5469,448.5 96.5781,448.3125 96.5781,447.8906 L96.5781,446.4688 C96.5781,446.0313 96.5625,445.9063 96.4688,445.75 C96.3125,445.4844 96.0313,445.3438 95.7344,445.3438 C95.4375,445.3438 95.2344,445.4375 95.0156,445.75 L94.8438,445.6719 Z " fill="#000000"/><text fill="#000000" font-family="sans-serif" font-size="12" lengthAdjust="spacing" textLength="95" x="106.5" y="454.1543">CoordinateView</text><line style="stroke:#A80036;stroke-width:1.5;" x1="78.5" x2="203.5" y1="466" y2="466"/><line style="stroke:#A80036;stroke-width:1.5;" x1="78.5" x2="203.5" y1="474" y2="474"/><!--MD5=[86cec68673cafdfc1c204348d5b2cca6]
class ErrorView--><rect codeLine="5" fill="#FEFECE" filter="url(#fewd4gv7j0ge8)" height="48" id="ErrorView" style="stroke:#A80036;stroke-width:1.5;" width="91" x="68.5" y="542"/><ellipse cx="83.5" cy="558" fill="#ADD1B2" rx="11" ry="11" style="stroke:#A80036;stroke-width:1.0;"/><path d="M85.8438,553.6719 C84.9063,553.2344 84.3125,553.0938 83.4375,553.0938 C80.8125,553.0938 78.8125,555.1719 78.8125,557.8906 L78.8125,559.0156 C78.8125,561.5938 80.9219,563.4844 83.8125,563.4844 C85.0313,563.4844 86.1875,563.1875 86.9375,562.6406 C87.5156,562.2344 87.8438,561.7813 87.8438,561.3906 C87.8438,560.9375 87.4531,560.5469 86.9844,560.5469 C86.7656,560.5469 86.5625,560.625 86.375,560.8125 C85.9219,561.2969 85.9219,561.2969 85.7344,561.3906 C85.3125,561.6563 84.625,561.7813 83.8594,561.7813 C81.8125,561.7813 80.5156,560.6875 80.5156,558.9844 L80.5156,557.8906 C80.5156,556.1094 81.7656,554.7969 83.5,554.7969 C84.0781,554.7969 84.6875,554.9531 85.1563,555.2031 C85.6406,555.4844 85.8125,555.7031 85.9063,556.1094 C85.9688,556.5156 86,556.6406 86.1406,556.7656 C86.2813,556.9063 86.5156,557.0156 86.7344,557.0156 C87,557.0156 87.2656,556.875 87.4375,556.6563 C87.5469,556.5 87.5781,556.3125 87.5781,555.8906 L87.5781,554.4688 C87.5781,554.0313 87.5625,553.9063 87.4688,553.75 C87.3125,553.4844 87.0313,553.3438 86.7344,553.3438 C86.4375,553.3438 86.2344,553.4375 86.0156,553.75 L85.8438,553.6719 Z " fill="#000000"/><text fill="#000000" font-family="sans-serif" font-size="12" lengthAdjust="spacing" textLength="59" x="97.5" y="562.1543">ErrorView</text><line style="stroke:#A80036;stroke-width:1.5;" x1="69.5" x2="158.5" y1="574" y2="574"/><line style="stroke:#A80036;stroke-width:1.5;" x1="69.5" x2="158.5" y1="582" y2="582"/><!--MD5=[bea5b0d46523efab5ea1c1d339f396f0]
class Message--><rect codeLine="6" fill="#FEFECE" filter="url(#fewd4gv7j0ge8)" height="48" id="Message" style="stroke:#A80036;stroke-width:1.5;" width="87" x="375.5" y="542"/><ellipse cx="390.5" cy="558" fill="#EB937F" rx="11" ry="11" style="stroke:#A80036;stroke-width:1.0;"/><path d="M389.2969,558.875 L390.75,558.875 L390.75,558.9844 C390.75,559.3906 390.7813,559.5469 390.8594,559.7031 C391.0156,559.9531 391.2969,560.1094 391.5938,560.1094 C391.8438,560.1094 392.1094,559.9688 392.2656,559.75 C392.3906,559.5938 392.4219,559.4375 392.4219,558.9844 L392.4219,557.0625 C392.4219,556.9063 392.4219,556.8594 392.4063,556.7031 C392.3438,556.2344 392.0313,555.9219 391.5781,555.9219 C391.3281,555.9219 391.0625,556.0625 390.8906,556.2813 C390.7813,556.4531 390.75,556.6094 390.75,557.0625 L390.75,557.1875 L389.2969,557.1875 L389.2969,554.7813 L393.2813,554.7813 L393.2813,555.6406 C393.2813,556.0469 393.3125,556.2188 393.3906,556.375 C393.5625,556.625 393.8438,556.7813 394.125,556.7813 C394.3906,556.7813 394.6563,556.6406 394.8281,556.4219 C394.9375,556.25 394.9688,556.1094 394.9688,555.6406 L394.9688,553.0938 L387.3438,553.0938 C386.9063,553.0938 386.7813,553.1094 386.625,553.2031 C386.375,553.3594 386.2188,553.6563 386.2188,553.9375 C386.2188,554.2188 386.3594,554.4688 386.5781,554.6406 C386.7344,554.75 386.9219,554.7813 387.3438,554.7813 L387.5938,554.7813 L387.5938,561.2969 L387.3438,561.2969 C386.9375,561.2969 386.7813,561.3125 386.625,561.4219 C386.375,561.5938 386.2188,561.8594 386.2188,562.1563 C386.2188,562.4219 386.3594,562.6719 386.5781,562.8281 C386.7188,562.9531 386.9531,563 387.3438,563 L395.3438,563 L395.3438,560.4219 C395.3438,559.9844 395.3125,559.8438 395.2344,559.6875 C395.0625,559.4375 394.7813,559.2813 394.5,559.2813 C394.2344,559.2813 393.9688,559.3906 393.7969,559.6406 C393.6875,559.7969 393.6563,559.9375 393.6563,560.4219 L393.6563,561.2969 L389.2969,561.2969 L389.2969,558.875 Z " fill="#000000"/><text fill="#000000" font-family="sans-serif" font-size="12" lengthAdjust="spacing" textLength="55" x="404.5" y="562.1543">Message</text><line style="stroke:#A80036;stroke-width:1.5;" x1="376.5" x2="461.5" y1="574" y2="574"/><line style="stroke:#A80036;stroke-width:1.5;" x1="376.5" x2="461.5" y1="582" y2="582"/><!--MD5=[49feb4884a66ed250f9a27795111a05a]
class MessageView--><rect codeLine="7" fill="#FEFECE" filter="url(#fewd4gv7j0ge8)" height="48" id="MessageView" style="stroke:#A80036;stroke-width:1.5;" width="116" x="314" y="434"/><ellipse cx="329" cy="450" fill="#ADD1B2" rx="11" ry="11" style="stroke:#A80036;stroke-width:1.0;"/><path d="M331.3438,445.6719 C330.4063,445.2344 329.8125,445.0938 328.9375,445.0938 C326.3125,445.0938 324.3125,447.1719 324.3125,449.8906 L324.3125,451.0156 C324.3125,453.5938 326.4219,455.4844 329.3125,455.4844 C330.5313,455.4844 331.6875,455.1875 332.4375,454.6406 C333.0156,454.2344 333.3438,453.7813 333.3438,453.3906 C333.3438,452.9375 332.9531,452.5469 332.4844,452.5469 C332.2656,452.5469 332.0625,452.625 331.875,452.8125 C331.4219,453.2969 331.4219,453.2969 331.2344,453.3906 C330.8125,453.6563 330.125,453.7813 329.3594,453.7813 C327.3125,453.7813 326.0156,452.6875 326.0156,450.9844 L326.0156,449.8906 C326.0156,448.1094 327.2656,446.7969 329,446.7969 C329.5781,446.7969 330.1875,446.9531 330.6563,447.2031 C331.1406,447.4844 331.3125,447.7031 331.4063,448.1094 C331.4688,448.5156 331.5,448.6406 331.6406,448.7656 C331.7813,448.9063 332.0156,449.0156 332.2344,449.0156 C332.5,449.0156 332.7656,448.875 332.9375,448.6563 C333.0469,448.5 333.0781,448.3125 333.0781,447.8906 L333.0781,446.4688 C333.0781,446.0313 333.0625,445.9063 332.9688,445.75 C332.8125,445.4844 332.5313,445.3438 332.2344,445.3438 C331.9375,445.3438 331.7344,445.4375 331.5156,445.75 L331.3438,445.6719 Z " fill="#000000"/><text fill="#000000" font-family="sans-serif" font-size="12" lengthAdjust="spacing" textLength="84" x="343" y="454.1543">MessageView</text><line style="stroke:#A80036;stroke-width:1.5;" x1="315" x2="429" y1="466" y2="466"/><line style="stroke:#A80036;stroke-width:1.5;" x1="315" x2="429" y1="474" y2="474"/><!--MD5=[1326d9c340157a6c4516c82330e2e438]
class MovePieceView--><rect codeLine="8" fill="#FEFECE" filter="url(#fewd4gv7j0ge8)" height="48" id="MovePieceView" style="stroke:#A80036;stroke-width:1.5;" width="126" x="148" y="164"/><ellipse cx="163" cy="180" fill="#ADD1B2" rx="11" ry="11" style="stroke:#A80036;stroke-width:1.0;"/><path d="M165.3438,175.6719 C164.4063,175.2344 163.8125,175.0938 162.9375,175.0938 C160.3125,175.0938 158.3125,177.1719 158.3125,179.8906 L158.3125,181.0156 C158.3125,183.5938 160.4219,185.4844 163.3125,185.4844 C164.5313,185.4844 165.6875,185.1875 166.4375,184.6406 C167.0156,184.2344 167.3438,183.7813 167.3438,183.3906 C167.3438,182.9375 166.9531,182.5469 166.4844,182.5469 C166.2656,182.5469 166.0625,182.625 165.875,182.8125 C165.4219,183.2969 165.4219,183.2969 165.2344,183.3906 C164.8125,183.6563 164.125,183.7813 163.3594,183.7813 C161.3125,183.7813 160.0156,182.6875 160.0156,180.9844 L160.0156,179.8906 C160.0156,178.1094 161.2656,176.7969 163,176.7969 C163.5781,176.7969 164.1875,176.9531 164.6563,177.2031 C165.1406,177.4844 165.3125,177.7031 165.4063,178.1094 C165.4688,178.5156 165.5,178.6406 165.6406,178.7656 C165.7813,178.9063 166.0156,179.0156 166.2344,179.0156 C166.5,179.0156 166.7656,178.875 166.9375,178.6563 C167.0469,178.5 167.0781,178.3125 167.0781,177.8906 L167.0781,176.4688 C167.0781,176.0313 167.0625,175.9063 166.9688,175.75 C166.8125,175.4844 166.5313,175.3438 166.2344,175.3438 C165.9375,175.3438 165.7344,175.4375 165.5156,175.75 L165.3438,175.6719 Z " fill="#000000"/><text fill="#000000" font-family="sans-serif" font-size="12" lengthAdjust="spacing" textLength="94" x="177" y="184.1543">MovePieceView</text><line style="stroke:#A80036;stroke-width:1.5;" x1="149" x2="273" y1="196" y2="196"/><line style="stroke:#A80036;stroke-width:1.5;" x1="149" x2="273" y1="204" y2="204"/><!--MD5=[af194e474b2c37e443a340884399de77]
class PlayerView--><rect codeLine="9" fill="#FEFECE" filter="url(#fewd4gv7j0ge8)" height="48" id="PlayerView" style="stroke:#A80036;stroke-width:1.5;" width="97" x="40.5" y="279"/><ellipse cx="55.5" cy="295" fill="#ADD1B2" rx="11" ry="11" style="stroke:#A80036;stroke-width:1.0;"/><path d="M57.8438,290.6719 C56.9063,290.2344 56.3125,290.0938 55.4375,290.0938 C52.8125,290.0938 50.8125,292.1719 50.8125,294.8906 L50.8125,296.0156 C50.8125,298.5938 52.9219,300.4844 55.8125,300.4844 C57.0313,300.4844 58.1875,300.1875 58.9375,299.6406 C59.5156,299.2344 59.8438,298.7813 59.8438,298.3906 C59.8438,297.9375 59.4531,297.5469 58.9844,297.5469 C58.7656,297.5469 58.5625,297.625 58.375,297.8125 C57.9219,298.2969 57.9219,298.2969 57.7344,298.3906 C57.3125,298.6563 56.625,298.7813 55.8594,298.7813 C53.8125,298.7813 52.5156,297.6875 52.5156,295.9844 L52.5156,294.8906 C52.5156,293.1094 53.7656,291.7969 55.5,291.7969 C56.0781,291.7969 56.6875,291.9531 57.1563,292.2031 C57.6406,292.4844 57.8125,292.7031 57.9063,293.1094 C57.9688,293.5156 58,293.6406 58.1406,293.7656 C58.2813,293.9063 58.5156,294.0156 58.7344,294.0156 C59,294.0156 59.2656,293.875 59.4375,293.6563 C59.5469,293.5 59.5781,293.3125 59.5781,292.8906 L59.5781,291.4688 C59.5781,291.0313 59.5625,290.9063 59.4688,290.75 C59.3125,290.4844 59.0313,290.3438 58.7344,290.3438 C58.4375,290.3438 58.2344,290.4375 58.0156,290.75 L57.8438,290.6719 Z " fill="#000000"/><text fill="#000000" font-family="sans-serif" font-size="12" lengthAdjust="spacing" textLength="65" x="69.5" y="299.1543">PlayerView</text><line style="stroke:#A80036;stroke-width:1.5;" x1="41.5" x2="136.5" y1="311" y2="311"/><line style="stroke:#A80036;stroke-width:1.5;" x1="41.5" x2="136.5" y1="319" y2="319"/><!--MD5=[19088a99a8c1f36e582d33ac2f8fc6dd]
class ResumeView--><rect codeLine="10" fill="#FEFECE" filter="url(#fewd4gv7j0ge8)" height="48" id="ResumeView" style="stroke:#A80036;stroke-width:1.5;" width="109" x="454.5" y="279"/><ellipse cx="469.5" cy="295" fill="#ADD1B2" rx="11" ry="11" style="stroke:#A80036;stroke-width:1.0;"/><path d="M471.8438,290.6719 C470.9063,290.2344 470.3125,290.0938 469.4375,290.0938 C466.8125,290.0938 464.8125,292.1719 464.8125,294.8906 L464.8125,296.0156 C464.8125,298.5938 466.9219,300.4844 469.8125,300.4844 C471.0313,300.4844 472.1875,300.1875 472.9375,299.6406 C473.5156,299.2344 473.8438,298.7813 473.8438,298.3906 C473.8438,297.9375 473.4531,297.5469 472.9844,297.5469 C472.7656,297.5469 472.5625,297.625 472.375,297.8125 C471.9219,298.2969 471.9219,298.2969 471.7344,298.3906 C471.3125,298.6563 470.625,298.7813 469.8594,298.7813 C467.8125,298.7813 466.5156,297.6875 466.5156,295.9844 L466.5156,294.8906 C466.5156,293.1094 467.7656,291.7969 469.5,291.7969 C470.0781,291.7969 470.6875,291.9531 471.1563,292.2031 C471.6406,292.4844 471.8125,292.7031 471.9063,293.1094 C471.9688,293.5156 472,293.6406 472.1406,293.7656 C472.2813,293.9063 472.5156,294.0156 472.7344,294.0156 C473,294.0156 473.2656,293.875 473.4375,293.6563 C473.5469,293.5 473.5781,293.3125 473.5781,292.8906 L473.5781,291.4688 C473.5781,291.0313 473.5625,290.9063 473.4688,290.75 C473.3125,290.4844 473.0313,290.3438 472.7344,290.3438 C472.4375,290.3438 472.2344,290.4375 472.0156,290.75 L471.8438,290.6719 Z " fill="#000000"/><text fill="#000000" font-family="sans-serif" font-size="12" lengthAdjust="spacing" textLength="77" x="483.5" y="299.1543">ResumeView</text><line style="stroke:#A80036;stroke-width:1.5;" x1="455.5" x2="562.5" y1="311" y2="311"/><line style="stroke:#A80036;stroke-width:1.5;" x1="455.5" x2="562.5" y1="319" y2="319"/><!--MD5=[443c52daef265809fdf31be84fc8ae4a]
class StartView--><rect codeLine="11" fill="#FEFECE" filter="url(#fewd4gv7j0ge8)" height="48" id="StartView" style="stroke:#A80036;stroke-width:1.5;" width="89" x="336.5" y="164"/><ellipse cx="351.5" cy="180" fill="#ADD1B2" rx="11" ry="11" style="stroke:#A80036;stroke-width:1.0;"/><path d="M353.8438,175.6719 C352.9063,175.2344 352.3125,175.0938 351.4375,175.0938 C348.8125,175.0938 346.8125,177.1719 346.8125,179.8906 L346.8125,181.0156 C346.8125,183.5938 348.9219,185.4844 351.8125,185.4844 C353.0313,185.4844 354.1875,185.1875 354.9375,184.6406 C355.5156,184.2344 355.8438,183.7813 355.8438,183.3906 C355.8438,182.9375 355.4531,182.5469 354.9844,182.5469 C354.7656,182.5469 354.5625,182.625 354.375,182.8125 C353.9219,183.2969 353.9219,183.2969 353.7344,183.3906 C353.3125,183.6563 352.625,183.7813 351.8594,183.7813 C349.8125,183.7813 348.5156,182.6875 348.5156,180.9844 L348.5156,179.8906 C348.5156,178.1094 349.7656,176.7969 351.5,176.7969 C352.0781,176.7969 352.6875,176.9531 353.1563,177.2031 C353.6406,177.4844 353.8125,177.7031 353.9063,178.1094 C353.9688,178.5156 354,178.6406 354.1406,178.7656 C354.2813,178.9063 354.5156,179.0156 354.7344,179.0156 C355,179.0156 355.2656,178.875 355.4375,178.6563 C355.5469,178.5 355.5781,178.3125 355.5781,177.8906 L355.5781,176.4688 C355.5781,176.0313 355.5625,175.9063 355.4688,175.75 C355.3125,175.4844 355.0313,175.3438 354.7344,175.3438 C354.4375,175.3438 354.2344,175.4375 354.0156,175.75 L353.8438,175.6719 Z " fill="#000000"/><text fill="#000000" font-family="sans-serif" font-size="12" lengthAdjust="spacing" textLength="57" x="365.5" y="184.1543">StartView</text><line style="stroke:#A80036;stroke-width:1.5;" x1="337.5" x2="424.5" y1="196" y2="196"/><line style="stroke:#A80036;stroke-width:1.5;" x1="337.5" x2="424.5" y1="204" y2="204"/><!--MD5=[9563755d011c5cec7ec66dc53565a59e]
class Board--><rect codeLine="34" fill="#FEFECE" filter="url(#fewd4gv7j0ge8)" height="48" id="Board" style="stroke:#A80036;stroke-width:1.5;" width="68" x="1295" y="650"/><ellipse cx="1310" cy="666" fill="#ADD1B2" rx="11" ry="11" style="stroke:#A80036;stroke-width:1.0;"/><path d="M1312.3438,661.6719 C1311.4063,661.2344 1310.8125,661.0938 1309.9375,661.0938 C1307.3125,661.0938 1305.3125,663.1719 1305.3125,665.8906 L1305.3125,667.0156 C1305.3125,669.5938 1307.4219,671.4844 1310.3125,671.4844 C1311.5313,671.4844 1312.6875,671.1875 1313.4375,670.6406 C1314.0156,670.2344 1314.3438,669.7813 1314.3438,669.3906 C1314.3438,668.9375 1313.9531,668.5469 1313.4844,668.5469 C1313.2656,668.5469 1313.0625,668.625 1312.875,668.8125 C1312.4219,669.2969 1312.4219,669.2969 1312.2344,669.3906 C1311.8125,669.6563 1311.125,669.7813 1310.3594,669.7813 C1308.3125,669.7813 1307.0156,668.6875 1307.0156,666.9844 L1307.0156,665.8906 C1307.0156,664.1094 1308.2656,662.7969 1310,662.7969 C1310.5781,662.7969 1311.1875,662.9531 1311.6563,663.2031 C1312.1406,663.4844 1312.3125,663.7031 1312.4063,664.1094 C1312.4688,664.5156 1312.5,664.6406 1312.6406,664.7656 C1312.7813,664.9063 1313.0156,665.0156 1313.2344,665.0156 C1313.5,665.0156 1313.7656,664.875 1313.9375,664.6563 C1314.0469,664.5 1314.0781,664.3125 1314.0781,663.8906 L1314.0781,662.4688 C1314.0781,662.0313 1314.0625,661.9063 1313.9688,661.75 C1313.8125,661.4844 1313.5313,661.3438 1313.2344,661.3438 C1312.9375,661.3438 1312.7344,661.4375 1312.5156,661.75 L1312.3438,661.6719 Z " fill="#000000"/><text fill="#000000" font-family="sans-serif" font-size="12" lengthAdjust="spacing" textLength="36" x="1324" y="670.1543">Board</text><line style="stroke:#A80036;stroke-width:1.5;" x1="1296" x2="1362" y1="682" y2="682"/><line style="stroke:#A80036;stroke-width:1.5;" x1="1296" x2="1362" y1="690" y2="690"/><!--MD5=[2eb17d6dbe76bb22ed845e935254e1c9]
class Draught--><rect codeLine="35" fill="#FEFECE" filter="url(#fewd4gv7j0ge8)" height="48" id="Draught" style="stroke:#A80036;stroke-width:1.5;" width="79" x="1241.5" y="866"/><ellipse cx="1256.5" cy="882" fill="#ADD1B2" rx="11" ry="11" style="stroke:#A80036;stroke-width:1.0;"/><path d="M1258.8438,877.6719 C1257.9063,877.2344 1257.3125,877.0938 1256.4375,877.0938 C1253.8125,877.0938 1251.8125,879.1719 1251.8125,881.8906 L1251.8125,883.0156 C1251.8125,885.5938 1253.9219,887.4844 1256.8125,887.4844 C1258.0313,887.4844 1259.1875,887.1875 1259.9375,886.6406 C1260.5156,886.2344 1260.8438,885.7813 1260.8438,885.3906 C1260.8438,884.9375 1260.4531,884.5469 1259.9844,884.5469 C1259.7656,884.5469 1259.5625,884.625 1259.375,884.8125 C1258.9219,885.2969 1258.9219,885.2969 1258.7344,885.3906 C1258.3125,885.6563 1257.625,885.7813 1256.8594,885.7813 C1254.8125,885.7813 1253.5156,884.6875 1253.5156,882.9844 L1253.5156,881.8906 C1253.5156,880.1094 1254.7656,878.7969 1256.5,878.7969 C1257.0781,878.7969 1257.6875,878.9531 1258.1563,879.2031 C1258.6406,879.4844 1258.8125,879.7031 1258.9063,880.1094 C1258.9688,880.5156 1259,880.6406 1259.1406,880.7656 C1259.2813,880.9063 1259.5156,881.0156 1259.7344,881.0156 C1260,881.0156 1260.2656,880.875 1260.4375,880.6563 C1260.5469,880.5 1260.5781,880.3125 1260.5781,879.8906 L1260.5781,878.4688 C1260.5781,878.0313 1260.5625,877.9063 1260.4688,877.75 C1260.3125,877.4844 1260.0313,877.3438 1259.7344,877.3438 C1259.4375,877.3438 1259.2344,877.4375 1259.0156,877.75 L1258.8438,877.6719 Z " fill="#000000"/><text fill="#000000" font-family="sans-serif" font-size="12" lengthAdjust="spacing" textLength="47" x="1270.5" y="886.1543">Draught</text><line style="stroke:#A80036;stroke-width:1.5;" x1="1242.5" x2="1319.5" y1="898" y2="898"/><line style="stroke:#A80036;stroke-width:1.5;" x1="1242.5" x2="1319.5" y1="906" y2="906"/><!--MD5=[b6dcce5e5ef3c84b0b048d11301373dd]
class Game--><rect codeLine="36" fill="#FEFECE" filter="url(#fewd4gv7j0ge8)" height="48" id="Game" style="stroke:#A80036;stroke-width:1.5;" width="67" x="1259.5" y="279"/><ellipse cx="1274.5" cy="295" fill="#ADD1B2" rx="11" ry="11" style="stroke:#A80036;stroke-width:1.0;"/><path d="M1276.8438,290.6719 C1275.9063,290.2344 1275.3125,290.0938 1274.4375,290.0938 C1271.8125,290.0938 1269.8125,292.1719 1269.8125,294.8906 L1269.8125,296.0156 C1269.8125,298.5938 1271.9219,300.4844 1274.8125,300.4844 C1276.0313,300.4844 1277.1875,300.1875 1277.9375,299.6406 C1278.5156,299.2344 1278.8438,298.7813 1278.8438,298.3906 C1278.8438,297.9375 1278.4531,297.5469 1277.9844,297.5469 C1277.7656,297.5469 1277.5625,297.625 1277.375,297.8125 C1276.9219,298.2969 1276.9219,298.2969 1276.7344,298.3906 C1276.3125,298.6563 1275.625,298.7813 1274.8594,298.7813 C1272.8125,298.7813 1271.5156,297.6875 1271.5156,295.9844 L1271.5156,294.8906 C1271.5156,293.1094 1272.7656,291.7969 1274.5,291.7969 C1275.0781,291.7969 1275.6875,291.9531 1276.1563,292.2031 C1276.6406,292.4844 1276.8125,292.7031 1276.9063,293.1094 C1276.9688,293.5156 1277,293.6406 1277.1406,293.7656 C1277.2813,293.9063 1277.5156,294.0156 1277.7344,294.0156 C1278,294.0156 1278.2656,293.875 1278.4375,293.6563 C1278.5469,293.5 1278.5781,293.3125 1278.5781,292.8906 L1278.5781,291.4688 C1278.5781,291.0313 1278.5625,290.9063 1278.4688,290.75 C1278.3125,290.4844 1278.0313,290.3438 1277.7344,290.3438 C1277.4375,290.3438 1277.2344,290.4375 1277.0156,290.75 L1276.8438,290.6719 Z " fill="#000000"/><text fill="#000000" font-family="sans-serif" font-size="12" lengthAdjust="spacing" textLength="35" x="1288.5" y="299.1543">Game</text><line style="stroke:#A80036;stroke-width:1.5;" x1="1260.5" x2="1325.5" y1="311" y2="311"/><line style="stroke:#A80036;stroke-width:1.5;" x1="1260.5" x2="1325.5" y1="319" y2="319"/><!--MD5=[af29ca247b3a3642f0fb478cea99ef78]
class Pawn--><rect codeLine="37" fill="#FEFECE" filter="url(#fewd4gv7j0ge8)" height="48" id="Pawn" style="stroke:#A80036;stroke-width:1.5;" width="62" x="1356" y="866"/><ellipse cx="1371" cy="882" fill="#ADD1B2" rx="11" ry="11" style="stroke:#A80036;stroke-width:1.0;"/><path d="M1373.3438,877.6719 C1372.4063,877.2344 1371.8125,877.0938 1370.9375,877.0938 C1368.3125,877.0938 1366.3125,879.1719 1366.3125,881.8906 L1366.3125,883.0156 C1366.3125,885.5938 1368.4219,887.4844 1371.3125,887.4844 C1372.5313,887.4844 1373.6875,887.1875 1374.4375,886.6406 C1375.0156,886.2344 1375.3438,885.7813 1375.3438,885.3906 C1375.3438,884.9375 1374.9531,884.5469 1374.4844,884.5469 C1374.2656,884.5469 1374.0625,884.625 1373.875,884.8125 C1373.4219,885.2969 1373.4219,885.2969 1373.2344,885.3906 C1372.8125,885.6563 1372.125,885.7813 1371.3594,885.7813 C1369.3125,885.7813 1368.0156,884.6875 1368.0156,882.9844 L1368.0156,881.8906 C1368.0156,880.1094 1369.2656,878.7969 1371,878.7969 C1371.5781,878.7969 1372.1875,878.9531 1372.6563,879.2031 C1373.1406,879.4844 1373.3125,879.7031 1373.4063,880.1094 C1373.4688,880.5156 1373.5,880.6406 1373.6406,880.7656 C1373.7813,880.9063 1374.0156,881.0156 1374.2344,881.0156 C1374.5,881.0156 1374.7656,880.875 1374.9375,880.6563 C1375.0469,880.5 1375.0781,880.3125 1375.0781,879.8906 L1375.0781,878.4688 C1375.0781,878.0313 1375.0625,877.9063 1374.9688,877.75 C1374.8125,877.4844 1374.5313,877.3438 1374.2344,877.3438 C1373.9375,877.3438 1373.7344,877.4375 1373.5156,877.75 L1373.3438,877.6719 Z " fill="#000000"/><text fill="#000000" font-family="sans-serif" font-size="12" lengthAdjust="spacing" textLength="30" x="1385" y="886.1543">Pawn</text><line style="stroke:#A80036;stroke-width:1.5;" x1="1357" x2="1417" y1="898" y2="898"/><line style="stroke:#A80036;stroke-width:1.5;" x1="1357" x2="1417" y1="906" y2="906"/><!--MD5=[e05bacf3ff4416a0580578814d41bbf6]
class Piece--><rect codeLine="38" fill="#FEFECE" filter="url(#fewd4gv7j0ge8)" height="48" id="Piece" style="stroke:#A80036;stroke-width:1.5;" width="63" x="1297.5" y="758"/><ellipse cx="1312.5" cy="774" fill="#A9DCDF" rx="11" ry="11" style="stroke:#A80036;stroke-width:1.0;"/><path d="M1314.5781,775.8125 L1314.9688,776.7969 L1314.5781,776.7969 C1314.125,776.7969 1314.0156,776.8125 1313.8594,776.9219 C1313.6094,777.0781 1313.4531,777.3594 1313.4531,777.6563 C1313.4531,777.9219 1313.5938,778.1719 1313.8125,778.3281 C1313.9531,778.4531 1314.1563,778.5 1314.5781,778.5 L1316.9375,778.5 C1317.2969,778.5 1317.5156,778.4688 1317.6563,778.375 C1317.9063,778.2344 1318.0625,777.9375 1318.0625,777.6563 C1318.0625,777.375 1317.9219,777.125 1317.7031,776.9688 C1317.5313,776.8281 1317.375,776.7969 1316.9063,776.7969 L1313.5156,768.5938 L1309.8438,768.5938 C1309.3906,768.5938 1309.2656,768.6094 1309.1094,768.7031 C1308.8594,768.875 1308.7031,769.1563 1308.7031,769.4375 C1308.7031,769.7188 1308.8438,769.9688 1309.0625,770.1406 C1309.2344,770.25 1309.4063,770.2813 1309.8438,770.2813 L1310.9219,770.2813 L1308.2813,776.7969 C1307.8594,776.7969 1307.7031,776.8125 1307.5469,776.9219 C1307.2969,777.0781 1307.1406,777.3594 1307.1406,777.6563 C1307.1406,778.2188 1307.5156,778.5 1308.2656,778.5 L1310.5313,778.5 C1310.8906,778.5 1311.1094,778.4688 1311.2344,778.375 C1311.5,778.2344 1311.6406,777.9375 1311.6406,777.6563 C1311.6406,777.375 1311.5156,777.125 1311.2969,776.9531 C1311.125,776.8281 1310.9844,776.7969 1310.5313,776.7969 L1310.1406,776.7969 L1310.5313,775.8125 L1314.5781,775.8125 Z M1313.875,774.1094 L1311.2031,774.1094 L1312.5469,770.8438 L1313.875,774.1094 Z " fill="#000000"/><text fill="#000000" font-family="sans-serif" font-size="12" font-style="italic" lengthAdjust="spacing" textLength="31" x="1326.5" y="778.1543">Piece</text><line style="stroke:#A80036;stroke-width:1.5;" x1="1298.5" x2="1359.5" y1="790" y2="790"/><line style="stroke:#A80036;stroke-width:1.5;" x1="1298.5" x2="1359.5" y1="798" y2="798"/><!--MD5=[2cb47ba637a0d19583e6199456f6ad0b]
class Player--><rect codeLine="39" fill="#FEFECE" filter="url(#fewd4gv7j0ge8)" height="48" id="Player" style="stroke:#A80036;stroke-width:1.5;" width="68" x="1295" y="542"/><ellipse cx="1310" cy="558" fill="#ADD1B2" rx="11" ry="11" style="stroke:#A80036;stroke-width:1.0;"/><path d="M1312.3438,553.6719 C1311.4063,553.2344 1310.8125,553.0938 1309.9375,553.0938 C1307.3125,553.0938 1305.3125,555.1719 1305.3125,557.8906 L1305.3125,559.0156 C1305.3125,561.5938 1307.4219,563.4844 1310.3125,563.4844 C1311.5313,563.4844 1312.6875,563.1875 1313.4375,562.6406 C1314.0156,562.2344 1314.3438,561.7813 1314.3438,561.3906 C1314.3438,560.9375 1313.9531,560.5469 1313.4844,560.5469 C1313.2656,560.5469 1313.0625,560.625 1312.875,560.8125 C1312.4219,561.2969 1312.4219,561.2969 1312.2344,561.3906 C1311.8125,561.6563 1311.125,561.7813 1310.3594,561.7813 C1308.3125,561.7813 1307.0156,560.6875 1307.0156,558.9844 L1307.0156,557.8906 C1307.0156,556.1094 1308.2656,554.7969 1310,554.7969 C1310.5781,554.7969 1311.1875,554.9531 1311.6563,555.2031 C1312.1406,555.4844 1312.3125,555.7031 1312.4063,556.1094 C1312.4688,556.5156 1312.5,556.6406 1312.6406,556.7656 C1312.7813,556.9063 1313.0156,557.0156 1313.2344,557.0156 C1313.5,557.0156 1313.7656,556.875 1313.9375,556.6563 C1314.0469,556.5 1314.0781,556.3125 1314.0781,555.8906 L1314.0781,554.4688 C1314.0781,554.0313 1314.0625,553.9063 1313.9688,553.75 C1313.8125,553.4844 1313.5313,553.3438 1313.2344,553.3438 C1312.9375,553.3438 1312.7344,553.4375 1312.5156,553.75 L1312.3438,553.6719 Z " fill="#000000"/><text fill="#000000" font-family="sans-serif" font-size="12" lengthAdjust="spacing" textLength="36" x="1324" y="562.1543">Player</text><line style="stroke:#A80036;stroke-width:1.5;" x1="1296" x2="1362" y1="574" y2="574"/><line style="stroke:#A80036;stroke-width:1.5;" x1="1296" x2="1362" y1="582" y2="582"/><!--MD5=[dd91eae41778c45e12552e5329e240e8]
class Turn--><rect codeLine="40" fill="#FEFECE" filter="url(#fewd4gv7j0ge8)" height="48" id="Turn" style="stroke:#A80036;stroke-width:1.5;" width="58" x="1300" y="434"/><ellipse cx="1315" cy="450" fill="#ADD1B2" rx="11" ry="11" style="stroke:#A80036;stroke-width:1.0;"/><path d="M1317.3438,445.6719 C1316.4063,445.2344 1315.8125,445.0938 1314.9375,445.0938 C1312.3125,445.0938 1310.3125,447.1719 1310.3125,449.8906 L1310.3125,451.0156 C1310.3125,453.5938 1312.4219,455.4844 1315.3125,455.4844 C1316.5313,455.4844 1317.6875,455.1875 1318.4375,454.6406 C1319.0156,454.2344 1319.3438,453.7813 1319.3438,453.3906 C1319.3438,452.9375 1318.9531,452.5469 1318.4844,452.5469 C1318.2656,452.5469 1318.0625,452.625 1317.875,452.8125 C1317.4219,453.2969 1317.4219,453.2969 1317.2344,453.3906 C1316.8125,453.6563 1316.125,453.7813 1315.3594,453.7813 C1313.3125,453.7813 1312.0156,452.6875 1312.0156,450.9844 L1312.0156,449.8906 C1312.0156,448.1094 1313.2656,446.7969 1315,446.7969 C1315.5781,446.7969 1316.1875,446.9531 1316.6563,447.2031 C1317.1406,447.4844 1317.3125,447.7031 1317.4063,448.1094 C1317.4688,448.5156 1317.5,448.6406 1317.6406,448.7656 C1317.7813,448.9063 1318.0156,449.0156 1318.2344,449.0156 C1318.5,449.0156 1318.7656,448.875 1318.9375,448.6563 C1319.0469,448.5 1319.0781,448.3125 1319.0781,447.8906 L1319.0781,446.4688 C1319.0781,446.0313 1319.0625,445.9063 1318.9688,445.75 C1318.8125,445.4844 1318.5313,445.3438 1318.2344,445.3438 C1317.9375,445.3438 1317.7344,445.4375 1317.5156,445.75 L1317.3438,445.6719 Z " fill="#000000"/><text fill="#000000" font-family="sans-serif" font-size="12" lengthAdjust="spacing" textLength="26" x="1329" y="454.1543">Turn</text><line style="stroke:#A80036;stroke-width:1.5;" x1="1301" x2="1357" y1="466" y2="466"/><line style="stroke:#A80036;stroke-width:1.5;" x1="1301" x2="1357" y1="474" y2="474"/><!--MD5=[1d7ba1c7002d54515419844fbd155368]
class Controller--><rect codeLine="53" fill="#FEFECE" filter="url(#fewd4gv7j0ge8)" height="48" id="Controller" style="stroke:#A80036;stroke-width:1.5;" width="90" x="849" y="164"/><ellipse cx="864" cy="180" fill="#A9DCDF" rx="11" ry="11" style="stroke:#A80036;stroke-width:1.0;"/><path d="M866.0781,181.8125 L866.4688,182.7969 L866.0781,182.7969 C865.625,182.7969 865.5156,182.8125 865.3594,182.9219 C865.1094,183.0781 864.9531,183.3594 864.9531,183.6563 C864.9531,183.9219 865.0938,184.1719 865.3125,184.3281 C865.4531,184.4531 865.6563,184.5 866.0781,184.5 L868.4375,184.5 C868.7969,184.5 869.0156,184.4688 869.1563,184.375 C869.4063,184.2344 869.5625,183.9375 869.5625,183.6563 C869.5625,183.375 869.4219,183.125 869.2031,182.9688 C869.0313,182.8281 868.875,182.7969 868.4063,182.7969 L865.0156,174.5938 L861.3438,174.5938 C860.8906,174.5938 860.7656,174.6094 860.6094,174.7031 C860.3594,174.875 860.2031,175.1563 860.2031,175.4375 C860.2031,175.7188 860.3438,175.9688 860.5625,176.1406 C860.7344,176.25 860.9063,176.2813 861.3438,176.2813 L862.4219,176.2813 L859.7813,182.7969 C859.3594,182.7969 859.2031,182.8125 859.0469,182.9219 C858.7969,183.0781 858.6406,183.3594 858.6406,183.6563 C858.6406,184.2188 859.0156,184.5 859.7656,184.5 L862.0313,184.5 C862.3906,184.5 862.6094,184.4688 862.7344,184.375 C863,184.2344 863.1406,183.9375 863.1406,183.6563 C863.1406,183.375 863.0156,183.125 862.7969,182.9531 C862.625,182.8281 862.4844,182.7969 862.0313,182.7969 L861.6406,182.7969 L862.0313,181.8125 L866.0781,181.8125 Z M865.375,180.1094 L862.7031,180.1094 L864.0469,176.8438 L865.375,180.1094 Z " fill="#000000"/><text fill="#000000" font-family="sans-serif" font-size="12" font-style="italic" lengthAdjust="spacing" textLength="58" x="878" y="184.1543">Controller</text><line style="stroke:#A80036;stroke-width:1.5;" x1="850" x2="938" y1="196" y2="196"/><line style="stroke:#A80036;stroke-width:1.5;" x1="850" x2="938" y1="204" y2="204"/><!--MD5=[47c371471411cfedeee61b1a5bdaee47]
class StartController--><rect codeLine="54" fill="#FEFECE" filter="url(#fewd4gv7j0ge8)" height="48" id="StartController" style="stroke:#A80036;stroke-width:1.5;" width="119" x="834.5" y="279"/><ellipse cx="849.5" cy="295" fill="#ADD1B2" rx="11" ry="11" style="stroke:#A80036;stroke-width:1.0;"/><path d="M851.8438,290.6719 C850.9063,290.2344 850.3125,290.0938 849.4375,290.0938 C846.8125,290.0938 844.8125,292.1719 844.8125,294.8906 L844.8125,296.0156 C844.8125,298.5938 846.9219,300.4844 849.8125,300.4844 C851.0313,300.4844 852.1875,300.1875 852.9375,299.6406 C853.5156,299.2344 853.8438,298.7813 853.8438,298.3906 C853.8438,297.9375 853.4531,297.5469 852.9844,297.5469 C852.7656,297.5469 852.5625,297.625 852.375,297.8125 C851.9219,298.2969 851.9219,298.2969 851.7344,298.3906 C851.3125,298.6563 850.625,298.7813 849.8594,298.7813 C847.8125,298.7813 846.5156,297.6875 846.5156,295.9844 L846.5156,294.8906 C846.5156,293.1094 847.7656,291.7969 849.5,291.7969 C850.0781,291.7969 850.6875,291.9531 851.1563,292.2031 C851.6406,292.4844 851.8125,292.7031 851.9063,293.1094 C851.9688,293.5156 852,293.6406 852.1406,293.7656 C852.2813,293.9063 852.5156,294.0156 852.7344,294.0156 C853,294.0156 853.2656,293.875 853.4375,293.6563 C853.5469,293.5 853.5781,293.3125 853.5781,292.8906 L853.5781,291.4688 C853.5781,291.0313 853.5625,290.9063 853.4688,290.75 C853.3125,290.4844 853.0313,290.3438 852.7344,290.3438 C852.4375,290.3438 852.2344,290.4375 852.0156,290.75 L851.8438,290.6719 Z " fill="#000000"/><text fill="#000000" font-family="sans-serif" font-size="12" lengthAdjust="spacing" textLength="87" x="863.5" y="299.1543">StartController</text><line style="stroke:#A80036;stroke-width:1.5;" x1="835.5" x2="952.5" y1="311" y2="311"/><line style="stroke:#A80036;stroke-width:1.5;" x1="835.5" x2="952.5" y1="319" y2="319"/><!--MD5=[5ef47068686cbc3d08b5e63eae6891e4]
class MovePieceController--><rect codeLine="55" fill="#FEFECE" filter="url(#fewd4gv7j0ge8)" height="48" id="MovePieceController" style="stroke:#A80036;stroke-width:1.5;" width="156" x="989" y="279"/><ellipse cx="1004" cy="295" fill="#ADD1B2" rx="11" ry="11" style="stroke:#A80036;stroke-width:1.0;"/><path d="M1006.3438,290.6719 C1005.4063,290.2344 1004.8125,290.0938 1003.9375,290.0938 C1001.3125,290.0938 999.3125,292.1719 999.3125,294.8906 L999.3125,296.0156 C999.3125,298.5938 1001.4219,300.4844 1004.3125,300.4844 C1005.5313,300.4844 1006.6875,300.1875 1007.4375,299.6406 C1008.0156,299.2344 1008.3438,298.7813 1008.3438,298.3906 C1008.3438,297.9375 1007.9531,297.5469 1007.4844,297.5469 C1007.2656,297.5469 1007.0625,297.625 1006.875,297.8125 C1006.4219,298.2969 1006.4219,298.2969 1006.2344,298.3906 C1005.8125,298.6563 1005.125,298.7813 1004.3594,298.7813 C1002.3125,298.7813 1001.0156,297.6875 1001.0156,295.9844 L1001.0156,294.8906 C1001.0156,293.1094 1002.2656,291.7969 1004,291.7969 C1004.5781,291.7969 1005.1875,291.9531 1005.6563,292.2031 C1006.1406,292.4844 1006.3125,292.7031 1006.4063,293.1094 C1006.4688,293.5156 1006.5,293.6406 1006.6406,293.7656 C1006.7813,293.9063 1007.0156,294.0156 1007.2344,294.0156 C1007.5,294.0156 1007.7656,293.875 1007.9375,293.6563 C1008.0469,293.5 1008.0781,293.3125 1008.0781,292.8906 L1008.0781,291.4688 C1008.0781,291.0313 1008.0625,290.9063 1007.9688,290.75 C1007.8125,290.4844 1007.5313,290.3438 1007.2344,290.3438 C1006.9375,290.3438 1006.7344,290.4375 1006.5156,290.75 L1006.3438,290.6719 Z " fill="#000000"/><text fill="#000000" font-family="sans-serif" font-size="12" lengthAdjust="spacing" textLength="124" x="1018" y="299.1543">MovePieceController</text><line style="stroke:#A80036;stroke-width:1.5;" x1="990" x2="1144" y1="311" y2="311"/><line style="stroke:#A80036;stroke-width:1.5;" x1="990" x2="1144" y1="319" y2="319"/><!--MD5=[1a47bbf44ccee225df9b18c5b6629853]
class ResumeController--><rect codeLine="56" fill="#FEFECE" filter="url(#fewd4gv7j0ge8)" height="48" id="ResumeController" style="stroke:#A80036;stroke-width:1.5;" width="139" x="660.5" y="279"/><ellipse cx="675.5" cy="295" fill="#ADD1B2" rx="11" ry="11" style="stroke:#A80036;stroke-width:1.0;"/><path d="M677.8438,290.6719 C676.9063,290.2344 676.3125,290.0938 675.4375,290.0938 C672.8125,290.0938 670.8125,292.1719 670.8125,294.8906 L670.8125,296.0156 C670.8125,298.5938 672.9219,300.4844 675.8125,300.4844 C677.0313,300.4844 678.1875,300.1875 678.9375,299.6406 C679.5156,299.2344 679.8438,298.7813 679.8438,298.3906 C679.8438,297.9375 679.4531,297.5469 678.9844,297.5469 C678.7656,297.5469 678.5625,297.625 678.375,297.8125 C677.9219,298.2969 677.9219,298.2969 677.7344,298.3906 C677.3125,298.6563 676.625,298.7813 675.8594,298.7813 C673.8125,298.7813 672.5156,297.6875 672.5156,295.9844 L672.5156,294.8906 C672.5156,293.1094 673.7656,291.7969 675.5,291.7969 C676.0781,291.7969 676.6875,291.9531 677.1563,292.2031 C677.6406,292.4844 677.8125,292.7031 677.9063,293.1094 C677.9688,293.5156 678,293.6406 678.1406,293.7656 C678.2813,293.9063 678.5156,294.0156 678.7344,294.0156 C679,294.0156 679.2656,293.875 679.4375,293.6563 C679.5469,293.5 679.5781,293.3125 679.5781,292.8906 L679.5781,291.4688 C679.5781,291.0313 679.5625,290.9063 679.4688,290.75 C679.3125,290.4844 679.0313,290.3438 678.7344,290.3438 C678.4375,290.3438 678.2344,290.4375 678.0156,290.75 L677.8438,290.6719 Z " fill="#000000"/><text fill="#000000" font-family="sans-serif" font-size="12" lengthAdjust="spacing" textLength="107" x="689.5" y="299.1543">ResumeController</text><line style="stroke:#A80036;stroke-width:1.5;" x1="661.5" x2="798.5" y1="311" y2="311"/><line style="stroke:#A80036;stroke-width:1.5;" x1="661.5" x2="798.5" y1="319" y2="319"/><!--MD5=[18eee71c88ab61f27581b8cbdd3ef5ee]
class Color--><rect codeLine="64" fill="#FEFECE" filter="url(#fewd4gv7j0ge8)" height="48" id="Color" style="stroke:#A80036;stroke-width:1.5;" width="64" x="1533" y="434"/><ellipse cx="1548" cy="450" fill="#EB937F" rx="11" ry="11" style="stroke:#A80036;stroke-width:1.0;"/><path d="M1546.7969,450.875 L1548.25,450.875 L1548.25,450.9844 C1548.25,451.3906 1548.2813,451.5469 1548.3594,451.7031 C1548.5156,451.9531 1548.7969,452.1094 1549.0938,452.1094 C1549.3438,452.1094 1549.6094,451.9688 1549.7656,451.75 C1549.8906,451.5938 1549.9219,451.4375 1549.9219,450.9844 L1549.9219,449.0625 C1549.9219,448.9063 1549.9219,448.8594 1549.9063,448.7031 C1549.8438,448.2344 1549.5313,447.9219 1549.0781,447.9219 C1548.8281,447.9219 1548.5625,448.0625 1548.3906,448.2813 C1548.2813,448.4531 1548.25,448.6094 1548.25,449.0625 L1548.25,449.1875 L1546.7969,449.1875 L1546.7969,446.7813 L1550.7813,446.7813 L1550.7813,447.6406 C1550.7813,448.0469 1550.8125,448.2188 1550.8906,448.375 C1551.0625,448.625 1551.3438,448.7813 1551.625,448.7813 C1551.8906,448.7813 1552.1563,448.6406 1552.3281,448.4219 C1552.4375,448.25 1552.4688,448.1094 1552.4688,447.6406 L1552.4688,445.0938 L1544.8438,445.0938 C1544.4063,445.0938 1544.2813,445.1094 1544.125,445.2031 C1543.875,445.3594 1543.7188,445.6563 1543.7188,445.9375 C1543.7188,446.2188 1543.8594,446.4688 1544.0781,446.6406 C1544.2344,446.75 1544.4219,446.7813 1544.8438,446.7813 L1545.0938,446.7813 L1545.0938,453.2969 L1544.8438,453.2969 C1544.4375,453.2969 1544.2813,453.3125 1544.125,453.4219 C1543.875,453.5938 1543.7188,453.8594 1543.7188,454.1563 C1543.7188,454.4219 1543.8594,454.6719 1544.0781,454.8281 C1544.2188,454.9531 1544.4531,455 1544.8438,455 L1552.8438,455 L1552.8438,452.4219 C1552.8438,451.9844 1552.8125,451.8438 1552.7344,451.6875 C1552.5625,451.4375 1552.2813,451.2813 1552,451.2813 C1551.7344,451.2813 1551.4688,451.3906 1551.2969,451.6406 C1551.1875,451.7969 1551.1563,451.9375 1551.1563,452.4219 L1551.1563,453.2969 L1546.7969,453.2969 L1546.7969,450.875 Z " fill="#000000"/><text fill="#000000" font-family="sans-serif" font-size="12" lengthAdjust="spacing" textLength="32" x="1562" y="454.1543">Color</text><line style="stroke:#A80036;stroke-width:1.5;" x1="1534" x2="1596" y1="466" y2="466"/><line style="stroke:#A80036;stroke-width:1.5;" x1="1534" x2="1596" y1="474" y2="474"/><!--MD5=[b8cfd8c4119a3b0a7a46bfc5fc780f85]
class Error--><rect codeLine="65" fill="#FEFECE" filter="url(#fewd4gv7j0ge8)" height="48" id="Error" style="stroke:#A80036;stroke-width:1.5;" width="62" x="1632" y="434"/><ellipse cx="1647" cy="450" fill="#EB937F" rx="11" ry="11" style="stroke:#A80036;stroke-width:1.0;"/><path d="M1645.7969,450.875 L1647.25,450.875 L1647.25,450.9844 C1647.25,451.3906 1647.2813,451.5469 1647.3594,451.7031 C1647.5156,451.9531 1647.7969,452.1094 1648.0938,452.1094 C1648.3438,452.1094 1648.6094,451.9688 1648.7656,451.75 C1648.8906,451.5938 1648.9219,451.4375 1648.9219,450.9844 L1648.9219,449.0625 C1648.9219,448.9063 1648.9219,448.8594 1648.9063,448.7031 C1648.8438,448.2344 1648.5313,447.9219 1648.0781,447.9219 C1647.8281,447.9219 1647.5625,448.0625 1647.3906,448.2813 C1647.2813,448.4531 1647.25,448.6094 1647.25,449.0625 L1647.25,449.1875 L1645.7969,449.1875 L1645.7969,446.7813 L1649.7813,446.7813 L1649.7813,447.6406 C1649.7813,448.0469 1649.8125,448.2188 1649.8906,448.375 C1650.0625,448.625 1650.3438,448.7813 1650.625,448.7813 C1650.8906,448.7813 1651.1563,448.6406 1651.3281,448.4219 C1651.4375,448.25 1651.4688,448.1094 1651.4688,447.6406 L1651.4688,445.0938 L1643.8438,445.0938 C1643.4063,445.0938 1643.2813,445.1094 1643.125,445.2031 C1642.875,445.3594 1642.7188,445.6563 1642.7188,445.9375 C1642.7188,446.2188 1642.8594,446.4688 1643.0781,446.6406 C1643.2344,446.75 1643.4219,446.7813 1643.8438,446.7813 L1644.0938,446.7813 L1644.0938,453.2969 L1643.8438,453.2969 C1643.4375,453.2969 1643.2813,453.3125 1643.125,453.4219 C1642.875,453.5938 1642.7188,453.8594 1642.7188,454.1563 C1642.7188,454.4219 1642.8594,454.6719 1643.0781,454.8281 C1643.2188,454.9531 1643.4531,455 1643.8438,455 L1651.8438,455 L1651.8438,452.4219 C1651.8438,451.9844 1651.8125,451.8438 1651.7344,451.6875 C1651.5625,451.4375 1651.2813,451.2813 1651,451.2813 C1650.7344,451.2813 1650.4688,451.3906 1650.2969,451.6406 C1650.1875,451.7969 1650.1563,451.9375 1650.1563,452.4219 L1650.1563,453.2969 L1645.7969,453.2969 L1645.7969,450.875 Z " fill="#000000"/><text fill="#000000" font-family="sans-serif" font-size="12" lengthAdjust="spacing" textLength="30" x="1661" y="454.1543">Error</text><line style="stroke:#A80036;stroke-width:1.5;" x1="1633" x2="1693" y1="466" y2="466"/><line style="stroke:#A80036;stroke-width:1.5;" x1="1633" x2="1693" y1="474" y2="474"/><!--MD5=[8c7d7abc12e214c3cc12c9ab70edee11]
class Coordinate--><rect codeLine="66" fill="#FEFECE" filter="url(#fewd4gv7j0ge8)" height="48" id="Coordinate" style="stroke:#A80036;stroke-width:1.5;" width="98" x="1533" y="542"/><ellipse cx="1548" cy="558" fill="#ADD1B2" rx="11" ry="11" style="stroke:#A80036;stroke-width:1.0;"/><path d="M1550.3438,553.6719 C1549.4063,553.2344 1548.8125,553.0938 1547.9375,553.0938 C1545.3125,553.0938 1543.3125,555.1719 1543.3125,557.8906 L1543.3125,559.0156 C1543.3125,561.5938 1545.4219,563.4844 1548.3125,563.4844 C1549.5313,563.4844 1550.6875,563.1875 1551.4375,562.6406 C1552.0156,562.2344 1552.3438,561.7813 1552.3438,561.3906 C1552.3438,560.9375 1551.9531,560.5469 1551.4844,560.5469 C1551.2656,560.5469 1551.0625,560.625 1550.875,560.8125 C1550.4219,561.2969 1550.4219,561.2969 1550.2344,561.3906 C1549.8125,561.6563 1549.125,561.7813 1548.3594,561.7813 C1546.3125,561.7813 1545.0156,560.6875 1545.0156,558.9844 L1545.0156,557.8906 C1545.0156,556.1094 1546.2656,554.7969 1548,554.7969 C1548.5781,554.7969 1549.1875,554.9531 1549.6563,555.2031 C1550.1406,555.4844 1550.3125,555.7031 1550.4063,556.1094 C1550.4688,556.5156 1550.5,556.6406 1550.6406,556.7656 C1550.7813,556.9063 1551.0156,557.0156 1551.2344,557.0156 C1551.5,557.0156 1551.7656,556.875 1551.9375,556.6563 C1552.0469,556.5 1552.0781,556.3125 1552.0781,555.8906 L1552.0781,554.4688 C1552.0781,554.0313 1552.0625,553.9063 1551.9688,553.75 C1551.8125,553.4844 1551.5313,553.3438 1551.2344,553.3438 C1550.9375,553.3438 1550.7344,553.4375 1550.5156,553.75 L1550.3438,553.6719 Z " fill="#000000"/><text fill="#000000" font-family="sans-serif" font-size="12" lengthAdjust="spacing" textLength="66" x="1562" y="562.1543">Coordinate</text><line style="stroke:#A80036;stroke-width:1.5;" x1="1534" x2="1630" y1="574" y2="574"/><line style="stroke:#A80036;stroke-width:1.5;" x1="1534" x2="1630" y1="582" y2="582"/><!--MD5=[3e62ce6250fdb05e4f270b44fc45127d]
link BoardView to MessageView--><path codeLine="14" d="M307.543,327.237 C321.102,354.534 343.583,399.792 358.091,428.999 " fill="none" id="BoardView-to-MessageView" style="stroke:#A80036;stroke-width:1.0;stroke-dasharray:7.0,7.0;"/><polygon fill="#A80036" points="360.349,433.544,359.9269,423.7042,358.1244,429.0662,352.7624,427.2636,360.349,433.544" style="stroke:#A80036;stroke-width:1.0;"/><!--MD5=[02a16ebf8539d2e5d44c3be387606aac]
link BoardView to Message--><path codeLine="15" d="M330.803,327.017 C352.498,340.433 381.442,356.688 409,367 C425.165,373.048 436.125,361.598 447,375 C484.852,421.65 455.553,496.751 434.876,537.147 " fill="none" id="BoardView-to-Message" style="stroke:#A80036;stroke-width:1.0;stroke-dasharray:7.0,7.0;"/><polygon fill="#A80036" points="432.402,541.897,440.106,535.7612,434.7109,537.462,433.0101,532.0669,432.402,541.897" style="stroke:#A80036;stroke-width:1.0;"/><!--MD5=[a31fa164961aa559970146a0c482d415]
link MessageView to Message--><path codeLine="16" d="M382.198,482 C389.355,498.141 398.966,519.816 406.571,536.969 " fill="none" id="MessageView-to-Message" style="stroke:#A80036;stroke-width:1.0;stroke-dasharray:7.0,7.0;"/><polygon fill="#A80036" points="408.659,541.678,408.6661,531.8291,406.6316,537.1075,401.3533,535.0729,408.659,541.678" style="stroke:#A80036;stroke-width:1.0;"/><!--MD5=[15ce01b34c29fdca6fa627773e8f9e80]
link View to StartView--><path codeLine="17" d="M381,109.14 C381,109.14 381,137.677 381,150.628 " fill="none" id="View-StartView" style="stroke:#A80036;stroke-width:1.0;"/><polygon fill="#A80036" points="381,163.891,385,154.891,381,158.891,377,154.891,381,163.891" style="stroke:#A80036;stroke-width:1.0;"/><line style="stroke:#A80036;stroke-width:1.0;" x1="381" x2="381" y1="158.891" y2="150.891"/><polygon fill="#A80036" points="381,97.14,377,103.14,381,109.14,385,103.14,381,97.14" style="stroke:#A80036;stroke-width:1.0;"/><!--MD5=[ca69a51dac5470d237cd2679db3ceaa7]
link View to MovePieceView--><path codeLine="18" d="M339.7248,93.309 C339.7248,93.309 325.195,101.146 319,105 C294.6,120.179 268.915,139.526 248.718,155.615 " fill="none" id="View-MovePieceView" style="stroke:#A80036;stroke-width:1.0;"/><polygon fill="#A80036" points="238.399,163.93,247.9167,161.3976,242.2923,160.7927,242.8971,155.1683,238.399,163.93" style="stroke:#A80036;stroke-width:1.0;"/><line style="stroke:#A80036;stroke-width:1.0;" x1="242.2923" x2="248.521" y1="160.7927" y2="155.773"/><polygon fill="#A80036" points="350.429,87.885,343.2689,87.0289,339.7248,93.309,346.8849,94.1651,350.429,87.885" style="stroke:#A80036;stroke-width:1.0;"/><!--MD5=[133041ae27f6e8a9b7b7e2b7786da445]
link View to ResumeView--><path codeLine="19" d="M423.0208,98.6434 C423.0208,98.6434 436.715,98.991 443,105 C487.7,147.733 502.129,221.585 506.785,265.709 " fill="none" id="View-ResumeView" style="stroke:#A80036;stroke-width:1.0;"/><polygon fill="#A80036" points="507.979,278.913,511.1528,269.5895,507.529,273.9333,503.1852,270.3095,507.979,278.913" style="stroke:#A80036;stroke-width:1.0;"/><line style="stroke:#A80036;stroke-width:1.0;" x1="507.529" x2="506.8085" y1="273.9333" y2="265.9655"/><polygon fill="#A80036" points="411.505,95.269,416.1381,100.7948,423.0208,98.6434,418.3877,93.1176,411.505,95.269" style="stroke:#A80036;stroke-width:1.0;"/><!--MD5=[58a4a5df9e73ac69be6ca582831dff7b]
link CoordinateView to ErrorView--><path codeLine="20" d="M135.141,482 C131.065,498.003 125.603,519.446 121.252,536.528 " fill="none" id="CoordinateView-to-ErrorView" style="stroke:#A80036;stroke-width:1.0;stroke-dasharray:7.0,7.0;"/><polygon fill="#A80036" points="119.94,541.678,126.0377,533.9438,121.1742,536.8327,118.2853,531.9691,119.94,541.678" style="stroke:#A80036;stroke-width:1.0;"/><!--MD5=[e90467eeac9562e950efe80dd6bef905]
link MovePieceView to MessageView--><path codeLine="21" d="M205.53,212.024 C198.034,249.911 189.699,325.343 230,367 C247.787,385.386 264.003,363.794 287,375 C312.876,387.609 335.933,411.048 351.482,429.647 " fill="none" id="MovePieceView-to-MessageView" style="stroke:#A80036;stroke-width:1.0;stroke-dasharray:7.0,7.0;"/><polygon fill="#A80036" points="354.879,433.777,352.2516,424.2851,351.703,429.9152,346.0728,429.3666,354.879,433.777" style="stroke:#A80036;stroke-width:1.0;"/><!--MD5=[d624f85094ce528c3b4831e7b087ed06]
link MovePieceView to BoardView--><path codeLine="22" d="M228.406,212.14 C242.043,230.269 261.05,255.537 275.437,274.663 " fill="none" id="MovePieceView-to-BoardView" style="stroke:#A80036;stroke-width:1.0;stroke-dasharray:7.0,7.0;"/><polygon fill="#A80036" points="278.617,278.891,276.4033,269.2942,275.6113,274.8953,270.0102,274.1033,278.617,278.891" style="stroke:#A80036;stroke-width:1.0;"/><!--MD5=[e932a13e189ffdde242b23e92778eed6]
link MovePieceView to PlayerView--><path codeLine="23" d="M174.749,212.255 C171.374,214.767 168.072,217.369 165,220 C145.564,236.644 125.992,257.891 111.578,274.586 " fill="none" id="MovePieceView-to-PlayerView" style="stroke:#A80036;stroke-width:1.0;stroke-dasharray:7.0,7.0;"/><polygon fill="#A80036" points="108.028,278.727,116.9227,274.498,111.2824,274.9311,110.8493,269.2909,108.028,278.727" style="stroke:#A80036;stroke-width:1.0;"/><!--MD5=[cc702c0aace41d67796169c34b68e689]
link MovePieceView to Message--><path codeLine="24" d="M195.042,212.068 C193.81,214.657 192.754,217.327 192,220 C174.264,282.88 148.81,317.979 192,367 C210.659,388.178 232.8,357.57 255,375 C295.057,406.449 264.313,442.131 296,482 C315.918,507.061 345.481,527.349 370.632,541.593 " fill="none" id="MovePieceView-to-Message" style="stroke:#A80036;stroke-width:1.0;stroke-dasharray:7.0,7.0;"/><polygon fill="#A80036" points="375.274,544.182,369.3623,536.3047,370.9073,541.7465,365.4655,543.2915,375.274,544.182" style="stroke:#A80036;stroke-width:1.0;"/><!--MD5=[9b7deca2c2a434391bcba0470bdb9ca5]
link PlayerView to CoordinateView--><path codeLine="25" d="M96.898,327.237 C106.137,354.422 121.43,399.42 131.361,428.638 " fill="none" id="PlayerView-to-CoordinateView" style="stroke:#A80036;stroke-width:1.0;stroke-dasharray:7.0,7.0;"/><polygon fill="#A80036" points="133.028,433.544,133.92,423.7356,131.4195,428.8098,126.3453,426.3093,133.028,433.544" style="stroke:#A80036;stroke-width:1.0;"/><!--MD5=[5d3bf25e2a82fa01272e0e1c6d0f0a54]
link PlayerView to ErrorView--><path codeLine="26" d="M76.812,327.276 C70.4207,340.803 63.2581,358.407 60,375 C50.8373,421.665 46.4743,436.408 60,482 C66.0335,502.337 78.7972,522.353 90.401,537.632 " fill="none" id="PlayerView-to-ErrorView" style="stroke:#A80036;stroke-width:1.0;stroke-dasharray:7.0,7.0;"/><polygon fill="#A80036" points="93.637,541.813,91.2921,532.2474,90.5769,537.8588,84.9654,537.1436,93.637,541.813" style="stroke:#A80036;stroke-width:1.0;"/><!--MD5=[f2aefae2b2dc7e4e35e192c39b2cd7d2]
link PlayerView to Message--><path codeLine="27" d="M110.334,327.279 C124.449,341.148 144.148,357.793 165,367 C188.402,377.333 201.607,359.555 222,375 C263.407,406.359 233.991,443.63 269,482 C296.724,512.385 338.231,534.153 370.559,547.752 " fill="none" id="PlayerView-to-Message" style="stroke:#A80036;stroke-width:1.0;stroke-dasharray:7.0,7.0;"/><polygon fill="#A80036" points="375.259,549.699,368.4764,542.5578,370.64,547.7845,365.4133,549.9482,375.259,549.699" style="stroke:#A80036;stroke-width:1.0;"/><!--MD5=[91198d1c12ec6e73a40fb6837ae56756]
link ResumeView to Message--><path codeLine="28" d="M515.371,327.152 C523.776,362.354 534.992,430.663 512,482 C501.638,505.136 481.287,524.477 462.257,538.653 " fill="none" id="ResumeView-to-Message" style="stroke:#A80036;stroke-width:1.0;stroke-dasharray:7.0,7.0;"/><polygon fill="#A80036" points="457.967,541.779,467.5958,539.7087,462.0071,538.8332,462.8825,533.2445,457.967,541.779" style="stroke:#A80036;stroke-width:1.0;"/><!--MD5=[0b016e28cb8bdd50f0718b285d4c418b]
link StartView to MessageView--><path codeLine="29" d="M380.217,212.314 C378.567,261.44 374.739,375.435 372.952,428.666 " fill="none" id="StartView-to-MessageView" style="stroke:#A80036;stroke-width:1.0;stroke-dasharray:7.0,7.0;"/><polygon fill="#A80036" points="372.775,433.93,377.0762,425.07,372.9436,428.9328,369.0807,424.8003,372.775,433.93" style="stroke:#A80036;stroke-width:1.0;"/><!--MD5=[2b5890793a76472eff4c2a6a4af43287]
link StartView to BoardView--><path codeLine="30" d="M363.594,212.14 C349.957,230.269 330.95,255.537 316.563,274.663 " fill="none" id="StartView-to-BoardView" style="stroke:#A80036;stroke-width:1.0;stroke-dasharray:7.0,7.0;"/><polygon fill="#A80036" points="313.383,278.891,321.9898,274.1033,316.3887,274.8953,315.5967,269.2942,313.383,278.891" style="stroke:#A80036;stroke-width:1.0;"/><!--MD5=[97e9ace985d716348ec86012fc7f7728]
link StartView to Message--><path codeLine="31" d="M385.418,212.09 C394.099,255.145 414.504,345.292 437,367 C446.621,376.284 457.9,364.363 466,375 C503.044,423.647 464.79,497.78 438.79,537.535 " fill="none" id="StartView-to-Message" style="stroke:#A80036;stroke-width:1.0;stroke-dasharray:7.0,7.0;"/><polygon fill="#A80036" points="436.001,541.741,444.3102,536.4536,438.7656,537.5748,437.6443,532.0302,436.001,541.741" style="stroke:#A80036;stroke-width:1.0;"/><!--MD5=[0a810b5c09181f50bb8c28d8cc6d44bf]
link Board to Piece--><path codeLine="43" d="M1329,710 C1329,710 1329,733.677 1329,744.364 " fill="none" id="Board-Piece" style="stroke:#A80036;stroke-width:1.0;"/><polygon fill="#A80036" points="1329,757.678,1333,748.678,1329,752.678,1325,748.678,1329,757.678" style="stroke:#A80036;stroke-width:1.0;"/><line style="stroke:#A80036;stroke-width:1.0;" x1="1329" x2="1329" y1="752.678" y2="744.678"/><polygon fill="#A80036" points="1329,698,1325,704,1329,710,1333,704,1329,698" style="stroke:#A80036;stroke-width:1.0;"/><text fill="#000000" font-family="sans-serif" font-size="13" lengthAdjust="spacing" textLength="7" x="1321.1469" y="747.0045">*</text><!--MD5=[15c8f9ca3aac13d865864b4eb5314ef1]
link Game to Board--><path codeLine="44" d="M1281.1631,338.5988 C1281.1631,338.5988 1231.47,533.276 1277,630 C1279.21,634.695 1282.21,639.053 1285.67,643.049 " fill="none" id="Game-Board" style="stroke:#A80036;stroke-width:1.0;"/><polygon fill="#A80036" points="1294.99,652.226,1291.3867,643.0599,1291.4285,648.7166,1285.7718,648.7584,1294.99,652.226" style="stroke:#A80036;stroke-width:1.0;"/><line style="stroke:#A80036;stroke-width:1.0;" x1="1291.4285" x2="1285.725" y1="648.7166" y2="643.1065"/><polygon fill="#A80036" points="1284.79,327.16,1279.1636,331.6704,1281.1631,338.5988,1286.7895,334.0884,1284.79,327.16" style="stroke:#A80036;stroke-width:1.0;"/><!--MD5=[b9f1e39ad85d50fe6f3a071a4341c320]
link Game to Turn--><path codeLine="45" d="M1301.2205,338.9175 C1301.2205,338.9175 1314.76,396.491 1320.5,420.881 " fill="none" id="Game-Turn" style="stroke:#A80036;stroke-width:1.0;"/><polygon fill="#A80036" points="1323.48,433.544,1325.312,423.867,1322.3347,428.677,1317.5247,425.6996,1323.48,433.544" style="stroke:#A80036;stroke-width:1.0;"/><line style="stroke:#A80036;stroke-width:1.0;" x1="1322.3347" x2="1320.5" y1="428.677" y2="420.8895"/><polygon fill="#A80036" points="1298.47,327.237,1295.9518,333.9941,1301.2205,338.9175,1303.7388,332.1604,1298.47,327.237" style="stroke:#A80036;stroke-width:1.0;"/><!--MD5=[c1f7e88598f78d9459764ed93737eb14]
link Player to Board--><path codeLine="46" d="M1329,602 C1329,602 1329,625.677 1329,636.364 " fill="none" id="Player-Board" style="stroke:#A80036;stroke-width:1.0;"/><polygon fill="#A80036" points="1329,649.678,1333,640.678,1329,644.678,1325,640.678,1329,649.678" style="stroke:#A80036;stroke-width:1.0;"/><line style="stroke:#A80036;stroke-width:1.0;" x1="1329" x2="1329" y1="644.678" y2="636.678"/><polygon fill="#A80036" points="1329,590,1325,596,1329,602,1333,596,1329,590" style="stroke:#A80036;stroke-width:1.0;"/><!--MD5=[aeb9c8b6d1fa4b3f4e931948f58ad7cf]
link Turn to Board--><path codeLine="47" d="M1354.9351,491.81 C1354.9351,491.81 1375.06,524.535 1380,542 C1390.64,579.636 1396.49,594.534 1380,630 C1378.04,634.224 1375.43,638.182 1372.43,641.853 " fill="none" id="Turn-Board" style="stroke:#A80036;stroke-width:1.0;"/><polygon fill="#A80036" points="1363.16,651.424,1372.2972,647.7481,1366.641,647.8347,1366.5544,642.1785,1363.16,651.424" style="stroke:#A80036;stroke-width:1.0;"/><line style="stroke:#A80036;stroke-width:1.0;" x1="1366.641" x2="1372.205" y1="647.8347" y2="642.0885"/><polygon fill="#A80036" points="1347.99,482.024,1348.2006,489.232,1354.9351,491.81,1354.7246,484.6019,1347.99,482.024" style="stroke:#A80036;stroke-width:1.0;"/><!--MD5=[d81713d91ad05be3b975338c4816ee0b]
link Turn to Player--><path codeLine="48" d="M1329,494 C1329,494 1329,517.677 1329,528.364 " fill="none" id="Turn-Player" style="stroke:#A80036;stroke-width:1.0;"/><polygon fill="#A80036" points="1329,541.678,1333,532.678,1329,536.678,1325,532.678,1329,541.678" style="stroke:#A80036;stroke-width:1.0;"/><line style="stroke:#A80036;stroke-width:1.0;" x1="1329" x2="1329" y1="536.678" y2="528.678"/><polygon fill="#A80036" points="1329,482,1325,488,1329,494,1333,488,1329,482" style="stroke:#A80036;stroke-width:1.0;"/><text fill="#000000" font-family="sans-serif" font-size="13" lengthAdjust="spacing" textLength="7" x="1321.1469" y="531.0045">*</text><!--MD5=[9f812a98cb9947e5b96a7c66f6bc972c]
reverse link Piece to Pawn--><path codeLine="49" d="M1351.22,823.613 C1359.01,837.848 1367.49,853.345 1374.24,865.6784 " fill="none" id="Piece-backto-Pawn" style="stroke:#A80036;stroke-width:1.0;"/><polygon fill="none" points="1345.04,826.906,1341.59,806,1357.33,820.186,1345.04,826.906" style="stroke:#A80036;stroke-width:1.0;"/><!--MD5=[febb3c65f0f81ddd882798a5920e5b3b]
reverse link Piece to Draught--><path codeLine="50" d="M1310.17,824.575 C1303.85,838.543 1297.02,853.622 1291.56,865.6784 " fill="none" id="Piece-backto-Draught" style="stroke:#A80036;stroke-width:1.0;"/><polygon fill="none" points="1303.96,821.332,1318.58,806,1316.71,827.107,1303.96,821.332" style="stroke:#A80036;stroke-width:1.0;"/><!--MD5=[354d6deacb49030493b7fd8cb23ebdce]
reverse link Controller to StartController--><path codeLine="59" d="M894,232.337 C894,248.182 894,265.491 894,278.891 " fill="none" id="Controller-backto-StartController" style="stroke:#A80036;stroke-width:1.0;"/><polygon fill="none" points="887,232.14,894,212.14,901,232.14,887,232.14" style="stroke:#A80036;stroke-width:1.0;"/><!--MD5=[bac2a20c9ae2b9b15721398c9d73bfe6]
reverse link Controller to MovePieceController--><path codeLine="60" d="M958.456,215.542 C962.348,216.326 966.011,217.322 971,220 C999.58,235.342 1027.2,260.351 1045.42,278.723 " fill="none" id="Controller-backto-MovePieceController" style="stroke:#A80036;stroke-width:1.0;"/><polygon fill="none" points="956.585,222.288,939.006,210.457,960.126,208.744,956.585,222.288" style="stroke:#A80036;stroke-width:1.0;"/><!--MD5=[dfabfd7c269c7ef3ab5bdd4c723fcdb8]
reverse link Controller to ResumeController--><path codeLine="61" d="M830.423,212.342 C825.774,214.726 821.248,217.281 817,220 C791.476,236.334 766.768,260.708 750.247,278.639 " fill="none" id="Controller-backto-ResumeController" style="stroke:#A80036;stroke-width:1.0;"/><polygon fill="none" points="827.53,205.967,848.628,203.998,833.363,218.694,827.53,205.967" style="stroke:#A80036;stroke-width:1.0;"/><!--MD5=[fd4dadafb7dfafd89665a9151015bafc]
link views to controllers--><path d="M596.5306,74.1479 C596.8222,74.1531 597.1207,74.1584 597.4263,74.1639 C598.0375,74.1748 598.6768,74.1863 599.3435,74.1984 C600.677,74.2226 602.1206,74.2489 603.6703,74.2776 C606.7696,74.3348 610.2933,74.4011 614.2092,74.4765 C629.8729,74.7781 651.8124,75.2258 677.9732,75.8275 C730.2948,77.0308 799.5017,78.8502 869.1579,81.3489 C1008.4703,86.3462 1149.58,94.061 1161,105 C1164.2025,108.067 1166.7467,111.5936 1168.7451,115.4236 C1169.2447,116.3811 1169.7102,117.3576 1170.1433,118.3506 C1170.3599,118.847 1170.5684,119.3477 1170.769,119.8521 C1170.8693,120.1043 1170.9676,120.3575 1171.064,120.6116 C1171.1122,120.7386 1171.1599,120.8659 1171.2072,120.9934 " fill="none" id="views-to-controllers" style="stroke:#A80036;stroke-width:1.0;stroke-dasharray:7.0,7.0;"/><polygon fill="#A80036" points="1171.2072,120.9934,1171.8317,111.1644,1169.4703,116.3048,1164.3299,113.9433,1171.2072,120.9934" style="stroke:#A80036;stroke-width:1.0;"/><!--MD5=[6bfde5656e7ece32836aeea1e9e8a819]
link controllers to models--><path d="M1177.036,189.3499 C1177.4044,189.3666 1177.7844,189.3839 1178.1759,189.4018 C1178.9587,189.4376 1179.7872,189.4758 1180.6596,189.5164 C1187.6386,189.8412 1197.4259,190.3205 1209.1294,190.9569 C1232.5363,192.2297 1263.6075,194.1312 1295.205,196.6841 C1358.4,201.79 1423.7,209.5015 1434,220 C1437.105,223.1654 1439.5753,226.7666 1441.5191,230.6516 C1442.0051,231.6229 1442.4581,232.6119 1442.8799,233.6162 C1443.0909,234.1184 1443.294,234.6244 1443.4895,235.134 C1443.5873,235.3888 1443.6831,235.6445 1443.7771,235.901 " fill="none" id="controllers-to-models" style="stroke:#A80036;stroke-width:1.0;stroke-dasharray:7.0,7.0;"/><polygon fill="#A80036" points="1443.7771,235.901,1444.4366,226.0742,1442.0569,231.2062,1436.925,228.8265,1443.7771,235.901" style="stroke:#A80036;stroke-width:1.0;"/><!--MD5=[a47103ae2ffafd08434d69e1e4d1349a]
link views to types--><path d="M596.0641,74.0363 C596.5888,74.0391 597.1378,74.0422 597.7108,74.0454 C598.8567,74.052 600.0985,74.0594 601.4331,74.0678 C604.1023,74.0846 607.1429,74.1053 610.5309,74.1307 C624.0827,74.2323 643.1922,74.4091 666.3225,74.7126 C712.5833,75.3197 774.9277,76.4337 841.0621,78.4671 C973.331,82.534 1120.76,90.2785 1185,105 C1313.33,134.41 1376.28,116.775 1458,220 C1490.635,261.222 1500.835,319.279 1502.7788,367.6131 C1503.0217,373.6549 1503.1357,379.5447 1503.1483,385.2308 C1503.1515,386.6523 1503.1483,388.0611 1503.1393,389.4563 C1503.137,389.8051 1503.1344,390.1531 1503.1314,390.5002 " fill="none" id="views-to-types" style="stroke:#A80036;stroke-width:1.0;stroke-dasharray:7.0,7.0;"/><polygon fill="#A80036" points="1503.1314,390.5002,1507.2089,381.5351,1503.1745,385.5004,1499.2092,381.466,1503.1314,390.5002" style="stroke:#A80036;stroke-width:1.0;"/><!--MD5=[9da2d375dc0417b2d3724b966d4c0d45]
link models to types--><path d="M1450.0643,326.0326 C1450.1414,326.2432 1450.2189,326.455 1450.2968,326.6679 C1450.6085,327.5195 1450.9269,328.3892 1451.2514,329.2758 C1456.4441,343.4621 1463.2281,361.9963 1470.0113,380.5283 C1476.7944,399.0603 1483.5766,417.5901 1488.7655,431.7676 C1489.0898,432.6537 1489.4079,433.5227 1489.7193,434.3738 C1489.7972,434.5865 1489.8747,434.7982 1489.9517,435.0086 " fill="none" id="models-to-types" style="stroke:#A80036;stroke-width:1.0;stroke-dasharray:7.0,7.0;"/><polygon fill="#A80036" points="1489.9517,435.0086,1490.6147,425.1821,1488.2332,430.3132,1483.1021,427.9317,1489.9517,435.0086" style="stroke:#A80036;stroke-width:1.0;"/><!--MD5=[d4a7c83be5fbe5aecf4179f7e5d14ac3]
link Color to Error--><!--MD5=[d2341b39cd70f66be4b73d1dba0bd09d]
link Color to Coordinate--><!--MD5=[1ef964660408f97c8b2eff6f6c97f2bb]
@startuml
package views{
    class BoardView
    class View
    class CoordinateView
    class ErrorView
    enum  Message
    class MessageView
    class MovePieceView
    class PlayerView
    class ResumeView
    class StartView
}

BoardView .down.> MessageView
BoardView .down.> Message
MessageView .down.> Message
View *-down-> StartView
View *-down-> MovePieceView
View *-down-> ResumeView
CoordinateView .down.> ErrorView
MovePieceView .down.> MessageView
MovePieceView .down.> BoardView
MovePieceView .down.> PlayerView
MovePieceView .down.> Message
PlayerView .down.> CoordinateView
PlayerView .down.> ErrorView
PlayerView .down.> Message
ResumeView .down.> Message
StartView .down.> MessageView
StartView .down.> BoardView
StartView .down.> Message

package models{
    class Board
    class Draught
    class Game
    class Pawn 
    abstract class Piece 
    class Player 
    class Turn
}

Board *-down-> "*" Piece
Game *-down-> Board
Game *-down-> Turn
Player *-down-> Board
Turn *-down-> Board
Turn *-down-> "*" Player
Piece <|-down- Pawn
Piece <|-down- Draught

package controllers{
    abstract class Controller
    class StartController
    class MovePieceController
    class ResumeController
}

Controller <|-down- StartController
Controller <|-down- MovePieceController
Controller <|-down- ResumeController

package types{
    enum Color
    enum Error
    class Coordinate
}

views .down.> controllers
controllers .down.> models
views .down.> types
models .down.> types
@enduml

PlantUML version 1.2021.4beta2(Unknown compile time)
(GPL source distribution)
Java Runtime: Java(TM) SE Runtime Environment
JVM: Java HotSpot(TM) 64-Bit Server VM
Default Encoding: UTF-8
Language: en
Country: US
--></g></svg>