<?xml version="1.0" encoding="UTF-8" standalone="no"?><svg xmlns="http://www.w3.org/2000/svg" xmlns:xlink="http://www.w3.org/1999/xlink" contentScriptType="application/ecmascript" contentStyleType="text/css" height="438px" preserveAspectRatio="none" style="width:434px;height:438px;" version="1.1" viewBox="0 0 434 438" width="434px" zoomAndPan="magnify"><defs><filter height="300%" id="f14gon4vdnzkmo" width="300%" x="-1" y="-1"><feGaussianBlur result="blurOut" stdDeviation="2.0"/><feColorMatrix in="blurOut" result="blurOut2" type="matrix" values="0 0 0 0 0 0 0 0 0 0 0 0 0 0 0 0 0 0 .4 0"/><feOffset dx="4.0" dy="4.0" in="blurOut2" result="blurOut3"/><feBlend in="SourceGraphic" in2="blurOut3" mode="normal"/></filter></defs><g><!--MD5=[67cd15ce44b6dd54f77054b62c31bf42]
cluster types--><polygon fill="#FFFFFF" filter="url(#f14gon4vdnzkmo)" points="16,6,67,6,74,28.2969,417,28.2969,417,431,16,431,16,6" style="stroke:#000000;stroke-width:1.5;"/><line style="stroke:#000000;stroke-width:1.5;" x1="16" x2="74" y1="28.2969" y2="28.2969"/><text fill="#000000" font-family="sans-serif" font-size="14" font-weight="bold" lengthAdjust="spacing" textLength="45" x="20" y="20.9951">types</text><!--MD5=[18eee71c88ab61f27581b8cbdd3ef5ee]
class Color--><rect codeLine="2" fill="#FEFECE" filter="url(#f14gon4vdnzkmo)" height="150.4375" id="Color" style="stroke:#A80036;stroke-width:1.5;" width="174" x="32" y="67"/><ellipse cx="98.75" cy="83" fill="#EB937F" rx="11" ry="11" style="stroke:#A80036;stroke-width:1.0;"/><path d="M97.5469,83.875 L99,83.875 L99,83.9844 C99,84.3906 99.0313,84.5469 99.1094,84.7031 C99.2656,84.9531 99.5469,85.1094 99.8438,85.1094 C100.0938,85.1094 100.3594,84.9688 100.5156,84.75 C100.6406,84.5938 100.6719,84.4375 100.6719,83.9844 L100.6719,82.0625 C100.6719,81.9063 100.6719,81.8594 100.6563,81.7031 C100.5938,81.2344 100.2813,80.9219 99.8281,80.9219 C99.5781,80.9219 99.3125,81.0625 99.1406,81.2813 C99.0313,81.4531 99,81.6094 99,82.0625 L99,82.1875 L97.5469,82.1875 L97.5469,79.7813 L101.5313,79.7813 L101.5313,80.6406 C101.5313,81.0469 101.5625,81.2188 101.6406,81.375 C101.8125,81.625 102.0938,81.7813 102.375,81.7813 C102.6406,81.7813 102.9063,81.6406 103.0781,81.4219 C103.1875,81.25 103.2188,81.1094 103.2188,80.6406 L103.2188,78.0938 L95.5938,78.0938 C95.1563,78.0938 95.0313,78.1094 94.875,78.2031 C94.625,78.3594 94.4688,78.6563 94.4688,78.9375 C94.4688,79.2188 94.6094,79.4688 94.8281,79.6406 C94.9844,79.75 95.1719,79.7813 95.5938,79.7813 L95.8438,79.7813 L95.8438,86.2969 L95.5938,86.2969 C95.1875,86.2969 95.0313,86.3125 94.875,86.4219 C94.625,86.5938 94.4688,86.8594 94.4688,87.1563 C94.4688,87.4219 94.6094,87.6719 94.8281,87.8281 C94.9688,87.9531 95.2031,88 95.5938,88 L103.5938,88 L103.5938,85.4219 C103.5938,84.9844 103.5625,84.8438 103.4844,84.6875 C103.3125,84.4375 103.0313,84.2813 102.75,84.2813 C102.4844,84.2813 102.2188,84.3906 102.0469,84.6406 C101.9375,84.7969 101.9063,84.9375 101.9063,85.4219 L101.9063,86.2969 L97.5469,86.2969 L97.5469,83.875 Z " fill="#000000"/><text fill="#000000" font-family="sans-serif" font-size="12" lengthAdjust="spacing" textLength="32" x="119.25" y="87.1543">Color</text><line style="stroke:#A80036;stroke-width:1.5;" x1="33" x2="205" y1="99" y2="99"/><ellipse cx="43" cy="110" rx="3" ry="3" style="stroke:#038048;stroke-width:1.0;fill:none;"/><text fill="#000000" font-family="sans-serif" font-size="11" lengthAdjust="spacing" textLength="36" x="52" y="113.2104">WHITE</text><ellipse cx="43" cy="122.8047" rx="3" ry="3" style="stroke:#038048;stroke-width:1.0;fill:none;"/><text fill="#000000" font-family="sans-serif" font-size="11" lengthAdjust="spacing" textLength="37" x="52" y="126.0151">BLACK</text><ellipse cx="43" cy="135.6094" rx="3" ry="3" style="stroke:#038048;stroke-width:1.0;fill:none;"/><text fill="#000000" font-family="sans-serif" font-size="11" lengthAdjust="spacing" textLength="28" x="52" y="138.8198">NULL</text><line style="stroke:#A80036;stroke-width:1.5;" x1="33" x2="205" y1="145.4141" y2="145.4141"/><ellipse cx="43" cy="156.4141" fill="#84BE84" rx="3" ry="3" style="stroke:#038048;stroke-width:1.0;"/><text fill="#000000" font-family="sans-serif" font-size="11" lengthAdjust="spacing" text-decoration="underline" textLength="77" x="52" y="159.6245">get(int): Color</text><ellipse cx="43" cy="169.2188" fill="#84BE84" rx="3" ry="3" style="stroke:#038048;stroke-width:1.0;"/><text fill="#000000" font-family="sans-serif" font-size="11" lengthAdjust="spacing" text-decoration="underline" textLength="148" x="52" y="172.4292">getInitialColor(Coordinate)</text><ellipse cx="43" cy="182.0234" fill="#84BE84" rx="3" ry="3" style="stroke:#038048;stroke-width:1.0;"/><text fill="#000000" font-family="sans-serif" font-size="11" lengthAdjust="spacing" textLength="88" x="52" y="185.2339">getInitial(): char</text><ellipse cx="43" cy="194.8281" fill="#84BE84" rx="3" ry="3" style="stroke:#038048;stroke-width:1.0;"/><text fill="#000000" font-family="sans-serif" font-size="11" lengthAdjust="spacing" textLength="93" x="52" y="198.0386">opposite(): Color</text><ellipse cx="43" cy="207.6328" fill="#84BE84" rx="3" ry="3" style="stroke:#038048;stroke-width:1.0;"/><text fill="#000000" font-family="sans-serif" font-size="11" lengthAdjust="spacing" textLength="91" x="52" y="210.8433">isNull(): boolean</text><!--MD5=[b8cfd8c4119a3b0a7a46bfc5fc780f85]
class Error--><rect codeLine="12" fill="#FEFECE" filter="url(#f14gon4vdnzkmo)" height="201.6563" id="Error" style="stroke:#A80036;stroke-width:1.5;" width="159" x="241.5" y="41"/><ellipse cx="301.75" cy="57" fill="#EB937F" rx="11" ry="11" style="stroke:#A80036;stroke-width:1.0;"/><path d="M300.5469,57.875 L302,57.875 L302,57.9844 C302,58.3906 302.0313,58.5469 302.1094,58.7031 C302.2656,58.9531 302.5469,59.1094 302.8438,59.1094 C303.0938,59.1094 303.3594,58.9688 303.5156,58.75 C303.6406,58.5938 303.6719,58.4375 303.6719,57.9844 L303.6719,56.0625 C303.6719,55.9063 303.6719,55.8594 303.6563,55.7031 C303.5938,55.2344 303.2813,54.9219 302.8281,54.9219 C302.5781,54.9219 302.3125,55.0625 302.1406,55.2813 C302.0313,55.4531 302,55.6094 302,56.0625 L302,56.1875 L300.5469,56.1875 L300.5469,53.7813 L304.5313,53.7813 L304.5313,54.6406 C304.5313,55.0469 304.5625,55.2188 304.6406,55.375 C304.8125,55.625 305.0938,55.7813 305.375,55.7813 C305.6406,55.7813 305.9063,55.6406 306.0781,55.4219 C306.1875,55.25 306.2188,55.1094 306.2188,54.6406 L306.2188,52.0938 L298.5938,52.0938 C298.1563,52.0938 298.0313,52.1094 297.875,52.2031 C297.625,52.3594 297.4688,52.6563 297.4688,52.9375 C297.4688,53.2188 297.6094,53.4688 297.8281,53.6406 C297.9844,53.75 298.1719,53.7813 298.5938,53.7813 L298.8438,53.7813 L298.8438,60.2969 L298.5938,60.2969 C298.1875,60.2969 298.0313,60.3125 297.875,60.4219 C297.625,60.5938 297.4688,60.8594 297.4688,61.1563 C297.4688,61.4219 297.6094,61.6719 297.8281,61.8281 C297.9688,61.9531 298.2031,62 298.5938,62 L306.5938,62 L306.5938,59.4219 C306.5938,58.9844 306.5625,58.8438 306.4844,58.6875 C306.3125,58.4375 306.0313,58.2813 305.75,58.2813 C305.4844,58.2813 305.2188,58.3906 305.0469,58.6406 C304.9375,58.7969 304.9063,58.9375 304.9063,59.4219 L304.9063,60.2969 L300.5469,60.2969 L300.5469,57.875 Z " fill="#000000"/><text fill="#000000" font-family="sans-serif" font-size="12" lengthAdjust="spacing" textLength="30" x="322.25" y="61.1543">Error</text><line style="stroke:#A80036;stroke-width:1.5;" x1="242.5" x2="399.5" y1="73" y2="73"/><ellipse cx="252.5" cy="84" rx="3" ry="3" style="stroke:#038048;stroke-width:1.0;fill:none;"/><text fill="#000000" font-family="sans-serif" font-size="11" lengthAdjust="spacing" textLength="66" x="261.5" y="87.2104">NOT_EMPTY</text><ellipse cx="252.5" cy="96.8047" rx="3" ry="3" style="stroke:#038048;stroke-width:1.0;fill:none;"/><text fill="#000000" font-family="sans-serif" font-size="11" lengthAdjust="spacing" textLength="72" x="261.5" y="100.0151">NOT_OWNER</text><ellipse cx="252.5" cy="109.6094" rx="3" ry="3" style="stroke:#038048;stroke-width:1.0;fill:none;"/><text fill="#000000" font-family="sans-serif" font-size="11" lengthAdjust="spacing" textLength="121" x="261.5" y="112.8198">SAME_COORDINATES</text><ellipse cx="252.5" cy="122.4141" rx="3" ry="3" style="stroke:#038048;stroke-width:1.0;fill:none;"/><text fill="#000000" font-family="sans-serif" font-size="11" lengthAdjust="spacing" textLength="133" x="261.5" y="125.6245">WRONG_COORDINATES</text><ellipse cx="252.5" cy="135.2188" rx="3" ry="3" style="stroke:#038048;stroke-width:1.0;fill:none;"/><text fill="#000000" font-family="sans-serif" font-size="11" lengthAdjust="spacing" textLength="90" x="261.5" y="138.4292">NOT_DIAGONAL</text><ellipse cx="252.5" cy="148.0234" rx="3" ry="3" style="stroke:#038048;stroke-width:1.0;fill:none;"/><text fill="#000000" font-family="sans-serif" font-size="11" lengthAdjust="spacing" textLength="96" x="261.5" y="151.2339">NOT_VALID_WAY</text><ellipse cx="252.5" cy="160.8281" rx="3" ry="3" style="stroke:#038048;stroke-width:1.0;fill:none;"/><text fill="#000000" font-family="sans-serif" font-size="11" lengthAdjust="spacing" textLength="116" x="261.5" y="164.0386">COLLEAGUE_EATING</text><ellipse cx="252.5" cy="173.6328" rx="3" ry="3" style="stroke:#038048;stroke-width:1.0;fill:none;"/><text fill="#000000" font-family="sans-serif" font-size="11" lengthAdjust="spacing" textLength="52" x="261.5" y="176.8433">TOO_FAR</text><ellipse cx="252.5" cy="186.4375" rx="3" ry="3" style="stroke:#038048;stroke-width:1.0;fill:none;"/><text fill="#000000" font-family="sans-serif" font-size="11" lengthAdjust="spacing" textLength="112" x="261.5" y="189.6479">TOO_MUCH_EATING</text><ellipse cx="252.5" cy="199.2422" rx="3" ry="3" style="stroke:#038048;stroke-width:1.0;fill:none;"/><text fill="#000000" font-family="sans-serif" font-size="11" lengthAdjust="spacing" textLength="91" x="261.5" y="202.4526">BLOCKED_PIECE</text><ellipse cx="252.5" cy="212.0469" rx="3" ry="3" style="stroke:#038048;stroke-width:1.0;fill:none;"/><text fill="#000000" font-family="sans-serif" font-size="11" lengthAdjust="spacing" textLength="28" x="261.5" y="215.2573">NULL</text><line style="stroke:#A80036;stroke-width:1.5;" x1="242.5" x2="399.5" y1="221.8516" y2="221.8516"/><ellipse cx="252.5" cy="232.8516" fill="#84BE84" rx="3" ry="3" style="stroke:#038048;stroke-width:1.0;"/><text fill="#000000" font-family="sans-serif" font-size="11" lengthAdjust="spacing" textLength="91" x="261.5" y="236.062">isNull(): boolean</text><!--MD5=[8c7d7abc12e214c3cc12c9ab70edee11]
class Coordinate--><rect codeLine="26" fill="#FEFECE" filter="url(#f14gon4vdnzkmo)" height="112.0234" id="Coordinate" style="stroke:#A80036;stroke-width:1.5;" width="283" x="32.5" y="303"/><ellipse cx="136.75" cy="319" fill="#ADD1B2" rx="11" ry="11" style="stroke:#A80036;stroke-width:1.0;"/><path d="M139.0938,314.6719 C138.1563,314.2344 137.5625,314.0938 136.6875,314.0938 C134.0625,314.0938 132.0625,316.1719 132.0625,318.8906 L132.0625,320.0156 C132.0625,322.5938 134.1719,324.4844 137.0625,324.4844 C138.2813,324.4844 139.4375,324.1875 140.1875,323.6406 C140.7656,323.2344 141.0938,322.7813 141.0938,322.3906 C141.0938,321.9375 140.7031,321.5469 140.2344,321.5469 C140.0156,321.5469 139.8125,321.625 139.625,321.8125 C139.1719,322.2969 139.1719,322.2969 138.9844,322.3906 C138.5625,322.6563 137.875,322.7813 137.1094,322.7813 C135.0625,322.7813 133.7656,321.6875 133.7656,319.9844 L133.7656,318.8906 C133.7656,317.1094 135.0156,315.7969 136.75,315.7969 C137.3281,315.7969 137.9375,315.9531 138.4063,316.2031 C138.8906,316.4844 139.0625,316.7031 139.1563,317.1094 C139.2188,317.5156 139.25,317.6406 139.3906,317.7656 C139.5313,317.9063 139.7656,318.0156 139.9844,318.0156 C140.25,318.0156 140.5156,317.875 140.6875,317.6563 C140.7969,317.5 140.8281,317.3125 140.8281,316.8906 L140.8281,315.4688 C140.8281,315.0313 140.8125,314.9063 140.7188,314.75 C140.5625,314.4844 140.2813,314.3438 139.9844,314.3438 C139.6875,314.3438 139.4844,314.4375 139.2656,314.75 L139.0938,314.6719 Z " fill="#000000"/><text fill="#000000" font-family="sans-serif" font-size="12" lengthAdjust="spacing" textLength="66" x="157.25" y="323.1543">Coordinate</text><line style="stroke:#A80036;stroke-width:1.5;" x1="33.5" x2="314.5" y1="335" y2="335"/><ellipse cx="43.5" cy="346" rx="3" ry="3" style="stroke:#038048;stroke-width:1.0;fill:none;"/><text fill="#000000" font-family="sans-serif" font-size="11" lengthAdjust="spacing" text-decoration="underline" textLength="109" x="52.5" y="349.2104">DIMENSION: int = 8</text><line style="stroke:#A80036;stroke-width:1.5;" x1="33.5" x2="314.5" y1="355.8047" y2="355.8047"/><ellipse cx="43.5" cy="366.8047" fill="#84BE84" rx="3" ry="3" style="stroke:#038048;stroke-width:1.0;"/><text fill="#000000" font-family="sans-serif" font-size="11" lengthAdjust="spacing" textLength="101" x="52.5" y="370.0151">Coordinate(int,int)</text><ellipse cx="43.5" cy="379.6094" fill="#84BE84" rx="3" ry="3" style="stroke:#038048;stroke-width:1.0;"/><text fill="#000000" font-family="sans-serif" font-size="11" lengthAdjust="spacing" textLength="257" x="52.5" y="382.8198">getOrthogonalVector(Coordinate): Coordinate</text><ellipse cx="43.5" cy="392.4141" fill="#84BE84" rx="3" ry="3" style="stroke:#038048;stroke-width:1.0;"/><text fill="#000000" font-family="sans-serif" font-size="11" lengthAdjust="spacing" textLength="174" x="52.5" y="395.6245">isInitialPiecePosition(): boolean</text><ellipse cx="43.5" cy="405.2188" fill="#84BE84" rx="3" ry="3" style="stroke:#038048;stroke-width:1.0;"/><text fill="#000000" font-family="sans-serif" font-size="11" lengthAdjust="spacing" textLength="207" x="52.5" y="408.4292">getDiagonalCoordinates(Coordinate)</text><!--MD5=[d4a7c83be5fbe5aecf4179f7e5d14ac3]
link Color to Error--><!--MD5=[d2341b39cd70f66be4b73d1dba0bd09d]
link Color to Coordinate--><!--MD5=[e5be34b81ff2c358237af942647d690b]
@startuml
package types{
    enum Color{
        + WHITE
        + BLACK
        + NULL 
        + {static} get(int): Color
        + {static} getInitialColor(Coordinate)
        + getInitial(): char 
        + opposite(): Color
        + isNull(): boolean
    }
    enum Error{
        + NOT_EMPTY
        + NOT_OWNER
        + SAME_COORDINATES
        + WRONG_COORDINATES
        + NOT_DIAGONAL
        + NOT_VALID_WAY
        + COLLEAGUE_EATING
        + TOO_FAR
        + TOO_MUCH_EATING
        + BLOCKED_PIECE
        + NULL
        + isNull(): boolean
    }
    class Coordinate{
        + {static}DIMENSION: int = 8
        + Coordinate(int,int)
        + getOrthogonalVector(Coordinate): Coordinate
        + isInitialPiecePosition(): boolean
        + getDiagonalCoordinates(Coordinate)
    }
}
@enduml

PlantUML version 1.2021.4beta2(Unknown compile time)
(GPL source distribution)
Java Runtime: Java(TM) SE Runtime Environment
JVM: Java HotSpot(TM) 64-Bit Server VM
Default Encoding: UTF-8
Language: en
Country: US
--></g></svg>