<?xml version="1.0" encoding="UTF-8" standalone="no"?><svg xmlns="http://www.w3.org/2000/svg" xmlns:xlink="http://www.w3.org/1999/xlink" contentScriptType="application/ecmascript" contentStyleType="text/css" height="797px" preserveAspectRatio="none" style="width:269px;height:797px;" version="1.1" viewBox="0 0 269 797" width="269px" zoomAndPan="magnify"><defs><filter height="300%" id="fnujam47hsil8" width="300%" x="-1" y="-1"><feGaussianBlur result="blurOut" stdDeviation="2.0"/><feColorMatrix in="blurOut" result="blurOut2" type="matrix" values="0 0 0 0 0 0 0 0 0 0 0 0 0 0 0 0 0 0 .4 0"/><feOffset dx="4.0" dy="4.0" in="blurOut2" result="blurOut3"/><feBlend in="SourceGraphic" in2="blurOut3" mode="normal"/></filter></defs><g><g id="INITIAL"><rect fill="#FEFECE" filter="url(#fnujam47hsil8)" height="50" rx="12.5" ry="12.5" style="stroke:#A80036;stroke-width:1.5;" width="69" x="123.5871" y="87"/><line style="stroke:#A80036;stroke-width:1.5;" x1="123.5871" x2="192.5871" y1="113.2969" y2="113.2969"/><text fill="#000000" font-family="sans-serif" font-size="14" lengthAdjust="spacing" textLength="49" x="133.5871" y="104.9951">INITIAL</text></g><g id="IN_GAME"><rect fill="#FEFECE" filter="url(#fnujam47hsil8)" height="50" rx="12.5" ry="12.5" style="stroke:#A80036;stroke-width:1.5;" width="83" x="50.5873" y="214"/><line style="stroke:#A80036;stroke-width:1.5;" x1="50.5873" x2="133.5873" y1="240.2969" y2="240.2969"/><text fill="#000000" font-family="sans-serif" font-size="14" lengthAdjust="spacing" textLength="63" x="60.5873" y="231.9951">IN_GAME</text></g><g id="OUT_GAME"><rect fill="#FEFECE" filter="url(#fnujam47hsil8)" height="50" rx="12.5" ry="12.5" style="stroke:#A80036;stroke-width:1.5;" width="98" x="36.0873" y="442"/><line style="stroke:#A80036;stroke-width:1.5;" x1="36.0873" x2="134.0873" y1="468.2969" y2="468.2969"/><text fill="#000000" font-family="sans-serif" font-size="14" lengthAdjust="spacing" textLength="78" x="46.0873" y="459.9951">OUT_GAME</text></g><g id="EXIT"><rect fill="#FEFECE" filter="url(#fnujam47hsil8)" height="50" rx="12.5" ry="12.5" style="stroke:#A80036;stroke-width:1.5;" width="52" x="116.0873" y="654"/><line style="stroke:#A80036;stroke-width:1.5;" x1="116.0873" x2="168.0873" y1="680.2969" y2="680.2969"/><text fill="#000000" font-family="sans-serif" font-size="14" lengthAdjust="spacing" textLength="32" x="126.0873" y="671.9951">EXIT</text></g><polygon fill="#FEFECE" filter="url(#fnujam47hsil8)" points="85.0873,341,97.0873,353,85.0873,365,73.0873,353,85.0873,341" style="stroke:#A80036;stroke-width:1.5;"/><polygon fill="#FEFECE" filter="url(#fnujam47hsil8)" points="142.0871,569,154.0871,581,142.0871,593,130.0871,581,142.0871,569" style="stroke:#A80036;stroke-width:1.5;"/><ellipse cx="158.0871" cy="16" fill="#000000" filter="url(#fnujam47hsil8)" rx="10" ry="10" style="stroke:none;stroke-width:1.0;"/><ellipse cx="142.0871" cy="775" filter="url(#fnujam47hsil8)" rx="10" ry="10" style="stroke:#000000;stroke-width:1.0;fill:none;"/><ellipse cx="142.5871" cy="775.5" fill="#000000" rx="6" ry="6" style="stroke:none;stroke-width:1.0;"/><!--MD5=[06c3f2024f4ea60966e79307ee69ec5f]
link *start to INITIAL--><path d="M158.0871,26.013 C158.0871,38.698 158.0871,62.409 158.0871,81.57 " fill="none" id="*start-to-INITIAL" style="stroke:#A80036;stroke-width:1.0;"/><polygon fill="#A80036" points="158.0871,86.84,162.0871,77.84,158.0871,81.84,154.0871,77.84,158.0871,86.84" style="stroke:#A80036;stroke-width:1.0;"/><!--MD5=[c6210ae09f2e397a3dfeeac0c7e340d4]
link INITIAL to IN_GAME--><path d="M144.4511,137.086 C139.2511,146.39 133.3181,157.149 128.0871,167 C120.7551,180.806 112.8748,196.273 106.3615,209.237 " fill="none" id="INITIAL-to-IN_GAME" style="stroke:#A80036;stroke-width:1.0;"/><polygon fill="#A80036" points="104.0273,213.893,111.6358,207.6391,106.2675,209.423,104.4837,204.0547,104.0273,213.893" style="stroke:#A80036;stroke-width:1.0;"/><text fill="#000000" font-family="sans-serif" font-size="13" lengthAdjust="spacing" textLength="31" x="129.0871" y="180.0669">Start</text><!--MD5=[200846c1dd6de3f2a37d61d02f348d5e]
link IN_GAME to if_finished--><path d="M50.553,260.815 C38.1187,269.286 25.9709,280.346 19.0873,294 C6,319.96 48.9793,339.413 71.7982,347.659 " fill="none" id="IN_GAME-to-if_finished" style="stroke:#A80036;stroke-width:1.0;"/><polygon fill="#A80036" points="76.5967,349.336,69.4201,342.5909,71.8766,347.6865,66.781,350.143,76.5967,349.336" style="stroke:#A80036;stroke-width:1.0;"/><text fill="#000000" font-family="sans-serif" font-size="13" lengthAdjust="spacing" textLength="72" x="20.0873" y="307.0669">Move piece</text><!--MD5=[5848ef64f427518330d05d0e49dfaccc]
link if_finished to IN_GAME--><path d="M88.1739,343.983 C91.137,335.826 95.4036,322.747 97.0873,311 C99.053,297.286 98.3379,281.966 96.9131,269.077 " fill="none" id="if_finished-to-IN_GAME" style="stroke:#A80036;stroke-width:1.0;"/><polygon fill="#A80036" points="96.3128,264.082,93.4136,273.4945,96.9085,269.0464,101.3566,272.5413,96.3128,264.082" style="stroke:#A80036;stroke-width:1.0;"/><!--MD5=[fb580c452284ecb35857e88f372e8dbe]
link if_finished to OUT_GAME--><path d="M85.0873,365.148 C85.0873,381.609 85.0873,412.991 85.0873,436.396 " fill="none" id="if_finished-to-OUT_GAME" style="stroke:#A80036;stroke-width:1.0;"/><polygon fill="#A80036" points="85.0873,441.56,89.0873,432.56,85.0873,436.56,81.0873,432.56,85.0873,441.56" style="stroke:#A80036;stroke-width:1.0;"/><text fill="#000000" font-family="sans-serif" font-size="13" lengthAdjust="spacing" textLength="60" x="86.0873" y="408.0669">[finished]</text><!--MD5=[636b806927507f296b22f82987e0fbb2]
link OUT_GAME to if_resumed--><path d="M89.4757,492.034 C92.7271,506.287 98.0163,524.368 106.0873,539 C113.0072,551.545 124.3171,563.578 132.4131,571.325 " fill="none" id="OUT_GAME-to-if_resumed" style="stroke:#A80036;stroke-width:1.0;"/><polygon fill="#A80036" points="136.0971,574.768,132.2515,565.7009,132.4436,571.3545,126.79,571.5466,136.0971,574.768" style="stroke:#A80036;stroke-width:1.0;"/><text fill="#000000" font-family="sans-serif" font-size="13" lengthAdjust="spacing" textLength="53" x="107.0873" y="535.0669">Resume</text><!--MD5=[36553ab13ef484d8e624246e921f8591]
link if_resumed to INITIAL--><path d="M146.9031,573.305 C158.5121,556.488 187.0871,510.749 187.0871,468 C187.0871,238 187.0871,238 187.0871,238 C187.0871,204.375 177.0061,166.947 168.7311,141.889 " fill="none" id="if_resumed-to-INITIAL" style="stroke:#A80036;stroke-width:1.0;"/><polygon fill="#A80036" points="167.1041,137.048,166.1793,146.8533,168.6968,141.7875,173.7626,144.305,167.1041,137.048" style="stroke:#A80036;stroke-width:1.0;"/><text fill="#000000" font-family="sans-serif" font-size="13" lengthAdjust="spacing" textLength="73" x="188.0871" y="357.5669">[continued]</text><!--MD5=[00ace724ee34ef802585e1261ed65fdc]
link if_resumed to EXIT--><path d="M142.0871,593.012 C142.0871,606.518 142.0871,629.935 142.0871,648.773 " fill="none" id="if_resumed-to-EXIT" style="stroke:#A80036;stroke-width:1.0;"/><polygon fill="#A80036" points="142.0871,653.953,146.0871,644.953,142.0871,648.953,138.0871,644.953,142.0871,653.953" style="stroke:#A80036;stroke-width:1.0;"/><!--MD5=[bd19b40b84bbe903342104a02ae53ed4]
link EXIT to *end--><path d="M142.0871,704.2073 C142.0871,721.8423 142.0871,745.1261 142.0871,759.8351 " fill="none" id="EXIT-to-*end" style="stroke:#A80036;stroke-width:1.0;"/><polygon fill="#A80036" points="142.0871,764.8399,146.0871,755.8399,142.0871,759.8399,138.0871,755.8399,142.0871,764.8399" style="stroke:#A80036;stroke-width:1.0;"/><!--MD5=[6edb949e939a7d7c3edd04d4eaa1df31]
@startuml
state INITIAL
state IN_GAME
state OUT_GAME
state EXIT
state if_finished <<choice>>
state if_resumed <<choice>>

[*] - -> INITIAL
INITIAL - -> IN_GAME : Start
IN_GAME - -> if_finished : Move piece
if_finished - -> IN_GAME
if_finished - -> OUT_GAME : [finished]
OUT_GAME - -> if_resumed : Resume
if_resumed - -> INITIAL : [continued]
if_resumed - -> EXIT
EXIT - -> [*]
@enduml

PlantUML version 1.2021.4beta2(Unknown compile time)
(GPL source distribution)
Java Runtime: Java(TM) SE Runtime Environment
JVM: Java HotSpot(TM) 64-Bit Server VM
Default Encoding: UTF-8
Language: en
Country: US
--></g></svg>