<?xml version="1.0" encoding="UTF-8" standalone="no"?><svg xmlns="http://www.w3.org/2000/svg" xmlns:xlink="http://www.w3.org/1999/xlink" contentScriptType="application/ecmascript" contentStyleType="text/css" height="611px" preserveAspectRatio="none" style="width:292px;height:611px;" version="1.1" viewBox="0 0 292 611" width="292px" zoomAndPan="magnify"><defs><filter height="300%" id="fb0ssj0okcuew" width="300%" x="-1" y="-1"><feGaussianBlur result="blurOut" stdDeviation="2.0"/><feColorMatrix in="blurOut" result="blurOut2" type="matrix" values="0 0 0 0 0 0 0 0 0 0 0 0 0 0 0 0 0 0 .4 0"/><feOffset dx="4.0" dy="4.0" in="blurOut2" result="blurOut3"/><feBlend in="SourceGraphic" in2="blurOut3" mode="normal"/></filter></defs><g><g id="INITIAL"><rect fill="#FEFECE" filter="url(#fb0ssj0okcuew)" height="50" rx="12.5" ry="12.5" style="stroke:#A80036;stroke-width:1.5;" width="69" x="14" y="87"/><line style="stroke:#A80036;stroke-width:1.5;" x1="14" x2="83" y1="113.2969" y2="113.2969"/><text fill="#000000" font-family="sans-serif" font-size="14" lengthAdjust="spacing" textLength="49" x="24" y="104.9951">INITIAL</text></g><g id="IN_GAME"><rect fill="#FEFECE" filter="url(#fb0ssj0okcuew)" height="50" rx="12.5" ry="12.5" style="stroke:#A80036;stroke-width:1.5;" width="83" x="7" y="468"/><line style="stroke:#A80036;stroke-width:1.5;" x1="7" x2="90" y1="494.2969" y2="494.2969"/><text fill="#000000" font-family="sans-serif" font-size="14" lengthAdjust="spacing" textLength="63" x="17" y="485.9951">IN_GAME</text></g><g id="state1"><rect fill="#FEFECE" filter="url(#fb0ssj0okcuew)" height="50" rx="12.5" ry="12.5" style="stroke:#A80036;stroke-width:1.5;" width="50" x="23.5" y="214"/><line style="stroke:#A80036;stroke-width:1.5;" x1="23.5" x2="73.5" y1="240.2969" y2="240.2969"/><text fill="#000000" font-family="sans-serif" font-size="14" lengthAdjust="spacing" textLength="0" x="50.5" y="231.9951"/></g><g id="state2"><rect fill="#FEFECE" filter="url(#fb0ssj0okcuew)" height="50" rx="12.5" ry="12.5" style="stroke:#A80036;stroke-width:1.5;" width="50" x="23.5" y="341"/><line style="stroke:#A80036;stroke-width:1.5;" x1="23.5" x2="73.5" y1="367.2969" y2="367.2969"/><text fill="#000000" font-family="sans-serif" font-size="14" lengthAdjust="spacing" textLength="0" x="50.5" y="358.9951"/></g><ellipse cx="48.5" cy="16" fill="#000000" filter="url(#fb0ssj0okcuew)" rx="10" ry="10" style="stroke:none;stroke-width:1.0;"/><ellipse cx="48.5" cy="589" filter="url(#fb0ssj0okcuew)" rx="10" ry="10" style="stroke:#000000;stroke-width:1.0;fill:none;"/><ellipse cx="49" cy="589.5" fill="#000000" rx="6" ry="6" style="stroke:none;stroke-width:1.0;"/><!--MD5=[06c3f2024f4ea60966e79307ee69ec5f]
link *start to INITIAL--><path d="M48.5,26.013 C48.5,38.698 48.5,62.409 48.5,81.57 " fill="none" id="*start-to-INITIAL" style="stroke:#A80036;stroke-width:1.0;"/><polygon fill="#A80036" points="48.5,86.84,52.5,77.84,48.5,81.84,44.5,77.84,48.5,86.84" style="stroke:#A80036;stroke-width:1.0;"/><!--MD5=[f0a811c59269f14e2a1db2cf40e8b912]
link INITIAL to state1--><path d="M48.5,137.101 C48.5,157.593 48.5,187.076 48.5,208.884 " fill="none" id="INITIAL-to-state1" style="stroke:#A80036;stroke-width:1.0;"/><polygon fill="#A80036" points="48.5,213.973,52.5,204.973,48.5,208.973,44.5,204.973,48.5,213.973" style="stroke:#A80036;stroke-width:1.0;"/><text fill="#000000" font-family="sans-serif" font-size="13" lengthAdjust="spacing" textLength="235" x="49.5" y="180.0669">Player requests to start a new game</text><!--MD5=[e8ab5236574affaea70cdd313057216c]
link state1 to state2--><path d="M48.5,264.101 C48.5,284.593 48.5,314.076 48.5,335.884 " fill="none" id="state1-to-state2" style="stroke:#A80036;stroke-width:1.0;"/><polygon fill="#A80036" points="48.5,340.973,52.5,331.973,48.5,335.973,44.5,331.973,48.5,340.973" style="stroke:#A80036;stroke-width:1.0;"/><text fill="#000000" font-family="sans-serif" font-size="13" lengthAdjust="spacing" textLength="191" x="49.5" y="307.0669">System shows title and board</text><!--MD5=[b65eac3bc51bedbf648be1cc0270c4b3]
link state2 to IN_GAME--><path d="M48.5,391.101 C48.5,411.593 48.5,441.076 48.5,462.884 " fill="none" id="state2-to-IN_GAME" style="stroke:#A80036;stroke-width:1.0;"/><polygon fill="#A80036" points="48.5,467.973,52.5,458.973,48.5,462.973,44.5,458.973,48.5,467.973" style="stroke:#A80036;stroke-width:1.0;"/><text fill="#000000" font-family="sans-serif" font-size="13" lengthAdjust="spacing" textLength="169" x="49.5" y="434.0669">System allows Move Piece</text><!--MD5=[3eaa5feacff75f8f898238c0910154c4]
link IN_GAME to *end--><path d="M48.5,518.2073 C48.5,535.8423 48.5,559.1261 48.5,573.8351 " fill="none" id="IN_GAME-to-*end" style="stroke:#A80036;stroke-width:1.0;"/><polygon fill="#A80036" points="48.5,578.8399,52.5,569.8399,48.5,573.8399,44.5,569.8399,48.5,578.8399" style="stroke:#A80036;stroke-width:1.0;"/><!--MD5=[1b50826c3c64ec92ecf03eeb6c5536d1]
@startuml
state INITIAL
state IN_GAME
state state1 as " "
state state2 as " "

[*] - -> INITIAL
INITIAL - -> state1 : Player requests to start a new game
state1 - -> state2 : System shows title and board
state2 - -> IN_GAME : System allows Move Piece
IN_GAME - -> [*]
@enduml

PlantUML version 1.2021.4beta2(Unknown compile time)
(GPL source distribution)
Java Runtime: Java(TM) SE Runtime Environment
JVM: Java HotSpot(TM) 64-Bit Server VM
Default Encoding: UTF-8
Language: en
Country: US
--></g></svg>