<?xml version="1.0" encoding="UTF-8" standalone="no"?><svg xmlns="http://www.w3.org/2000/svg" xmlns:xlink="http://www.w3.org/1999/xlink" contentScriptType="application/ecmascript" contentStyleType="text/css" height="1519px" preserveAspectRatio="none" style="width:1226px;height:1519px;" version="1.1" viewBox="0 0 1226 1519" width="1226px" zoomAndPan="magnify"><defs><filter height="300%" id="fivgy4fb2xr23" width="300%" x="-1" y="-1"><feGaussianBlur result="blurOut" stdDeviation="2.0"/><feColorMatrix in="blurOut" result="blurOut2" type="matrix" values="0 0 0 0 0 0 0 0 0 0 0 0 0 0 0 0 0 0 .4 0"/><feOffset dx="4.0" dy="4.0" in="blurOut2" result="blurOut3"/><feBlend in="SourceGraphic" in2="blurOut3" mode="normal"/></filter></defs><g><polygon fill="#FEFECE" filter="url(#fivgy4fb2xr23)" points="493,357,505,369,493,381,481,369,493,357" style="stroke:#A80036;stroke-width:1.5;"/><g id="a"><rect fill="#FEFECE" filter="url(#fivgy4fb2xr23)" height="50" rx="12.5" ry="12.5" style="stroke:#A80036;stroke-width:1.5;" width="50" x="468" y="442"/><line style="stroke:#A80036;stroke-width:1.5;" x1="468" x2="518" y1="468.2969" y2="468.2969"/><text fill="#000000" font-family="sans-serif" font-size="14" lengthAdjust="spacing" textLength="0" x="495" y="459.9951"/></g><polygon fill="#FEFECE" filter="url(#fivgy4fb2xr23)" points="493,696,505,708,493,720,481,708,493,696" style="stroke:#A80036;stroke-width:1.5;"/><g id="b"><rect fill="#FEFECE" filter="url(#fivgy4fb2xr23)" height="50" rx="12.5" ry="12.5" style="stroke:#A80036;stroke-width:1.5;" width="50" x="291" y="799"/><line style="stroke:#A80036;stroke-width:1.5;" x1="291" x2="341" y1="825.2969" y2="825.2969"/><text fill="#000000" font-family="sans-serif" font-size="14" lengthAdjust="spacing" textLength="0" x="318" y="816.9951"/></g><polygon fill="#FEFECE" filter="url(#fivgy4fb2xr23)" points="205,974,217,986,205,998,193,986,205,974" style="stroke:#A80036;stroke-width:1.5;"/><polygon fill="#FEFECE" filter="url(#fivgy4fb2xr23)" points="205,1205,217,1217,205,1229,193,1217,205,1205" style="stroke:#A80036;stroke-width:1.5;"/><g id="d"><rect fill="#FEFECE" filter="url(#fivgy4fb2xr23)" height="50" rx="12.5" ry="12.5" style="stroke:#A80036;stroke-width:1.5;" width="50" x="7" y="1360"/><line style="stroke:#A80036;stroke-width:1.5;" x1="7" x2="57" y1="1386.2969" y2="1386.2969"/><text fill="#000000" font-family="sans-serif" font-size="14" lengthAdjust="spacing" textLength="0" x="34" y="1377.9951"/></g><g id="e"><rect fill="#FEFECE" filter="url(#fivgy4fb2xr23)" height="50" rx="12.5" ry="12.5" style="stroke:#A80036;stroke-width:1.5;" width="50" x="277" y="1360"/><line style="stroke:#A80036;stroke-width:1.5;" x1="277" x2="327" y1="1386.2969" y2="1386.2969"/><text fill="#000000" font-family="sans-serif" font-size="14" lengthAdjust="spacing" textLength="0" x="304" y="1377.9951"/></g><g id="f"><rect fill="#FEFECE" filter="url(#fivgy4fb2xr23)" height="50" rx="12.5" ry="12.5" style="stroke:#A80036;stroke-width:1.5;" width="50" x="468" y="230"/><line style="stroke:#A80036;stroke-width:1.5;" x1="468" x2="518" y1="256.2969" y2="256.2969"/><text fill="#000000" font-family="sans-serif" font-size="14" lengthAdjust="spacing" textLength="0" x="495" y="247.9951"/></g><g id="g"><rect fill="#FEFECE" filter="url(#fivgy4fb2xr23)" height="50" rx="12.5" ry="12.5" style="stroke:#A80036;stroke-width:1.5;" width="50" x="468" y="569"/><line style="stroke:#A80036;stroke-width:1.5;" x1="468" x2="518" y1="595.2969" y2="595.2969"/><text fill="#000000" font-family="sans-serif" font-size="14" lengthAdjust="spacing" textLength="0" x="495" y="586.9951"/></g><ellipse cx="493" cy="16" fill="#000000" filter="url(#fivgy4fb2xr23)" rx="10" ry="10" style="stroke:none;stroke-width:1.0;"/><g id="IN_GAME"><rect fill="#FEFECE" filter="url(#fivgy4fb2xr23)" height="50" rx="12.5" ry="12.5" style="stroke:#A80036;stroke-width:1.5;" width="83" x="451.5" y="103"/><line style="stroke:#A80036;stroke-width:1.5;" x1="451.5" x2="534.5" y1="129.2969" y2="129.2969"/><text fill="#000000" font-family="sans-serif" font-size="14" lengthAdjust="spacing" textLength="63" x="461.5" y="120.9951">IN_GAME</text></g><ellipse cx="432" cy="1497" filter="url(#fivgy4fb2xr23)" rx="10" ry="10" style="stroke:#000000;stroke-width:1.0;fill:none;"/><ellipse cx="432.5" cy="1497.5" fill="#000000" rx="6" ry="6" style="stroke:none;stroke-width:1.0;"/><!--MD5=[bc741243a5bb3318d84c2be45b028a19]
link *start to IN_GAME--><path d="M493,26 C493,41.46 493,73.68 493,97.6 " fill="none" id="*start-to-IN_GAME" style="stroke:#A80036;stroke-width:1.0;"/><polygon fill="#A80036" points="493,102.87,497,93.87,493,97.87,489,93.87,493,102.87" style="stroke:#A80036;stroke-width:1.0;"/><text fill="#000000" font-family="sans-serif" font-size="13" lengthAdjust="spacing" textLength="278" x="494" y="69.0669">Current turn player requests to move piece</text><!--MD5=[34e5967b5abf7a3a6b450c62a3d8c46b]
link IN_GAME to f--><path d="M493,153.1 C493,173.59 493,203.08 493,224.88 " fill="none" id="IN_GAME-to-f" style="stroke:#A80036;stroke-width:1.0;"/><polygon fill="#A80036" points="493,229.97,497,220.97,493,224.97,489,220.97,493,229.97" style="stroke:#A80036;stroke-width:1.0;"/><text fill="#000000" font-family="sans-serif" font-size="13" lengthAdjust="spacing" textLength="148" x="494" y="196.0669">System requests origin</text><!--MD5=[08c4dcfd9ed8297f79f58fe28500ca9f]
link f to firstCondition--><path d="M493,280.03 C493,301.58 493,332.63 493,351.5 " fill="none" id="f-to-firstCondition" style="stroke:#A80036;stroke-width:1.0;"/><polygon fill="#A80036" points="493,356.94,497,347.94,493,351.94,489,347.94,493,356.94" style="stroke:#A80036;stroke-width:1.0;"/><text fill="#000000" font-family="sans-serif" font-size="13" lengthAdjust="spacing" textLength="210" x="494" y="323.0669">Current turn player selects origin</text><!--MD5=[607b6716429c816923fa98cdd79636f4]
link firstCondition to a--><path d="M493,381.01 C493,394.52 493,417.94 493,436.77 " fill="none" id="firstCondition-to-a" style="stroke:#A80036;stroke-width:1.0;"/><polygon fill="#A80036" points="493,441.95,497,432.95,493,436.95,489,432.95,493,441.95" style="stroke:#A80036;stroke-width:1.0;"/><!--MD5=[ad5a0a904e81eed021ceb97aa0a793a0]
link firstCondition to *end--><path d="M503.94,370.16 C568.982,371.38 902,381.76 902,466 C902,466 902,466 902,1386 C902,1481.546 529.101,1494.1546 447.608,1495.7693 " fill="none" id="firstCondition-to-*end" style="stroke:#A80036;stroke-width:1.0;"/><polygon fill="#A80036" points="442.254,1495.8675,451.3256,1499.7023,447.2532,1495.7761,451.1794,1491.7036,442.254,1495.8675" style="stroke:#A80036;stroke-width:1.0;"/><text fill="#000000" font-family="sans-serif" font-size="13" lengthAdjust="spacing" textLength="41" x="1043.5" y="794.0669">[error]</text><path d="M907,803.1328 L907,858.1328 L1217,858.1328 L1217,813.1328 L1207,803.1328 L907,803.1328 " fill="#FBFB77" filter="url(#fivgy4fb2xr23)" style="stroke:#A80036;stroke-width:1.0;"/><path d="M1207,803.1328 L1207,813.1328 L1217,813.1328 L1207,803.1328 " fill="#FBFB77" style="stroke:#A80036;stroke-width:1.0;"/><text fill="#000000" font-family="sans-serif" font-size="13" lengthAdjust="spacing" textLength="107" x="913" y="820.1997">Oponent piece ||</text><text fill="#000000" font-family="sans-serif" font-size="13" lengthAdjust="spacing" textLength="158" x="913" y="835.3325">Empty square position ||</text><text fill="#000000" font-family="sans-serif" font-size="13" lengthAdjust="spacing" textLength="289" x="913" y="850.4653">Current turn player can't move blocked piece</text><!--MD5=[93a6f849698785316f56cd0681f1804c]
link a to g--><path d="M493,492.1 C493,512.593 493,542.076 493,563.884 " fill="none" id="a-to-g" style="stroke:#A80036;stroke-width:1.0;"/><polygon fill="#A80036" points="493,568.973,497,559.973,493,563.973,489,559.973,493,568.973" style="stroke:#A80036;stroke-width:1.0;"/><text fill="#000000" font-family="sans-serif" font-size="13" lengthAdjust="spacing" textLength="152" x="494" y="535.0669">System requests target</text><!--MD5=[61661a4315e07fad932c35f2c0537aa1]
link g to secondCondition--><path d="M493,619.027 C493,640.579 493,671.634 493,690.501 " fill="none" id="g-to-secondCondition" style="stroke:#A80036;stroke-width:1.0;"/><polygon fill="#A80036" points="493,695.941,497,686.941,493,690.941,489,686.941,493,695.941" style="stroke:#A80036;stroke-width:1.0;"/><text fill="#000000" font-family="sans-serif" font-size="13" lengthAdjust="spacing" textLength="214" x="494" y="662.0669">Current turn player selects target</text><!--MD5=[b21a58eb978aee6e5b9087023a8733e8]
link secondCondition to *end--><path d="M498.176,715.219 C511.329,731.678 545,778.188 545,823 C545,823 545,823 545,1386 C545,1419.0357 545.109,1432.4531 523,1457 C502.62,1479.6274 466.864,1489.6147 446.775,1493.62 " fill="none" id="secondCondition-to-*end" style="stroke:#A80036;stroke-width:1.0;"/><polygon fill="#A80036" points="441.787,1494.5552,451.37,1496.8281,446.7014,1493.6338,449.8957,1488.9651,441.787,1494.5552" style="stroke:#A80036;stroke-width:1.0;"/><text fill="#000000" font-family="sans-serif" font-size="13" lengthAdjust="spacing" textLength="41" x="691.5" y="1041.0669">[error]</text><path d="M550,1050.1328 L550,1165.1328 L870,1165.1328 L870,1060.1328 L860,1050.1328 L550,1050.1328 " fill="#FBFB77" filter="url(#fivgy4fb2xr23)" style="stroke:#A80036;stroke-width:1.0;"/><path d="M860,1050.1328 L860,1060.1328 L870,1060.1328 L860,1050.1328 " fill="#FBFB77" style="stroke:#A80036;stroke-width:1.0;"/><text fill="#000000" font-family="sans-serif" font-size="13" lengthAdjust="spacing" textLength="98" x="556" y="1067.1997">Cell occupied ||</text><text fill="#000000" font-family="sans-serif" font-size="13" lengthAdjust="spacing" textLength="299" x="556" y="1082.3325">Not in diagonal with the position of the piece ||</text><text fill="#000000" font-family="sans-serif" font-size="13" lengthAdjust="spacing" textLength="245" x="556" y="1097.4653">2 or more pieces block the movement</text><text fill="#000000" font-family="sans-serif" font-size="13" lengthAdjust="spacing" textLength="0" x="560" y="1112.5981"/><text fill="#000000" font-family="sans-serif" font-size="13" lengthAdjust="spacing" textLength="51" x="556" y="1127.731">if PAWN</text><text fill="#000000" font-family="sans-serif" font-size="13" lengthAdjust="spacing" textLength="92" x="556" y="1142.8638">Distance &gt;2 ||</text><text fill="#000000" font-family="sans-serif" font-size="13" lengthAdjust="spacing" textLength="158" x="556" y="1157.9966">movement is backwards</text><!--MD5=[e9025b28c1dfbdf575f6607d988dfa7e]
link secondCondition to b--><path d="M486.278,713.33 C463.445,728.036 387.938,776.667 345.542,803.973 " fill="none" id="secondCondition-to-b" style="stroke:#A80036;stroke-width:1.0;"/><polygon fill="#A80036" points="341.295,806.708,351.0273,805.1972,345.4985,804.0005,346.6952,798.4716,341.295,806.708" style="stroke:#A80036;stroke-width:1.0;"/><!--MD5=[3adbe2a20e138cc42238724d2dfa14ac]
link b to can_eat--><path d="M290.946,840.354 C271.897,853.253 246.418,873.346 231,897 C216.179,919.738 209.57,951.188 206.806,969.683 " fill="none" id="b-to-can_eat" style="stroke:#A80036;stroke-width:1.0;"/><polygon fill="#A80036" points="206.067,974.982,211.2709,966.6202,206.7571,970.0299,203.3475,965.5161,206.067,974.982" style="stroke:#A80036;stroke-width:1.0;"/><text fill="#000000" font-family="sans-serif" font-size="13" lengthAdjust="spacing" textLength="282" x="232" y="910.0669">System shows board with the piece moved,</text><text fill="#000000" font-family="sans-serif" font-size="13" lengthAdjust="spacing" textLength="227" x="261.5" y="925.1997">alternatively without oponent piece</text><text fill="#000000" font-family="sans-serif" font-size="13" lengthAdjust="spacing" textLength="210" x="272" y="940.3325">or with draught in target position</text><!--MD5=[79ac03f27429ceab7a16209f68b09841]
reverse link firstCondition to can_eat--><path d="M477.124,371.3 C412.931,377.01 176,402.37 176,466 C176,466 176,466 176,825 C176,883.719 195.145,952.645 202.324,976.427 " fill="none" id="firstCondition-backto-can_eat" style="stroke:#A80036;stroke-width:1.0;"/><polygon fill="#A80036" points="482.453,370.84,473.1408,367.6334,477.4717,371.2725,473.8327,375.6035,482.453,370.84" style="stroke:#A80036;stroke-width:1.0;"/><!--MD5=[c228fab432e6e6c81aeebbbb3b6a725e]
link can_eat to winner--><path d="M205,998.045 C205,1035.144 205,1155.426 205,1199.564 " fill="none" id="can_eat-to-winner" style="stroke:#A80036;stroke-width:1.0;"/><polygon fill="#A80036" points="205,1204.797,209,1195.797,205,1199.797,201,1195.797,205,1204.797" style="stroke:#A80036;stroke-width:1.0;"/><text fill="#000000" font-family="sans-serif" font-size="13" lengthAdjust="spacing" textLength="143" x="206" y="1106.0669">[Piece can't eat again]</text><!--MD5=[56fdc29c2d05dde8646e37e46bad6c1e]
link winner to d--><path d="M194.491,1218.924 C160.781,1222.123 56.373,1233.929 36,1259 C14.3437,1285.65 17.9191,1327.081 23.8157,1354.857 " fill="none" id="winner-to-d" style="stroke:#A80036;stroke-width:1.0;"/><polygon fill="#A80036" points="24.9382,1359.878,26.8772,1350.2219,23.8468,1354.9986,19.0701,1351.9681,24.9382,1359.878" style="stroke:#A80036;stroke-width:1.0;"/><text fill="#000000" font-family="sans-serif" font-size="13" lengthAdjust="spacing" textLength="53" x="125.5" y="1272.0669">[winner]</text><path d="M41,1281.1328 L41,1321.1328 L259,1321.1328 L259,1291.1328 L249,1281.1328 L41,1281.1328 " fill="#FBFB77" filter="url(#fivgy4fb2xr23)" style="stroke:#A80036;stroke-width:1.0;"/><path d="M249,1281.1328 L249,1291.1328 L259,1291.1328 L249,1281.1328 " fill="#FBFB77" style="stroke:#A80036;stroke-width:1.0;"/><text fill="#000000" font-family="sans-serif" font-size="13" lengthAdjust="spacing" textLength="182" x="47" y="1298.1997">Oponent hasn't got pieces ||</text><text fill="#000000" font-family="sans-serif" font-size="13" lengthAdjust="spacing" textLength="197" x="47" y="1313.3325">Oponent can't move any piece</text><!--MD5=[3121526258805626f7c4db27892ab3d4]
link winner to e--><path d="M214.048,1220.552 C229.379,1225.369 260.319,1237.316 276,1259 C296.214,1286.953 301.46,1327.114 302.466,1354.311 " fill="none" id="winner-to-e" style="stroke:#A80036;stroke-width:1.0;"/><polygon fill="#A80036" points="302.614,1359.57,306.3604,1350.4615,302.474,1354.572,298.3635,1350.6856,302.614,1359.57" style="stroke:#A80036;stroke-width:1.0;"/><!--MD5=[bda5b324be4d7541a7660262b1092f9f]
link d to *end--><path d="M31.4805,1410.0394 C32.5234,1425.7971 36.7162,1445.533 50,1457 C78.2229,1481.3628 348.834,1492.9281 416.649,1495.4579 " fill="none" id="d-to-*end" style="stroke:#A80036;stroke-width:1.0;"/><polygon fill="#A80036" points="421.877,1495.65,413.0305,1491.321,416.8804,1495.4657,412.7357,1499.3156,421.877,1495.65" style="stroke:#A80036;stroke-width:1.0;"/><text fill="#000000" font-family="sans-serif" font-size="13" lengthAdjust="spacing" textLength="247" x="51" y="1453.0669">System allows to resume a new game</text><!--MD5=[3a8f105c42a8a7f4c5a6e63f2776cc50]
link e to *end--><path d="M300.926,1410.0489 C301.528,1425.2075 304.809,1444.255 316,1457 C342.066,1486.6855 391.462,1493.8227 416.547,1495.5059 " fill="none" id="e-to-*end" style="stroke:#A80036;stroke-width:1.0;"/><polygon fill="#A80036" points="421.801,1495.8016,413.0391,1491.3039,416.8088,1495.5216,412.5911,1499.2913,421.801,1495.8016" style="stroke:#A80036;stroke-width:1.0;"/><text fill="#000000" font-family="sans-serif" font-size="13" lengthAdjust="spacing" textLength="201" x="317" y="1453.0669">System allows to move a piece</text><!--MD5=[b58bc8637601afdca5f37299c3b84868]
@startuml
state firstCondition <<choice>>
state a as " "
state secondCondition <<choice>>
state b as " "
state can_eat <<choice>>
state winner <<choice>>
state d as " "
state e as " "
state f as " "
state g as " "

[*] -down-> IN_GAME : Current turn player requests to move piece
IN_GAME -down-> f : System requests origin
f -down-> firstCondition : Current turn player selects origin
firstCondition -down-> a
firstCondition -down-> [*] : [error]
note on link
Oponent piece ||
Empty square position ||
Current turn player can't move blocked piece
end note
a -down-> g : System requests target
g -down-> secondCondition : Current turn player selects target
secondCondition -down-> [*] : [error]
note on link
Cell occupied ||
Not in diagonal with the position of the piece ||
2 or more pieces block the movement

if PAWN
Distance >2 ||
movement is backwards
end note
secondCondition -down-> b
b -down-> can_eat : System shows board with the piece moved, \n alternatively without oponent piece \n or with draught in target position
can_eat -left-> firstCondition
can_eat -down-> winner : [Piece can't eat again]
winner -down-> d : [winner]
note on link
Oponent hasn't got pieces ||
Oponent can't move any piece
end note
winner -down-> e
d -down-> [*] : System allows to resume a new game
e -down-> [*] : System allows to move a piece
@enduml

PlantUML version 1.2021.4beta2(Unknown compile time)
(GPL source distribution)
Java Runtime: Java(TM) SE Runtime Environment
JVM: Java HotSpot(TM) 64-Bit Server VM
Default Encoding: UTF-8
Language: en
Country: US
--></g></svg>