<?xml version="1.0" encoding="UTF-8" standalone="no"?><svg xmlns="http://www.w3.org/2000/svg" xmlns:xlink="http://www.w3.org/1999/xlink" contentScriptType="application/ecmascript" contentStyleType="text/css" height="177px" preserveAspectRatio="none" style="width:254px;height:177px;" version="1.1" viewBox="0 0 254 177" width="254px" zoomAndPan="magnify"><defs><filter height="300%" id="fdx2fe3o91q0k" width="300%" x="-1" y="-1"><feGaussianBlur result="blurOut" stdDeviation="2.0"/><feColorMatrix in="blurOut" result="blurOut2" type="matrix" values="0 0 0 0 0 0 0 0 0 0 0 0 0 0 0 0 0 0 .4 0"/><feOffset dx="4.0" dy="4.0" in="blurOut2" result="blurOut3"/><feBlend in="SourceGraphic" in2="blurOut3" mode="normal"/></filter></defs><g><!--MD5=[de2effd8dc5bf946a609466312d0f75f]
entity Player--><ellipse cx="28" cy="54.5" fill="#FEFECE" filter="url(#fdx2fe3o91q0k)" rx="8" ry="8" style="stroke:#A80036;stroke-width:1.5;"/><path d="M28,62.5 L28,89.5 M15,70.5 L41,70.5 M28,89.5 L15,104.5 M28,89.5 L41,104.5 " fill="none" filter="url(#fdx2fe3o91q0k)" style="stroke:#A80036;stroke-width:1.5;"/><text fill="#000000" font-family="sans-serif" font-size="14" lengthAdjust="spacing" textLength="44" x="6" y="122.9951">Player</text><ellipse cx="176.2231" cy="20.5485" fill="#FEFECE" filter="url(#fdx2fe3o91q0k)" rx="37.7231" ry="14.5485" style="stroke:#A80036;stroke-width:1.5;"/><text fill="#000000" font-family="sans-serif" font-size="14" lengthAdjust="spacing" textLength="37" x="156.1116" y="23.9312">Start</text><ellipse cx="176.113" cy="85.6226" fill="#FEFECE" filter="url(#fdx2fe3o91q0k)" rx="66.113" ry="15.6226" style="stroke:#A80036;stroke-width:1.5;"/><text fill="#000000" font-family="sans-serif" font-size="14" lengthAdjust="spacing" textLength="82" x="132.113" y="89.3702">Move piece</text><ellipse cx="176.1007" cy="150.715" fill="#FEFECE" filter="url(#fdx2fe3o91q0k)" rx="52.6007" ry="14.715" style="stroke:#A80036;stroke-width:1.5;"/><text fill="#000000" font-family="sans-serif" font-size="14" lengthAdjust="spacing" textLength="57" x="144.6007" y="154.4626">Resume</text><!--MD5=[39353cd92ba960c69c4d2a9385fee2c7]
link Player to Start--><path d="M50.2297,76.0484 C75.4993,64.798 117.821,45.957 146.07,33.38 " fill="none" id="Player-to-Start" style="stroke:#A80036;stroke-width:1.0;"/><polygon fill="#A80036" points="150.826,31.262,140.9771,31.2689,146.2584,33.2959,144.2313,38.5771,150.826,31.262" style="stroke:#A80036;stroke-width:1.0;"/><!--MD5=[4d422d3565375ea0505ee42784447aee]
link Player to Move piece--><path d="M50.2297,85.5 C64.7385,85.5 84.8686,85.5 104.729,85.5 " fill="none" id="Player-to-Move piece" style="stroke:#A80036;stroke-width:1.0;"/><polygon fill="#A80036" points="109.769,85.5,100.769,81.5,104.769,85.5,100.769,89.5,109.769,85.5" style="stroke:#A80036;stroke-width:1.0;"/><!--MD5=[5fec2ab2a197ce562aec9d83f689b0ce]
link Player to Resume--><path d="M50.2297,94.9516 C74.5274,105.7691 114.59,123.6053 142.75,136.1421 " fill="none" id="Player-to-Resume" style="stroke:#A80036;stroke-width:1.0;"/><polygon fill="#A80036" points="147.512,138.2624,140.9159,130.9486,142.944,136.2294,137.6631,138.2574,147.512,138.2624" style="stroke:#A80036;stroke-width:1.0;"/><!--MD5=[914f78ceaa31b4756138bef73edb12ba]
@startuml
left to right direction

actor Player

usecase Start
usecase (Move piece)
usecase Resume

Player - -> Start
Player - -> (Move piece) 
Player - -> Resume
@enduml

PlantUML version 1.2021.3(Mon Mar 22 16:53:19 UTC 2021)
(GPL source distribution)
Java Runtime: Java(TM) SE Runtime Environment
JVM: Java HotSpot(TM) 64-Bit Server VM
Default Encoding: UTF-8
Language: en
Country: US
--></g></svg>