<?xml version="1.0" encoding="UTF-8" standalone="no"?><svg xmlns="http://www.w3.org/2000/svg" xmlns:xlink="http://www.w3.org/1999/xlink" contentScriptType="application/ecmascript" contentStyleType="text/css" height="958px" preserveAspectRatio="none" style="width:477px;height:958px;" version="1.1" viewBox="0 0 477 958" width="477px" zoomAndPan="magnify"><defs><filter height="300%" id="fza96eqxfc1af" width="300%" x="-1" y="-1"><feGaussianBlur result="blurOut" stdDeviation="2.0"/><feColorMatrix in="blurOut" result="blurOut2" type="matrix" values="0 0 0 0 0 0 0 0 0 0 0 0 0 0 0 0 0 0 .4 0"/><feOffset dx="4.0" dy="4.0" in="blurOut2" result="blurOut3"/><feBlend in="SourceGraphic" in2="blurOut3" mode="normal"/></filter></defs><g><!--MD5=[e2a75efa8a0f57c2afae8bf75386f79c]
cluster views--><polygon fill="#FFFFFF" filter="url(#fza96eqxfc1af)" points="16,170.5,67,170.5,74,192.7969,160,192.7969,160,565.5,16,565.5,16,170.5" style="stroke:#000000;stroke-width:1.5;"/><line style="stroke:#000000;stroke-width:1.5;" x1="16" x2="74" y1="192.7969" y2="192.7969"/><text fill="#000000" font-family="sans-serif" font-size="14" font-weight="bold" lengthAdjust="spacing" textLength="45" x="20" y="185.4951">views</text><!--MD5=[67cd15ce44b6dd54f77054b62c31bf42]
cluster types--><polygon fill="#FFFFFF" filter="url(#fza96eqxfc1af)" points="209,866.5,260,866.5,267,888.7969,287,888.7969,287,951.5,209,951.5,209,866.5" style="stroke:#000000;stroke-width:1.5;"/><line style="stroke:#000000;stroke-width:1.5;" x1="209" x2="267" y1="888.7969" y2="888.7969"/><text fill="#000000" font-family="sans-serif" font-size="14" font-weight="bold" lengthAdjust="spacing" textLength="45" x="213" y="881.4951">types</text><!--MD5=[f4e70ef68289585296b9045165e58692]
cluster controllers--><polygon fill="#FFFFFF" filter="url(#fza96eqxfc1af)" points="184,324.5,279,324.5,286,346.7969,338,346.7969,338,409.5,184,409.5,184,324.5" style="stroke:#000000;stroke-width:1.5;"/><line style="stroke:#000000;stroke-width:1.5;" x1="184" x2="286" y1="346.7969" y2="346.7969"/><text fill="#000000" font-family="sans-serif" font-size="14" font-weight="bold" lengthAdjust="spacing" textLength="89" x="188" y="339.4951">controllers</text><!--MD5=[a60570e4b426f702ccbb0d459e3b9417]
cluster models--><polygon fill="#FFFFFF" filter="url(#fza96eqxfc1af)" points="197,480.5,261,480.5,268,502.7969,460,502.7969,460,833.5,197,833.5,197,480.5" style="stroke:#000000;stroke-width:1.5;"/><line style="stroke:#000000;stroke-width:1.5;" x1="197" x2="268" y1="502.7969" y2="502.7969"/><text fill="#000000" font-family="sans-serif" font-size="14" font-weight="bold" lengthAdjust="spacing" textLength="58" x="201" y="495.4951">models</text><rect fill="#FEFECE" filter="url(#fza96eqxfc1af)" height="33.9688" style="stroke:#A80036;stroke-width:1.5;" width="91" x="42.5" y="205.5"/><text fill="#000000" font-family="sans-serif" font-size="12" lengthAdjust="spacing" textLength="77" x="49.5" y="218.6387">ResumeView</text><line style="stroke:#A80036;stroke-width:1.5;" x1="43.5" x2="132.5" y1="223.4688" y2="223.4688"/><rect fill="#FEFECE" filter="url(#fza96eqxfc1af)" height="33.9688" style="stroke:#A80036;stroke-width:1.5;" width="98" x="32" y="359.5"/><text fill="#000000" font-family="sans-serif" font-size="12" lengthAdjust="spacing" textLength="84" x="39" y="372.6387">MessageView</text><line style="stroke:#A80036;stroke-width:1.5;" x1="33" x2="129" y1="377.4688" y2="377.4688"/><rect fill="#FEFECE" filter="url(#fza96eqxfc1af)" height="33.9688" style="stroke:#A80036;stroke-width:1.5;" width="69" x="46.5" y="515.5"/><text fill="#000000" font-family="sans-serif" font-size="12" lengthAdjust="spacing" textLength="55" x="53.5" y="528.6387">Message</text><line style="stroke:#A80036;stroke-width:1.5;" x1="47.5" x2="114.5" y1="533.4688" y2="533.4688"/><rect fill="#FEFECE" filter="url(#fza96eqxfc1af)" height="33.9688" style="stroke:#A80036;stroke-width:1.5;" width="46" x="225" y="901.5"/><text fill="#000000" font-family="sans-serif" font-size="12" lengthAdjust="spacing" textLength="32" x="232" y="914.6387">Color</text><line style="stroke:#A80036;stroke-width:1.5;" x1="226" x2="270" y1="919.4688" y2="919.4688"/><rect fill="#FEFECE" filter="url(#fza96eqxfc1af)" height="33.9688" style="stroke:#A80036;stroke-width:1.5;" width="121" x="200.5" y="359.5"/><text fill="#000000" font-family="sans-serif" font-size="12" lengthAdjust="spacing" textLength="107" x="207.5" y="372.6387">ResumeController</text><line style="stroke:#A80036;stroke-width:1.5;" x1="201.5" x2="320.5" y1="377.4688" y2="377.4688"/><rect fill="#FEFECE" filter="url(#fza96eqxfc1af)" height="33.9688" style="stroke:#A80036;stroke-width:1.5;" width="49" x="236.5" y="515.5"/><text fill="#000000" font-family="sans-serif" font-size="12" lengthAdjust="spacing" textLength="35" x="243.5" y="528.6387">Game</text><line style="stroke:#A80036;stroke-width:1.5;" x1="237.5" x2="284.5" y1="533.4688" y2="533.4688"/><rect fill="#FEFECE" filter="url(#fza96eqxfc1af)" height="33.9688" style="stroke:#A80036;stroke-width:1.5;" width="50" x="223" y="650.5"/><text fill="#000000" font-family="sans-serif" font-size="12" lengthAdjust="spacing" textLength="36" x="230" y="663.6387">Board</text><line style="stroke:#A80036;stroke-width:1.5;" x1="224" x2="272" y1="668.4688" y2="668.4688"/><rect fill="#FEFECE" filter="url(#fza96eqxfc1af)" height="33.9688" style="stroke:#A80036;stroke-width:1.5;" width="46" x="225" y="783.5"/><text fill="#000000" font-family="sans-serif" font-size="12" lengthAdjust="spacing" textLength="32" x="232" y="796.6387">Piece</text><line style="stroke:#A80036;stroke-width:1.5;" x1="226" x2="270" y1="801.4688" y2="801.4688"/><rect fill="#FEFECE" filter="url(#fza96eqxfc1af)" height="33.9688" style="stroke:#A80036;stroke-width:1.5;" width="50" x="341" y="783.5"/><text fill="#000000" font-family="sans-serif" font-size="12" lengthAdjust="spacing" textLength="36" x="348" y="796.6387">Player</text><line style="stroke:#A80036;stroke-width:1.5;" x1="342" x2="390" y1="801.4688" y2="801.4688"/><rect fill="#FEFECE" filter="url(#fza96eqxfc1af)" height="33.9688" style="stroke:#A80036;stroke-width:1.5;" width="40" x="346" y="650.5"/><text fill="#000000" font-family="sans-serif" font-size="12" lengthAdjust="spacing" textLength="26" x="353" y="663.6387">Turn</text><line style="stroke:#A80036;stroke-width:1.5;" x1="347" x2="385" y1="668.4688" y2="668.4688"/><!--MD5=[fb2f237e4154b78a31e896754c8f6e24]
entity Playerr--><ellipse cx="88" cy="14" fill="#FEFECE" filter="url(#fza96eqxfc1af)" rx="8" ry="8" style="stroke:#A80036;stroke-width:1.5;"/><path d="M88,22 L88,49 M75,30 L101,30 M88,49 L75,64 M88,49 L101,64 " fill="none" filter="url(#fza96eqxfc1af)" style="stroke:#A80036;stroke-width:1.5;"/><text fill="#000000" font-family="sans-serif" font-size="14" lengthAdjust="spacing" textLength="44" x="66" y="82.4951">Player</text><!--MD5=[a05f4f652e03f574fe6c9ed788b38828]
link Playerr to ResumeView--><path codeLine="22" d="M88,85.824 C88,121.431 88,172.226 88,200.482 " fill="none" id="Playerr-to-ResumeView" style="stroke:#A80036;stroke-width:1.0;"/><polygon fill="#A80036" points="88,205.487,92,196.487,88,200.487,84,196.487,88,205.487" style="stroke:#A80036;stroke-width:1.0;"/><path d="M93,120.5 L93,145.5 L173,145.5 L173,130.5 L163,120.5 L93,120.5 " fill="#FBFB77" filter="url(#fza96eqxfc1af)" style="stroke:#A80036;stroke-width:1.0;"/><path d="M163,120.5 L163,130.5 L173,130.5 L163,120.5 " fill="#FBFB77" style="stroke:#A80036;stroke-width:1.0;"/><text fill="#000000" font-family="sans-serif" font-size="13" lengthAdjust="spacing" textLength="59" x="99" y="137.5669">resume()</text><!--MD5=[4b21c71922f6b938a01287b262bac1e8]
link ResumeView to ResumeController--><path codeLine="26" d="M123.693,239.689 C139.057,247.539 156.728,257.805 171,269.5 C202.115,294.996 230.854,332.21 247.129,355.086 " fill="none" id="ResumeView-to-ResumeController" style="stroke:#A80036;stroke-width:1.0;"/><polygon fill="#A80036" points="250.02,359.184,248.1018,349.5237,247.1383,355.0979,241.5641,354.1344,250.02,359.184" style="stroke:#A80036;stroke-width:1.0;"/><path d="M215,274.5 L215,299.5 L279,299.5 L279,284.5 L269,274.5 L215,274.5 " fill="#FBFB77" filter="url(#fza96eqxfc1af)" style="stroke:#A80036;stroke-width:1.0;"/><path d="M269,274.5 L269,284.5 L279,284.5 L269,274.5 " fill="#FBFB77" style="stroke:#A80036;stroke-width:1.0;"/><text fill="#000000" font-family="sans-serif" font-size="13" lengthAdjust="spacing" textLength="43" x="221" y="291.5669">reset()</text><!--MD5=[0247de9441edb48dbdd46825e4853bf2]
link ResumeView to MessageView--><path codeLine="30" d="M87.2509,239.767 C85.9773,267.422 83.3908,323.586 81.9769,354.288 " fill="none" id="ResumeView-to-MessageView" style="stroke:#A80036;stroke-width:1.0;stroke-dasharray:7.0,7.0;"/><polygon fill="#A80036" points="81.7437,359.35,86.1535,350.5435,81.9737,354.3553,78.1619,350.1755,81.7437,359.35" style="stroke:#A80036;stroke-width:1.0;"/><path d="M91,274.5 L91,299.5 L154,299.5 L154,284.5 L144,274.5 L91,274.5 " fill="#FBFB77" filter="url(#fza96eqxfc1af)" style="stroke:#A80036;stroke-width:1.0;"/><path d="M144,274.5 L144,284.5 L154,284.5 L144,274.5 " fill="#FBFB77" style="stroke:#A80036;stroke-width:1.0;"/><text fill="#000000" font-family="sans-serif" font-size="13" lengthAdjust="spacing" textLength="42" x="97" y="291.5669">write()</text><!--MD5=[a31fa164961aa559970146a0c482d415]
link MessageView to Message--><path codeLine="34" d="M81,393.69 C81,421.576 81,478.678 81,509.913 " fill="none" id="MessageView-to-Message" style="stroke:#A80036;stroke-width:1.0;stroke-dasharray:7.0,7.0;"/><polygon fill="#A80036" points="81,515.064,85,506.064,81,510.064,77,506.064,81,515.064" style="stroke:#A80036;stroke-width:1.0;"/><!--MD5=[56925b6344ae432627d8c18997d3abee]
link ResumeController to Game--><path codeLine="35" d="M261,393.69 C261,421.576 261,478.678 261,509.913 " fill="none" id="ResumeController-to-Game" style="stroke:#A80036;stroke-width:1.0;"/><polygon fill="#A80036" points="261,515.064,265,506.064,261,510.064,257,506.064,261,515.064" style="stroke:#A80036;stroke-width:1.0;"/><path d="M266,430.5 L266,455.5 L330,455.5 L330,440.5 L320,430.5 L266,430.5 " fill="#FBFB77" filter="url(#fza96eqxfc1af)" style="stroke:#A80036;stroke-width:1.0;"/><path d="M320,430.5 L320,440.5 L330,440.5 L320,430.5 " fill="#FBFB77" style="stroke:#A80036;stroke-width:1.0;"/><text fill="#000000" font-family="sans-serif" font-size="13" lengthAdjust="spacing" textLength="43" x="272" y="447.5669">reset()</text><!--MD5=[15c8f9ca3aac13d865864b4eb5314ef1]
link Game to Board--><path codeLine="39" d="M250.2121,560.9346 C250.2121,560.9346 246.039,575.099 245,581.5 C242.018,599.875 242.701,620.766 244.162,637.239 " fill="none" id="Game-Board" style="stroke:#A80036;stroke-width:1.0;"/><polygon fill="#A80036" points="245.573,650.403,248.5898,641.0276,245.0395,645.4315,240.6355,641.8812,245.573,650.403" style="stroke:#A80036;stroke-width:1.0;"/><line style="stroke:#A80036;stroke-width:1.0;" x1="245.0395" x2="244.187" y1="645.4315" y2="637.4775"/><polygon fill="#A80036" points="254.184,549.611,248.4235,553.9488,250.2121,560.9346,255.9726,556.5968,254.184,549.611" style="stroke:#A80036;stroke-width:1.0;"/><path d="M250,586.5 L250,611.5 L314,611.5 L314,596.5 L304,586.5 L250,586.5 " fill="#FBFB77" filter="url(#fza96eqxfc1af)" style="stroke:#A80036;stroke-width:1.0;"/><path d="M304,586.5 L304,596.5 L314,596.5 L304,586.5 " fill="#FBFB77" style="stroke:#A80036;stroke-width:1.0;"/><text fill="#000000" font-family="sans-serif" font-size="13" lengthAdjust="spacing" textLength="43" x="256" y="603.5669">reset()</text><!--MD5=[b9f1e39ad85d50fe6f3a071a4341c320]
link Game to Turn--><path codeLine="43" d="M295.7103,553.7983 C295.7103,553.7983 318.54,571.167 327,581.5 C340.688,598.218 350.684,620.524 357.127,638.091 " fill="none" id="Game-Turn" style="stroke:#A80036;stroke-width:1.0;"/><polygon fill="#A80036" points="361.365,650.43,362.2258,640.6188,359.7414,645.7009,354.6593,643.2166,361.365,650.43" style="stroke:#A80036;stroke-width:1.0;"/><line style="stroke:#A80036;stroke-width:1.0;" x1="359.7414" x2="357.1425" y1="645.7009" y2="638.1345"/><polygon fill="#A80036" points="285.703,547.176,288.4992,553.8229,295.7103,553.7983,292.9141,547.1514,285.703,547.176" style="stroke:#A80036;stroke-width:1.0;"/><path d="M354,586.5 L354,611.5 L418,611.5 L418,596.5 L408,586.5 L354,586.5 " fill="#FBFB77" filter="url(#fza96eqxfc1af)" style="stroke:#A80036;stroke-width:1.0;"/><path d="M408,586.5 L408,596.5 L418,596.5 L408,586.5 " fill="#FBFB77" style="stroke:#A80036;stroke-width:1.0;"/><text fill="#000000" font-family="sans-serif" font-size="13" lengthAdjust="spacing" textLength="43" x="360" y="603.5669">reset()</text><!--MD5=[d81713d91ad05be3b975338c4816ee0b]
link Turn to Player--><path codeLine="47" d="M366,684.563 C366,708.036 366,751.76 366,777.988 " fill="none" id="Turn-to-Player" style="stroke:#A80036;stroke-width:1.0;stroke-dasharray:7.0,7.0;"/><polygon fill="#A80036" points="366,783.305,370,774.305,366,778.305,362,774.305,366,783.305" style="stroke:#A80036;stroke-width:1.0;"/><path d="M371,719.5 L371,744.5 L429,744.5 L429,729.5 L419,719.5 L371,719.5 " fill="#FBFB77" filter="url(#fza96eqxfc1af)" style="stroke:#A80036;stroke-width:1.0;"/><path d="M419,719.5 L419,729.5 L429,729.5 L419,719.5 " fill="#FBFB77" style="stroke:#A80036;stroke-width:1.0;"/><text fill="#000000" font-family="sans-serif" font-size="13" lengthAdjust="spacing" textLength="37" x="377" y="736.5669">new()</text><!--MD5=[0a810b5c09181f50bb8c28d8cc6d44bf]
link Board to Piece--><path codeLine="51" d="M248,684.563 C248,708.036 248,751.76 248,777.988 " fill="none" id="Board-to-Piece" style="stroke:#A80036;stroke-width:1.0;stroke-dasharray:7.0,7.0;"/><polygon fill="#A80036" points="248,783.305,252,774.305,248,778.305,244,774.305,248,783.305" style="stroke:#A80036;stroke-width:1.0;"/><path d="M253,719.5 L253,744.5 L311,744.5 L311,729.5 L301,719.5 L253,719.5 " fill="#FBFB77" filter="url(#fza96eqxfc1af)" style="stroke:#A80036;stroke-width:1.0;"/><path d="M301,719.5 L301,729.5 L311,729.5 L301,719.5 " fill="#FBFB77" style="stroke:#A80036;stroke-width:1.0;"/><text fill="#000000" font-family="sans-serif" font-size="13" lengthAdjust="spacing" textLength="37" x="259" y="736.5669">new()</text><!--MD5=[2f378bb2f56593d68624f1790be1dbac]
link Piece to Color--><path codeLine="55" d="M248,817.629 C248,838.031 248,873.2337 248,895.9303 " fill="none" id="Piece-to-Color" style="stroke:#A80036;stroke-width:1.0;"/><polygon fill="#A80036" points="248,901.1337,252,892.1337,248,896.1337,244,892.1337,248,901.1337" style="stroke:#A80036;stroke-width:1.0;"/><!--MD5=[cc55e7b203788da63046c1d91b5622db]
@startuml
allow_mixing
actor :Player: as Playerr

package views{
    object ResumeView
    object MessageView
    object Message
}
package types{
    object Color
}
package controllers{
    object ResumeController
}
package models{
    object Game
    object Board
    object Piece
    object Player 
    object Turn
}
Playerr -down-> ResumeView
note on link
resume()
end note
ResumeView -down-> ResumeController
note on link
reset()
end note
ResumeView .down.> MessageView
note on link
write()
end note
MessageView .down.> Message
ResumeController -down-> Game
note on link
reset()
end note
Game *-down-> Board
note on link
reset()
end note
Game *-down-> Turn
note on link
reset()
end note
Turn .down.> Player
note on link
new()
end note
Board .down.> Piece
note on link
new()
end note
Piece -down-> Color
@enduml

PlantUML version 1.2021.4beta2(Unknown compile time)
(GPL source distribution)
Java Runtime: Java(TM) SE Runtime Environment
JVM: Java HotSpot(TM) 64-Bit Server VM
Default Encoding: UTF-8
Language: en
Country: US
--></g></svg>