<?xml version="1.0" encoding="UTF-8" standalone="no"?><svg xmlns="http://www.w3.org/2000/svg" xmlns:xlink="http://www.w3.org/1999/xlink" contentScriptType="application/ecmascript" contentStyleType="text/css" height="933px" preserveAspectRatio="none" style="width:506px;height:933px;" version="1.1" viewBox="0 0 506 933" width="506px" zoomAndPan="magnify"><defs><filter height="300%" id="f1r70m8z6044qj" width="300%" x="-1" y="-1"><feGaussianBlur result="blurOut" stdDeviation="2.0"/><feColorMatrix in="blurOut" result="blurOut2" type="matrix" values="0 0 0 0 0 0 0 0 0 0 0 0 0 0 0 0 0 0 .4 0"/><feOffset dx="4.0" dy="4.0" in="blurOut2" result="blurOut3"/><feBlend in="SourceGraphic" in2="blurOut3" mode="normal"/></filter></defs><g><!--MD5=[2eb17d6dbe76bb22ed845e935254e1c9]
class Draught--><rect codeLine="1" fill="#FEFECE" filter="url(#f1r70m8z6044qj)" height="48" id="Draught" style="stroke:#A80036;stroke-width:1.5;" width="79" x="166.5" y="763"/><ellipse cx="181.5" cy="779" fill="#ADD1B2" rx="11" ry="11" style="stroke:#A80036;stroke-width:1.0;"/><path d="M183.8438,774.6719 C182.9063,774.2344 182.3125,774.0938 181.4375,774.0938 C178.8125,774.0938 176.8125,776.1719 176.8125,778.8906 L176.8125,780.0156 C176.8125,782.5938 178.9219,784.4844 181.8125,784.4844 C183.0313,784.4844 184.1875,784.1875 184.9375,783.6406 C185.5156,783.2344 185.8438,782.7813 185.8438,782.3906 C185.8438,781.9375 185.4531,781.5469 184.9844,781.5469 C184.7656,781.5469 184.5625,781.625 184.375,781.8125 C183.9219,782.2969 183.9219,782.2969 183.7344,782.3906 C183.3125,782.6563 182.625,782.7813 181.8594,782.7813 C179.8125,782.7813 178.5156,781.6875 178.5156,779.9844 L178.5156,778.8906 C178.5156,777.1094 179.7656,775.7969 181.5,775.7969 C182.0781,775.7969 182.6875,775.9531 183.1563,776.2031 C183.6406,776.4844 183.8125,776.7031 183.9063,777.1094 C183.9688,777.5156 184,777.6406 184.1406,777.7656 C184.2813,777.9063 184.5156,778.0156 184.7344,778.0156 C185,778.0156 185.2656,777.875 185.4375,777.6563 C185.5469,777.5 185.5781,777.3125 185.5781,776.8906 L185.5781,775.4688 C185.5781,775.0313 185.5625,774.9063 185.4688,774.75 C185.3125,774.4844 185.0313,774.3438 184.7344,774.3438 C184.4375,774.3438 184.2344,774.4375 184.0156,774.75 L183.8438,774.6719 Z " fill="#000000"/><text fill="#000000" font-family="sans-serif" font-size="12" lengthAdjust="spacing" textLength="47" x="195.5" y="783.1543">Draught</text><line style="stroke:#A80036;stroke-width:1.5;" x1="167.5" x2="244.5" y1="795" y2="795"/><line style="stroke:#A80036;stroke-width:1.5;" x1="167.5" x2="244.5" y1="803" y2="803"/><!--MD5=[e05bacf3ff4416a0580578814d41bbf6]
class Piece--><rect codeLine="2" fill="#FEFECE" filter="url(#f1r70m8z6044qj)" height="48" id="Piece" style="stroke:#A80036;stroke-width:1.5;" width="64" x="280" y="655"/><ellipse cx="295" cy="671" fill="#ADD1B2" rx="11" ry="11" style="stroke:#A80036;stroke-width:1.0;"/><path d="M297.3438,666.6719 C296.4063,666.2344 295.8125,666.0938 294.9375,666.0938 C292.3125,666.0938 290.3125,668.1719 290.3125,670.8906 L290.3125,672.0156 C290.3125,674.5938 292.4219,676.4844 295.3125,676.4844 C296.5313,676.4844 297.6875,676.1875 298.4375,675.6406 C299.0156,675.2344 299.3438,674.7813 299.3438,674.3906 C299.3438,673.9375 298.9531,673.5469 298.4844,673.5469 C298.2656,673.5469 298.0625,673.625 297.875,673.8125 C297.4219,674.2969 297.4219,674.2969 297.2344,674.3906 C296.8125,674.6563 296.125,674.7813 295.3594,674.7813 C293.3125,674.7813 292.0156,673.6875 292.0156,671.9844 L292.0156,670.8906 C292.0156,669.1094 293.2656,667.7969 295,667.7969 C295.5781,667.7969 296.1875,667.9531 296.6563,668.2031 C297.1406,668.4844 297.3125,668.7031 297.4063,669.1094 C297.4688,669.5156 297.5,669.6406 297.6406,669.7656 C297.7813,669.9063 298.0156,670.0156 298.2344,670.0156 C298.5,670.0156 298.7656,669.875 298.9375,669.6563 C299.0469,669.5 299.0781,669.3125 299.0781,668.8906 L299.0781,667.4688 C299.0781,667.0313 299.0625,666.9063 298.9688,666.75 C298.8125,666.4844 298.5313,666.3438 298.2344,666.3438 C297.9375,666.3438 297.7344,666.4375 297.5156,666.75 L297.3438,666.6719 Z " fill="#000000"/><text fill="#000000" font-family="sans-serif" font-size="12" lengthAdjust="spacing" textLength="32" x="309" y="675.1543">Piece</text><line style="stroke:#A80036;stroke-width:1.5;" x1="281" x2="343" y1="687" y2="687"/><line style="stroke:#A80036;stroke-width:1.5;" x1="281" x2="343" y1="695" y2="695"/><!--MD5=[af29ca247b3a3642f0fb478cea99ef78]
class Pawn--><rect codeLine="3" fill="#FEFECE" filter="url(#f1r70m8z6044qj)" height="48" id="Pawn" style="stroke:#A80036;stroke-width:1.5;" width="62" x="281" y="763"/><ellipse cx="296" cy="779" fill="#ADD1B2" rx="11" ry="11" style="stroke:#A80036;stroke-width:1.0;"/><path d="M298.3438,774.6719 C297.4063,774.2344 296.8125,774.0938 295.9375,774.0938 C293.3125,774.0938 291.3125,776.1719 291.3125,778.8906 L291.3125,780.0156 C291.3125,782.5938 293.4219,784.4844 296.3125,784.4844 C297.5313,784.4844 298.6875,784.1875 299.4375,783.6406 C300.0156,783.2344 300.3438,782.7813 300.3438,782.3906 C300.3438,781.9375 299.9531,781.5469 299.4844,781.5469 C299.2656,781.5469 299.0625,781.625 298.875,781.8125 C298.4219,782.2969 298.4219,782.2969 298.2344,782.3906 C297.8125,782.6563 297.125,782.7813 296.3594,782.7813 C294.3125,782.7813 293.0156,781.6875 293.0156,779.9844 L293.0156,778.8906 C293.0156,777.1094 294.2656,775.7969 296,775.7969 C296.5781,775.7969 297.1875,775.9531 297.6563,776.2031 C298.1406,776.4844 298.3125,776.7031 298.4063,777.1094 C298.4688,777.5156 298.5,777.6406 298.6406,777.7656 C298.7813,777.9063 299.0156,778.0156 299.2344,778.0156 C299.5,778.0156 299.7656,777.875 299.9375,777.6563 C300.0469,777.5 300.0781,777.3125 300.0781,776.8906 L300.0781,775.4688 C300.0781,775.0313 300.0625,774.9063 299.9688,774.75 C299.8125,774.4844 299.5313,774.3438 299.2344,774.3438 C298.9375,774.3438 298.7344,774.4375 298.5156,774.75 L298.3438,774.6719 Z " fill="#000000"/><text fill="#000000" font-family="sans-serif" font-size="12" lengthAdjust="spacing" textLength="30" x="310" y="783.1543">Pawn</text><line style="stroke:#A80036;stroke-width:1.5;" x1="282" x2="342" y1="795" y2="795"/><line style="stroke:#A80036;stroke-width:1.5;" x1="282" x2="342" y1="803" y2="803"/><!--MD5=[9563755d011c5cec7ec66dc53565a59e]
class Board--><rect codeLine="4" fill="#FEFECE" filter="url(#f1r70m8z6044qj)" height="48" id="Board" style="stroke:#A80036;stroke-width:1.5;" width="68" x="155" y="331"/><ellipse cx="170" cy="347" fill="#ADD1B2" rx="11" ry="11" style="stroke:#A80036;stroke-width:1.0;"/><path d="M172.3438,342.6719 C171.4063,342.2344 170.8125,342.0938 169.9375,342.0938 C167.3125,342.0938 165.3125,344.1719 165.3125,346.8906 L165.3125,348.0156 C165.3125,350.5938 167.4219,352.4844 170.3125,352.4844 C171.5313,352.4844 172.6875,352.1875 173.4375,351.6406 C174.0156,351.2344 174.3438,350.7813 174.3438,350.3906 C174.3438,349.9375 173.9531,349.5469 173.4844,349.5469 C173.2656,349.5469 173.0625,349.625 172.875,349.8125 C172.4219,350.2969 172.4219,350.2969 172.2344,350.3906 C171.8125,350.6563 171.125,350.7813 170.3594,350.7813 C168.3125,350.7813 167.0156,349.6875 167.0156,347.9844 L167.0156,346.8906 C167.0156,345.1094 168.2656,343.7969 170,343.7969 C170.5781,343.7969 171.1875,343.9531 171.6563,344.2031 C172.1406,344.4844 172.3125,344.7031 172.4063,345.1094 C172.4688,345.5156 172.5,345.6406 172.6406,345.7656 C172.7813,345.9063 173.0156,346.0156 173.2344,346.0156 C173.5,346.0156 173.7656,345.875 173.9375,345.6563 C174.0469,345.5 174.0781,345.3125 174.0781,344.8906 L174.0781,343.4688 C174.0781,343.0313 174.0625,342.9063 173.9688,342.75 C173.8125,342.4844 173.5313,342.3438 173.2344,342.3438 C172.9375,342.3438 172.7344,342.4375 172.5156,342.75 L172.3438,342.6719 Z " fill="#000000"/><text fill="#000000" font-family="sans-serif" font-size="12" lengthAdjust="spacing" textLength="36" x="184" y="351.1543">Board</text><line style="stroke:#A80036;stroke-width:1.5;" x1="156" x2="222" y1="363" y2="363"/><line style="stroke:#A80036;stroke-width:1.5;" x1="156" x2="222" y1="371" y2="371"/><!--MD5=[5655ee3e2a0d028d03fe20f829576392]
class Square--><rect codeLine="5" fill="#FEFECE" filter="url(#f1r70m8z6044qj)" height="48" id="Square" style="stroke:#A80036;stroke-width:1.5;" width="75" x="129.5" y="547"/><ellipse cx="144.5" cy="563" fill="#ADD1B2" rx="11" ry="11" style="stroke:#A80036;stroke-width:1.0;"/><path d="M146.8438,558.6719 C145.9063,558.2344 145.3125,558.0938 144.4375,558.0938 C141.8125,558.0938 139.8125,560.1719 139.8125,562.8906 L139.8125,564.0156 C139.8125,566.5938 141.9219,568.4844 144.8125,568.4844 C146.0313,568.4844 147.1875,568.1875 147.9375,567.6406 C148.5156,567.2344 148.8438,566.7813 148.8438,566.3906 C148.8438,565.9375 148.4531,565.5469 147.9844,565.5469 C147.7656,565.5469 147.5625,565.625 147.375,565.8125 C146.9219,566.2969 146.9219,566.2969 146.7344,566.3906 C146.3125,566.6563 145.625,566.7813 144.8594,566.7813 C142.8125,566.7813 141.5156,565.6875 141.5156,563.9844 L141.5156,562.8906 C141.5156,561.1094 142.7656,559.7969 144.5,559.7969 C145.0781,559.7969 145.6875,559.9531 146.1563,560.2031 C146.6406,560.4844 146.8125,560.7031 146.9063,561.1094 C146.9688,561.5156 147,561.6406 147.1406,561.7656 C147.2813,561.9063 147.5156,562.0156 147.7344,562.0156 C148,562.0156 148.2656,561.875 148.4375,561.6563 C148.5469,561.5 148.5781,561.3125 148.5781,560.8906 L148.5781,559.4688 C148.5781,559.0313 148.5625,558.9063 148.4688,558.75 C148.3125,558.4844 148.0313,558.3438 147.7344,558.3438 C147.4375,558.3438 147.2344,558.4375 147.0156,558.75 L146.8438,558.6719 Z " fill="#000000"/><text fill="#000000" font-family="sans-serif" font-size="12" lengthAdjust="spacing" textLength="43" x="158.5" y="567.1543">Square</text><line style="stroke:#A80036;stroke-width:1.5;" x1="130.5" x2="203.5" y1="579" y2="579"/><line style="stroke:#A80036;stroke-width:1.5;" x1="130.5" x2="203.5" y1="587" y2="587"/><!--MD5=[8c7d7abc12e214c3cc12c9ab70edee11]
class Coordinate--><rect codeLine="6" fill="#FEFECE" filter="url(#f1r70m8z6044qj)" height="48" id="Coordinate" style="stroke:#A80036;stroke-width:1.5;" width="98" x="118" y="655"/><ellipse cx="133" cy="671" fill="#ADD1B2" rx="11" ry="11" style="stroke:#A80036;stroke-width:1.0;"/><path d="M135.3438,666.6719 C134.4063,666.2344 133.8125,666.0938 132.9375,666.0938 C130.3125,666.0938 128.3125,668.1719 128.3125,670.8906 L128.3125,672.0156 C128.3125,674.5938 130.4219,676.4844 133.3125,676.4844 C134.5313,676.4844 135.6875,676.1875 136.4375,675.6406 C137.0156,675.2344 137.3438,674.7813 137.3438,674.3906 C137.3438,673.9375 136.9531,673.5469 136.4844,673.5469 C136.2656,673.5469 136.0625,673.625 135.875,673.8125 C135.4219,674.2969 135.4219,674.2969 135.2344,674.3906 C134.8125,674.6563 134.125,674.7813 133.3594,674.7813 C131.3125,674.7813 130.0156,673.6875 130.0156,671.9844 L130.0156,670.8906 C130.0156,669.1094 131.2656,667.7969 133,667.7969 C133.5781,667.7969 134.1875,667.9531 134.6563,668.2031 C135.1406,668.4844 135.3125,668.7031 135.4063,669.1094 C135.4688,669.5156 135.5,669.6406 135.6406,669.7656 C135.7813,669.9063 136.0156,670.0156 136.2344,670.0156 C136.5,670.0156 136.7656,669.875 136.9375,669.6563 C137.0469,669.5 137.0781,669.3125 137.0781,668.8906 L137.0781,667.4688 C137.0781,667.0313 137.0625,666.9063 136.9688,666.75 C136.8125,666.4844 136.5313,666.3438 136.2344,666.3438 C135.9375,666.3438 135.7344,666.4375 135.5156,666.75 L135.3438,666.6719 Z " fill="#000000"/><text fill="#000000" font-family="sans-serif" font-size="12" lengthAdjust="spacing" textLength="66" x="147" y="675.1543">Coordinate</text><line style="stroke:#A80036;stroke-width:1.5;" x1="119" x2="215" y1="687" y2="687"/><line style="stroke:#A80036;stroke-width:1.5;" x1="119" x2="215" y1="695" y2="695"/><!--MD5=[2cb47ba637a0d19583e6199456f6ad0b]
class Player--><rect codeLine="7" fill="#FEFECE" filter="url(#f1r70m8z6044qj)" height="48" id="Player" style="stroke:#A80036;stroke-width:1.5;" width="68" x="68" y="223"/><ellipse cx="83" cy="239" fill="#ADD1B2" rx="11" ry="11" style="stroke:#A80036;stroke-width:1.0;"/><path d="M85.3438,234.6719 C84.4063,234.2344 83.8125,234.0938 82.9375,234.0938 C80.3125,234.0938 78.3125,236.1719 78.3125,238.8906 L78.3125,240.0156 C78.3125,242.5938 80.4219,244.4844 83.3125,244.4844 C84.5313,244.4844 85.6875,244.1875 86.4375,243.6406 C87.0156,243.2344 87.3438,242.7813 87.3438,242.3906 C87.3438,241.9375 86.9531,241.5469 86.4844,241.5469 C86.2656,241.5469 86.0625,241.625 85.875,241.8125 C85.4219,242.2969 85.4219,242.2969 85.2344,242.3906 C84.8125,242.6563 84.125,242.7813 83.3594,242.7813 C81.3125,242.7813 80.0156,241.6875 80.0156,239.9844 L80.0156,238.8906 C80.0156,237.1094 81.2656,235.7969 83,235.7969 C83.5781,235.7969 84.1875,235.9531 84.6563,236.2031 C85.1406,236.4844 85.3125,236.7031 85.4063,237.1094 C85.4688,237.5156 85.5,237.6406 85.6406,237.7656 C85.7813,237.9063 86.0156,238.0156 86.2344,238.0156 C86.5,238.0156 86.7656,237.875 86.9375,237.6563 C87.0469,237.5 87.0781,237.3125 87.0781,236.8906 L87.0781,235.4688 C87.0781,235.0313 87.0625,234.9063 86.9688,234.75 C86.8125,234.4844 86.5313,234.3438 86.2344,234.3438 C85.9375,234.3438 85.7344,234.4375 85.5156,234.75 L85.3438,234.6719 Z " fill="#000000"/><text fill="#000000" font-family="sans-serif" font-size="12" lengthAdjust="spacing" textLength="36" x="97" y="243.1543">Player</text><line style="stroke:#A80036;stroke-width:1.5;" x1="69" x2="135" y1="255" y2="255"/><line style="stroke:#A80036;stroke-width:1.5;" x1="69" x2="135" y1="263" y2="263"/><!--MD5=[948c971419ac06c8543c1ad335ce739b]
class WasteStack--><rect codeLine="8" fill="#FEFECE" filter="url(#f1r70m8z6044qj)" height="48" id="WasteStack" style="stroke:#A80036;stroke-width:1.5;" width="103" x="260.5" y="439"/><ellipse cx="275.5" cy="455" fill="#ADD1B2" rx="11" ry="11" style="stroke:#A80036;stroke-width:1.0;"/><path d="M277.8438,450.6719 C276.9063,450.2344 276.3125,450.0938 275.4375,450.0938 C272.8125,450.0938 270.8125,452.1719 270.8125,454.8906 L270.8125,456.0156 C270.8125,458.5938 272.9219,460.4844 275.8125,460.4844 C277.0313,460.4844 278.1875,460.1875 278.9375,459.6406 C279.5156,459.2344 279.8438,458.7813 279.8438,458.3906 C279.8438,457.9375 279.4531,457.5469 278.9844,457.5469 C278.7656,457.5469 278.5625,457.625 278.375,457.8125 C277.9219,458.2969 277.9219,458.2969 277.7344,458.3906 C277.3125,458.6563 276.625,458.7813 275.8594,458.7813 C273.8125,458.7813 272.5156,457.6875 272.5156,455.9844 L272.5156,454.8906 C272.5156,453.1094 273.7656,451.7969 275.5,451.7969 C276.0781,451.7969 276.6875,451.9531 277.1563,452.2031 C277.6406,452.4844 277.8125,452.7031 277.9063,453.1094 C277.9688,453.5156 278,453.6406 278.1406,453.7656 C278.2813,453.9063 278.5156,454.0156 278.7344,454.0156 C279,454.0156 279.2656,453.875 279.4375,453.6563 C279.5469,453.5 279.5781,453.3125 279.5781,452.8906 L279.5781,451.4688 C279.5781,451.0313 279.5625,450.9063 279.4688,450.75 C279.3125,450.4844 279.0313,450.3438 278.7344,450.3438 C278.4375,450.3438 278.2344,450.4375 278.0156,450.75 L277.8438,450.6719 Z " fill="#000000"/><text fill="#000000" font-family="sans-serif" font-size="12" lengthAdjust="spacing" textLength="71" x="289.5" y="459.1543">WasteStack</text><line style="stroke:#A80036;stroke-width:1.5;" x1="261.5" x2="362.5" y1="471" y2="471"/><line style="stroke:#A80036;stroke-width:1.5;" x1="261.5" x2="362.5" y1="479" y2="479"/><!--MD5=[18eee71c88ab61f27581b8cbdd3ef5ee]
class Color--><rect codeLine="9" fill="#FEFECE" filter="url(#f1r70m8z6044qj)" height="48" id="Color" style="stroke:#A80036;stroke-width:1.5;" width="64" x="378" y="763"/><ellipse cx="393" cy="779" fill="#ADD1B2" rx="11" ry="11" style="stroke:#A80036;stroke-width:1.0;"/><path d="M395.3438,774.6719 C394.4063,774.2344 393.8125,774.0938 392.9375,774.0938 C390.3125,774.0938 388.3125,776.1719 388.3125,778.8906 L388.3125,780.0156 C388.3125,782.5938 390.4219,784.4844 393.3125,784.4844 C394.5313,784.4844 395.6875,784.1875 396.4375,783.6406 C397.0156,783.2344 397.3438,782.7813 397.3438,782.3906 C397.3438,781.9375 396.9531,781.5469 396.4844,781.5469 C396.2656,781.5469 396.0625,781.625 395.875,781.8125 C395.4219,782.2969 395.4219,782.2969 395.2344,782.3906 C394.8125,782.6563 394.125,782.7813 393.3594,782.7813 C391.3125,782.7813 390.0156,781.6875 390.0156,779.9844 L390.0156,778.8906 C390.0156,777.1094 391.2656,775.7969 393,775.7969 C393.5781,775.7969 394.1875,775.9531 394.6563,776.2031 C395.1406,776.4844 395.3125,776.7031 395.4063,777.1094 C395.4688,777.5156 395.5,777.6406 395.6406,777.7656 C395.7813,777.9063 396.0156,778.0156 396.2344,778.0156 C396.5,778.0156 396.7656,777.875 396.9375,777.6563 C397.0469,777.5 397.0781,777.3125 397.0781,776.8906 L397.0781,775.4688 C397.0781,775.0313 397.0625,774.9063 396.9688,774.75 C396.8125,774.4844 396.5313,774.3438 396.2344,774.3438 C395.9375,774.3438 395.7344,774.4375 395.5156,774.75 L395.3438,774.6719 Z " fill="#000000"/><text fill="#000000" font-family="sans-serif" font-size="12" lengthAdjust="spacing" textLength="32" x="407" y="783.1543">Color</text><line style="stroke:#A80036;stroke-width:1.5;" x1="379" x2="441" y1="795" y2="795"/><line style="stroke:#A80036;stroke-width:1.5;" x1="379" x2="441" y1="803" y2="803"/><!--MD5=[602b15352a41052f4d1a7dc34102cb35]
class White--><rect codeLine="10" fill="#FEFECE" filter="url(#f1r70m8z6044qj)" height="48" id="White" style="stroke:#A80036;stroke-width:1.5;" width="66" x="327" y="871"/><ellipse cx="342" cy="887" fill="#ADD1B2" rx="11" ry="11" style="stroke:#A80036;stroke-width:1.0;"/><path d="M344.3438,882.6719 C343.4063,882.2344 342.8125,882.0938 341.9375,882.0938 C339.3125,882.0938 337.3125,884.1719 337.3125,886.8906 L337.3125,888.0156 C337.3125,890.5938 339.4219,892.4844 342.3125,892.4844 C343.5313,892.4844 344.6875,892.1875 345.4375,891.6406 C346.0156,891.2344 346.3438,890.7813 346.3438,890.3906 C346.3438,889.9375 345.9531,889.5469 345.4844,889.5469 C345.2656,889.5469 345.0625,889.625 344.875,889.8125 C344.4219,890.2969 344.4219,890.2969 344.2344,890.3906 C343.8125,890.6563 343.125,890.7813 342.3594,890.7813 C340.3125,890.7813 339.0156,889.6875 339.0156,887.9844 L339.0156,886.8906 C339.0156,885.1094 340.2656,883.7969 342,883.7969 C342.5781,883.7969 343.1875,883.9531 343.6563,884.2031 C344.1406,884.4844 344.3125,884.7031 344.4063,885.1094 C344.4688,885.5156 344.5,885.6406 344.6406,885.7656 C344.7813,885.9063 345.0156,886.0156 345.2344,886.0156 C345.5,886.0156 345.7656,885.875 345.9375,885.6563 C346.0469,885.5 346.0781,885.3125 346.0781,884.8906 L346.0781,883.4688 C346.0781,883.0313 346.0625,882.9063 345.9688,882.75 C345.8125,882.4844 345.5313,882.3438 345.2344,882.3438 C344.9375,882.3438 344.7344,882.4375 344.5156,882.75 L344.3438,882.6719 Z " fill="#000000"/><text fill="#000000" font-family="sans-serif" font-size="12" lengthAdjust="spacing" textLength="34" x="356" y="891.1543">White</text><line style="stroke:#A80036;stroke-width:1.5;" x1="328" x2="392" y1="903" y2="903"/><line style="stroke:#A80036;stroke-width:1.5;" x1="328" x2="392" y1="911" y2="911"/><!--MD5=[365150d8163e865a226452c70cc7ad9f]
class Black--><rect codeLine="11" fill="#FEFECE" filter="url(#f1r70m8z6044qj)" height="48" id="Black" style="stroke:#A80036;stroke-width:1.5;" width="64" x="428" y="871"/><ellipse cx="443" cy="887" fill="#ADD1B2" rx="11" ry="11" style="stroke:#A80036;stroke-width:1.0;"/><path d="M445.3438,882.6719 C444.4063,882.2344 443.8125,882.0938 442.9375,882.0938 C440.3125,882.0938 438.3125,884.1719 438.3125,886.8906 L438.3125,888.0156 C438.3125,890.5938 440.4219,892.4844 443.3125,892.4844 C444.5313,892.4844 445.6875,892.1875 446.4375,891.6406 C447.0156,891.2344 447.3438,890.7813 447.3438,890.3906 C447.3438,889.9375 446.9531,889.5469 446.4844,889.5469 C446.2656,889.5469 446.0625,889.625 445.875,889.8125 C445.4219,890.2969 445.4219,890.2969 445.2344,890.3906 C444.8125,890.6563 444.125,890.7813 443.3594,890.7813 C441.3125,890.7813 440.0156,889.6875 440.0156,887.9844 L440.0156,886.8906 C440.0156,885.1094 441.2656,883.7969 443,883.7969 C443.5781,883.7969 444.1875,883.9531 444.6563,884.2031 C445.1406,884.4844 445.3125,884.7031 445.4063,885.1094 C445.4688,885.5156 445.5,885.6406 445.6406,885.7656 C445.7813,885.9063 446.0156,886.0156 446.2344,886.0156 C446.5,886.0156 446.7656,885.875 446.9375,885.6563 C447.0469,885.5 447.0781,885.3125 447.0781,884.8906 L447.0781,883.4688 C447.0781,883.0313 447.0625,882.9063 446.9688,882.75 C446.8125,882.4844 446.5313,882.3438 446.2344,882.3438 C445.9375,882.3438 445.7344,882.4375 445.5156,882.75 L445.3438,882.6719 Z " fill="#000000"/><text fill="#000000" font-family="sans-serif" font-size="12" lengthAdjust="spacing" textLength="32" x="457" y="891.1543">Black</text><line style="stroke:#A80036;stroke-width:1.5;" x1="429" x2="491" y1="903" y2="903"/><line style="stroke:#A80036;stroke-width:1.5;" x1="429" x2="491" y1="911" y2="911"/><!--MD5=[d47d0f62a44c2fb80ffb26ee681928bb]
class Draughts--><rect codeLine="12" fill="#FEFECE" filter="url(#f1r70m8z6044qj)" height="48" id="Draughts" style="stroke:#A80036;stroke-width:1.5;" width="86" x="75" y="7"/><ellipse cx="90" cy="23" fill="#ADD1B2" rx="11" ry="11" style="stroke:#A80036;stroke-width:1.0;"/><path d="M92.3438,18.6719 C91.4063,18.2344 90.8125,18.0938 89.9375,18.0938 C87.3125,18.0938 85.3125,20.1719 85.3125,22.8906 L85.3125,24.0156 C85.3125,26.5938 87.4219,28.4844 90.3125,28.4844 C91.5313,28.4844 92.6875,28.1875 93.4375,27.6406 C94.0156,27.2344 94.3438,26.7813 94.3438,26.3906 C94.3438,25.9375 93.9531,25.5469 93.4844,25.5469 C93.2656,25.5469 93.0625,25.625 92.875,25.8125 C92.4219,26.2969 92.4219,26.2969 92.2344,26.3906 C91.8125,26.6563 91.125,26.7813 90.3594,26.7813 C88.3125,26.7813 87.0156,25.6875 87.0156,23.9844 L87.0156,22.8906 C87.0156,21.1094 88.2656,19.7969 90,19.7969 C90.5781,19.7969 91.1875,19.9531 91.6563,20.2031 C92.1406,20.4844 92.3125,20.7031 92.4063,21.1094 C92.4688,21.5156 92.5,21.6406 92.6406,21.7656 C92.7813,21.9063 93.0156,22.0156 93.2344,22.0156 C93.5,22.0156 93.7656,21.875 93.9375,21.6563 C94.0469,21.5 94.0781,21.3125 94.0781,20.8906 L94.0781,19.4688 C94.0781,19.0313 94.0625,18.9063 93.9688,18.75 C93.8125,18.4844 93.5313,18.3438 93.2344,18.3438 C92.9375,18.3438 92.7344,18.4375 92.5156,18.75 L92.3438,18.6719 Z " fill="#000000"/><text fill="#000000" font-family="sans-serif" font-size="12" lengthAdjust="spacing" textLength="54" x="104" y="27.1543">Draughts</text><line style="stroke:#A80036;stroke-width:1.5;" x1="76" x2="160" y1="39" y2="39"/><line style="stroke:#A80036;stroke-width:1.5;" x1="76" x2="160" y1="47" y2="47"/><!--MD5=[1981719fa3982d92ef7fd3f06d73b3e7]
class Move--><rect codeLine="13" fill="#FEFECE" filter="url(#f1r70m8z6044qj)" height="48" id="Move" style="stroke:#A80036;stroke-width:1.5;" width="65" x="29.5" y="547"/><ellipse cx="44.5" cy="563" fill="#ADD1B2" rx="11" ry="11" style="stroke:#A80036;stroke-width:1.0;"/><path d="M46.8438,558.6719 C45.9063,558.2344 45.3125,558.0938 44.4375,558.0938 C41.8125,558.0938 39.8125,560.1719 39.8125,562.8906 L39.8125,564.0156 C39.8125,566.5938 41.9219,568.4844 44.8125,568.4844 C46.0313,568.4844 47.1875,568.1875 47.9375,567.6406 C48.5156,567.2344 48.8438,566.7813 48.8438,566.3906 C48.8438,565.9375 48.4531,565.5469 47.9844,565.5469 C47.7656,565.5469 47.5625,565.625 47.375,565.8125 C46.9219,566.2969 46.9219,566.2969 46.7344,566.3906 C46.3125,566.6563 45.625,566.7813 44.8594,566.7813 C42.8125,566.7813 41.5156,565.6875 41.5156,563.9844 L41.5156,562.8906 C41.5156,561.1094 42.7656,559.7969 44.5,559.7969 C45.0781,559.7969 45.6875,559.9531 46.1563,560.2031 C46.6406,560.4844 46.8125,560.7031 46.9063,561.1094 C46.9688,561.5156 47,561.6406 47.1406,561.7656 C47.2813,561.9063 47.5156,562.0156 47.7344,562.0156 C48,562.0156 48.2656,561.875 48.4375,561.6563 C48.5469,561.5 48.5781,561.3125 48.5781,560.8906 L48.5781,559.4688 C48.5781,559.0313 48.5625,558.9063 48.4688,558.75 C48.3125,558.4844 48.0313,558.3438 47.7344,558.3438 C47.4375,558.3438 47.2344,558.4375 47.0156,558.75 L46.8438,558.6719 Z " fill="#000000"/><text fill="#000000" font-family="sans-serif" font-size="12" lengthAdjust="spacing" textLength="33" x="58.5" y="567.1543">Move</text><line style="stroke:#A80036;stroke-width:1.5;" x1="30.5" x2="93.5" y1="579" y2="579"/><line style="stroke:#A80036;stroke-width:1.5;" x1="30.5" x2="93.5" y1="587" y2="587"/><!--MD5=[dd91eae41778c45e12552e5329e240e8]
class Turn--><rect codeLine="14" fill="#FEFECE" filter="url(#f1r70m8z6044qj)" height="48" id="Turn" style="stroke:#A80036;stroke-width:1.5;" width="58" x="7" y="115"/><ellipse cx="22" cy="131" fill="#ADD1B2" rx="11" ry="11" style="stroke:#A80036;stroke-width:1.0;"/><path d="M24.3438,126.6719 C23.4063,126.2344 22.8125,126.0938 21.9375,126.0938 C19.3125,126.0938 17.3125,128.1719 17.3125,130.8906 L17.3125,132.0156 C17.3125,134.5938 19.4219,136.4844 22.3125,136.4844 C23.5313,136.4844 24.6875,136.1875 25.4375,135.6406 C26.0156,135.2344 26.3438,134.7813 26.3438,134.3906 C26.3438,133.9375 25.9531,133.5469 25.4844,133.5469 C25.2656,133.5469 25.0625,133.625 24.875,133.8125 C24.4219,134.2969 24.4219,134.2969 24.2344,134.3906 C23.8125,134.6563 23.125,134.7813 22.3594,134.7813 C20.3125,134.7813 19.0156,133.6875 19.0156,131.9844 L19.0156,130.8906 C19.0156,129.1094 20.2656,127.7969 22,127.7969 C22.5781,127.7969 23.1875,127.9531 23.6563,128.2031 C24.1406,128.4844 24.3125,128.7031 24.4063,129.1094 C24.4688,129.5156 24.5,129.6406 24.6406,129.7656 C24.7813,129.9063 25.0156,130.0156 25.2344,130.0156 C25.5,130.0156 25.7656,129.875 25.9375,129.6563 C26.0469,129.5 26.0781,129.3125 26.0781,128.8906 L26.0781,127.4688 C26.0781,127.0313 26.0625,126.9063 25.9688,126.75 C25.8125,126.4844 25.5313,126.3438 25.2344,126.3438 C24.9375,126.3438 24.7344,126.4375 24.5156,126.75 L24.3438,126.6719 Z " fill="#000000"/><text fill="#000000" font-family="sans-serif" font-size="12" lengthAdjust="spacing" textLength="26" x="36" y="135.1543">Turn</text><line style="stroke:#A80036;stroke-width:1.5;" x1="8" x2="64" y1="147" y2="147"/><line style="stroke:#A80036;stroke-width:1.5;" x1="8" x2="64" y1="155" y2="155"/><!--MD5=[0992d3fdc9d3d7c02b735131bb70871d]
class Goal--><rect codeLine="15" fill="#FEFECE" filter="url(#f1r70m8z6044qj)" height="48" id="Goal" style="stroke:#A80036;stroke-width:1.5;" width="59" x="72.5" y="439"/><ellipse cx="87.5" cy="455" fill="#ADD1B2" rx="11" ry="11" style="stroke:#A80036;stroke-width:1.0;"/><path d="M89.8438,450.6719 C88.9063,450.2344 88.3125,450.0938 87.4375,450.0938 C84.8125,450.0938 82.8125,452.1719 82.8125,454.8906 L82.8125,456.0156 C82.8125,458.5938 84.9219,460.4844 87.8125,460.4844 C89.0313,460.4844 90.1875,460.1875 90.9375,459.6406 C91.5156,459.2344 91.8438,458.7813 91.8438,458.3906 C91.8438,457.9375 91.4531,457.5469 90.9844,457.5469 C90.7656,457.5469 90.5625,457.625 90.375,457.8125 C89.9219,458.2969 89.9219,458.2969 89.7344,458.3906 C89.3125,458.6563 88.625,458.7813 87.8594,458.7813 C85.8125,458.7813 84.5156,457.6875 84.5156,455.9844 L84.5156,454.8906 C84.5156,453.1094 85.7656,451.7969 87.5,451.7969 C88.0781,451.7969 88.6875,451.9531 89.1563,452.2031 C89.6406,452.4844 89.8125,452.7031 89.9063,453.1094 C89.9688,453.5156 90,453.6406 90.1406,453.7656 C90.2813,453.9063 90.5156,454.0156 90.7344,454.0156 C91,454.0156 91.2656,453.875 91.4375,453.6563 C91.5469,453.5 91.5781,453.3125 91.5781,452.8906 L91.5781,451.4688 C91.5781,451.0313 91.5625,450.9063 91.4688,450.75 C91.3125,450.4844 91.0313,450.3438 90.7344,450.3438 C90.4375,450.3438 90.2344,450.4375 90.0156,450.75 L89.8438,450.6719 Z " fill="#000000"/><text fill="#000000" font-family="sans-serif" font-size="12" lengthAdjust="spacing" textLength="27" x="101.5" y="459.1543">Goal</text><line style="stroke:#A80036;stroke-width:1.5;" x1="73.5" x2="130.5" y1="471" y2="471"/><line style="stroke:#A80036;stroke-width:1.5;" x1="73.5" x2="130.5" y1="479" y2="479"/><!--MD5=[9bf30d9ca8c5cb9d311e72e4ba9dda35]
class WasteStackLooser--><rect codeLine="16" fill="#FEFECE" filter="url(#f1r70m8z6044qj)" height="48" id="WasteStackLooser" style="stroke:#A80036;stroke-width:1.5;" width="145" x="239.5" y="547"/><ellipse cx="254.5" cy="563" fill="#ADD1B2" rx="11" ry="11" style="stroke:#A80036;stroke-width:1.0;"/><path d="M256.8438,558.6719 C255.9063,558.2344 255.3125,558.0938 254.4375,558.0938 C251.8125,558.0938 249.8125,560.1719 249.8125,562.8906 L249.8125,564.0156 C249.8125,566.5938 251.9219,568.4844 254.8125,568.4844 C256.0313,568.4844 257.1875,568.1875 257.9375,567.6406 C258.5156,567.2344 258.8438,566.7813 258.8438,566.3906 C258.8438,565.9375 258.4531,565.5469 257.9844,565.5469 C257.7656,565.5469 257.5625,565.625 257.375,565.8125 C256.9219,566.2969 256.9219,566.2969 256.7344,566.3906 C256.3125,566.6563 255.625,566.7813 254.8594,566.7813 C252.8125,566.7813 251.5156,565.6875 251.5156,563.9844 L251.5156,562.8906 C251.5156,561.1094 252.7656,559.7969 254.5,559.7969 C255.0781,559.7969 255.6875,559.9531 256.1563,560.2031 C256.6406,560.4844 256.8125,560.7031 256.9063,561.1094 C256.9688,561.5156 257,561.6406 257.1406,561.7656 C257.2813,561.9063 257.5156,562.0156 257.7344,562.0156 C258,562.0156 258.2656,561.875 258.4375,561.6563 C258.5469,561.5 258.5781,561.3125 258.5781,560.8906 L258.5781,559.4688 C258.5781,559.0313 258.5625,558.9063 258.4688,558.75 C258.3125,558.4844 258.0313,558.3438 257.7344,558.3438 C257.4375,558.3438 257.2344,558.4375 257.0156,558.75 L256.8438,558.6719 Z " fill="#000000"/><text fill="#000000" font-family="sans-serif" font-size="12" lengthAdjust="spacing" textLength="113" x="268.5" y="567.1543">WasteStackLooser</text><line style="stroke:#A80036;stroke-width:1.5;" x1="240.5" x2="383.5" y1="579" y2="579"/><line style="stroke:#A80036;stroke-width:1.5;" x1="240.5" x2="383.5" y1="587" y2="587"/><!--MD5=[b9b7ff7865c5c2d4b7069ee2fe287af3]
class Jump--><rect codeLine="17" fill="#FEFECE" filter="url(#f1r70m8z6044qj)" height="48" id="Jump" style="stroke:#A80036;stroke-width:1.5;" width="62" x="21" y="655"/><ellipse cx="36" cy="671" fill="#ADD1B2" rx="11" ry="11" style="stroke:#A80036;stroke-width:1.0;"/><path d="M38.3438,666.6719 C37.4063,666.2344 36.8125,666.0938 35.9375,666.0938 C33.3125,666.0938 31.3125,668.1719 31.3125,670.8906 L31.3125,672.0156 C31.3125,674.5938 33.4219,676.4844 36.3125,676.4844 C37.5313,676.4844 38.6875,676.1875 39.4375,675.6406 C40.0156,675.2344 40.3438,674.7813 40.3438,674.3906 C40.3438,673.9375 39.9531,673.5469 39.4844,673.5469 C39.2656,673.5469 39.0625,673.625 38.875,673.8125 C38.4219,674.2969 38.4219,674.2969 38.2344,674.3906 C37.8125,674.6563 37.125,674.7813 36.3594,674.7813 C34.3125,674.7813 33.0156,673.6875 33.0156,671.9844 L33.0156,670.8906 C33.0156,669.1094 34.2656,667.7969 36,667.7969 C36.5781,667.7969 37.1875,667.9531 37.6563,668.2031 C38.1406,668.4844 38.3125,668.7031 38.4063,669.1094 C38.4688,669.5156 38.5,669.6406 38.6406,669.7656 C38.7813,669.9063 39.0156,670.0156 39.2344,670.0156 C39.5,670.0156 39.7656,669.875 39.9375,669.6563 C40.0469,669.5 40.0781,669.3125 40.0781,668.8906 L40.0781,667.4688 C40.0781,667.0313 40.0625,666.9063 39.9688,666.75 C39.8125,666.4844 39.5313,666.3438 39.2344,666.3438 C38.9375,666.3438 38.7344,666.4375 38.5156,666.75 L38.3438,666.6719 Z " fill="#000000"/><text fill="#000000" font-family="sans-serif" font-size="12" lengthAdjust="spacing" textLength="30" x="50" y="675.1543">Jump</text><line style="stroke:#A80036;stroke-width:1.5;" x1="22" x2="82" y1="687" y2="687"/><line style="stroke:#A80036;stroke-width:1.5;" x1="22" x2="82" y1="695" y2="695"/><!--MD5=[72b29da9a8f784080a423a8b201580e3]
reverse link Draughts to Player--><path codeLine="19" d="M115.268,68.544 C111.968,112.676 106.5164,185.593 103.7406,222.72 " fill="none" id="Draughts-backto-Player" style="stroke:#A80036;stroke-width:1.0;"/><polygon fill="#A80036" points="116.257,55.309,111.8211,60.9943,115.3629,67.2756,119.7988,61.5904,116.257,55.309" style="stroke:#A80036;stroke-width:1.0;"/><text fill="#000000" font-family="sans-serif" font-size="13" lengthAdjust="spacing" textLength="8" x="95.1899" y="212.0567">2</text><!--MD5=[2f250a3e54b4d58591f9af6b73ba360f]
reverse link Draughts to Board--><path codeLine="20" d="M125.981,68.196 C140.668,134.806 171.594,275.061 183.845,330.62 " fill="none" id="Draughts-backto-Board" style="stroke:#A80036;stroke-width:1.0;"/><polygon fill="#A80036" points="123.106,55.157,120.4914,61.8774,125.6892,66.8757,128.3038,60.1553,123.106,55.157" style="stroke:#A80036;stroke-width:1.0;"/><!--MD5=[d11a174c4c4727f1beef613110345c20]
reverse link Draughts to Turn--><path codeLine="21" d="M92.0502,65.545 C79.6811,81.534 65.19,100.267 54.0412,114.678 " fill="none" id="Draughts-backto-Turn" style="stroke:#A80036;stroke-width:1.0;"/><polygon fill="#A80036" points="100.2072,55,93.3721,57.2983,92.8648,64.4915,99.6998,62.1932,100.2072,55" style="stroke:#A80036;stroke-width:1.0;"/><!--MD5=[c6b41680f949d949cbe7e94f69664b17]
reverse link Turn to Player--><path codeLine="22" d="M57.4627,174.47 C67.2897,190.253 78.6782,208.544 87.479,222.678 " fill="none" id="Turn-backto-Player" style="stroke:#A80036;stroke-width:1.0;"/><polygon fill="#A80036" points="50.321,163,50.0968,170.2076,56.6638,173.1867,56.888,165.9791,50.321,163" style="stroke:#A80036;stroke-width:1.0;"/><text fill="#000000" font-family="sans-serif" font-size="13" lengthAdjust="spacing" textLength="8" x="74.9645" y="212.0045">2</text><!--MD5=[8764212788f98160f30801b1e627a091]
reverse link WasteStack to Piece--><path codeLine="24" d="M359.569,495.162 C376.24,508.864 393.03,526.524 402,547 C410.561,566.54 410.561,575.46 402,595 C390.229,621.867 364.996,643.887 344.235,658.478 " fill="none" id="WasteStack-backto-Piece" style="stroke:#A80036;stroke-width:1.0;"/><polygon fill="#FFFFFF" points="349.276,487.151,351.5546,493.9926,358.7463,494.5208,356.4677,487.6791,349.276,487.151" style="stroke:#A80036;stroke-width:1.0;"/><text fill="#000000" font-family="sans-serif" font-size="13" lengthAdjust="spacing" textLength="32" x="351.9225" y="668.4801">0..23</text><!--MD5=[c01213c7266aafd116bc362481b37fea]
reverse link Piece to Color--><path codeLine="26" d="M342.163,712.626 C357.128,728.812 374.858,747.989 388.439,762.678 " fill="none" id="Piece-backto-Color" style="stroke:#A80036;stroke-width:1.0;"/><polygon fill="#A80036" points="333.265,703,334.4012,710.121,341.4115,711.8111,340.2753,704.69,333.265,703" style="stroke:#A80036;stroke-width:1.0;"/><!--MD5=[9f812a98cb9947e5b96a7c66f6bc972c]
reverse link Piece to Pawn--><path codeLine="27" d="M312,723.024 C312,736.579 312,751.038 312,762.678 " fill="none" id="Piece-backto-Pawn" style="stroke:#A80036;stroke-width:1.0;"/><polygon fill="none" points="305,723,312,703,319,723,305,723" style="stroke:#A80036;stroke-width:1.0;"/><!--MD5=[febb3c65f0f81ddd882798a5920e5b3b]
reverse link Piece to Draught--><path codeLine="28" d="M274.72,717.28 C259.609,732.391 242.625,749.375 229.322,762.678 " fill="none" id="Piece-backto-Draught" style="stroke:#A80036;stroke-width:1.0;"/><polygon fill="none" points="269.908,712.193,289,703,279.807,722.092,269.908,712.193" style="stroke:#A80036;stroke-width:1.0;"/><!--MD5=[c91f43cbec2d140b012557cc0caf1f06]
reverse link Color to White--><path codeLine="29" d="M390.616,829.0936 C383.964,843.1958 376.753,858.4838 371.001,870.6784 " fill="none" id="Color-backto-White" style="stroke:#A80036;stroke-width:1.0;"/><polygon fill="none" points="384.287,826.1027,399.151,811,396.949,832.0754,384.287,826.1027" style="stroke:#A80036;stroke-width:1.0;"/><!--MD5=[af66b58f2992f2e4db4f382db65f0624]
reverse link Color to Black--><path codeLine="30" d="M429.384,829.0936 C436.036,843.1958 443.247,858.4838 448.999,870.6784 " fill="none" id="Color-backto-Black" style="stroke:#A80036;stroke-width:1.0;"/><polygon fill="none" points="423.051,832.0754,420.849,811,435.713,826.1027,423.051,832.0754" style="stroke:#A80036;stroke-width:1.0;"/><!--MD5=[17120ee51e2ffda5669a5782988d7c8b]
reverse link Move to Jump--><path codeLine="31" d="M57.9412,615.024 C56.6623,628.579 55.2983,643.038 54.2001,654.678 " fill="none" id="Move-backto-Jump" style="stroke:#A80036;stroke-width:1.0;"/><polygon fill="none" points="50.9826,614.255,59.8301,595,64.9207,615.57,50.9826,614.255" style="stroke:#A80036;stroke-width:1.0;"/><!--MD5=[189b98674c39f09c99c8c2aac772db2b]
reverse link WasteStack to WasteStackLooser--><path codeLine="32" d="M312,507.024 C312,520.579 312,535.038 312,546.678 " fill="none" id="WasteStack-backto-WasteStackLooser" style="stroke:#A80036;stroke-width:1.0;"/><polygon fill="none" points="305,507,312,487,319,507,305,507" style="stroke:#A80036;stroke-width:1.0;"/><!--MD5=[3bc098bd6ca1478293fc2fb2d3c76112]
reverse link Board to Square--><path codeLine="34" d="M185.273,392.258 C180.739,436.36 173.218,509.513 169.393,546.72 " fill="none" id="Board-backto-Square" style="stroke:#A80036;stroke-width:1.0;"/><polygon fill="#FFFFFF" points="186.604,379.309,182.0117,384.8688,185.3776,391.2462,189.9698,385.6864,186.604,379.309" style="stroke:#A80036;stroke-width:1.0;"/><text fill="#000000" font-family="sans-serif" font-size="13" lengthAdjust="spacing" textLength="24" x="143.0513" y="536.0567">8x8</text><!--MD5=[f67dd3c3e51d4023034ce19e0947172b]
reverse link Square to Piece--><path codeLine="35" d="M209.179,602.834 C231.905,619.447 259.478,639.605 280.349,654.862 " fill="none" id="Square-backto-Piece" style="stroke:#A80036;stroke-width:1.0;"/><polygon fill="#FFFFFF" points="198.463,595,200.9461,601.7701,208.1504,602.082,205.6674,595.3118,198.463,595" style="stroke:#A80036;stroke-width:1.0;"/><text fill="#000000" font-family="sans-serif" font-size="13" lengthAdjust="spacing" textLength="24" x="248.028" y="645.9106">0..1</text><!--MD5=[9b21db52be6bd54a2485f122e5129e10]
reverse link Square to Coordinate--><path codeLine="36" d="M167,608.338 C167,623.681 167,641.098 167,654.678 " fill="none" id="Square-backto-Coordinate" style="stroke:#A80036;stroke-width:1.0;"/><polygon fill="#A80036" points="167,595,163,601,167,607,171,601,167,595" style="stroke:#A80036;stroke-width:1.0;"/><!--MD5=[fa17fe1dc9d5753e0aefa11a95dc0a74]
link Goal to WasteStackLooser--><path codeLine="37" d="M131.642,478.962 C165.322,495.963 220.864,523.998 261.428,544.473 " fill="none" id="Goal-to-WasteStackLooser" style="stroke:#A80036;stroke-width:1.0;"/><polygon fill="#A80036" points="266.298,546.931,260.0681,539.3028,261.835,544.6767,256.4612,546.4436,266.298,546.931" style="stroke:#A80036;stroke-width:1.0;"/><!--MD5=[d75efdf0fcdc839c308b84efa69714f3]
reverse link Board to WasteStack--><path codeLine="38" d="M225.799,387.713 C244.799,404.087 267.572,423.712 284.938,438.678 " fill="none" id="Board-backto-WasteStack" style="stroke:#A80036;stroke-width:1.0;"/><polygon fill="#A80036" points="215.689,379,217.6235,385.9468,224.7799,386.8329,222.8454,379.8861,215.689,379" style="stroke:#A80036;stroke-width:1.0;"/><!--MD5=[a1c097679cea4b0a6c8d4d69e5968e89]
reverse link Player to Goal--><path codeLine="39" d="M102,284.544 C102,328.676 102,401.593 102,438.72 " fill="none" id="Player-backto-Goal" style="stroke:#A80036;stroke-width:1.0;"/><polygon fill="#A80036" points="102,271.309,98,277.309,102,283.309,106,277.309,102,271.309" style="stroke:#A80036;stroke-width:1.0;"/><!--MD5=[c1f7e88598f78d9459764ed93737eb14]
link Player to Board--><path codeLine="40" d="M120.878,271 C134.238,287.279 152.22,309.187 166.353,326.408 " fill="none" id="Player-to-Board" style="stroke:#A80036;stroke-width:1.0;"/><polygon fill="#A80036" points="169.859,330.678,167.2393,321.1839,166.6861,326.8137,161.0564,326.2605,169.859,330.678" style="stroke:#A80036;stroke-width:1.0;"/><!--MD5=[642c779f31f6a7a140dd4b3165417c3e]
reverse link WasteStackLooser to Piece--><path codeLine="41" d="M312,608.338 C312,623.681 312,641.098 312,654.678 " fill="none" id="WasteStackLooser-backto-Piece" style="stroke:#A80036;stroke-width:1.0;"/><polygon fill="#FFFFFF" points="312,595,308,601,312,607,316,601,312,595" style="stroke:#A80036;stroke-width:1.0;"/><text fill="#000000" font-family="sans-serif" font-size="13" lengthAdjust="spacing" textLength="58" x="319.0688" y="644.0045">12+0..11</text><!--MD5=[4b1f7a9ffece4d2d0cb1da7affd14ba5]
link Goal to Move--><path codeLine="42" d="M93.3206,487 C87.2298,503.141 79.0505,524.816 72.5778,541.969 " fill="none" id="Goal-to-Move" style="stroke:#A80036;stroke-width:1.0;stroke-dasharray:7.0,7.0;"/><polygon fill="#A80036" points="70.8006,546.678,77.7191,539.6685,72.565,541.9996,70.2338,536.8455,70.8006,546.678" style="stroke:#A80036;stroke-width:1.0;"/><text fill="#000000" font-family="sans-serif" font-size="13" lengthAdjust="spacing" textLength="7" x="65.0926" y="536.0045">*</text><!--MD5=[655d78d9ed29afdfb08938da0cad97fa]
link Move to Coordinate--><path codeLine="43" d="M84.7834,595 C101.045,611.417 122.978,633.559 140.101,650.844 " fill="none" id="Move-to-Coordinate" style="stroke:#A80036;stroke-width:1.0;stroke-dasharray:7.0,7.0;"/><polygon fill="#A80036" points="143.898,654.678,140.4071,645.4686,140.3796,651.1254,134.7229,651.0979,143.898,654.678" style="stroke:#A80036;stroke-width:1.0;"/><!--MD5=[65fc6d9097f411706dbd2327f731a25a]
@startuml
class Draught
class Piece
class Pawn
class Board
class Square
class Coordinate
class Player
class WasteStack
class Color
class White
class Black
class Draughts
class Move
class Turn
class Goal
class WasteStackLooser
class Jump

Draughts *-down- "2" Player
Draughts *-down- Board
Draughts *-down- Turn
Turn *-down- "2" Player

WasteStack o- -down- "0..23" Piece

Piece *-down- Color
Piece <|-down-  Pawn
Piece <|-down- Draught
Color <|-down- White
Color <|-down- Black
Move  <|-down- Jump
WasteStack  <|-down- WasteStackLooser

Board o- -down- "8x8" Square
Square o- -right- "0..1" Piece
Square *-down- Coordinate
Goal -down-> WasteStackLooser
Board *-down- WasteStack
Player *-down- Goal
Player -down-> Board
WasteStackLooser o- -right- "12+0..11" Piece
Goal ..> "*" Move
Move ..> Coordinate
@enduml

PlantUML version 1.2021.4beta2(Unknown compile time)
(GPL source distribution)
Java Runtime: Java(TM) SE Runtime Environment
JVM: Java HotSpot(TM) 64-Bit Server VM
Default Encoding: UTF-8
Language: en
Country: US
--></g></svg>