<?xml version="1.0" encoding="UTF-8" standalone="no"?><svg xmlns="http://www.w3.org/2000/svg" xmlns:xlink="http://www.w3.org/1999/xlink" contentScriptType="application/ecmascript" contentStyleType="text/css" height="496px" preserveAspectRatio="none" style="width:764px;height:496px;" version="1.1" viewBox="0 0 764 496" width="764px" zoomAndPan="magnify"><defs><filter height="300%" id="fw4mb0to5y8ph" width="300%" x="-1" y="-1"><feGaussianBlur result="blurOut" stdDeviation="2.0"/><feColorMatrix in="blurOut" result="blurOut2" type="matrix" values="0 0 0 0 0 0 0 0 0 0 0 0 0 0 0 0 0 0 .4 0"/><feOffset dx="4.0" dy="4.0" in="blurOut2" result="blurOut3"/><feBlend in="SourceGraphic" in2="blurOut3" mode="normal"/></filter></defs><g><rect fill="#FFFFFF" filter="url(#fw4mb0to5y8ph)" height="129.9453" style="stroke:#000000;stroke-width:2.0;" width="740" x="10" y="134.4297"/><rect fill="#FFFFFF" filter="url(#fw4mb0to5y8ph)" height="98.8125" style="stroke:#000000;stroke-width:2.0;" width="720" x="20" y="158.5625"/><rect fill="#FFFFFF" filter="url(#fw4mb0to5y8ph)" height="117.1406" style="stroke:#000000;stroke-width:2.0;" width="459" x="10" y="278.375"/><rect fill="#FFFFFF" filter="url(#fw4mb0to5y8ph)" height="86.0078" style="stroke:#000000;stroke-width:2.0;" width="439" x="20" y="302.5078"/><line style="stroke:#A80036;stroke-width:1.0;stroke-dasharray:5.0,5.0;" x1="55" x2="55" y1="88.2969" y2="412.5156"/><line style="stroke:#A80036;stroke-width:1.0;stroke-dasharray:5.0,5.0;" x1="274.5" x2="274.5" y1="88.2969" y2="412.5156"/><line style="stroke:#A80036;stroke-width:1.0;stroke-dasharray:5.0,5.0;" x1="368.5" x2="368.5" y1="88.2969" y2="412.5156"/><line style="stroke:#A80036;stroke-width:1.0;stroke-dasharray:5.0,5.0;" x1="499.5" x2="499.5" y1="88.2969" y2="412.5156"/><line style="stroke:#A80036;stroke-width:1.0;stroke-dasharray:5.0,5.0;" x1="663.5" x2="663.5" y1="88.2969" y2="412.5156"/><text fill="#000000" font-family="sans-serif" font-size="14" lengthAdjust="spacing" textLength="44" x="30" y="84.9951">Player</text><ellipse cx="55" cy="15" fill="#FEFECE" filter="url(#fw4mb0to5y8ph)" rx="8" ry="8" style="stroke:#A80036;stroke-width:2.0;"/><path d="M55,23 L55,50 M42,31 L68,31 M55,50 L42,65 M55,50 L68,65 " fill="none" filter="url(#fw4mb0to5y8ph)" style="stroke:#A80036;stroke-width:2.0;"/><text fill="#000000" font-family="sans-serif" font-size="14" lengthAdjust="spacing" textLength="44" x="30" y="424.5107">Player</text><ellipse cx="55" cy="437.8125" fill="#FEFECE" filter="url(#fw4mb0to5y8ph)" rx="8" ry="8" style="stroke:#A80036;stroke-width:2.0;"/><path d="M55,445.8125 L55,472.8125 M42,453.8125 L68,453.8125 M55,472.8125 L42,487.8125 M55,472.8125 L68,487.8125 " fill="none" filter="url(#fw4mb0to5y8ph)" style="stroke:#A80036;stroke-width:2.0;"/><rect fill="#FEFECE" filter="url(#fw4mb0to5y8ph)" height="30.2969" style="stroke:#A80036;stroke-width:1.5;" width="61" x="242.5" y="53"/><text fill="#000000" font-family="sans-serif" font-size="14" lengthAdjust="spacing" textLength="47" x="249.5" y="72.9951">:Board</text><rect fill="#FEFECE" filter="url(#fw4mb0to5y8ph)" height="30.2969" style="stroke:#A80036;stroke-width:1.5;" width="61" x="242.5" y="411.5156"/><text fill="#000000" font-family="sans-serif" font-size="14" lengthAdjust="spacing" textLength="47" x="249.5" y="431.5107">:Board</text><rect fill="#FEFECE" filter="url(#fw4mb0to5y8ph)" height="30.2969" style="stroke:#A80036;stroke-width:1.5;" width="98" x="317.5" y="53"/><text fill="#000000" font-family="sans-serif" font-size="14" lengthAdjust="spacing" textLength="84" x="324.5" y="72.9951">pawn :Pawn</text><rect fill="#FEFECE" filter="url(#fw4mb0to5y8ph)" height="30.2969" style="stroke:#A80036;stroke-width:1.5;" width="98" x="317.5" y="411.5156"/><text fill="#000000" font-family="sans-serif" font-size="14" lengthAdjust="spacing" textLength="84" x="324.5" y="431.5107">pawn :Pawn</text><rect fill="#FEFECE" filter="url(#fw4mb0to5y8ph)" height="30.2969" style="stroke:#A80036;stroke-width:1.5;" width="137" x="429.5" y="53"/><text fill="#000000" font-family="sans-serif" font-size="14" lengthAdjust="spacing" textLength="123" x="436.5" y="72.9951">draught :Draught</text><rect fill="#FEFECE" filter="url(#fw4mb0to5y8ph)" height="30.2969" style="stroke:#A80036;stroke-width:1.5;" width="137" x="429.5" y="411.5156"/><text fill="#000000" font-family="sans-serif" font-size="14" lengthAdjust="spacing" textLength="123" x="436.5" y="431.5107">draught :Draught</text><rect fill="#FEFECE" filter="url(#fw4mb0to5y8ph)" height="30.2969" style="stroke:#A80036;stroke-width:1.5;" width="163" x="580.5" y="53"/><text fill="#000000" font-family="sans-serif" font-size="14" lengthAdjust="spacing" textLength="149" x="587.5" y="72.9951">oponentPiece :Piece</text><rect fill="#FEFECE" filter="url(#fw4mb0to5y8ph)" height="30.2969" style="stroke:#A80036;stroke-width:1.5;" width="163" x="580.5" y="411.5156"/><text fill="#000000" font-family="sans-serif" font-size="14" lengthAdjust="spacing" textLength="149" x="587.5" y="431.5107">oponentPiece :Piece</text><polygon fill="#A80036" points="263,115.4297,273,119.4297,263,123.4297,267,119.4297" style="stroke:#A80036;stroke-width:1.0;"/><line style="stroke:#A80036;stroke-width:1.0;" x1="55" x2="269" y1="119.4297" y2="119.4297"/><text fill="#000000" font-family="sans-serif" font-size="13" lengthAdjust="spacing" textLength="126" x="62" y="114.3638">Select origin square</text><path d="M10,134.4297 L76,134.4297 L76,141.4297 L66,151.4297 L10,151.4297 L10,134.4297 " fill="#EEEEEE" style="stroke:#000000;stroke-width:1.0;"/><rect fill="none" height="129.9453" style="stroke:#000000;stroke-width:2.0;" width="740" x="10" y="134.4297"/><text fill="#000000" font-family="sans-serif" font-size="13" font-weight="bold" lengthAdjust="spacing" textLength="21" x="25" y="147.4966">alt</text><text fill="#000000" font-family="sans-serif" font-size="11" font-weight="bold" lengthAdjust="spacing" textLength="109" x="91" y="146.6401">[origin == pawn]</text><path d="M20,158.5625 L98,158.5625 L98,165.5625 L88,175.5625 L20,175.5625 L20,158.5625 " fill="#EEEEEE" style="stroke:#000000;stroke-width:1.0;"/><rect fill="none" height="98.8125" style="stroke:#000000;stroke-width:2.0;" width="720" x="20" y="158.5625"/><text fill="#000000" font-family="sans-serif" font-size="13" font-weight="bold" lengthAdjust="spacing" textLength="33" x="35" y="171.6294">loop</text><text fill="#000000" font-family="sans-serif" font-size="11" font-weight="bold" lengthAdjust="spacing" textLength="265" x="113" y="170.7729">[pawn.row + 1 == oponentPiece.row &amp;&amp;</text><text fill="#000000" font-family="sans-serif" font-size="11" font-weight="bold" lengthAdjust="spacing" textLength="614" x="117" y="183.5776">(pawn.column + 1 == oponentPiece.column ||  pawn.column - 1 == oponentPiece.column) &amp;&amp;</text><text fill="#000000" font-family="sans-serif" font-size="11" font-weight="bold" lengthAdjust="spacing" textLength="337" x="117" y="196.3823">there is only one piece between origin and target]</text><polygon fill="#A80036" points="263,216.2422,273,220.2422,263,224.2422,267,220.2422" style="stroke:#A80036;stroke-width:1.0;"/><line style="stroke:#A80036;stroke-width:1.0;" x1="55" x2="269" y1="220.2422" y2="220.2422"/><text fill="#000000" font-family="sans-serif" font-size="13" lengthAdjust="spacing" textLength="181" x="62" y="215.1763">Move pawn to target square</text><polygon fill="#A80036" points="263,245.375,273,249.375,263,253.375,267,249.375" style="stroke:#A80036;stroke-width:1.0;"/><line style="stroke:#A80036;stroke-width:1.0;" x1="55" x2="269" y1="249.375" y2="249.375"/><text fill="#000000" font-family="sans-serif" font-size="13" lengthAdjust="spacing" textLength="133" x="62" y="244.3091">Delete oponentPiece</text><path d="M10,278.375 L76,278.375 L76,285.375 L66,295.375 L10,295.375 L10,278.375 " fill="#EEEEEE" style="stroke:#000000;stroke-width:1.0;"/><rect fill="none" height="117.1406" style="stroke:#000000;stroke-width:2.0;" width="459" x="10" y="278.375"/><text fill="#000000" font-family="sans-serif" font-size="13" font-weight="bold" lengthAdjust="spacing" textLength="21" x="25" y="291.4419">alt</text><text fill="#000000" font-family="sans-serif" font-size="11" font-weight="bold" lengthAdjust="spacing" textLength="128" x="91" y="290.5854">[origin == draught]</text><path d="M20,302.5078 L98,302.5078 L98,309.5078 L88,319.5078 L20,319.5078 L20,302.5078 " fill="#EEEEEE" style="stroke:#000000;stroke-width:1.0;"/><rect fill="none" height="86.0078" style="stroke:#000000;stroke-width:2.0;" width="439" x="20" y="302.5078"/><text fill="#000000" font-family="sans-serif" font-size="13" font-weight="bold" lengthAdjust="spacing" textLength="33" x="35" y="315.5747">loop</text><text fill="#000000" font-family="sans-serif" font-size="11" font-weight="bold" lengthAdjust="spacing" textLength="255" x="113" y="314.7183">[target is in diagonal with draught &amp;&amp;</text><text fill="#000000" font-family="sans-serif" font-size="11" font-weight="bold" lengthAdjust="spacing" textLength="337" x="117" y="327.5229">there is only one piece between origin and target]</text><polygon fill="#A80036" points="263,347.3828,273,351.3828,263,355.3828,267,351.3828" style="stroke:#A80036;stroke-width:1.0;"/><line style="stroke:#A80036;stroke-width:1.0;" x1="55" x2="269" y1="351.3828" y2="351.3828"/><text fill="#000000" font-family="sans-serif" font-size="13" lengthAdjust="spacing" textLength="196" x="62" y="346.3169">Move draught to target square</text><polygon fill="#A80036" points="263,376.5156,273,380.5156,263,384.5156,267,380.5156" style="stroke:#A80036;stroke-width:1.0;"/><line style="stroke:#A80036;stroke-width:1.0;" x1="55" x2="269" y1="380.5156" y2="380.5156"/><text fill="#000000" font-family="sans-serif" font-size="13" lengthAdjust="spacing" textLength="133" x="62" y="375.4497">Delete oponentPiece</text><!--MD5=[c51df4379341cf4ad22bad0f3b24f07f]
@startuml
actor Player
participant Board as ":Board"
participant  pawn as "pawn :Pawn"
participant  draught as "draught :Draught"
participant OponentPiece as "oponentPiece :Piece"

Player -> Board : Select origin square
alt origin == pawn
loop pawn.row + 1 == oponentPiece.row && \n (pawn.column + 1 == oponentPiece.column ||  pawn.column - 1 == oponentPiece.column) && \n there is only one piece between origin and target
Player -> Board : Move pawn to target square
Player -> Board : Delete oponentPiece
end
end
alt origin == draught
loop target is in diagonal with draught && \n there is only one piece between origin and target
Player -> Board : Move draught to target square
Player -> Board : Delete oponentPiece
end
end
@enduml

PlantUML version 1.2021.3(Mon Mar 22 16:53:19 UTC 2021)
(GPL source distribution)
Java Runtime: Java(TM) SE Runtime Environment
JVM: Java HotSpot(TM) 64-Bit Server VM
Default Encoding: UTF-8
Language: en
Country: US
--></g></svg>